<svg xmlns="http://www.w3.org/2000/svg" xmlns:xlink="http://www.w3.org/1999/xlink">
  <defs/>
  <g>
    <path stroke="none" fill="#11141E" d="M-48.2 -64 L48.25 -64 Q64 -64 64 -48.2 L64 48.25 Q64 64 48.25 64 L-48.2 64 Q-64 64 -64 48.25 L-64 -48.2 Q-64 -64 -48.2 -64 M-58 -48.2 L-58 15.25 Q-58 25 -48.2 25 L48.25 25 Q58 25 58 15.25 L58 -48.2 Q58 -58 48.25 -58 L-48.2 -58 Q-58 -58 -58 -48.2"/>
    <path stroke="none" fill="#FFFFFF" d="M-58 -48.2 Q-58 -58 -48.2 -58 L48.25 -58 Q58 -58 58 -48.2 L58 15.25 Q58 25 48.25 25 L-48.2 25 Q-58 25 -58 15.25 L-58 -48.2"/>
    <path stroke="none" fill="#11141E" d="M23.25 -14.4 L28.2 -1.9 Q28.6 -0.8 28.5 0.35 L28.15 4.35 Q28 6.45 26.35 7.8 24.8 9.15 22.75 8.95 L2.65 7.25 Q0.6 7.05 -0.8 5.45 -2.15 3.85 -2 1.75 L-1.65 -2.25 Q-1.55 -3.4 -0.9 -4.4 L6.2 -15.9 6.9 -16.8 Q5.45 -17.85 4.25 -19.2 0.3 -24 0.85 -30.25 1.35 -36.45 6.1 -40.45 10.9 -44.5 17.15 -43.95 23.4 -43.4 27.4 -38.65 31.45 -33.85 30.95 -27.65 30.4 -21.4 25.5 -17.4 L22.65 -15.5 23.25 -14.4 M-11.3 -6.35 L-5.9 2.4 Q-5.4 3.15 -5.3 4.05 L-5 7.2 Q-4.85 8.8 -5.85 10.05 -6.75 11.3 -8.4 11.45 L-23.5 13 Q-25.05 13.15 -26.3 12.15 -27.5 11.1 -27.65 9.5 L-27.95 6.4 Q-28.05 5.5 -27.75 4.7 L-24.15 -5.05 -24.05 -5.15 -25.9 -6.35 Q-29.55 -9.45 -29.95 -14.25 -30.45 -19 -27.55 -22.7 -24.55 -26.45 -19.8 -26.95 -15.1 -27.4 -11.5 -24.35 -7.85 -21.3 -7.35 -16.6 -6.9 -11.75 -9.85 -8 L-11.35 -6.5 -11.3 -6.35"/>
    <path stroke="none" fill="#FFFFFF" d="M12.55 42.6 L12.55 50.1 Q12.55 51.6 11.9 52.65 11.3 53.7 10.15 54.25 L7.55 54.75 5.95 54.55 4.2 53.9 Q3.45 53.45 3.45 52.85 3.45 52.45 3.8 52.1 4.15 51.7 4.5 51.7 L5.6 52 6.7 52.4 7.75 52.5 8.9 52.25 9.65 51.55 9.95 50.45 9.95 49.85 9.9 49.85 Q9.1 51.05 7.3 51.05 6.3 51.05 5.55 50.65 4.8 50.3 4.3 49.55 L3.55 47.95 3.3 46.1 Q3.3 45.1 3.6 44.2 3.9 43.3 4.45 42.6 L5.85 41.45 Q6.6 41.05 7.55 41.05 L8.5 41.2 9.35 41.6 9.95 42.25 Q10.2 41.15 11.25 41.15 L11.9 41.35 12.4 41.85 12.55 42.6 M2.2 42.85 L2.2 49.25 2 50.5 Q1.8 50.95 0.95 50.95 L0.15 50.7 -0.3 49.85 Q-1.3 51.05 -2.75 51.05 -3.95 51.05 -4.95 50.45 -5.9 49.8 -6.5 48.65 -7.05 47.5 -7.05 46.1 -7.05 44.7 -6.45 43.55 -5.9 42.4 -4.9 41.75 -3.95 41.05 -2.75 41.05 L-1.35 41.35 Q-0.7 41.65 -0.3 42.25 L0.1 41.45 Q0.5 41.15 0.95 41.15 1.8 41.15 2 41.65 L2.2 42.85 M9.95 46.15 L9.75 44.85 Q9.5 44.2 9.05 43.85 8.6 43.45 7.9 43.45 7.3 43.45 6.85 43.8 6.35 44.2 6.15 44.8 5.9 45.4 5.9 46.05 5.9 46.75 6.15 47.35 L6.8 48.35 7.9 48.7 Q8.9 48.7 9.45 47.95 9.95 47.2 9.95 46.15 M21.65 46.95 L16.15 46.95 Q16.25 47.85 16.95 48.35 L18.55 48.8 19.6 48.6 20.6 48.1 Q21.25 47.75 21.5 47.75 L22.05 47.9 22.4 48.35 22.55 48.85 22.2 49.65 21.2 50.4 19.8 50.9 18.35 51.05 Q16.9 51.05 15.8 50.45 14.7 49.8 14.1 48.65 13.5 47.5 13.5 46.1 13.5 45.1 13.85 44.2 14.15 43.3 14.8 42.55 15.4 41.85 16.3 41.45 L18.15 41.05 Q19.15 41.05 20 41.5 20.9 41.9 21.5 42.6 L22.45 44.1 Q22.8 44.95 22.8 45.75 22.8 46.95 21.65 46.95 M16.05 45.2 L20.2 45.2 Q20.1 44.3 19.55 43.75 19 43.2 18.15 43.2 17.3 43.2 16.75 43.75 16.2 44.35 16.05 45.2 M30.2 42.95 L29.9 43.75 Q29.6 44.1 29.15 44.1 L28.4 43.85 27.5 43.45 26.8 43.35 26.2 43.5 Q25.95 43.7 25.95 44.05 25.95 44.45 26.7 44.75 L28.35 45.45 Q29.2 45.8 29.85 46.4 30.45 47 30.45 48 30.45 48.9 30 49.6 L28.7 50.65 26.75 51.05 25.15 50.8 Q24.3 50.55 23.7 50.1 23.15 49.6 23.15 49.05 23.15 48.7 23.45 48.3 23.75 47.9 24.25 47.9 L24.85 48.05 25.55 48.35 26.2 48.7 26.95 48.8 27.75 48.65 27.95 48.05 27.2 47.35 25.55 46.65 Q24.65 46.3 24.05 45.7 23.45 45.1 23.45 44.1 23.45 43.2 23.9 42.5 24.35 41.8 25.15 41.45 25.95 41.05 26.95 41.05 L28.45 41.25 Q29.15 41.5 29.7 41.9 30.2 42.35 30.2 42.95 M-31.45 49.1 L-27.8 39.3 -27.05 38.25 Q-26.55 37.8 -25.9 37.8 -25.2 37.8 -24.7 38.2 -24.2 38.6 -23.95 39.3 L-20.45 49.1 -20.3 49.75 -20.45 50.4 -20.9 50.8 -21.55 50.95 Q-22.55 50.95 -22.85 50 L-23.4 48.35 -28.4 48.35 -28.95 50 Q-29.25 50.95 -30.25 50.95 -30.8 50.95 -31.15 50.6 -31.55 50.25 -31.55 49.7 L-31.45 49.1 M-25.9 40.65 L-27.6 45.85 -24.2 45.85 -25.9 40.65 M-15.55 49.5 L-15.55 38.45 Q-15.55 37.8 -15.2 37.4 -14.85 37 -14.25 37 L-13.6 37.15 -13.1 37.7 Q-12.95 38 -12.95 38.45 L-12.95 49.5 Q-12.95 49.95 -13.1 50.25 L-13.6 50.8 -14.25 50.95 Q-14.85 50.95 -15.2 50.55 L-15.55 49.5 M-19.55 49.5 L-19.55 38.45 Q-19.55 37.8 -19.2 37.4 -18.85 37 -18.25 37 L-17.6 37.15 -17.1 37.7 Q-16.95 38 -16.95 38.45 L-16.95 49.5 Q-16.95 49.95 -17.1 50.25 L-17.6 50.8 -18.25 50.95 Q-18.85 50.95 -19.2 50.55 L-19.55 49.5 M-4.45 46.1 L-4.2 47.35 -3.5 48.3 Q-3.05 48.7 -2.4 48.7 -1.45 48.7 -0.9 47.9 -0.4 47.1 -0.4 46.1 L-0.6 44.8 -1.3 43.8 Q-1.75 43.45 -2.4 43.45 -3.05 43.45 -3.5 43.8 L-4.2 44.8 -4.45 46.1"/>
  </g>
</svg>