<svg xmlns="http://www.w3.org/2000/svg" xmlns:xlink="http://www.w3.org/1999/xlink">
  <defs/>
  <g>
    <path stroke="none" fill="#11141E" d="M-58 -48.2 L-58 15.25 Q-58 25 -48.2 25 L48.25 25 Q58 25 58 15.25 L58 -48.2 Q58 -58 48.25 -58 L-48.2 -58 Q-58 -58 -58 -48.2 M-48.2 -64 L48.25 -64 Q64 -64 64 -48.2 L64 48.25 Q64 64 48.25 64 L-48.2 64 Q-64 64 -64 48.25 L-64 -48.2 Q-64 -64 -48.2 -64"/>
    <path stroke="none" fill="#FFFFFF" d="M-58 -48.2 Q-58 -58 -48.2 -58 L48.25 -58 Q58 -58 58 -48.2 L58 15.25 Q58 25 48.25 25 L-48.2 25 Q-58 25 -58 15.25 L-58 -48.2"/>
  </g>
</svg>