<svg xmlns="http://www.w3.org/2000/svg" xmlns:xlink="http://www.w3.org/1999/xlink">
  <defs/>
  <g>
    <path stroke="none" fill="#11141E" d="M-58 -48.2 L-58 15.25 Q-58 25 -48.2 25 L48.25 25 Q58 25 58 15.25 L58 -48.2 Q58 -58 48.25 -58 L-48.2 -58 Q-58 -58 -58 -48.2 M-48.2 -64 L48.25 -64 Q64 -64 64 -48.2 L64 48.25 Q64 64 48.25 64 L-48.2 64 Q-64 64 -64 48.25 L-64 -48.2 Q-64 -64 -48.2 -64"/>
    <path stroke="none" fill="#FFFFFF" d="M-58 -48.2 Q-58 -58 -48.2 -58 L48.25 -58 Q58 -58 58 -48.2 L58 15.25 Q58 25 48.25 25 L-48.2 25 Q-58 25 -58 15.25 L-58 -48.2"/>
    <path stroke="none" fill="#11141E" d="M-9.4 -45.4 Q-8.8 -46 -8 -46 L7.95 -46 Q8.75 -46 9.35 -45.4 9.95 -44.8 9.95 -44 L9.95 -38.05 Q9.95 -37.25 9.35 -36.65 8.75 -36.05 7.95 -36.05 L6.95 -36.05 6.95 -35 Q9.75 -34.25 12.3 -32.75 L14.25 -34.75 14.25 -34.7 Q15.15 -35.75 16.6 -35.6 17.7 -35.5 18.45 -34.75 L24.15 -29.05 Q24.9 -28.3 25 -27.2 L25 -27.15 Q25.1 -25.95 24.45 -25.1 L24.25 -24.85 22.1 -22.65 Q24.95 -17.4 24.95 -10.95 24.95 -0.65 17.6 6.65 10.3 14 0 14 -10.35 14 -17.7 6.65 -25 -0.65 -25 -10.95 -25 -21.3 -17.7 -28.65 -13 -33.35 -7 -35 L-7 -36.05 -8 -36.05 Q-8.8 -36.05 -9.4 -36.65 -10 -37.25 -10 -38.05 L-10 -44 Q-10 -44.8 -9.4 -45.4 M6 -10.95 Q6 -8.5 4.25 -6.75 2.55 -5 0 -5 -2.5 -5 -4.25 -6.75 -6 -8.5 -6 -10.95 -6 -13.45 -4.25 -15.2 L-3.25 -16 -2.55 -24.5 -2.55 -24.55 -2 -25.55 -2.05 -25.55 Q-1.6 -26 -1 -26 L1 -26 Q1.6 -26 2.05 -25.55 2.5 -25.1 2.55 -24.55 L2.55 -24.5 3.3 -16 4.25 -15.2 Q6 -13.45 6 -10.95 M0 -27.95 Q-7.05 -27.95 -12.05 -23 -17 -18 -17 -10.95 -17 -3.95 -12.05 1 -7.05 6 0 6 7 6 11.95 1.05 L12 1 Q16.95 -3.95 16.95 -10.95 16.95 -18 11.95 -23 7 -27.95 0 -27.95"/>
    <path stroke="none" fill="#FFFFFF" d="M36.4 49.5 L36.4 42.6 Q36.4 41.95 36.75 41.55 37.1 41.15 37.7 41.15 L38.5 41.4 38.9 42.1 Q39.65 41.05 41.35 41.05 42.4 41.05 43.2 41.5 44 41.9 44.45 42.7 44.9 43.45 44.9 44.55 L44.9 49.5 44.75 50.25 44.3 50.8 43.6 50.95 Q43.05 50.95 42.7 50.55 42.35 50.15 42.35 49.5 L42.35 45 Q42.35 44.15 41.85 43.7 41.4 43.2 40.65 43.2 40.1 43.2 39.75 43.45 L39.15 44.1 Q39 44.5 39 45 L39 49.5 38.8 50.25 38.35 50.8 37.7 50.95 Q37.1 50.95 36.75 50.55 36.4 50.15 36.4 49.5 M6.3 51.05 Q4.55 51.05 3.5 50.1 2.45 49.1 1.95 47.6 1.5 46.05 1.5 44.45 1.5 42.8 1.95 41.3 2.45 39.8 3.5 38.8 4.55 37.8 6.3 37.8 7.6 37.8 8.5 38.4 9.4 39 10 39.95 L10.8 42.1 11.05 44.45 10.8 46.75 10 48.9 Q9.4 49.9 8.5 50.5 7.6 51.05 6.3 51.05 M6.25 48.6 Q7.1 48.6 7.55 47.9 L8.1 46.25 8.25 44.45 Q8.25 42.8 7.85 41.55 7.45 40.25 6.25 40.25 5.05 40.25 4.7 41.55 4.3 42.85 4.3 44.45 4.3 46 4.7 47.3 5.1 48.6 6.25 48.6 M-4.1 51.05 Q-5.45 51.05 -6.45 50.45 -7.5 49.85 -8.05 48.85 -8.6 47.8 -8.6 46.6 -8.6 45.35 -7.9 43.75 L-6.1 40.75 -4.05 38.4 -3.45 37.95 -2.9 37.8 -2.35 38 -1.85 38.5 -1.65 39.15 Q-1.65 39.4 -2 39.85 L-3.2 41.25 -4.5 42.75 -4.45 42.8 -3.35 42.55 -1.8 42.9 Q-1.15 43.25 -0.65 43.8 L0.15 45.05 0.45 46.6 Q0.45 47.75 -0.15 48.8 -0.7 49.85 -1.75 50.45 -2.8 51.05 -4.1 51.05 M17.05 49.5 L17.05 42.6 Q17.05 41.95 17.4 41.55 17.75 41.15 18.35 41.15 L19.15 41.4 19.55 42.15 Q20.5 41.05 21.95 41.05 23.55 41.05 24.6 42.35 L25.9 41.4 Q26.7 41.05 27.35 41.05 L29.2 41.45 Q30 41.85 30.45 42.65 30.9 43.45 30.9 44.55 L30.9 49.5 30.75 50.25 30.25 50.8 29.6 50.95 Q29 50.95 28.65 50.55 28.3 50.15 28.3 49.5 L28.3 45 28.15 44.05 27.6 43.45 26.8 43.2 Q26.1 43.2 25.7 43.7 25.25 44.2 25.25 45 L25.25 49.5 25.1 50.25 24.65 50.8 23.95 50.95 Q23.4 50.95 23.05 50.55 22.65 50.15 22.65 49.5 L22.65 45 22.5 44.05 21.95 43.45 Q21.65 43.2 21.15 43.2 L20.3 43.45 19.8 44.05 Q19.65 44.45 19.65 45 L19.65 49.5 19.45 50.25 19 50.8 18.35 50.95 Q17.75 50.95 17.4 50.55 17.05 50.15 17.05 49.5 M33.65 37.3 L34.35 37.5 34.9 38 35.1 38.7 Q35.1 39.3 34.7 39.75 34.25 40.2 33.65 40.2 33.05 40.2 32.65 39.75 32.2 39.3 32.2 38.7 32.2 38.15 32.65 37.7 33.05 37.3 33.65 37.3 M32.35 49.5 L32.35 42.6 Q32.35 41.95 32.7 41.55 33.05 41.15 33.65 41.15 L34.3 41.35 34.8 41.85 34.95 42.6 34.95 49.5 34.8 50.25 34.3 50.8 33.65 50.95 Q33.05 50.95 32.7 50.55 32.35 50.15 32.35 49.5 M-31.8 40.5 L-32.05 42.45 -30.7 42.25 Q-29.65 42.25 -28.8 42.75 -27.95 43.25 -27.45 44.15 -27 45.05 -27 46.1 -27 47.2 -27.3 48.1 -27.6 49.05 -28.2 49.7 L-29.7 50.7 -31.75 51.05 -33.45 50.8 Q-34.35 50.5 -35.05 49.95 -35.7 49.35 -35.7 48.65 L-35.55 48.05 -35.1 47.6 -34.5 47.45 Q-34.2 47.45 -33.6 47.8 L-32.6 48.4 -31.7 48.6 Q-30.8 48.6 -30.3 47.85 -29.8 47.15 -29.8 46.25 L-30 45.3 -30.6 44.65 -31.5 44.4 Q-32.05 44.4 -32.65 44.7 L-33.65 45 Q-34.15 45 -34.4 44.7 L-34.7 44.15 -34.7 43.9 -34.65 43.55 -34.2 39.75 -34 38.85 -33.75 38.35 -33.35 38.1 -32.8 38.05 -28.45 38.05 Q-27.85 38.05 -27.5 38.35 -27.15 38.7 -27.15 39.15 -27.15 40 -27.55 40.25 L-28.4 40.5 -31.8 40.5 M-40.75 48 L-45.1 48 -46.05 47.7 -46.35 46.95 -46.1 46.15 -42.1 38.85 -41.35 38.05 -40.25 37.8 -39.2 38.05 Q-38.75 38.3 -38.45 38.85 -38.15 39.35 -38.15 40.1 L-38.15 45.65 -37.85 45.65 -37.25 45.8 -36.75 46.2 Q-36.6 46.5 -36.6 46.85 L-36.75 47.45 -37.25 47.9 -37.85 48 -38.15 48 -38.15 49.55 Q-38.15 50.3 -38.45 50.6 -38.75 50.95 -39.45 50.95 -40.15 50.95 -40.45 50.6 -40.75 50.3 -40.75 49.55 L-40.75 48 M-19.5 44.5 L-15.7 44.5 Q-15.2 44.55 -14.9 44.85 -14.65 45.15 -14.65 45.65 -14.65 46.1 -14.9 46.4 -15.2 46.75 -15.7 46.75 L-19.5 46.75 -20.25 46.45 -20.55 45.65 -20.25 44.85 Q-20 44.55 -19.5 44.5 M-4.05 44.75 L-4.95 45 -5.6 45.65 -5.8 46.6 Q-5.8 47.4 -5.3 47.95 -4.85 48.5 -4.05 48.5 -3.3 48.5 -2.85 47.95 -2.35 47.4 -2.35 46.6 L-2.55 45.7 -3.15 45 -4.05 44.75 M-40.75 45.65 L-40.75 40.65 -40.8 40.65 -43.25 45.65 -40.75 45.65"/>
  </g>
</svg>