<svg xmlns="http://www.w3.org/2000/svg" xmlns:xlink="http://www.w3.org/1999/xlink">
  <defs/>
  <g>
    <path stroke="none" fill="#11141E" d="M-58 -48.2 L-58 15.25 Q-58 25 -48.2 25 L48.25 25 Q58 25 58 15.25 L58 -48.2 Q58 -58 48.25 -58 L-48.2 -58 Q-58 -58 -58 -48.2 M-48.2 -64 L48.25 -64 Q64 -64 64 -48.2 L64 48.25 Q64 64 48.25 64 L-48.2 64 Q-64 64 -64 48.25 L-64 -48.2 Q-64 -64 -48.2 -64"/>
    <path stroke="none" fill="#FFFFFF" d="M-58 -48.2 Q-58 -58 -48.2 -58 L48.25 -58 Q58 -58 58 -48.2 L58 15.25 Q58 25 48.25 25 L-48.2 25 Q-58 25 -58 15.25 L-58 -48.2"/>
    <path stroke="none" fill="#11141E" d="M-9.4 -45.4 Q-8.8 -46 -8 -46 L7.95 -46 Q8.75 -46 9.35 -45.4 9.95 -44.8 9.95 -44 L9.95 -38.05 Q9.95 -37.25 9.35 -36.65 8.75 -36.05 7.95 -36.05 L6.95 -36.05 6.95 -35 Q9.75 -34.25 12.3 -32.75 L14.25 -34.75 14.25 -34.7 Q15.15 -35.75 16.6 -35.6 17.7 -35.5 18.45 -34.75 L24.15 -29.05 Q24.9 -28.3 25 -27.2 L25 -27.15 Q25.1 -25.95 24.45 -25.1 L24.25 -24.85 22.1 -22.65 Q24.95 -17.4 24.95 -10.95 24.95 -0.65 17.6 6.65 10.3 14 0 14 -10.35 14 -17.7 6.65 -25 -0.65 -25 -10.95 -25 -21.3 -17.7 -28.65 -13 -33.35 -7 -35 L-7 -36.05 -8 -36.05 Q-8.8 -36.05 -9.4 -36.65 -10 -37.25 -10 -38.05 L-10 -44 Q-10 -44.8 -9.4 -45.4 M6 -10.95 Q6 -8.5 4.25 -6.75 2.55 -5 0 -5 -2.5 -5 -4.25 -6.75 -6 -8.5 -6 -10.95 -6 -13.45 -4.25 -15.2 L-3.25 -16 -2.55 -24.5 -2.55 -24.55 -2 -25.55 -2.05 -25.55 Q-1.6 -26 -1 -26 L1 -26 Q1.6 -26 2.05 -25.55 2.5 -25.1 2.55 -24.55 L2.55 -24.5 3.3 -16 4.25 -15.2 Q6 -13.45 6 -10.95 M0 -27.95 Q-7.05 -27.95 -12.05 -23 -17 -18 -17 -10.95 -17 -3.95 -12.05 1 -7.05 6 0 6 7 6 11.95 1.05 L12 1 Q16.95 -3.95 16.95 -10.95 16.95 -18 11.95 -23 7 -27.95 0 -27.95"/>
    <path stroke="none" fill="#FFFFFF" d="M46.2 42.95 L45.9 43.75 Q45.6 44.1 45.15 44.1 L44.4 43.85 43.5 43.45 42.8 43.35 42.2 43.5 Q41.95 43.7 41.95 44.05 41.95 44.45 42.7 44.75 L44.35 45.45 Q45.2 45.8 45.85 46.4 46.45 47 46.45 48 46.45 48.9 46 49.6 L44.7 50.65 42.75 51.05 41.15 50.8 Q40.3 50.55 39.7 50.1 39.15 49.6 39.15 49.05 39.15 48.7 39.45 48.3 39.75 47.9 40.25 47.9 L40.85 48.05 41.55 48.35 42.2 48.7 42.95 48.8 43.75 48.65 43.95 48.05 Q43.95 47.7 43.2 47.35 L41.55 46.65 Q40.65 46.3 40.05 45.7 39.45 45.1 39.45 44.1 39.45 43.2 39.9 42.5 40.35 41.8 41.15 41.45 L42.95 41.05 44.45 41.25 Q45.15 41.5 45.7 41.9 46.2 42.35 46.2 42.95 M4.7 49.5 L4.7 42.6 Q4.7 41.95 5.05 41.55 5.4 41.15 6 41.15 L6.8 41.4 7.2 42.1 Q7.95 41.05 9.65 41.05 L11.5 41.5 Q12.3 41.9 12.75 42.7 13.2 43.45 13.2 44.55 L13.2 49.5 13.05 50.25 12.6 50.8 11.9 50.95 Q11.35 50.95 11 50.55 10.65 50.15 10.65 49.5 L10.65 45 Q10.65 44.15 10.15 43.7 9.7 43.2 8.95 43.2 L8.05 43.45 7.45 44.1 Q7.3 44.5 7.3 45 L7.3 49.5 7.1 50.25 6.65 50.8 6 50.95 Q5.4 50.95 5.05 50.55 4.7 50.15 4.7 49.5 M1.95 37.3 L2.65 37.5 3.2 38 3.4 38.7 Q3.4 39.3 3 39.75 L1.95 40.2 Q1.35 40.2 0.95 39.75 0.5 39.3 0.5 38.7 0.5 38.15 0.95 37.7 1.35 37.3 1.95 37.3 M0.65 49.5 L0.65 42.6 Q0.65 41.95 1 41.55 1.35 41.15 1.95 41.15 L2.6 41.35 3.1 41.85 3.25 42.6 3.25 49.5 3.1 50.25 2.6 50.8 1.95 50.95 Q1.35 50.95 1 50.55 0.65 50.15 0.65 49.5 M14.7 47.3 L14.7 42.6 Q14.7 41.95 15.05 41.55 15.4 41.15 16 41.15 L16.65 41.35 17.1 41.85 17.3 42.6 17.3 47.25 Q17.3 48 17.8 48.45 L18.95 48.9 19.8 48.7 20.4 48.15 20.65 47.25 20.65 42.6 Q20.65 41.95 21 41.55 21.35 41.15 21.9 41.15 L22.6 41.35 23.05 41.85 23.2 42.6 23.2 47.3 Q23.2 48.45 22.75 49.3 22.25 50.15 21.25 50.6 L18.95 51.05 Q16.9 51.05 15.8 50.05 14.7 49.05 14.7 47.3 M25.3 49.5 L25.3 43.55 24.75 43.55 Q24.25 43.55 23.9 43.25 23.6 42.9 23.6 42.4 23.6 41.9 23.95 41.6 24.25 41.25 24.75 41.25 L25.3 41.25 25.3 39.7 Q25.3 39.1 25.7 38.7 26.05 38.3 26.6 38.3 L27.3 38.45 27.75 39 27.9 39.7 27.9 41.25 28.65 41.25 Q29.2 41.25 29.55 41.55 29.9 41.8 29.9 42.4 29.9 43 29.55 43.25 L28.65 43.55 27.9 43.55 27.9 49.5 27.75 50.25 27.3 50.75 26.6 50.95 Q26.05 50.95 25.7 50.55 25.3 50.15 25.3 49.5 M37.65 46.95 L32.15 46.95 Q32.25 47.85 32.95 48.35 L34.55 48.8 35.6 48.6 36.6 48.1 Q37.25 47.75 37.5 47.75 L38.05 47.9 38.4 48.35 38.55 48.85 Q38.55 49.3 38.2 49.65 L37.2 50.4 35.8 50.9 34.35 51.05 Q32.9 51.05 31.8 50.45 30.7 49.8 30.1 48.65 29.5 47.5 29.5 46.1 29.5 45.1 29.85 44.2 30.15 43.3 30.8 42.55 31.4 41.85 32.3 41.45 L34.15 41.05 Q35.15 41.05 36 41.5 36.9 41.9 37.5 42.6 L38.45 44.1 Q38.8 44.95 38.8 45.75 38.8 46.95 37.65 46.95 M32.05 45.2 L36.2 45.2 Q36.1 44.3 35.55 43.75 35 43.2 34.15 43.2 33.3 43.2 32.75 43.75 32.2 44.35 32.05 45.2 M-36.1 48.5 L-32.85 48.5 Q-32.2 48.5 -31.8 48.8 -31.45 49.05 -31.45 49.65 -31.45 50.25 -31.8 50.55 L-32.7 50.85 -38.75 50.85 -39.75 50.55 Q-40.15 50.25 -40.15 49.65 -40.15 49.25 -39.75 48.75 L-38.65 47.5 -37.45 46.1 -36.25 44.75 -35.25 43.35 Q-34.6 42.45 -34.6 41.7 -34.6 41.15 -35 40.7 -35.35 40.3 -35.9 40.3 -36.6 40.3 -36.9 40.7 L-37.45 41.8 -37.9 42.85 Q-38.15 43.2 -38.7 43.2 -39.3 43.2 -39.7 42.85 -40.05 42.45 -40.05 41.9 -40.05 40.8 -39.45 39.85 -38.85 38.9 -37.85 38.35 -36.9 37.8 -35.8 37.8 -34.7 37.8 -33.75 38.3 -32.85 38.75 -32.35 39.6 -31.8 40.45 -31.8 41.55 -31.8 42.4 -32.2 43.35 L-33.3 45.1 -34.8 46.95 -36.1 48.5 M-25.4 51.05 Q-27.15 51.05 -28.2 50.1 -29.25 49.1 -29.75 47.6 L-30.2 44.45 Q-30.2 42.8 -29.75 41.3 -29.25 39.8 -28.2 38.8 -27.15 37.8 -25.4 37.8 -24.1 37.8 -23.2 38.4 -22.3 39 -21.7 39.95 -21.15 40.95 -20.9 42.1 -20.65 43.25 -20.65 44.45 -20.65 45.6 -20.9 46.75 -21.15 47.95 -21.7 48.9 -22.3 49.9 -23.2 50.5 -24.1 51.05 -25.4 51.05 M-25.45 48.6 Q-24.6 48.6 -24.15 47.9 -23.75 47.2 -23.6 46.25 L-23.45 44.45 Q-23.45 42.8 -23.85 41.55 -24.25 40.25 -25.45 40.25 -26.65 40.25 -27 41.55 -27.4 42.85 -27.4 44.45 -27.4 46 -27 47.3 -26.6 48.6 -25.45 48.6 M-14.65 49.5 L-14.65 42.6 Q-14.65 41.95 -14.3 41.55 -13.95 41.15 -13.35 41.15 -12.85 41.15 -12.55 41.4 L-12.15 42.15 Q-11.2 41.05 -9.75 41.05 -8.15 41.05 -7.1 42.35 L-5.8 41.4 Q-5 41.05 -4.35 41.05 -3.3 41.05 -2.5 41.45 -1.7 41.85 -1.25 42.65 -0.8 43.45 -0.8 44.55 L-0.8 49.5 Q-0.8 49.95 -0.95 50.25 L-1.45 50.8 -2.1 50.95 Q-2.7 50.95 -3.05 50.55 L-3.4 49.5 -3.4 45 Q-3.4 44.45 -3.55 44.05 L-4.1 43.45 Q-4.45 43.2 -4.9 43.2 -5.6 43.2 -6 43.7 -6.45 44.2 -6.45 45 L-6.45 49.5 Q-6.45 49.95 -6.6 50.25 L-7.05 50.8 -7.75 50.95 Q-8.3 50.95 -8.65 50.55 -9.05 50.15 -9.05 49.5 L-9.05 45 Q-9.05 44.45 -9.2 44.05 L-9.75 43.45 -10.55 43.2 -11.4 43.45 -11.9 44.05 -12.05 45 -12.05 49.5 -12.25 50.25 -12.7 50.8 -13.35 50.95 Q-13.95 50.95 -14.3 50.55 L-14.65 49.5 M-44.85 49.55 L-44.85 40.5 -45.95 40.5 Q-46.55 40.5 -46.85 40.15 L-47.15 39.3 Q-47.15 38.8 -46.8 38.4 -46.5 38.05 -45.95 38.05 L-43.35 38.05 Q-42.8 38.05 -42.5 38.4 -42.15 38.75 -42.15 39.3 L-42.15 49.55 Q-42.15 50.25 -42.55 50.6 -42.9 50.95 -43.5 50.95 L-44.5 50.6 Q-44.85 50.2 -44.85 49.55"/>
  </g>
</svg>