<svg xmlns="http://www.w3.org/2000/svg" xmlns:xlink="http://www.w3.org/1999/xlink">
  <defs/>
  <g>
    <path stroke="none" fill="#11141E" d="M-58 -48.2 L-58 15.25 Q-58 25 -48.2 25 L48.25 25 Q58 25 58 15.25 L58 -48.2 Q58 -58 48.25 -58 L-48.2 -58 Q-58 -58 -58 -48.2 M-48.2 -64 L48.25 -64 Q64 -64 64 -48.2 L64 48.25 Q64 64 48.25 64 L-48.2 64 Q-64 64 -64 48.25 L-64 -48.2 Q-64 -64 -48.2 -64"/>
    <path stroke="none" fill="#FFFFFF" d="M-58 -48.2 Q-58 -58 -48.2 -58 L48.25 -58 Q58 -58 58 -48.2 L58 15.25 Q58 25 48.25 25 L-48.2 25 Q-58 25 -58 15.25 L-58 -48.2"/>
    <path stroke="none" fill="#11141E" d="M-15.95 -21.5 L-6.65 -23.8 -1.65 -32.05 Q-1.3 -32.65 -0.6 -32.85 0 -33.1 0.7 -32.85 1.35 -32.65 1.7 -32.05 L6.7 -23.8 16 -21.5 Q16.65 -21.3 17.1 -20.75 17.55 -20.2 17.5 -19.45 17.5 -18.75 17.05 -18.2 L10.85 -10.8 11.55 -1.15 Q11.6 -0.45 11.2 0.15 L10.15 0.95 8.85 0.85 0 -2.85 -8.8 0.85 -10.15 0.95 -11.2 0.15 Q-11.6 -0.45 -11.55 -1.15 L-10.8 -10.8 -17 -18.2 Q-17.5 -18.75 -17.5 -19.45 -17.55 -20.2 -17.1 -20.75 -16.65 -21.3 -15.95 -21.5"/>
    <path stroke="none" fill="#11141E" d="M18.05 -3.1 L25.05 -4.85 28.8 -11.05 29.6 -11.65 30.55 -11.65 31.3 -11.05 35.05 -4.85 42.05 -3.1 42.85 -2.55 Q43.2 -2.15 43.15 -1.6 43.15 -1.05 42.8 -0.65 L38.15 4.9 38.7 12.15 38.45 13.1 37.65 13.7 36.65 13.65 30.05 10.85 23.45 13.65 22.4 13.7 21.65 13.1 Q21.35 12.65 21.35 12.15 L21.95 4.9 17.3 -0.65 Q16.9 -1.05 16.9 -1.6 16.85 -2.15 17.2 -2.55 17.55 -2.95 18.05 -3.1"/>
    <path stroke="none" fill="#11141E" d="M-41.95 -3.1 L-34.95 -4.85 -31.2 -11.05 Q-30.95 -11.5 -30.4 -11.65 L-29.45 -11.65 -28.7 -11.05 -24.95 -4.85 -17.95 -3.1 Q-17.5 -2.95 -17.15 -2.55 -16.8 -2.15 -16.85 -1.6 -16.85 -1.05 -17.2 -0.65 L-21.85 4.9 -21.3 12.15 Q-21.25 12.65 -21.55 13.1 L-22.35 13.7 -23.35 13.65 -29.95 10.85 -36.55 13.65 -37.6 13.7 -38.35 13.1 -38.65 12.15 -38.05 4.9 -42.7 -0.65 Q-43.1 -1.05 -43.1 -1.6 -43.15 -2.15 -42.8 -2.55 L-41.95 -3.1"/>
    <path stroke="none" fill="#11141E" d="M18.05 -39.1 L25.05 -40.85 28.8 -47.05 29.6 -47.65 30.55 -47.65 31.3 -47.05 35.05 -40.85 42.05 -39.1 42.85 -38.55 Q43.2 -38.15 43.15 -37.6 43.15 -37.05 42.8 -36.65 L38.15 -31.1 38.7 -23.85 Q38.75 -23.35 38.45 -22.9 L37.65 -22.3 36.65 -22.35 30.05 -25.15 23.45 -22.35 22.4 -22.3 21.65 -22.9 Q21.35 -23.35 21.35 -23.85 L21.95 -31.1 17.3 -36.65 Q16.9 -37.05 16.9 -37.6 16.85 -38.15 17.2 -38.55 17.55 -38.95 18.05 -39.1"/>
    <path stroke="none" fill="#11141E" d="M-41.95 -39.1 L-34.95 -40.85 -31.2 -47.05 Q-30.95 -47.5 -30.4 -47.65 L-29.45 -47.65 -28.7 -47.05 -24.95 -40.85 -17.95 -39.1 Q-17.5 -38.95 -17.15 -38.55 -16.8 -38.15 -16.85 -37.6 -16.85 -37.05 -17.2 -36.65 L-21.85 -31.1 -21.3 -23.85 Q-21.25 -23.35 -21.55 -22.9 L-22.35 -22.3 -23.35 -22.35 -29.95 -25.15 -36.55 -22.35 -37.6 -22.3 -38.35 -22.9 -38.65 -23.85 -38.05 -31.1 -42.7 -36.65 Q-43.1 -37.05 -43.1 -37.6 -43.15 -38.15 -42.8 -38.55 L-41.95 -39.1"/>
  </g>
</svg>