<svg xmlns="http://www.w3.org/2000/svg" xmlns:xlink="http://www.w3.org/1999/xlink">
  <defs/>
  <g>
    <path stroke="none" fill="#11141E" d="M-58 -48.2 L-58 15.25 Q-58 25 -48.2 25 L48.25 25 Q58 25 58 15.25 L58 -48.2 Q58 -58 48.25 -58 L-48.2 -58 Q-58 -58 -58 -48.2 M-48.2 -64 L48.25 -64 Q64 -64 64 -48.2 L64 48.25 Q64 64 48.25 64 L-48.2 64 Q-64 64 -64 48.25 L-64 -48.2 Q-64 -64 -48.2 -64"/>
    <path stroke="none" fill="#FFFFFF" d="M-58 -48.2 Q-58 -58 -48.2 -58 L48.25 -58 Q58 -58 58 -48.2 L58 15.25 Q58 25 48.25 25 L-48.2 25 Q-58 25 -58 15.25 L-58 -48.2"/>
    <path stroke="none" fill="#11141E" d="M-12.45 -2.8 Q-12.95 -2.95 -13.3 -3.35 L-13.7 -4.2 -13.6 -5.15 -10.25 -13.15 -9.25 -14.1 Q-8.6 -14.35 -7.85 -14.1 -7.2 -13.8 -6.95 -13.15 -6.65 -12.45 -6.95 -11.75 2.05 -16.8 8.65 -13.65 9.95 -13.1 10.55 -11.7 11.15 -10.35 10.55 -9 9.95 -7.65 8.65 -7.1 7.25 -6.5 5.9 -7.1 1.3 -8.65 -5.4 -4.35 L-4.75 -4.2 Q-4.05 -3.95 -3.7 -3.3 -3.4 -2.65 -3.6 -1.95 -3.8 -1.25 -4.45 -0.9 L-5.8 -0.8 -12.45 -2.8 M11.85 -3.05 L12.65 -2.5 13.1 -1.6 12.95 -0.65 12.55 0.4 12.5 0.55 11.75 2.3 9.6 7.35 Q9.3 8 8.65 8.25 7.95 8.55 7.3 8.25 6.6 7.95 6.3 7.3 6.05 6.6 6.3 5.95 -2.65 10.9 -9.25 7.85 -10.65 7.35 -11.15 5.95 -11.75 4.6 -11.2 3.25 -10.65 1.85 -9.3 1.35 L-6.55 1.3 Q-1.9 2.85 4.8 -1.45 L4.2 -1.6 Q3.5 -1.85 3.1 -2.5 2.75 -3.15 3 -3.85 3.15 -4.55 3.85 -4.9 L5.2 -5.05 11.85 -3.05 M24.05 8.9 L12.8 7.4 14.4 3.5 15.2 1.5 15.6 0.55 Q16.15 -0.65 15.95 -1.85 15.7 -3.15 15 -4.1 L14.9 -4.15 Q14.05 -5.1 12.8 -5.5 L11.45 -5.9 Q12.35 -6.8 12.9 -8.05 L12.95 -8.1 Q13.95 -10.4 13.05 -12.8 L12.95 -12.85 Q12 -15.2 9.65 -16.2 L9.75 -16.1 9.65 -16.15 9.1 -16.85 Q5.7 -21.25 6.45 -26.75 7.15 -32.2 11.6 -35.6 16 -38.95 21.45 -38.15 26.95 -37.4 30.3 -33.05 33.6 -28.6 32.9 -23.15 32.15 -17.65 27.75 -14.35 26.5 -13.3 25.05 -12.7 L25.5 -11.75 29.35 -0.45 Q29.65 0.55 29.5 1.5 L29.05 5.05 Q28.8 6.9 27.3 8 25.85 9.1 24.05 8.9 M-24 6.2 Q-25.85 6.45 -27.3 5.35 -28.8 4.2 -29.05 2.4 L-29.5 -1.15 Q-29.65 -2.15 -29.3 -3.1 L-25.5 -14.4 -25.05 -15.35 Q-26.45 -16 -27.75 -17 -32.1 -20.35 -32.85 -25.8 -33.6 -31.3 -30.3 -35.75 -26.95 -40.1 -21.45 -40.85 -15.95 -41.6 -11.6 -38.25 -7.15 -34.9 -6.45 -29.4 -5.7 -23.95 -9.05 -19.55 -10.05 -18.25 -11.2 -17.25 L-10.6 -16.5 Q-12.05 -15.75 -12.75 -14.25 L-14.75 -9.35 Q-15.45 -8.4 -15.65 -7.3 L-16.1 -6.35 Q-16.65 -5.1 -16.35 -3.9 -16.2 -2.65 -15.4 -1.7 L-15.35 -1.65 Q-14.55 -0.65 -13.3 -0.25 L-11.95 0.15 Q-12.85 1 -13.4 2.25 L-13.45 2.3 Q-13.9 3.55 -13.9 4.85 L-24 6.2"/>
  </g>
</svg>