<svg xmlns="http://www.w3.org/2000/svg" xmlns:xlink="http://www.w3.org/1999/xlink">
  <defs/>
  <g>
    <path stroke="none" fill="#11141E" d="M-48.2 -64 L48.25 -64 Q64 -64 64 -48.2 L64 48.25 Q64 64 48.25 64 L-48.2 64 Q-64 64 -64 48.25 L-64 -48.2 Q-64 -64 -48.2 -64 M-58 -48.2 L-58 15.25 Q-58 25 -48.2 25 L48.25 25 Q58 25 58 15.25 L58 -48.2 Q58 -58 48.25 -58 L-48.2 -58 Q-58 -58 -58 -48.2"/>
    <path stroke="none" fill="#FFFFFF" d="M-58 -48.2 Q-58 -58 -48.2 -58 L48.25 -58 Q58 -58 58 -48.2 L58 15.25 Q58 25 48.25 25 L-48.2 25 Q-58 25 -58 15.25 L-58 -48.2"/>
    <path stroke="none" fill="#11141E" d="M-16.45 -21.5 L-7.15 -23.8 -2.15 -32.05 Q-1.8 -32.65 -1.1 -32.85 -0.5 -33.1 0.2 -32.85 0.85 -32.65 1.2 -32.05 L6.2 -23.8 15.5 -21.5 16.6 -20.75 Q17.05 -20.2 17 -19.45 17 -18.75 16.55 -18.2 L10.35 -10.8 11.05 -1.15 Q11.1 -0.45 10.7 0.15 10.3 0.7 9.65 0.95 L8.35 0.85 -0.5 -2.85 -9.3 0.85 -10.65 0.95 -11.7 0.15 Q-12.1 -0.45 -12.05 -1.15 L-11.3 -10.8 -17.5 -18.2 Q-18 -18.75 -18 -19.45 -18.05 -20.2 -17.6 -20.75 -17.15 -21.3 -16.45 -21.5"/>
  </g>
</svg>