<svg xmlns="http://www.w3.org/2000/svg" xmlns:xlink="http://www.w3.org/1999/xlink">
  <defs/>
  <g>
    <path stroke="none" fill="#11141E" d="M-58 -48.2 L-58 15.25 Q-58 25 -48.2 25 L48.25 25 Q58 25 58 15.25 L58 -48.2 Q58 -58 48.25 -58 L-48.2 -58 Q-58 -58 -58 -48.2 M-48.2 -64 L48.25 -64 Q64 -64 64 -48.2 L64 48.25 Q64 64 48.25 64 L-48.2 64 Q-64 64 -64 48.25 L-64 -48.2 Q-64 -64 -48.2 -64"/>
    <path stroke="none" fill="#FFFFFF" d="M-58 -48.2 Q-58 -58 -48.2 -58 L48.25 -58 Q58 -58 58 -48.2 L58 15.25 Q58 25 48.25 25 L-48.2 25 Q-58 25 -58 15.25 L-58 -48.2"/>
    <path stroke="none" fill="#11141E" d="M29.6 -8.4 L28.5 -5.35 Q28.15 -4.55 27.45 -4.2 26.75 -3.85 25.95 -4.2 L23.1 -5.3 21.55 -1.25 Q21.25 -0.45 20.55 -0.1 L19 -0.15 15.65 -1.5 Q14.85 -1.8 14.6 -2.5 14.3 -3.3 14.6 -4.1 L16.1 -8.15 13.2 -9.3 Q12.45 -9.6 12.15 -10.4 11.8 -11.15 12.15 -11.95 L13.25 -15 Q13.55 -15.8 14.3 -16.1 L15.8 -16.2 17.75 -15.4 23.95 -32.05 Q24.25 -32.85 25 -33.15 L28.6 -34.8 30.05 -34.85 Q30.85 -34.55 31.25 -33.75 L32.8 -30 Q33.1 -29.3 32.8 -28.5 L26.6 -11.85 28.55 -11.1 Q29.35 -10.75 29.6 -9.9 29.9 -9.2 29.6 -8.4 M6.1 -12.2 L12.1 -0.2 Q12.6 0.85 12.6 2 L12.6 6 Q12.6 8.1 11.15 9.55 9.7 11 7.6 11 L-12.4 11 Q-14.45 11 -15.9 9.55 L-16.2 9.25 Q-13.05 7.3 -10.45 4.1 -5.1 -2.4 -4.75 -12.2 -4.6 -14.8 -6.35 -16.7 -7.95 -18.5 -10.4 -18.75 L-10.45 -18.75 Q-13.45 -19.15 -16.45 -21.35 L-16.6 -21.45 -16.75 -21.55 Q-17.4 -23.65 -17.4 -26 -17.4 -32.2 -13.05 -36.6 -8.65 -41 -2.4 -41 3.8 -41 8.15 -36.6 12.6 -32.2 12.6 -26 12.6 -19.75 8.15 -15.4 L5.45 -13.2 6.1 -12.2 M-10.85 -14.8 Q-9.9 -14.7 -9.3 -14 -8.65 -13.3 -8.75 -12.35 -9.05 -4 -13.55 1.55 -15.3 3.75 -17.4 5.25 -18.55 6.05 -19.8 6.65 L-20.85 6.85 -21.85 6.65 Q-25.4 4.95 -28.15 1.55 -32.65 -4 -33 -12.35 -33.05 -13.3 -32.4 -14 -31.8 -14.7 -30.85 -14.8 -26.9 -15.15 -22.85 -18.15 -21.95 -18.75 -20.85 -18.75 -19.75 -18.75 -18.85 -18.15 -15.8 -15.9 -12.8 -15.15 L-10.85 -14.8"/>
    <path stroke="none" fill="#FFFFFF" d="M3.5 49.5 L3.5 43.55 2.95 43.55 Q2.45 43.55 2.1 43.25 1.8 42.9 1.8 42.4 1.8 41.9 2.15 41.6 2.45 41.25 2.95 41.25 L3.5 41.25 3.5 39.7 Q3.5 39.1 3.9 38.7 4.25 38.3 4.8 38.3 L5.5 38.45 5.95 39 6.1 39.7 6.1 41.25 6.85 41.25 Q7.4 41.25 7.75 41.55 8.1 41.8 8.1 42.4 8.1 43 7.75 43.25 L6.85 43.55 6.1 43.55 6.1 49.5 5.95 50.25 5.5 50.75 Q5.2 50.95 4.8 50.95 4.25 50.95 3.9 50.55 3.5 50.15 3.5 49.5 M8.25 47.3 L8.25 42.6 Q8.25 41.95 8.6 41.55 8.95 41.15 9.55 41.15 L10.2 41.35 10.65 41.85 10.85 42.6 10.85 47.25 Q10.85 48 11.35 48.45 11.8 48.9 12.5 48.9 L13.35 48.7 13.95 48.15 14.2 47.25 14.2 42.6 Q14.2 41.95 14.55 41.55 14.9 41.15 15.45 41.15 L16.15 41.35 16.6 41.85 16.75 42.6 16.75 47.3 Q16.75 48.45 16.3 49.3 15.8 50.15 14.8 50.6 L12.5 51.05 Q10.45 51.05 9.35 50.05 8.25 49.05 8.25 47.3 M1.4 42.85 L1.4 49.25 1.2 50.5 Q1 50.95 0.15 50.95 L-0.65 50.7 -1.1 49.85 Q-2.1 51.05 -3.55 51.05 -4.75 51.05 -5.75 50.45 L-7.3 48.65 Q-7.85 47.5 -7.85 46.1 -7.85 44.7 -7.25 43.55 -6.7 42.4 -5.7 41.75 -4.75 41.05 -3.55 41.05 L-2.15 41.35 Q-1.5 41.65 -1.1 42.25 L-0.7 41.45 Q-0.3 41.15 0.15 41.15 1 41.15 1.2 41.65 L1.4 42.85 M18.2 49.5 L18.2 42.45 Q18.2 41.85 18.6 41.5 19 41.15 19.55 41.15 20.8 41.15 20.8 42.25 L20.85 42.25 21.65 41.4 22.65 41.15 Q23.15 41.15 23.55 41.5 23.9 41.9 23.9 42.55 L23.7 43.15 23.15 43.5 22.35 43.8 21.2 44.5 Q20.8 44.85 20.8 45.55 L20.8 49.5 20.65 50.25 20.15 50.8 19.5 50.95 Q18.9 50.95 18.55 50.55 18.2 50.15 18.2 49.5 M31.85 46.95 L26.35 46.95 Q26.45 47.85 27.15 48.35 L28.75 48.8 29.8 48.6 30.8 48.1 Q31.45 47.75 31.7 47.75 L32.25 47.9 32.6 48.35 32.75 48.85 32.4 49.65 31.4 50.4 30 50.9 28.55 51.05 Q27.1 51.05 26 50.45 24.9 49.8 24.3 48.65 23.7 47.5 23.7 46.1 23.7 45.1 24.05 44.2 24.35 43.3 25 42.55 25.6 41.85 26.5 41.45 27.35 41.05 28.35 41.05 29.35 41.05 30.2 41.5 L31.7 42.6 32.65 44.1 Q33 44.95 33 45.75 33 46.95 31.85 46.95 M26.25 45.2 L30.4 45.2 Q30.3 44.3 29.75 43.75 29.2 43.2 28.35 43.2 27.5 43.2 26.95 43.75 26.4 44.35 26.25 45.2 M40.4 42.95 L40.1 43.75 Q39.8 44.1 39.35 44.1 L38.6 43.85 37.7 43.45 37 43.35 36.4 43.5 Q36.15 43.7 36.15 44.05 36.15 44.45 36.9 44.75 L38.55 45.45 Q39.4 45.8 40.05 46.4 40.65 47 40.65 48 40.65 48.9 40.2 49.6 39.7 50.25 38.9 50.65 L36.95 51.05 35.35 50.8 33.9 50.1 Q33.35 49.6 33.35 49.05 33.35 48.7 33.65 48.3 33.95 47.9 34.45 47.9 L35.05 48.05 35.75 48.35 36.4 48.7 37.15 48.8 37.95 48.65 38.15 48.05 Q38.15 47.7 37.4 47.35 L35.75 46.65 Q34.85 46.3 34.25 45.7 33.65 45.1 33.65 44.1 33.65 43.2 34.1 42.5 34.55 41.8 35.35 41.45 L37.15 41.05 38.65 41.25 Q39.35 41.5 39.9 41.9 40.4 42.35 40.4 42.95 M-41.4 49.35 L-39.7 39.3 Q-39.65 38.8 -39.15 38.35 -38.65 37.95 -37.95 37.95 -37.3 37.95 -36.8 38.3 -36.3 38.7 -36.15 39.2 L-34.05 46.35 -34 46.35 -31.85 39.2 Q-31.7 38.7 -31.2 38.3 L-30.1 37.95 Q-29.4 37.95 -28.9 38.35 -28.4 38.8 -28.3 39.3 L-26.65 49.35 -26.6 49.65 Q-26.6 50.25 -27 50.6 -27.35 50.95 -27.9 50.95 -28.6 50.95 -28.9 50.65 L-29.35 49.7 -30.4 42.35 -32.6 49.9 Q-32.9 50.95 -34 50.95 -35.15 50.95 -35.45 49.9 L-37.6 42.35 -37.65 42.35 -38.7 49.7 Q-38.8 50.35 -39.15 50.65 -39.45 50.95 -40.1 50.95 -40.65 50.95 -41.05 50.6 -41.4 50.25 -41.4 49.65 L-41.4 49.35 M-24.2 37.3 L-23.5 37.5 -22.95 38 -22.75 38.7 Q-22.75 39.3 -23.15 39.75 -23.6 40.2 -24.2 40.2 -24.8 40.2 -25.2 39.75 L-25.65 38.7 Q-25.65 38.15 -25.2 37.7 -24.8 37.3 -24.2 37.3 M-25.5 49.5 L-25.5 42.6 Q-25.5 41.95 -25.15 41.55 -24.8 41.15 -24.2 41.15 L-23.55 41.35 -23.05 41.85 Q-22.9 42.2 -22.9 42.6 L-22.9 49.5 Q-22.9 49.95 -23.05 50.25 L-23.55 50.8 -24.2 50.95 Q-24.8 50.95 -25.15 50.55 -25.5 50.15 -25.5 49.5 M-21.45 49.5 L-21.45 42.6 Q-21.45 41.95 -21.1 41.55 -20.75 41.15 -20.15 41.15 -19.65 41.15 -19.35 41.4 L-18.95 42.1 Q-18.2 41.05 -16.5 41.05 L-14.65 41.5 Q-13.85 41.9 -13.4 42.7 -12.95 43.45 -12.95 44.55 L-12.95 49.5 Q-12.95 49.95 -13.1 50.25 L-13.55 50.8 -14.25 50.95 Q-14.8 50.95 -15.15 50.55 L-15.5 49.5 -15.5 45 Q-15.5 44.15 -16 43.7 -16.45 43.2 -17.2 43.2 L-18.1 43.45 -18.7 44.1 -18.85 45 -18.85 49.5 -19.05 50.25 -19.5 50.8 -20.15 50.95 Q-20.75 50.95 -21.1 50.55 -21.45 50.15 -21.45 49.5 M-10.2 37.3 L-9.5 37.5 -8.95 38 -8.75 38.7 Q-8.75 39.3 -9.15 39.75 -9.6 40.2 -10.2 40.2 -10.8 40.2 -11.2 39.75 L-11.65 38.7 Q-11.65 38.15 -11.2 37.7 -10.8 37.3 -10.2 37.3 M-11.5 49.5 L-11.5 42.6 Q-11.5 41.95 -11.15 41.55 -10.8 41.15 -10.2 41.15 L-9.55 41.35 -9.05 41.85 Q-8.9 42.2 -8.9 42.6 L-8.9 49.5 Q-8.9 49.95 -9.05 50.25 L-9.55 50.8 -10.2 50.95 Q-10.8 50.95 -11.15 50.55 L-11.5 49.5 M-5.25 46.1 L-5 47.35 -4.3 48.3 Q-3.85 48.7 -3.2 48.7 -2.25 48.7 -1.7 47.9 -1.2 47.1 -1.2 46.1 L-1.4 44.8 -2.1 43.8 Q-2.55 43.45 -3.2 43.45 -3.85 43.45 -4.3 43.8 L-5 44.8 -5.25 46.1"/>
  </g>
</svg>