<svg xmlns="http://www.w3.org/2000/svg" xmlns:xlink="http://www.w3.org/1999/xlink">
  <defs/>
  <g>
    <path stroke="none" fill="#11141E" d="M-58 -48.2 L-58 15.25 Q-58 25 -48.2 25 L48.25 25 Q58 25 58 15.25 L58 -48.2 Q58 -58 48.25 -58 L-48.2 -58 Q-58 -58 -58 -48.2 M-48.2 -64 L48.25 -64 Q64 -64 64 -48.2 L64 48.25 Q64 64 48.25 64 L-48.2 64 Q-64 64 -64 48.25 L-64 -48.2 Q-64 -64 -48.2 -64"/>
    <path stroke="none" fill="#FFFFFF" d="M-58 -48.2 Q-58 -58 -48.2 -58 L48.25 -58 Q58 -58 58 -48.2 L58 15.25 Q58 25 48.25 25 L-48.2 25 Q-58 25 -58 15.25 L-58 -48.2"/>
    <path stroke="none" fill="#11141E" d="M29.6 -8.4 L28.5 -5.35 Q28.15 -4.55 27.45 -4.2 26.75 -3.85 25.95 -4.2 L23.1 -5.3 21.55 -1.25 Q21.25 -0.45 20.55 -0.1 L19 -0.15 15.65 -1.5 Q14.85 -1.8 14.6 -2.5 14.3 -3.3 14.6 -4.1 L16.1 -8.15 13.2 -9.3 Q12.45 -9.6 12.15 -10.4 11.8 -11.15 12.15 -11.95 L13.25 -15 Q13.55 -15.8 14.3 -16.1 L15.8 -16.2 17.75 -15.4 23.95 -32.05 Q24.25 -32.85 25 -33.15 L28.6 -34.8 30.05 -34.85 Q30.85 -34.55 31.25 -33.75 L32.8 -30 Q33.1 -29.3 32.8 -28.5 L26.6 -11.85 28.55 -11.1 Q29.35 -10.75 29.6 -9.9 29.9 -9.2 29.6 -8.4 M6.1 -12.2 L12.1 -0.2 Q12.6 0.85 12.6 2 L12.6 6 Q12.6 8.1 11.15 9.55 9.7 11 7.6 11 L-12.4 11 Q-14.45 11 -15.9 9.55 L-16.2 9.25 Q-13.05 7.3 -10.45 4.1 -5.1 -2.4 -4.75 -12.2 -4.6 -14.8 -6.35 -16.7 -7.95 -18.5 -10.4 -18.75 L-10.45 -18.75 Q-13.45 -19.15 -16.45 -21.35 L-16.6 -21.45 -16.75 -21.55 Q-17.4 -23.65 -17.4 -26 -17.4 -32.2 -13.05 -36.6 -8.65 -41 -2.4 -41 3.8 -41 8.15 -36.6 12.6 -32.2 12.6 -26 12.6 -19.75 8.15 -15.4 L5.45 -13.2 6.1 -12.2 M-10.85 -14.8 Q-9.9 -14.7 -9.3 -14 -8.65 -13.3 -8.75 -12.35 -9.05 -4 -13.55 1.55 -15.3 3.75 -17.4 5.25 -18.55 6.05 -19.8 6.65 L-20.85 6.85 -21.85 6.65 Q-25.4 4.95 -28.15 1.55 -32.65 -4 -33 -12.35 -33.05 -13.3 -32.4 -14 -31.8 -14.7 -30.85 -14.8 -26.9 -15.15 -22.85 -18.15 -21.95 -18.75 -20.85 -18.75 -19.75 -18.75 -18.85 -18.15 -15.8 -15.9 -12.8 -15.15 L-10.85 -14.8"/>
  </g>
</svg>