<svg xmlns="http://www.w3.org/2000/svg" xmlns:xlink="http://www.w3.org/1999/xlink">
  <defs/>
  <g>
    <path stroke="none" fill="#11141E" d="M-48.2 -64 L48.25 -64 Q64 -64 64 -48.2 L64 48.25 Q64 64 48.25 64 L-48.2 64 Q-64 64 -64 48.25 L-64 -48.2 Q-64 -64 -48.2 -64 M-58 -48.2 L-58 15.25 Q-58 25 -48.2 25 L48.25 25 Q58 25 58 15.25 L58 -48.2 Q58 -58 48.25 -58 L-48.2 -58 Q-58 -58 -58 -48.2"/>
    <path stroke="none" fill="#FFFFFF" d="M-58 -48.2 Q-58 -58 -48.2 -58 L48.25 -58 Q58 -58 58 -48.2 L58 15.25 Q58 25 48.25 25 L-48.2 25 Q-58 25 -58 15.25 L-58 -48.2"/>
    <path stroke="none" fill="#11141E" d="M38 -12.8 L42.6 -3.6 Q43 -2.8 43 -1.9 L43 1.2 Q43 2.8 41.9 3.9 40.8 5 39.15 5 L23.85 5 Q22.25 5 21.15 3.9 20 2.8 20 1.2 L20 -1.9 Q20 -2.8 20.4 -3.6 L25 -12.8 25.1 -12.9 23.35 -14.35 Q20 -17.7 20 -22.5 20 -27.25 23.35 -30.6 26.7 -34 31.5 -34 36.25 -34 39.6 -30.6 43 -27.25 43 -22.5 43 -17.7 39.6 -14.35 L37.95 -12.95 38 -12.8 M-17 -9.05 Q-17 -11.05 -15.5 -12.5 -14.05 -14 -12 -14 L13 -14 Q15.05 -14 16.55 -12.5 18 -11.05 18 -9.05 L18 -7 Q18 -4.95 16.6 -3.45 L16.55 -3.4 Q15.45 -2.35 14 -2.1 L14 5 Q14 5.8 13.4 6.4 12.8 7 12 7 L8 7 Q7.2 7 6.6 6.4 6 5.8 6 5 L6 -2 -5 -2 -5 5 Q-5 5.8 -5.6 6.4 -6.2 7 -7 7 L-11 7 Q-11.8 7 -12.4 6.4 -13 5.8 -13 5 L-13 -2.1 Q-14.4 -2.35 -15.5 -3.45 -17 -4.95 -17 -7 L-17 -9.05 M-24 -12.8 L-19.4 -3.6 Q-19 -2.8 -19 -1.9 L-19 1.2 Q-19 2.8 -20.1 3.9 -21.2 5 -22.85 5 L-38.15 5 Q-39.75 5 -40.85 3.9 -42 2.8 -42 1.2 L-42 -1.9 Q-42 -2.8 -41.6 -3.6 L-37 -12.8 -36.9 -12.9 -38.65 -14.35 Q-42 -17.7 -42 -22.5 -42 -27.25 -38.65 -30.6 -35.3 -34 -30.5 -34 -25.75 -34 -22.4 -30.6 -19 -27.25 -19 -22.5 -19 -17.7 -22.4 -14.35 L-24.05 -12.95 -24 -12.8"/>
    <path stroke="none" fill="#FFFFFF" d="M48.55 42.95 L48.25 43.75 Q47.95 44.1 47.5 44.1 L46.75 43.85 45.85 43.45 45.15 43.35 44.55 43.5 Q44.3 43.7 44.3 44.05 44.3 44.45 45.05 44.75 L46.7 45.45 Q47.55 45.8 48.2 46.4 48.8 47 48.8 48 48.8 48.9 48.35 49.6 L47.05 50.65 45.1 51.05 43.5 50.8 Q42.65 50.55 42.05 50.1 41.5 49.6 41.5 49.05 41.5 48.7 41.8 48.3 42.1 47.9 42.6 47.9 L43.2 48.05 43.9 48.35 Q44.25 48.6 44.55 48.7 L45.3 48.8 46.1 48.65 46.3 48.05 Q46.3 47.7 45.55 47.35 L43.9 46.65 Q43 46.3 42.4 45.7 41.8 45.1 41.8 44.1 41.8 43.2 42.25 42.5 42.7 41.8 43.5 41.45 L45.3 41.05 46.8 41.25 Q47.5 41.5 48.05 41.9 48.55 42.35 48.55 42.95 M36 49.5 L36 42.45 Q36 41.85 36.4 41.5 36.8 41.15 37.35 41.15 38.6 41.15 38.6 42.25 L38.65 42.25 39.45 41.4 40.45 41.15 Q40.95 41.15 41.35 41.5 41.7 41.9 41.7 42.55 L41.5 43.15 40.95 43.5 40.15 43.8 Q39.4 44.15 39 44.5 38.6 44.85 38.6 45.55 L38.6 49.5 38.45 50.25 37.95 50.8 37.3 50.95 Q36.7 50.95 36.35 50.55 36 50.15 36 49.5 M3.35 49.5 L3.35 38.45 Q3.35 37.8 3.7 37.4 4.05 37 4.65 37 L5.3 37.15 5.8 37.7 5.95 38.45 5.95 49.5 5.8 50.25 5.3 50.8 4.65 50.95 Q4.05 50.95 3.7 50.55 3.35 50.15 3.35 49.5 M-6.95 53.35 L-6.95 42.6 Q-6.95 41.95 -6.6 41.55 -6.25 41.15 -5.65 41.15 -4.65 41.15 -4.35 42.25 L-3.35 41.35 -1.9 41.05 Q-0.6 41.05 0.35 41.8 1.3 42.5 1.8 43.7 2.3 44.85 2.3 46.2 2.3 47.4 1.75 48.55 1.2 49.7 0.25 50.4 -0.75 51.05 -2 51.05 L-3.25 50.85 -4.35 50.15 -4.35 53.35 -4.55 54.1 -5 54.6 -5.65 54.75 -6.6 54.4 -6.95 53.35 M9.6 46.1 L9.85 47.35 10.55 48.3 Q11 48.7 11.65 48.7 12.6 48.7 13.15 47.9 13.65 47.1 13.65 46.1 L13.45 44.8 12.75 43.8 Q12.3 43.45 11.65 43.45 11 43.45 10.55 43.8 L9.85 44.8 9.6 46.1 M16.25 42.85 L16.25 49.25 16.05 50.5 Q15.85 50.95 15 50.95 L14.2 50.7 13.75 49.85 Q12.75 51.05 11.3 51.05 10.1 51.05 9.1 50.45 8.15 49.8 7.55 48.65 7 47.5 7 46.1 7 44.7 7.6 43.55 8.15 42.4 9.15 41.75 10.1 41.05 11.3 41.05 L12.7 41.35 13.75 42.25 Q13.8 41.75 14.15 41.45 14.55 41.15 15 41.15 15.85 41.15 16.05 41.65 L16.25 42.85 M19.95 50.1 L17.1 42.95 16.95 42.3 Q16.95 41.8 17.35 41.5 17.75 41.15 18.2 41.15 L19 41.4 19.5 42.1 21.25 46.95 23.15 42.1 23.7 41.4 Q24 41.15 24.45 41.15 24.9 41.15 25.3 41.5 25.7 41.8 25.7 42.3 L25.55 42.95 21.25 53.75 Q20.8 54.75 20 54.75 L19 54.45 Q18.65 54.1 18.65 53.65 L18.8 52.9 19.95 50.1 M34 46.95 L28.5 46.95 Q28.6 47.85 29.3 48.35 L30.9 48.8 31.95 48.6 32.95 48.1 Q33.6 47.75 33.85 47.75 L34.4 47.9 34.75 48.35 34.9 48.85 Q34.9 49.3 34.55 49.65 L33.55 50.4 32.15 50.9 30.7 51.05 Q29.25 51.05 28.15 50.45 27.05 49.8 26.45 48.65 25.85 47.5 25.85 46.1 25.85 45.1 26.2 44.2 26.5 43.3 27.15 42.55 27.75 41.85 28.65 41.45 29.5 41.05 30.5 41.05 31.5 41.05 32.35 41.5 33.25 41.9 33.85 42.6 L34.8 44.1 Q35.15 44.95 35.15 45.75 35.15 46.95 34 46.95 M28.4 45.2 L32.55 45.2 Q32.45 44.3 31.9 43.75 31.35 43.2 30.5 43.2 29.65 43.2 29.1 43.75 28.55 44.35 28.4 45.2 M-33.15 44.5 L-29.35 44.5 Q-28.85 44.55 -28.55 44.85 -28.3 45.15 -28.3 45.65 -28.3 46.1 -28.55 46.4 -28.85 46.75 -29.35 46.75 L-33.15 46.75 Q-33.65 46.75 -33.9 46.45 L-34.2 45.65 -33.9 44.85 Q-33.65 44.55 -33.15 44.5 M-17 48 L-21.35 48 -22.3 47.7 -22.6 46.95 -22.35 46.15 -18.35 38.85 -17.6 38.05 -16.5 37.8 Q-15.95 37.8 -15.45 38.05 -15 38.3 -14.7 38.85 -14.4 39.35 -14.4 40.1 L-14.4 45.65 -14.1 45.65 -13.5 45.8 -13 46.2 Q-12.85 46.5 -12.85 46.85 L-13 47.45 -13.5 47.9 -14.1 48 -14.4 48 -14.4 49.55 Q-14.4 50.3 -14.7 50.6 -15 50.95 -15.7 50.95 -16.4 50.95 -16.7 50.6 L-17 49.55 -17 48 M-17 45.65 L-17 40.65 -17.05 40.65 -19.5 45.65 -17 45.65 M-4.35 46 Q-4.35 47.05 -3.85 47.85 -3.3 48.7 -2.35 48.7 -1.7 48.7 -1.25 48.3 -0.75 47.9 -0.55 47.35 L-0.3 46.1 -0.55 44.8 Q-0.75 44.2 -1.25 43.85 -1.7 43.45 -2.35 43.45 -3 43.45 -3.45 43.8 L-4.15 44.75 -4.35 46 M-45.1 48.5 L-41.85 48.5 -40.8 48.8 Q-40.45 49.05 -40.45 49.65 -40.45 50.25 -40.8 50.55 L-41.7 50.85 -47.75 50.85 -48.75 50.55 Q-49.15 50.25 -49.15 49.65 -49.15 49.25 -48.75 48.75 L-47.65 47.5 -46.45 46.1 -45.25 44.75 -44.25 43.35 Q-43.6 42.45 -43.6 41.7 -43.6 41.15 -44 40.7 -44.35 40.3 -44.9 40.3 -45.6 40.3 -45.9 40.7 L-46.45 41.8 -46.9 42.85 Q-47.15 43.2 -47.7 43.2 -48.3 43.2 -48.7 42.85 L-49.05 41.9 Q-49.05 40.8 -48.45 39.85 -47.85 38.9 -46.85 38.35 -45.9 37.8 -44.8 37.8 -43.7 37.8 -42.75 38.3 -41.85 38.75 -41.35 39.6 -40.8 40.45 -40.8 41.55 -40.8 42.4 -41.2 43.35 L-42.3 45.1 -43.8 46.95 -45.1 48.5"/>
  </g>
</svg>