<svg xmlns="http://www.w3.org/2000/svg" xmlns:xlink="http://www.w3.org/1999/xlink">
  <defs/>
  <g>
    <path stroke="none" fill="#11141E" d="M-48.2 -64 L48.25 -64 Q64 -64 64 -48.2 L64 48.25 Q64 64 48.25 64 L-48.2 64 Q-64 64 -64 48.25 L-64 -48.2 Q-64 -64 -48.2 -64 M-58 -48.2 L-58 15.25 Q-58 25 -48.2 25 L48.25 25 Q58 25 58 15.25 L58 -48.2 Q58 -58 48.25 -58 L-48.2 -58 Q-58 -58 -58 -48.2"/>
    <path stroke="none" fill="#FFFFFF" d="M-58 -48.2 Q-58 -58 -48.2 -58 L48.25 -58 Q58 -58 58 -48.2 L58 15.25 Q58 25 48.25 25 L-48.2 25 Q-58 25 -58 15.25 L-58 -48.2"/>
    <path stroke="none" fill="#11141E" d="M38 -12.8 L42.6 -3.6 Q43 -2.8 43 -1.9 L43 1.2 Q43 2.8 41.9 3.9 40.8 5 39.15 5 L23.85 5 Q22.25 5 21.15 3.9 20 2.8 20 1.2 L20 -1.9 Q20 -2.8 20.4 -3.6 L25 -12.8 25.1 -12.9 23.35 -14.35 Q20 -17.7 20 -22.5 20 -27.25 23.35 -30.6 26.7 -34 31.5 -34 36.25 -34 39.6 -30.6 43 -27.25 43 -22.5 43 -17.7 39.6 -14.35 L37.95 -12.95 38 -12.8 M-17 -9.05 Q-17 -11.05 -15.5 -12.5 -14.05 -14 -12 -14 L13 -14 Q15.05 -14 16.55 -12.5 18 -11.05 18 -9.05 L18 -7 Q18 -4.95 16.6 -3.45 L16.55 -3.4 Q15.45 -2.35 14 -2.1 L14 5 Q14 5.8 13.4 6.4 12.8 7 12 7 L8 7 Q7.2 7 6.6 6.4 6 5.8 6 5 L6 -2 -5 -2 -5 5 Q-5 5.8 -5.6 6.4 -6.2 7 -7 7 L-11 7 Q-11.8 7 -12.4 6.4 -13 5.8 -13 5 L-13 -2.1 Q-14.4 -2.35 -15.5 -3.45 -17 -4.95 -17 -7 L-17 -9.05 M-24 -12.8 L-19.4 -3.6 Q-19 -2.8 -19 -1.9 L-19 1.2 Q-19 2.8 -20.1 3.9 -21.2 5 -22.85 5 L-38.15 5 Q-39.75 5 -40.85 3.9 -42 2.8 -42 1.2 L-42 -1.9 Q-42 -2.8 -41.6 -3.6 L-37 -12.8 -36.9 -12.9 -38.65 -14.35 Q-42 -17.7 -42 -22.5 -42 -27.25 -38.65 -30.6 -35.3 -34 -30.5 -34 -25.75 -34 -22.4 -30.6 -19 -27.25 -19 -22.5 -19 -17.7 -22.4 -14.35 L-24.05 -12.95 -24 -12.8"/>
    <path stroke="none" fill="#FFFFFF" d="M46.7 42.95 L46.4 43.75 Q46.1 44.1 45.65 44.1 L44.9 43.85 44 43.45 43.3 43.35 42.7 43.5 Q42.45 43.7 42.45 44.05 42.45 44.45 43.2 44.75 L44.85 45.45 Q45.7 45.8 46.35 46.4 46.95 47 46.95 48 46.95 48.9 46.5 49.6 46 50.25 45.2 50.65 44.35 51.05 43.25 51.05 L41.65 50.8 40.2 50.1 Q39.65 49.6 39.65 49.05 39.65 48.7 39.95 48.3 40.25 47.9 40.75 47.9 L41.35 48.05 42.05 48.35 42.7 48.7 43.45 48.8 44.25 48.65 44.45 48.05 Q44.45 47.7 43.7 47.35 L42.05 46.65 Q41.15 46.3 40.55 45.7 39.95 45.1 39.95 44.1 39.95 43.2 40.4 42.5 40.85 41.8 41.65 41.45 L43.45 41.05 44.95 41.25 Q45.65 41.5 46.2 41.9 46.7 42.35 46.7 42.95 M14.4 42.85 L14.4 49.25 14.2 50.5 Q14 50.95 13.15 50.95 L12.35 50.7 Q12.05 50.4 11.9 49.85 10.9 51.05 9.45 51.05 8.25 51.05 7.25 50.45 6.3 49.8 5.7 48.65 5.15 47.5 5.15 46.1 5.15 44.7 5.75 43.55 6.3 42.4 7.3 41.75 8.25 41.05 9.45 41.05 10.15 41.05 10.85 41.35 L11.9 42.25 Q11.95 41.75 12.3 41.45 12.7 41.15 13.15 41.15 14 41.15 14.2 41.65 L14.4 42.85 M1.5 49.5 L1.5 38.45 Q1.5 37.8 1.85 37.4 2.2 37 2.8 37 L3.45 37.15 3.95 37.7 4.1 38.45 4.1 49.5 3.95 50.25 3.45 50.8 2.8 50.95 Q2.2 50.95 1.85 50.55 1.5 50.15 1.5 49.5 M7.75 46.1 L8 47.35 Q8.2 47.95 8.7 48.3 9.15 48.7 9.8 48.7 10.75 48.7 11.3 47.9 11.8 47.1 11.8 46.1 L11.6 44.8 10.9 43.8 Q10.45 43.45 9.8 43.45 9.15 43.45 8.7 43.8 8.2 44.2 8 44.8 L7.75 46.1 M18.1 50.1 L15.25 42.95 15.1 42.3 Q15.1 41.8 15.5 41.5 15.9 41.15 16.35 41.15 L17.15 41.4 17.65 42.1 19.4 46.95 21.3 42.1 21.85 41.4 Q22.15 41.15 22.6 41.15 23.05 41.15 23.45 41.5 23.85 41.8 23.85 42.3 L23.7 42.95 19.4 53.75 Q18.95 54.75 18.15 54.75 L17.15 54.45 Q16.8 54.1 16.8 53.65 L16.95 52.9 18.1 50.1 M32.15 46.95 L26.65 46.95 Q26.75 47.85 27.45 48.35 L29.05 48.8 30.1 48.6 31.1 48.1 Q31.75 47.75 32 47.75 L32.55 47.9 32.9 48.35 33.05 48.85 32.7 49.65 31.7 50.4 30.3 50.9 28.85 51.05 Q27.4 51.05 26.3 50.45 25.2 49.8 24.6 48.65 24 47.5 24 46.1 24 45.1 24.35 44.2 24.65 43.3 25.3 42.55 25.9 41.85 26.8 41.45 27.65 41.05 28.65 41.05 29.65 41.05 30.5 41.5 31.4 41.9 32 42.6 L32.95 44.1 33.3 45.75 Q33.3 46.95 32.15 46.95 M26.55 45.2 L30.7 45.2 Q30.6 44.3 30.05 43.75 29.5 43.2 28.65 43.2 27.8 43.2 27.25 43.75 26.7 44.35 26.55 45.2 M34.15 49.5 L34.15 42.45 Q34.15 41.85 34.55 41.5 34.95 41.15 35.5 41.15 36.75 41.15 36.75 42.25 L36.8 42.25 37.6 41.4 38.6 41.15 Q39.1 41.15 39.5 41.5 39.85 41.9 39.85 42.55 L39.65 43.15 39.1 43.5 38.3 43.8 37.15 44.5 Q36.75 44.85 36.75 45.55 L36.75 49.5 36.6 50.25 36.1 50.8 35.45 50.95 Q34.85 50.95 34.5 50.55 34.15 50.15 34.15 49.5 M-35 44.5 L-31.2 44.5 Q-30.7 44.55 -30.4 44.85 -30.15 45.15 -30.15 45.65 L-30.4 46.4 Q-30.7 46.75 -31.2 46.75 L-35 46.75 -35.75 46.45 -36.05 45.65 -35.75 44.85 Q-35.5 44.55 -35 44.5 M-19.6 40.2 Q-20.2 40.2 -20.55 40.55 -20.9 40.95 -20.9 41.55 -20.9 42.2 -20.55 42.55 -20.2 42.95 -19.6 42.95 -19 42.95 -18.6 42.55 -18.25 42.2 -18.25 41.55 -18.25 40.95 -18.6 40.55 -18.95 40.2 -19.6 40.2 M-19.6 51.05 Q-20.8 51.05 -21.85 50.55 -22.85 50 -23.45 49.1 -24.05 48.15 -24.05 46.95 L-23.8 45.65 -23.1 44.6 -22.1 43.85 Q-23.5 42.85 -23.5 41.25 -23.5 40.5 -23.15 39.85 L-22.35 38.75 Q-21.8 38.3 -21.1 38.05 L-19.6 37.8 -18.1 38.05 Q-17.4 38.3 -16.85 38.75 -16.3 39.2 -16 39.85 -15.7 40.5 -15.7 41.25 -15.7 42.05 -16.05 42.75 L-17.05 43.85 Q-16.15 44.3 -15.65 45.1 -15.15 45.95 -15.15 46.95 -15.15 48.15 -15.75 49.1 L-17.35 50.55 -19.6 51.05 M-19.55 45 Q-20.35 45 -20.8 45.5 -21.25 46 -21.25 46.8 L-20.8 48.05 Q-20.35 48.6 -19.55 48.6 -18.85 48.6 -18.4 48.05 -17.95 47.5 -17.95 46.8 -17.95 45.95 -18.4 45.45 -18.8 45 -19.55 45 M-8.8 53.35 L-8.8 42.6 Q-8.8 41.95 -8.45 41.55 -8.1 41.15 -7.5 41.15 -6.5 41.15 -6.2 42.25 L-5.2 41.35 -3.75 41.05 Q-2.45 41.05 -1.5 41.8 -0.55 42.5 -0.05 43.7 0.45 44.85 0.45 46.2 0.45 47.4 -0.1 48.55 -0.65 49.7 -1.6 50.4 -2.6 51.05 -3.85 51.05 L-5.1 50.85 -6.2 50.15 -6.2 53.35 -6.4 54.1 -6.85 54.6 -7.5 54.75 Q-8.1 54.75 -8.45 54.4 L-8.8 53.35 M-6.2 46 Q-6.2 47.05 -5.7 47.85 -5.15 48.7 -4.2 48.7 -3.55 48.7 -3.1 48.3 L-2.4 47.35 -2.15 46.1 -2.4 44.8 Q-2.6 44.2 -3.1 43.85 -3.55 43.45 -4.2 43.45 -4.85 43.45 -5.3 43.8 L-6 44.75 -6.2 46 M-45.35 49.55 L-45.35 40.5 -46.45 40.5 Q-47.05 40.5 -47.35 40.15 L-47.65 39.3 -47.3 38.4 Q-47 38.05 -46.45 38.05 L-43.85 38.05 Q-43.3 38.05 -43 38.4 -42.65 38.75 -42.65 39.3 L-42.65 49.55 Q-42.65 50.25 -43.05 50.6 -43.4 50.95 -44 50.95 L-45 50.6 -45.35 49.55"/>
  </g>
</svg>