<svg xmlns="http://www.w3.org/2000/svg" xmlns:xlink="http://www.w3.org/1999/xlink">
  <defs/>
  <g>
    <path stroke="none" fill="#11141E" d="M-48.2 -64 L48.25 -64 Q64 -64 64 -48.2 L64 48.25 Q64 64 48.25 64 L-48.2 64 Q-64 64 -64 48.25 L-64 -48.2 Q-64 -64 -48.2 -64 M-58 -48.2 L-58 15.25 Q-58 25 -48.2 25 L48.25 25 Q58 25 58 15.25 L58 -48.2 Q58 -58 48.25 -58 L-48.2 -58 Q-58 -58 -58 -48.2"/>
    <path stroke="none" fill="#FFFFFF" d="M-58 -48.2 Q-58 -58 -48.2 -58 L48.25 -58 Q58 -58 58 -48.2 L58 15.25 Q58 25 48.25 25 L-48.2 25 Q-58 25 -58 15.25 L-58 -48.2"/>
    <path stroke="none" fill="#11141E" d="M23.15 -27.35 L20.65 -17.95 22.5 -16.85 24.25 -14.7 Q25.8 -12.1 24.95 -9.1 L24.8 -8.6 Q23.9 -6 21.55 -4.55 L21.4 -4.45 Q19.15 -3.25 16.8 -3.6 L14.25 5.8 Q13.9 7.1 12.8 7.8 L10.35 8.1 2.05 5.85 Q0.75 5.55 0.15 4.35 -0.6 3.25 -0.25 1.95 0.35 -0.15 -0.7 -2.1 -1.9 -4.05 -4 -4.65 -6.1 -5.2 -8 -4.1 -10 -2.95 -10.6 -0.85 -10.95 0.45 -12.05 1.15 -13.2 1.75 -14.5 1.45 L-22.75 -0.8 Q-23.85 -1.05 -24.45 -1.85 L-24.75 -2.3 Q-25.45 -3.4 -25.05 -4.7 L-22.85 -13 Q-22.5 -14.3 -21.4 -15 -20.2 -15.6 -18.9 -15.3 -16.8 -14.7 -14.8 -15.85 L-13.9 -16.45 Q-12.75 -17.5 -12.35 -19.05 -11.8 -21.25 -12.85 -23.1 -14 -25.1 -16.1 -25.7 -17.15 -25.95 -17.8 -26.75 L-18.1 -27.15 Q-18.75 -28.3 -18.4 -29.6 L-16.2 -37.9 Q-15.85 -39.2 -14.7 -39.8 -13.55 -40.5 -12.25 -40.2 L-2.85 -37.65 Q-1.95 -39.8 0.25 -41.1 L0.35 -41.15 Q3 -42.75 6 -41.95 9 -41.1 10.55 -38.4 11.85 -36.2 11.5 -33.8 L20.9 -31.25 Q22.2 -30.95 22.85 -29.75 23.5 -28.65 23.15 -27.35"/>
    <path stroke="none" fill="#FFFFFF" d="M3.1 49.25 L7.15 43.55 4.15 43.55 3.3 43.25 Q3 42.9 3 42.4 3 41.9 3.3 41.6 3.65 41.25 4.15 41.25 L10.05 41.25 10.6 41.45 10.9 42.1 10.8 42.5 10.6 42.85 6.5 48.6 9.95 48.6 Q10.45 48.6 10.8 48.9 L11.1 49.7 10.8 50.55 Q10.45 50.85 9.95 50.85 L3.9 50.85 3.15 50.6 Q2.85 50.4 2.85 49.95 2.85 49.65 3.1 49.25 M-5.55 49.25 L-1.5 43.55 -4.5 43.55 -5.35 43.25 -5.65 42.4 -5.35 41.6 Q-5 41.25 -4.5 41.25 L1.4 41.25 1.95 41.45 2.25 42.1 2.15 42.5 1.95 42.85 -2.15 48.6 1.3 48.6 Q1.8 48.6 2.15 48.9 L2.45 49.7 2.15 50.55 1.3 50.85 -4.75 50.85 -5.5 50.6 -5.8 49.95 -5.55 49.25 M23.65 46.95 L18.15 46.95 Q18.25 47.85 18.95 48.35 19.6 48.8 20.55 48.8 L21.6 48.6 22.6 48.1 Q23.25 47.75 23.5 47.75 L24.05 47.9 24.4 48.35 24.55 48.85 24.2 49.65 23.2 50.4 21.8 50.9 20.35 51.05 Q18.9 51.05 17.8 50.45 16.7 49.8 16.1 48.65 15.5 47.5 15.5 46.1 15.5 45.1 15.85 44.2 16.15 43.3 16.8 42.55 17.4 41.85 18.3 41.45 L20.15 41.05 Q21.15 41.05 22 41.5 22.9 41.9 23.5 42.6 L24.45 44.1 Q24.8 44.95 24.8 45.75 24.8 46.95 23.65 46.95 M12 49.5 L12 38.45 Q12 37.8 12.35 37.4 12.7 37 13.3 37 L13.95 37.15 14.45 37.7 14.6 38.45 14.6 49.5 14.45 50.25 13.95 50.8 13.3 50.95 Q12.7 50.95 12.35 50.55 12 50.15 12 49.5 M18.05 45.2 L22.2 45.2 Q22.1 44.3 21.55 43.75 21 43.2 20.15 43.2 19.3 43.2 18.75 43.75 18.2 44.35 18.05 45.2 M-22.5 40.4 L-22.5 44.2 -20.65 44.2 Q-19.85 44.2 -19.3 43.7 -18.8 43.15 -18.8 42.3 -18.8 41.8 -19.05 41.35 L-19.7 40.65 Q-20.1 40.4 -20.65 40.4 L-22.5 40.4 M-25.2 49.55 L-25.2 39.45 Q-25.2 38.8 -24.8 38.4 -24.45 38.05 -23.8 38.05 L-20.6 38.05 Q-19.3 38.05 -18.25 38.55 -17.2 39.1 -16.6 40.1 -16 41.1 -16 42.35 -16 43.3 -16.35 44.1 -16.7 44.9 -17.3 45.45 L-18.75 46.3 -20.5 46.6 -22.5 46.6 -22.5 49.55 Q-22.5 50.25 -22.85 50.6 L-23.85 50.95 -24.8 50.6 Q-25.2 50.2 -25.2 49.55 M-15.25 47.3 L-15.25 42.6 Q-15.25 41.95 -14.9 41.55 -14.55 41.15 -13.95 41.15 L-13.3 41.35 Q-13 41.5 -12.85 41.85 L-12.65 42.6 -12.65 47.25 Q-12.65 48 -12.15 48.45 -11.7 48.9 -11 48.9 L-10.15 48.7 -9.55 48.15 Q-9.3 47.75 -9.3 47.25 L-9.3 42.6 Q-9.3 41.95 -8.95 41.55 -8.6 41.15 -8.05 41.15 L-7.35 41.35 -6.9 41.85 Q-6.75 42.2 -6.75 42.6 L-6.75 47.3 Q-6.75 48.45 -7.2 49.3 -7.7 50.15 -8.7 50.6 L-11 51.05 Q-13.05 51.05 -14.15 50.05 -15.25 49.05 -15.25 47.3"/>
  </g>
</svg>