<svg xmlns="http://www.w3.org/2000/svg" xmlns:xlink="http://www.w3.org/1999/xlink">
  <defs/>
  <g>
    <path stroke="none" fill="#11141E" d="M-58 -48.2 L-58 15.25 Q-58 25 -48.2 25 L48.25 25 Q58 25 58 15.25 L58 -48.2 Q58 -58 48.25 -58 L-48.2 -58 Q-58 -58 -58 -48.2 M-48.2 -64 L48.25 -64 Q64 -64 64 -48.2 L64 48.25 Q64 64 48.25 64 L-48.2 64 Q-64 64 -64 48.25 L-64 -48.2 Q-64 -64 -48.2 -64"/>
    <path stroke="none" fill="#FFFFFF" d="M-58 -48.2 Q-58 -58 -48.2 -58 L48.25 -58 Q58 -58 58 -48.2 L58 15.25 Q58 25 48.25 25 L-48.2 25 Q-58 25 -58 15.25 L-58 -48.2"/>
    <path stroke="none" fill="#11141E" d="M-0.5 -33 Q-6.1 -33 -10 -29.25 -14 -25.5 -14 -20.25 -14 -18.6 -13.6 -17.15 -13.25 -15.7 -12.5 -14.4 L-12.5 -12 -12.3 -10.85 -11.65 -9.8 Q-10.75 -9 -9.5 -9 L-6.5 -9 -6.5 -6 Q-6.5 -4.7 -5.65 -3.8 -4.75 -3 -3.5 -3 L2.5 -3 Q3.8 -3 4.6 -3.8 5.5 -4.7 5.5 -6 L5.5 -9 8.5 -9 Q9.8 -9 10.6 -9.8 11.5 -10.7 11.5 -12 L11.5 -14.4 12.5 -16.8 Q13 -18.5 13 -20.25 13 -22.2 12.45 -23.9 11.55 -26.9 9.05 -29.25 5.05 -33 -0.5 -33 M4 -12 Q2.75 -12 1.85 -12.8 1 -13.7 1 -15 1 -16.25 1.85 -17.1 2.75 -18 4 -18 5.3 -18 6.1 -17.1 7 -16.2 7 -15 7 -13.7 6.1 -12.8 5.3 -12 4 -12 M-18.9 -40 L16.95 -40 Q27 -40 27 -29.95 L27 -8.05 Q27 2 16.95 2 L8.95 2 2.55 8.25 Q-1 11.75 -4.55 8.25 L-10.9 2 -18.9 2 Q-29 2 -29 -8.05 L-29 -29.95 Q-29 -40 -18.9 -40 M-5 -12 Q-6.25 -12 -7.15 -12.8 L-7.75 -13.7 -8 -15 Q-8 -16.25 -7.15 -17.1 -6.25 -18 -5 -18 -3.7 -18 -2.9 -17.1 L-2.7 -16.9 Q-2 -16.05 -2 -15 -2 -13.7 -2.9 -12.8 -3.7 -12 -5 -12"/>
    <path stroke="none" fill="#FFFFFF" d="M53 45.8 L48.4 45.8 Q48.5 46.55 49.1 46.95 49.65 47.35 50.45 47.35 L51.3 47.2 52.15 46.75 52.9 46.45 53.3 46.6 53.65 46.95 53.8 47.4 53.45 48.05 52.65 48.65 51.5 49.1 50.25 49.25 Q49.05 49.25 48.15 48.7 47.2 48.15 46.7 47.2 46.2 46.25 46.2 45.05 46.2 44.25 46.5 43.5 L47.3 42.15 Q47.8 41.55 48.55 41.25 49.25 40.9 50.05 40.9 50.9 40.9 51.65 41.25 L52.9 42.15 53.65 43.45 53.95 44.8 Q53.95 45.8 53 45.8 M48.35 44.35 L51.8 44.35 Q51.7 43.6 51.25 43.15 50.8 42.7 50.05 42.7 49.4 42.7 48.9 43.15 48.45 43.6 48.35 44.35 M45.45 42.2 L45.45 48.4 Q45.45 49.7 44.95 50.55 44.4 51.45 43.45 51.9 L41.3 52.3 39.95 52.15 38.5 51.6 Q37.9 51.25 37.9 50.7 L38.15 50.1 Q38.45 49.75 38.75 49.75 L39.65 50 40.6 50.3 41.45 50.45 42.4 50.25 43.05 49.65 43.3 48.7 43.3 48.2 43.25 48.2 Q42.55 49.25 41.1 49.25 L39.65 48.9 38.6 48 37.95 46.65 37.75 45.1 Q37.75 44.25 38 43.5 L38.7 42.15 Q39.2 41.55 39.85 41.25 40.5 40.9 41.3 40.9 L42.05 41 42.75 41.35 43.3 41.9 Q43.5 41 44.35 41 L44.95 41.15 45.3 41.55 45.45 42.2 M43.3 45.1 L43.1 44.05 42.55 43.2 Q42.15 42.85 41.6 42.85 41.05 42.85 40.7 43.2 L40.1 44 39.9 45.05 40.1 46.15 Q40.3 46.65 40.65 46.95 41.05 47.25 41.6 47.25 42.4 47.25 42.85 46.65 L43.3 45.1 M4.15 47.95 L4.15 42.2 Q4.15 41.65 4.45 41.3 4.75 41 5.25 41 L5.9 41.2 6.25 41.8 Q6.85 40.9 8.3 40.9 9.15 40.9 9.85 41.25 L10.9 42.25 Q11.3 42.9 11.3 43.8 L11.3 47.95 11.15 48.55 10.75 49 10.2 49.15 Q9.7 49.15 9.4 48.8 9.1 48.45 9.1 47.95 L9.1 44.15 Q9.1 43.45 8.75 43.05 8.35 42.7 7.7 42.7 L6.95 42.9 6.5 43.4 6.35 44.15 6.35 47.95 6.2 48.55 5.8 49 5.25 49.15 Q4.75 49.15 4.45 48.8 4.15 48.45 4.15 47.95 M2.95 42.4 L2.95 47.75 2.75 48.75 Q2.6 49.15 1.9 49.15 L1.25 48.9 0.9 48.25 Q0 49.25 -1.2 49.25 -2.2 49.25 -3 48.7 -3.8 48.15 -4.3 47.2 -4.75 46.25 -4.75 45.05 -4.75 43.9 -4.25 42.95 -3.8 42 -3 41.45 -2.15 40.9 -1.2 40.9 L-0.05 41.15 0.9 41.9 Q0.9 41.5 1.2 41.25 1.5 41 1.9 41 2.6 41 2.75 41.35 L2.95 42.4 M-2.6 45.1 L-2.4 46.15 -1.8 46.95 -0.9 47.25 Q-0.1 47.25 0.35 46.6 0.8 45.95 0.8 45.1 L0.6 44.05 0.05 43.2 Q-0.35 42.85 -0.9 42.85 -1.4 42.85 -1.8 43.2 L-2.4 44 -2.6 45.1 M19.9 42.2 L19.9 48.4 Q19.9 49.7 19.4 50.55 18.85 51.45 17.9 51.9 L15.75 52.3 14.4 52.15 12.95 51.6 Q12.35 51.25 12.35 50.7 L12.6 50.1 Q12.9 49.75 13.2 49.75 L14.1 50 15.05 50.3 15.9 50.45 16.85 50.25 17.5 49.65 17.75 48.7 17.75 48.2 17.7 48.2 Q17 49.25 15.55 49.25 L14.1 48.9 13.05 48 12.4 46.65 12.2 45.1 Q12.2 44.25 12.45 43.5 L13.15 42.15 Q13.65 41.55 14.3 41.25 14.95 40.9 15.75 40.9 L16.5 41 Q16.9 41.1 17.2 41.35 L17.75 41.9 Q17.95 41 18.8 41 L19.4 41.15 19.75 41.55 19.9 42.2 M17.75 45.1 L17.55 44.05 17 43.2 Q16.6 42.85 16.05 42.85 15.5 42.85 15.15 43.2 L14.55 44 14.35 45.05 14.55 46.15 15.1 46.95 16.05 47.25 Q16.85 47.25 17.3 46.65 17.75 46 17.75 45.1 M21.1 46.1 L21.1 42.2 Q21.1 41.65 21.4 41.3 21.7 41 22.2 41 L22.75 41.15 23.15 41.55 23.3 42.2 23.3 46.05 Q23.3 46.65 23.7 47.05 24.1 47.45 24.65 47.45 L25.35 47.25 25.9 46.8 26.05 46.05 26.05 42.2 Q26.05 41.65 26.35 41.3 26.65 41 27.15 41 L27.7 41.15 28.1 41.55 28.25 42.2 28.25 46.1 Q28.25 47.05 27.8 47.75 L26.6 48.85 24.65 49.25 Q23 49.25 22.05 48.4 21.1 47.55 21.1 46.1 M36.85 42.4 L36.85 47.75 36.65 48.75 Q36.5 49.15 35.8 49.15 L35.15 48.9 Q34.9 48.7 34.8 48.25 33.9 49.25 32.7 49.25 31.7 49.25 30.9 48.7 30.1 48.15 29.6 47.2 29.15 46.25 29.15 45.05 29.15 43.9 29.65 42.95 30.1 42 30.9 41.45 31.75 40.9 32.7 40.9 L33.85 41.15 34.8 41.9 Q34.8 41.5 35.1 41.25 35.4 41 35.8 41 36.5 41 36.65 41.35 L36.85 42.4 M31.3 45.1 L31.5 46.15 32.1 46.95 33 47.25 Q33.8 47.25 34.25 46.6 34.7 45.95 34.7 45.1 L34.5 44.05 33.95 43.2 Q33.55 42.85 33 42.85 32.5 42.85 32.1 43.2 L31.5 44 31.3 45.1 M-33.55 40.9 Q-32.7 40.9 -31.95 41.25 L-30.75 42.15 Q-30.2 42.75 -29.95 43.5 -29.65 44.25 -29.65 45.05 -29.65 45.9 -29.95 46.7 L-30.7 48 -31.95 48.9 -33.55 49.25 Q-34.65 49.25 -35.55 48.7 -36.45 48.1 -36.9 47.15 -37.4 46.2 -37.4 45.05 L-37.1 43.5 -36.3 42.15 -35.1 41.25 -33.55 40.9 M-33.55 42.85 Q-34.05 42.85 -34.45 43.2 L-35.05 44 -35.25 45.1 -35.05 46.15 -34.45 46.95 -33.55 47.25 -32.6 46.95 -32 46.15 -31.8 45.1 -32 44.05 -32.6 43.2 Q-33 42.85 -33.55 42.85 M-42.1 47.95 L-42.1 42.05 -41.8 41.25 -41 41 Q-39.95 41 -39.95 41.9 L-39.9 41.9 -39.25 41.2 -38.4 41 Q-38 41 -37.7 41.3 -37.35 41.6 -37.35 42.15 L-37.5 42.65 -38 42.9 Q-38.25 43.05 -38.65 43.2 L-39.6 43.75 Q-39.95 44.05 -39.95 44.65 L-39.95 47.95 -40.1 48.55 -40.5 49 -41.05 49.15 Q-41.5 49.15 -41.8 48.8 L-42.1 47.95 M-28.75 47.95 L-28.75 42.2 -28.45 41.3 Q-28.15 41 -27.65 41 L-27 41.2 Q-26.7 41.4 -26.65 41.8 -26.05 40.9 -24.6 40.9 -23.75 40.9 -23.05 41.25 -22.4 41.6 -22 42.25 -21.6 42.9 -21.6 43.8 L-21.6 47.95 -21.75 48.55 -22.15 49 -22.7 49.15 Q-23.2 49.15 -23.5 48.8 L-23.8 47.95 -23.8 44.15 Q-23.8 43.45 -24.15 43.05 -24.55 42.7 -25.2 42.7 L-25.95 42.9 -26.4 43.4 -26.55 44.15 -26.55 47.95 -26.7 48.55 -27.1 49 -27.65 49.15 Q-28.15 49.15 -28.45 48.8 L-28.75 47.95 M-13 42.2 L-13 48.4 Q-13 49.7 -13.5 50.55 -14.05 51.45 -15 51.9 -15.9 52.3 -17.15 52.3 L-18.5 52.15 -19.95 51.6 Q-20.55 51.25 -20.55 50.7 L-20.3 50.1 Q-20 49.75 -19.7 49.75 L-18.8 50 -17.85 50.3 -17 50.45 -16.05 50.25 -15.4 49.65 -15.15 48.7 -15.15 48.2 -15.2 48.2 Q-15.9 49.25 -17.35 49.25 L-18.8 48.9 Q-19.45 48.55 -19.85 48 L-20.5 46.65 -20.7 45.1 -20.45 43.5 -19.75 42.15 Q-19.25 41.55 -18.6 41.25 -17.95 40.9 -17.15 40.9 L-16.4 41 Q-16 41.1 -15.7 41.35 -15.35 41.55 -15.15 41.9 -14.95 41 -14.1 41 L-13.5 41.15 -13.15 41.55 Q-13 41.85 -13 42.2 M-15.15 45.1 L-15.35 44.05 -15.9 43.2 Q-16.3 42.85 -16.85 42.85 -17.4 42.85 -17.75 43.2 L-18.35 44 -18.55 45.05 -18.35 46.15 -17.8 46.95 -16.85 47.25 Q-16.05 47.25 -15.6 46.65 -15.15 46 -15.15 45.1 M-7.8 47.95 L-7.8 38.7 -7.5 37.85 Q-7.2 37.5 -6.75 37.5 L-6.15 37.65 -5.8 38.1 Q-5.65 38.35 -5.65 38.7 L-5.65 47.95 -5.8 48.55 -6.2 49 -6.75 49.15 Q-7.2 49.15 -7.5 48.8 L-7.8 47.95 M-51.1 38.2 L-49.9 38.35 Q-49.2 38.5 -48.7 38.85 -48.15 39.15 -48.15 39.7 -48.15 40.15 -48.45 40.5 L-49.15 40.8 -49.6 40.75 -50.1 40.55 -50.6 40.4 -51.15 40.35 -52 40.6 Q-52.4 40.9 -52.4 41.3 -52.4 41.8 -51.55 42.1 L-49.75 42.7 Q-48.75 43.05 -48.05 43.75 -47.4 44.45 -47.4 45.75 -47.4 46.75 -47.9 47.55 -48.4 48.35 -49.3 48.8 L-51.2 49.25 -53.7 48.85 Q-54.85 48.5 -54.85 47.55 L-54.6 46.8 Q-54.3 46.5 -53.85 46.5 L-53.4 46.55 -52.7 46.8 -52 47 -51.35 47.05 -50.5 46.9 -50 46.45 -49.8 45.8 Q-49.8 45.2 -50.2 45.05 -50.6 44.85 -52.05 44.4 -53.5 43.95 -54.15 43.35 -54.8 42.75 -54.8 41.6 -54.8 40.55 -54.3 39.8 -53.8 39 -52.95 38.6 L-51.1 38.2 M-45.95 47.95 L-45.95 42.95 -46.45 42.95 -47.1 42.7 -47.4 42 -47.1 41.35 Q-46.85 41.05 -46.45 41.05 L-45.95 41.05 -45.95 39.8 -45.65 38.9 Q-45.35 38.6 -44.9 38.6 L-44.3 38.75 -43.95 39.15 Q-43.8 39.45 -43.8 39.8 L-43.8 41.05 -43.2 41.05 Q-42.75 41.05 -42.45 41.3 -42.15 41.55 -42.15 42 -42.15 42.5 -42.45 42.7 L-43.2 42.95 -43.8 42.95 -43.8 47.95 -43.95 48.55 -44.3 49 -44.9 49.15 Q-45.35 49.15 -45.65 48.8 L-45.95 47.95"/>
  </g>
</svg>