<svg xmlns="http://www.w3.org/2000/svg" xmlns:xlink="http://www.w3.org/1999/xlink">
  <defs/>
  <g>
    <path stroke="none" fill="#11141E" d="M-58 -48.2 L-58 15.25 Q-58 25 -48.2 25 L48.25 25 Q58 25 58 15.25 L58 -48.2 Q58 -58 48.25 -58 L-48.2 -58 Q-58 -58 -58 -48.2 M-48.2 -64 L48.25 -64 Q64 -64 64 -48.2 L64 48.25 Q64 64 48.25 64 L-48.2 64 Q-64 64 -64 48.25 L-64 -48.2 Q-64 -64 -48.2 -64"/>
    <path stroke="none" fill="#FFFFFF" d="M-58 -48.2 Q-58 -58 -48.2 -58 L48.25 -58 Q58 -58 58 -48.2 L58 15.25 Q58 25 48.25 25 L-48.2 25 Q-58 25 -58 15.25 L-58 -48.2"/>
    <path stroke="none" fill="#11141E" d="M-0.5 -33 Q-6.1 -33 -10 -29.25 -14 -25.5 -14 -20.25 -14 -18.6 -13.6 -17.15 -13.25 -15.7 -12.5 -14.4 L-12.5 -12 -12.3 -10.85 -11.65 -9.8 Q-10.75 -9 -9.5 -9 L-6.5 -9 -6.5 -6 Q-6.5 -4.7 -5.65 -3.8 -4.75 -3 -3.5 -3 L2.5 -3 Q3.8 -3 4.6 -3.8 5.5 -4.7 5.5 -6 L5.5 -9 8.5 -9 Q9.8 -9 10.6 -9.8 11.5 -10.7 11.5 -12 L11.5 -14.4 12.5 -16.8 Q13 -18.5 13 -20.25 13 -22.2 12.45 -23.9 11.55 -26.9 9.05 -29.25 5.05 -33 -0.5 -33 M4 -12 Q2.75 -12 1.85 -12.8 1 -13.7 1 -15 1 -16.25 1.85 -17.1 2.75 -18 4 -18 5.3 -18 6.1 -17.1 7 -16.2 7 -15 7 -13.7 6.1 -12.8 5.3 -12 4 -12 M-18.9 -40 L16.95 -40 Q27 -40 27 -29.95 L27 -8.05 Q27 2 16.95 2 L8.95 2 2.55 8.25 Q-1 11.75 -4.55 8.25 L-10.9 2 -18.9 2 Q-29 2 -29 -8.05 L-29 -29.95 Q-29 -40 -18.9 -40 M-5 -12 Q-6.25 -12 -7.15 -12.8 L-7.75 -13.7 -8 -15 Q-8 -16.25 -7.15 -17.1 -6.25 -18 -5 -18 -3.7 -18 -2.9 -17.1 L-2.7 -16.9 Q-2 -16.05 -2 -15 -2 -13.7 -2.9 -12.8 -3.7 -12 -5 -12"/>
  </g>
</svg>