<svg xmlns="http://www.w3.org/2000/svg" xmlns:xlink="http://www.w3.org/1999/xlink">
  <defs/>
  <g>
    <path stroke="none" fill="#11141E" d="M-48.2 -64 L48.25 -64 Q64 -64 64 -48.2 L64 48.25 Q64 64 48.25 64 L-48.2 64 Q-64 64 -64 48.25 L-64 -48.2 Q-64 -64 -48.2 -64 M-58 -48.2 L-58 15.25 Q-58 25 -48.2 25 L48.25 25 Q58 25 58 15.25 L58 -48.2 Q58 -58 48.25 -58 L-48.2 -58 Q-58 -58 -58 -48.2"/>
    <path stroke="none" fill="#FFFFFF" d="M-58 -48.2 Q-58 -58 -48.2 -58 L48.25 -58 Q58 -58 58 -48.2 L58 15.25 Q58 25 48.25 25 L-48.2 25 Q-58 25 -58 15.25 L-58 -48.2"/>
    <path stroke="none" fill="#11141E" d="M14 -40 L-14 -40 Q-17 -40 -17 -37 L-17 -5.8 Q-16.9 -3 -14 -3 L14 -3 Q16.85 -3 17 -5.75 L17 -37 Q17 -40 14 -40 M-14 -46 L14 -46 Q23 -46 23 -37 L23 4 Q23 13 14 13 L-14 13 Q-23 13 -23 4 L-23 -37 Q-23 -46 -14 -46 M4 5 Q4 3.3 2.8 2.1 1.7 1 0 1 -1.7 1 -2.85 2.1 -4 3.3 -4 5 -4 6.65 -2.85 7.8 -1.7 9 0 9 1.7 9 2.8 7.8 4 6.65 4 5"/>
  </g>
</svg>