<svg xmlns="http://www.w3.org/2000/svg" xmlns:xlink="http://www.w3.org/1999/xlink">
  <defs/>
  <g>
    <path stroke="none" fill="#11141E" d="M-48.2 -64 L48.25 -64 Q64 -64 64 -48.2 L64 48.25 Q64 64 48.25 64 L-48.2 64 Q-64 64 -64 48.25 L-64 -48.2 Q-64 -64 -48.2 -64 M-58 -48.2 L-58 15.25 Q-58 25 -48.2 25 L48.25 25 Q58 25 58 15.25 L58 -48.2 Q58 -58 48.25 -58 L-48.2 -58 Q-58 -58 -58 -48.2"/>
    <path stroke="none" fill="#FFFFFF" d="M-58 -48.2 Q-58 -58 -48.2 -58 L48.25 -58 Q58 -58 58 -48.2 L58 15.25 Q58 25 48.25 25 L-48.2 25 Q-58 25 -58 15.25 L-58 -48.2"/>
    <path stroke="none" fill="#11141E" d="M-16 -29.2 L-16 -11.85 -15.85 -11.25 -15.45 -10.9 -15.4 -10.9 -0.5 -2.2 -0.45 -2.1 0 -2 0.45 -2.1 0.55 -2.2 15.45 -10.9 15.5 -10.9 15.85 -11.2 16 -11.85 16 -29.2 15.9 -29.65 15.8 -29.9 15.5 -30.15 15.45 -30.2 0.55 -38.85 0 -39 -0.55 -38.85 -0.5 -38.85 -15.4 -30.2 -15.45 -30.2 -15.8 -29.8 -15.9 -29.65 -16 -29.2 M-22 -29.2 Q-22 -31.15 -21.05 -32.7 L-21 -32.8 Q-20.05 -34.5 -18.45 -35.4 L-3.55 -44.05 Q-1.9 -45 0 -45 1.9 -45 3.55 -44.05 L18.4 -35.4 18.45 -35.4 Q20.2 -34.4 21.1 -32.65 L21.15 -32.6 Q22 -31.1 22 -29.2 L22 -11.7 22 -11.55 22 -2.85 Q22 -1 21.1 0.7 20.2 2.3 18.5 3.3 L3.6 12 3.65 11.95 Q1.95 13 0 13 -1.95 13 -3.65 11.95 L-3.55 12 -18.45 3.3 Q-20.05 2.35 -21 0.85 L-21.05 0.7 Q-22 -1 -22 -2.85 L-22 -11.55 -22 -11.7 -22 -29.2"/>
  </g>
</svg>