<svg xmlns="http://www.w3.org/2000/svg" xmlns:xlink="http://www.w3.org/1999/xlink">
  <defs/>
  <g>
    <path stroke="none" fill="#11141E" d="M-58 -48.2 L-58 15.25 Q-58 25 -48.2 25 L48.25 25 Q58 25 58 15.25 L58 -48.2 Q58 -58 48.25 -58 L-48.2 -58 Q-58 -58 -58 -48.2 M-48.2 -64 L48.25 -64 Q64 -64 64 -48.2 L64 48.25 Q64 64 48.25 64 L-48.2 64 Q-64 64 -64 48.25 L-64 -48.2 Q-64 -64 -48.2 -64"/>
    <path stroke="none" fill="#FFFFFF" d="M-58 -48.2 Q-58 -58 -48.2 -58 L48.25 -58 Q58 -58 58 -48.2 L58 15.25 Q58 25 48.25 25 L-48.2 25 Q-58 25 -58 15.25 L-58 -48.2"/>
    <path stroke="none" fill="#11141E" d="M-16 -29.2 L-16 -11.85 -15.85 -11.25 -15.45 -10.9 -15.4 -10.9 -0.5 -2.2 -0.45 -2.1 0 -2 0.45 -2.1 0.55 -2.2 15.45 -10.9 15.5 -10.9 15.85 -11.2 16 -11.85 16 -29.2 15.9 -29.65 15.8 -29.9 15.5 -30.15 15.45 -30.2 0.55 -38.85 0 -39 -0.55 -38.85 -0.5 -38.85 -15.4 -30.2 -15.45 -30.2 -15.8 -29.8 -15.9 -29.65 -16 -29.2 M-22 -29.2 Q-22 -31.15 -21.05 -32.7 L-21 -32.8 Q-20.05 -34.5 -18.45 -35.4 L-3.55 -44.05 Q-1.9 -45 0 -45 1.9 -45 3.55 -44.05 L18.4 -35.4 18.45 -35.4 Q20.2 -34.4 21.1 -32.65 L21.15 -32.6 Q22 -31.1 22 -29.2 L22 -11.7 22 -11.55 22 -2.85 Q22 -1 21.1 0.7 20.2 2.3 18.5 3.3 L3.6 12 3.65 11.95 Q1.95 13 0 13 -1.95 13 -3.65 11.95 L-3.55 12 -18.45 3.3 Q-20.05 2.35 -21 0.85 L-21.05 0.7 Q-22 -1 -22 -2.85 L-22 -11.55 -22 -11.7 -22 -29.2"/>
    <path stroke="none" fill="#FFFFFF" d="M7.5 46.95 L2 46.95 Q2.1 47.85 2.8 48.35 3.45 48.8 4.4 48.8 L5.45 48.6 6.45 48.1 Q7.1 47.75 7.35 47.75 L7.9 47.9 8.25 48.35 8.4 48.85 8.05 49.65 7.05 50.4 5.65 50.9 4.2 51.05 Q2.75 51.05 1.65 50.45 0.55 49.8 -0.05 48.65 -0.65 47.5 -0.65 46.1 -0.65 45.1 -0.3 44.2 0 43.3 0.65 42.55 1.25 41.85 2.15 41.45 L4 41.05 Q5 41.05 5.85 41.5 L7.35 42.6 8.3 44.1 Q8.65 44.95 8.65 45.75 8.65 46.95 7.5 46.95 M1.9 45.2 L6.05 45.2 Q5.95 44.3 5.4 43.75 4.85 43.2 4 43.2 3.15 43.2 2.6 43.75 2.05 44.35 1.9 45.2 M16.05 42.95 L15.75 43.75 Q15.45 44.1 15 44.1 L14.25 43.85 13.35 43.45 12.65 43.35 12.05 43.5 Q11.8 43.7 11.8 44.05 11.8 44.45 12.55 44.75 L14.2 45.45 Q15.05 45.8 15.7 46.4 16.3 47 16.3 48 16.3 48.9 15.85 49.6 L14.55 50.65 12.6 51.05 11 50.8 Q10.15 50.55 9.55 50.1 9 49.6 9 49.05 9 48.7 9.3 48.3 9.6 47.9 10.1 47.9 L10.7 48.05 11.4 48.35 12.05 48.7 12.8 48.8 13.6 48.65 13.8 48.05 Q13.8 47.7 13.05 47.35 L11.4 46.65 Q10.5 46.3 9.9 45.7 9.3 45.1 9.3 44.1 9.3 43.2 9.75 42.5 10.2 41.8 11 41.45 L12.8 41.05 14.3 41.25 Q15 41.5 15.55 41.9 16.05 42.35 16.05 42.95 M-14.55 49.55 L-14.55 40.5 -16.5 40.5 Q-17.1 40.5 -17.4 40.15 L-17.7 39.3 -17.55 38.65 -17.1 38.2 -16.5 38.05 -9.85 38.05 -9.25 38.2 -8.8 38.65 Q-8.65 38.95 -8.65 39.3 -8.65 39.8 -8.95 40.15 -9.25 40.5 -9.85 40.5 L-11.85 40.5 -11.85 49.55 Q-11.85 50.25 -12.2 50.6 L-13.2 50.95 Q-13.8 50.95 -14.15 50.6 -14.55 50.25 -14.55 49.55 M-4.15 49.5 L-4.15 38.45 Q-4.15 37.8 -3.8 37.4 -3.45 37 -2.85 37 L-2.2 37.15 -1.7 37.7 Q-1.55 38 -1.55 38.45 L-1.55 49.5 Q-1.55 49.95 -1.7 50.25 L-2.2 50.8 -2.85 50.95 Q-3.45 50.95 -3.8 50.55 L-4.15 49.5 M-6.85 37.3 L-6.15 37.5 -5.6 38 -5.4 38.7 Q-5.4 39.3 -5.8 39.75 -6.25 40.2 -6.85 40.2 -7.45 40.2 -7.85 39.75 -8.3 39.3 -8.3 38.7 -8.3 38.15 -7.85 37.7 -7.45 37.3 -6.85 37.3 M-8.15 49.5 L-8.15 42.6 Q-8.15 41.95 -7.8 41.55 -7.45 41.15 -6.85 41.15 L-6.2 41.35 -5.7 41.85 Q-5.55 42.2 -5.55 42.6 L-5.55 49.5 Q-5.55 49.95 -5.7 50.25 L-6.2 50.8 -6.85 50.95 Q-7.45 50.95 -7.8 50.55 L-8.15 49.5"/>
  </g>
</svg>