<svg xmlns="http://www.w3.org/2000/svg" xmlns:xlink="http://www.w3.org/1999/xlink">
  <defs/>
  <g>
    <path stroke="none" fill="#FFFFFF" d="M52 -49 Q52 -50.25 51.1 -51.15 50.25 -52 49 -52 47.75 -52 46.85 -51.15 46 -50.25 46 -49 46 -47.75 46.85 -46.9 47.75 -46 49 -46 50.25 -46 51.1 -46.9 52 -47.75 52 -49 M48.25 -58 Q58 -58 58 -48.2 L58 5 38 25 -48.2 25 Q-58 25 -58 15.25 L-58 -38 -38 -58 48.25 -58 M-46 17 Q-46 15.75 -46.9 14.85 -47.75 14 -49 14 -50.25 14 -51.15 14.85 -52 15.75 -52 17 -52 18.25 -51.15 19.1 -50.25 20 -49 20 -47.75 20 -46.9 19.1 -46 18.25 -46 17"/>
    <path stroke="none" fill="#11141E" d="M-46 17 Q-46 18.25 -46.9 19.1 -47.75 20 -49 20 -50.25 20 -51.15 19.1 -52 18.25 -52 17 -52 15.75 -51.15 14.85 -50.25 14 -49 14 -47.75 14 -46.9 14.85 -46 15.75 -46 17 M52 -49 Q52 -47.75 51.1 -46.9 50.25 -46 49 -46 47.75 -46 46.85 -46.9 46 -47.75 46 -49 46 -50.25 46.85 -51.15 47.75 -52 49 -52 50.25 -52 51.1 -51.15 52 -50.25 52 -49 M48.25 -64 Q64 -64 64 -48.2 L64 48.25 Q64 64 48.25 64 L-48.2 64 Q-64 64 -64 48.25 L-64 -49 Q-63.6 -63.1 -50 -63.95 L-50 -64 48.25 -64 M48.25 -58 L-38 -58 -58 -38 -58 15.25 Q-58 25 -48.2 25 L38 25 58 5 58 -48.2 Q58 -58 48.25 -58"/>
    <path stroke="none" fill="#11141E" d="M23.25 -14.4 L28.2 -1.9 Q28.6 -0.8 28.5 0.35 L28.15 4.35 Q28 6.45 26.35 7.8 24.8 9.15 22.75 8.95 L2.65 7.25 Q0.6 7.05 -0.8 5.45 -2.15 3.85 -2 1.75 L-1.65 -2.25 Q-1.55 -3.4 -0.9 -4.4 L6.2 -15.9 6.9 -16.8 Q5.45 -17.85 4.25 -19.2 0.3 -24 0.85 -30.25 1.35 -36.45 6.1 -40.45 10.9 -44.5 17.15 -43.95 23.4 -43.4 27.4 -38.65 31.45 -33.85 30.95 -27.65 30.4 -21.4 25.5 -17.4 L22.65 -15.5 23.25 -14.4 M-11.3 -6.35 L-5.9 2.4 Q-5.4 3.15 -5.3 4.05 L-5 7.2 Q-4.85 8.8 -5.85 10.05 -6.75 11.3 -8.4 11.45 L-23.5 13 Q-25.05 13.15 -26.3 12.15 -27.5 11.1 -27.65 9.5 L-27.95 6.4 Q-28.05 5.5 -27.75 4.7 L-24.15 -5.05 -24.05 -5.15 -25.9 -6.35 Q-29.55 -9.45 -29.95 -14.25 -30.45 -19 -27.55 -22.7 -24.55 -26.45 -19.8 -26.95 -15.1 -27.4 -11.5 -24.35 -7.85 -21.3 -7.35 -16.6 -6.9 -11.75 -9.85 -8 L-11.35 -6.5 -11.3 -6.35"/>
    <path stroke="none" fill="#FFFFFF" d="M10.25 49.55 L10.25 40.5 9.15 40.5 Q8.55 40.5 8.25 40.15 7.95 39.8 7.95 39.3 7.95 38.8 8.3 38.4 8.6 38.05 9.15 38.05 L11.75 38.05 Q12.3 38.05 12.6 38.4 12.95 38.75 12.95 39.3 L12.95 49.55 Q12.95 50.25 12.55 50.6 12.2 50.95 11.6 50.95 L10.6 50.6 Q10.25 50.2 10.25 49.55 M2.25 42.95 L1.95 43.75 Q1.65 44.1 1.2 44.1 L0.45 43.85 -0.45 43.45 -1.15 43.35 -1.75 43.5 -2 44.05 Q-2 44.45 -1.25 44.75 L0.4 45.45 Q1.25 45.8 1.9 46.4 2.5 47 2.5 48 2.5 48.9 2.05 49.6 L0.75 50.65 Q-0.1 51.05 -1.2 51.05 L-2.8 50.8 Q-3.65 50.55 -4.25 50.1 -4.8 49.6 -4.8 49.05 L-4.5 48.3 Q-4.2 47.9 -3.7 47.9 L-3.1 48.05 -2.4 48.35 -1.75 48.7 -1 48.8 -0.2 48.65 0 48.05 Q0 47.7 -0.75 47.35 L-2.4 46.65 Q-3.3 46.3 -3.9 45.7 -4.5 45.1 -4.5 44.1 -4.5 43.2 -4.05 42.5 -3.6 41.8 -2.8 41.45 L-1 41.05 0.5 41.25 Q1.2 41.5 1.75 41.9 2.25 42.35 2.25 42.95 M19.3 51.05 Q18.1 51.05 17.05 50.55 16.05 50 15.45 49.1 14.85 48.15 14.85 46.95 14.85 46.25 15.1 45.65 L15.8 44.6 Q16.25 44.15 16.8 43.85 15.4 42.85 15.4 41.25 15.4 40.5 15.75 39.85 L16.55 38.75 Q17.1 38.3 17.8 38.05 L19.3 37.8 20.8 38.05 Q21.5 38.3 22.05 38.75 L22.9 39.85 23.2 41.25 22.85 42.75 21.85 43.85 Q22.75 44.3 23.25 45.1 23.75 45.95 23.75 46.95 23.75 48.15 23.15 49.1 22.55 50.05 21.55 50.55 20.55 51.05 19.3 51.05 M19.3 40.2 Q18.7 40.2 18.35 40.55 18 40.95 18 41.55 18 42.2 18.35 42.55 18.7 42.95 19.3 42.95 19.9 42.95 20.3 42.55 20.65 42.2 20.65 41.55 20.65 40.95 20.3 40.55 19.95 40.2 19.3 40.2 M19.35 45 Q18.55 45 18.1 45.5 17.65 46 17.65 46.8 17.65 47.5 18.1 48.05 18.55 48.6 19.35 48.6 20.05 48.6 20.5 48.05 L20.95 46.8 Q20.95 45.95 20.5 45.45 20.1 45 19.35 45 M28.8 45.2 L28.8 42.6 Q28.8 42.1 29.1 41.8 29.4 41.5 29.9 41.5 30.4 41.5 30.7 41.8 L31 42.6 31 45.2 33.6 45.2 Q34.1 45.2 34.4 45.5 L34.65 46.3 34.4 47.1 33.6 47.4 31 47.4 31 50 30.7 50.75 29.9 51.05 29.1 50.75 Q28.8 50.45 28.8 50 L28.8 47.4 26.2 47.4 Q25.7 47.4 25.4 47.1 25.15 46.8 25.15 46.3 25.15 45.8 25.4 45.5 25.7 45.2 26.2 45.2 L28.8 45.2 M-30.65 40.65 L-32.35 45.85 -28.95 45.85 -30.65 40.65 M-36.2 49.1 L-32.55 39.3 -31.8 38.25 Q-31.3 37.8 -30.65 37.8 -29.95 37.8 -29.45 38.2 -28.95 38.6 -28.7 39.3 L-25.2 49.1 -25.05 49.75 -25.2 50.4 -25.65 50.8 -26.3 50.95 Q-27.3 50.95 -27.6 50 L-28.15 48.35 -33.15 48.35 -33.7 50 Q-34 50.95 -35 50.95 -35.55 50.95 -35.9 50.6 -36.3 50.25 -36.3 49.7 L-36.2 49.1 M-15.4 42.6 L-15.4 50.1 Q-15.4 51.6 -16.05 52.65 -16.65 53.7 -17.8 54.25 L-20.4 54.75 -22 54.55 -23.75 53.9 Q-24.5 53.45 -24.5 52.85 L-24.15 52.1 Q-23.8 51.7 -23.45 51.7 L-22.35 52 -21.25 52.4 -20.2 52.5 -19.05 52.25 Q-18.55 52 -18.3 51.55 -18 51.1 -18 50.45 L-18 49.85 -18.05 49.85 Q-18.85 51.05 -20.65 51.05 L-22.4 50.65 -23.65 49.55 -24.4 47.95 -24.65 46.1 -24.35 44.2 -23.5 42.6 -22.1 41.45 -20.4 41.05 -19.45 41.2 -18.6 41.6 -18 42.25 Q-17.75 41.15 -16.7 41.15 L-16.05 41.35 -15.55 41.85 Q-15.4 42.2 -15.4 42.6 M-18 46.15 L-18.2 44.85 Q-18.45 44.2 -18.9 43.85 L-20.05 43.45 Q-20.65 43.45 -21.1 43.8 L-21.8 44.8 -22.05 46.05 -21.8 47.35 -21.15 48.35 -20.05 48.7 Q-19.05 48.7 -18.5 47.95 -18 47.2 -18 46.15 M-6.3 46.95 L-11.8 46.95 Q-11.7 47.85 -11 48.35 L-9.4 48.8 -8.35 48.6 -7.35 48.1 Q-6.7 47.75 -6.45 47.75 L-5.9 47.9 -5.55 48.35 -5.4 48.85 Q-5.4 49.3 -5.75 49.65 L-6.75 50.4 -8.15 50.9 -9.6 51.05 Q-11.05 51.05 -12.15 50.45 -13.25 49.8 -13.85 48.65 -14.45 47.5 -14.45 46.1 -14.45 45.1 -14.1 44.2 -13.8 43.3 -13.15 42.55 -12.55 41.85 -11.65 41.45 -10.8 41.05 -9.8 41.05 -8.8 41.05 -7.95 41.5 -7.05 41.9 -6.45 42.6 -5.85 43.25 -5.5 44.1 -5.15 44.95 -5.15 45.75 -5.15 46.95 -6.3 46.95 M-11.9 45.2 L-7.75 45.2 Q-7.85 44.3 -8.4 43.75 -8.95 43.2 -9.8 43.2 -10.65 43.2 -11.2 43.75 -11.75 44.35 -11.9 45.2"/>
  </g>
</svg>