<svg xmlns="http://www.w3.org/2000/svg" xmlns:xlink="http://www.w3.org/1999/xlink">
  <defs/>
  <g>
    <path stroke="none" fill="#FFFFFF" d="M52 -49 Q52 -50.25 51.1 -51.15 50.25 -52 49 -52 47.75 -52 46.85 -51.15 46 -50.25 46 -49 46 -47.75 46.85 -46.9 47.75 -46 49 -46 50.25 -46 51.1 -46.9 52 -47.75 52 -49 M48.25 -58 Q58 -58 58 -48.2 L58 5 38 25 -48.2 25 Q-58 25 -58 15.25 L-58 -38 -38 -58 48.25 -58 M-46 17 Q-46 15.75 -46.9 14.85 -47.75 14 -49 14 -50.25 14 -51.15 14.85 -52 15.75 -52 17 -52 18.25 -51.15 19.1 -50.25 20 -49 20 -47.75 20 -46.9 19.1 -46 18.25 -46 17"/>
    <path stroke="none" fill="#11141E" d="M-46 17 Q-46 18.25 -46.9 19.1 -47.75 20 -49 20 -50.25 20 -51.15 19.1 -52 18.25 -52 17 -52 15.75 -51.15 14.85 -50.25 14 -49 14 -47.75 14 -46.9 14.85 -46 15.75 -46 17 M52 -49 Q52 -47.75 51.1 -46.9 50.25 -46 49 -46 47.75 -46 46.85 -46.9 46 -47.75 46 -49 46 -50.25 46.85 -51.15 47.75 -52 49 -52 50.25 -52 51.1 -51.15 52 -50.25 52 -49 M48.25 -64 Q64 -64 64 -48.2 L64 48.25 Q64 64 48.25 64 L-48.2 64 Q-64 64 -64 48.25 L-64 -49 Q-63.6 -63.1 -50 -63.95 L-50 -64 48.25 -64 M48.25 -58 L-38 -58 -58 -38 -58 15.25 Q-58 25 -48.2 25 L38 25 58 5 58 -48.2 Q58 -58 48.25 -58"/>
    <path stroke="none" fill="#11141E" d="M23.25 -14.4 L28.2 -1.9 Q28.6 -0.8 28.5 0.35 L28.15 4.35 Q28 6.45 26.35 7.8 24.8 9.15 22.75 8.95 L2.65 7.25 Q0.6 7.05 -0.8 5.45 -2.15 3.85 -2 1.75 L-1.65 -2.25 Q-1.55 -3.4 -0.9 -4.4 L6.2 -15.9 6.9 -16.8 Q5.45 -17.85 4.25 -19.2 0.3 -24 0.85 -30.25 1.35 -36.45 6.1 -40.45 10.9 -44.5 17.15 -43.95 23.4 -43.4 27.4 -38.65 31.45 -33.85 30.95 -27.65 30.4 -21.4 25.5 -17.4 L22.65 -15.5 23.25 -14.4 M-11.3 -6.35 L-5.9 2.4 Q-5.4 3.15 -5.3 4.05 L-5 7.2 Q-4.85 8.8 -5.85 10.05 -6.75 11.3 -8.4 11.45 L-23.5 13 Q-25.05 13.15 -26.3 12.15 -27.5 11.1 -27.65 9.5 L-27.95 6.4 Q-28.05 5.5 -27.75 4.7 L-24.15 -5.05 -24.05 -5.15 -25.9 -6.35 Q-29.55 -9.45 -29.95 -14.25 -30.45 -19 -27.55 -22.7 -24.55 -26.45 -19.8 -26.95 -15.1 -27.4 -11.5 -24.35 -7.85 -21.3 -7.35 -16.6 -6.9 -11.75 -9.85 -8 L-11.35 -6.5 -11.3 -6.35"/>
    <path stroke="none" fill="#FFFFFF" d="M10.6 49.55 L10.6 40.5 9.5 40.5 Q8.9 40.5 8.6 40.15 8.3 39.8 8.3 39.3 8.3 38.8 8.65 38.4 8.95 38.05 9.5 38.05 L12.1 38.05 Q12.65 38.05 12.95 38.4 13.3 38.75 13.3 39.3 L13.3 49.55 Q13.3 50.25 12.9 50.6 12.55 50.95 11.95 50.95 11.35 50.95 10.95 50.6 10.6 50.2 10.6 49.55 M2.6 42.95 L2.3 43.75 Q2 44.1 1.55 44.1 L0.8 43.85 -0.1 43.45 -0.8 43.35 -1.4 43.5 -1.65 44.05 Q-1.65 44.45 -0.9 44.75 L0.75 45.45 Q1.6 45.8 2.25 46.4 2.85 47 2.85 48 2.85 48.9 2.4 49.6 L1.1 50.65 -0.85 51.05 -2.45 50.8 -3.9 50.1 Q-4.45 49.6 -4.45 49.05 L-4.15 48.3 Q-3.85 47.9 -3.35 47.9 L-2.75 48.05 -2.05 48.35 -1.4 48.7 -0.65 48.8 0.15 48.65 0.35 48.05 Q0.35 47.7 -0.4 47.35 L-2.05 46.65 -3.55 45.7 Q-4.15 45.1 -4.15 44.1 -4.15 43.2 -3.7 42.5 -3.25 41.8 -2.45 41.45 L-0.65 41.05 0.85 41.25 Q1.55 41.5 2.1 41.9 2.6 42.35 2.6 42.95 M16.2 49.05 L20.7 40.5 16.1 40.5 Q15.45 40.5 15.1 40.15 14.75 39.8 14.75 39.3 14.75 38.75 15.1 38.4 15.4 38.05 16.1 38.05 L22.6 38.05 Q23.25 38.05 23.6 38.45 L23.9 39.35 23.8 39.85 23.5 40.5 19.05 49.6 18.55 50.45 18.15 50.85 17.5 50.95 Q16.85 50.95 16.45 50.55 L16.05 49.7 Q16.05 49.4 16.2 49.05 M28.5 45.2 L28.5 42.6 Q28.5 42.1 28.8 41.8 29.1 41.5 29.6 41.5 30.1 41.5 30.4 41.8 L30.7 42.6 30.7 45.2 33.3 45.2 Q33.8 45.2 34.1 45.5 L34.35 46.3 34.1 47.1 33.3 47.4 30.7 47.4 30.7 50 30.4 50.75 29.6 51.05 Q29.1 51.05 28.8 50.75 28.5 50.45 28.5 50 L28.5 47.4 25.9 47.4 25.1 47.1 Q24.85 46.8 24.85 46.3 24.85 45.8 25.1 45.5 25.4 45.2 25.9 45.2 L28.5 45.2 M-35.85 49.1 L-32.2 39.3 -31.45 38.25 Q-30.95 37.8 -30.3 37.8 -29.6 37.8 -29.1 38.2 -28.6 38.6 -28.35 39.3 L-24.85 49.1 -24.7 49.75 -24.85 50.4 -25.3 50.8 -25.95 50.95 Q-26.95 50.95 -27.25 50 L-27.8 48.35 -32.8 48.35 -33.35 50 Q-33.65 50.95 -34.65 50.95 -35.2 50.95 -35.55 50.6 -35.95 50.25 -35.95 49.7 L-35.85 49.1 M-15.05 42.6 L-15.05 50.1 Q-15.05 51.6 -15.7 52.65 -16.3 53.7 -17.45 54.25 L-20.05 54.75 -21.65 54.55 -23.4 53.9 Q-24.15 53.45 -24.15 52.85 -24.15 52.45 -23.8 52.1 -23.45 51.7 -23.1 51.7 L-22 52 -20.9 52.4 -19.85 52.5 -18.7 52.25 -17.95 51.55 Q-17.65 51.1 -17.65 50.45 L-17.65 49.85 -17.7 49.85 Q-18.5 51.05 -20.3 51.05 L-22.05 50.65 -23.3 49.55 -24.05 47.95 -24.3 46.1 -24 44.2 -23.15 42.6 -21.75 41.45 Q-21 41.05 -20.05 41.05 L-19.1 41.2 Q-18.65 41.35 -18.25 41.6 L-17.65 42.25 Q-17.4 41.15 -16.35 41.15 L-15.7 41.35 -15.2 41.85 Q-15.05 42.2 -15.05 42.6 M-17.65 46.15 L-17.85 44.85 Q-18.1 44.2 -18.55 43.85 -19 43.45 -19.7 43.45 -20.3 43.45 -20.75 43.8 L-21.45 44.8 -21.7 46.05 -21.45 47.35 -20.8 48.35 Q-20.35 48.7 -19.7 48.7 -18.7 48.7 -18.15 47.95 -17.65 47.2 -17.65 46.15 M-30.3 40.65 L-32 45.85 -28.6 45.85 -30.3 40.65 M-5.95 46.95 L-11.45 46.95 Q-11.35 47.85 -10.65 48.35 L-9.05 48.8 -8 48.6 -7 48.1 Q-6.35 47.75 -6.1 47.75 L-5.55 47.9 -5.2 48.35 -5.05 48.85 Q-5.05 49.3 -5.4 49.65 L-6.4 50.4 -7.8 50.9 -9.25 51.05 Q-10.7 51.05 -11.8 50.45 -12.9 49.8 -13.5 48.65 -14.1 47.5 -14.1 46.1 -14.1 45.1 -13.75 44.2 L-12.8 42.55 -11.3 41.45 -9.45 41.05 Q-8.45 41.05 -7.6 41.5 L-6.1 42.6 Q-5.5 43.25 -5.15 44.1 -4.8 44.95 -4.8 45.75 -4.8 46.95 -5.95 46.95 M-11.55 45.2 L-7.4 45.2 Q-7.5 44.3 -8.05 43.75 -8.6 43.2 -9.45 43.2 -10.3 43.2 -10.85 43.75 -11.4 44.35 -11.55 45.2"/>
  </g>
</svg>