<svg xmlns="http://www.w3.org/2000/svg" xmlns:xlink="http://www.w3.org/1999/xlink">
  <defs/>
  <g>
    <path stroke="none" fill="#FFFFFF" d="M52 -49 Q52 -50.25 51.1 -51.15 50.25 -52 49 -52 47.75 -52 46.85 -51.15 46 -50.25 46 -49 46 -47.75 46.85 -46.9 47.75 -46 49 -46 50.25 -46 51.1 -46.9 52 -47.75 52 -49 M48.25 -58 Q58 -58 58 -48.2 L58 5 38 25 -48.2 25 Q-58 25 -58 15.25 L-58 -38 -38 -58 48.25 -58 M-46 17 Q-46 15.75 -46.9 14.85 -47.75 14 -49 14 -50.25 14 -51.15 14.85 -52 15.75 -52 17 -52 18.25 -51.15 19.1 -50.25 20 -49 20 -47.75 20 -46.9 19.1 -46 18.25 -46 17"/>
    <path stroke="none" fill="#11141E" d="M-46 17 Q-46 18.25 -46.9 19.1 -47.75 20 -49 20 -50.25 20 -51.15 19.1 -52 18.25 -52 17 -52 15.75 -51.15 14.85 -50.25 14 -49 14 -47.75 14 -46.9 14.85 -46 15.75 -46 17 M52 -49 Q52 -47.75 51.1 -46.9 50.25 -46 49 -46 47.75 -46 46.85 -46.9 46 -47.75 46 -49 46 -50.25 46.85 -51.15 47.75 -52 49 -52 50.25 -52 51.1 -51.15 52 -50.25 52 -49 M48.25 -64 Q64 -64 64 -48.2 L64 48.25 Q64 64 48.25 64 L-48.2 64 Q-64 64 -64 48.25 L-64 -49 Q-63.6 -63.1 -50 -63.95 L-50 -64 48.25 -64 M48.25 -58 L-38 -58 -58 -38 -58 15.25 Q-58 25 -48.2 25 L38 25 58 5 58 -48.2 Q58 -58 48.25 -58"/>
    <path stroke="none" fill="#11141E" d="M23.25 -14.4 L28.2 -1.9 Q28.6 -0.8 28.5 0.35 L28.15 4.35 Q28 6.45 26.35 7.8 24.8 9.15 22.75 8.95 L2.65 7.25 Q0.6 7.05 -0.8 5.45 -2.15 3.85 -2 1.75 L-1.65 -2.25 Q-1.55 -3.4 -0.9 -4.4 L6.2 -15.9 6.9 -16.8 Q5.45 -17.85 4.25 -19.2 0.3 -24 0.85 -30.25 1.35 -36.45 6.1 -40.45 10.9 -44.5 17.15 -43.95 23.4 -43.4 27.4 -38.65 31.45 -33.85 30.95 -27.65 30.4 -21.4 25.5 -17.4 L22.65 -15.5 23.25 -14.4 M-11.3 -6.35 L-5.9 2.4 Q-5.4 3.15 -5.3 4.05 L-5 7.2 Q-4.85 8.8 -5.85 10.05 -6.75 11.3 -8.4 11.45 L-23.5 13 Q-25.05 13.15 -26.3 12.15 -27.5 11.1 -27.65 9.5 L-27.95 6.4 Q-28.05 5.5 -27.75 4.7 L-24.15 -5.05 -24.05 -5.15 -25.9 -6.35 Q-29.55 -9.45 -29.95 -14.25 -30.45 -19 -27.55 -22.7 -24.55 -26.45 -19.8 -26.95 -15.1 -27.4 -11.5 -24.35 -7.85 -21.3 -7.35 -16.6 -6.9 -11.75 -9.85 -8 L-11.35 -6.5 -11.3 -6.35"/>
    <path stroke="none" fill="#FFFFFF" d="M5.9 42.95 L5.6 43.75 Q5.3 44.1 4.85 44.1 L4.1 43.85 3.2 43.45 2.5 43.35 1.9 43.5 Q1.65 43.7 1.65 44.05 1.65 44.45 2.4 44.75 L4.05 45.45 5.55 46.4 Q6.15 47 6.15 48 6.15 48.9 5.7 49.6 L4.4 50.65 2.45 51.05 0.85 50.8 Q0 50.55 -0.6 50.1 -1.15 49.6 -1.15 49.05 L-0.85 48.3 Q-0.55 47.9 -0.05 47.9 L0.55 48.05 1.25 48.35 1.9 48.7 2.65 48.8 3.45 48.65 3.65 48.05 Q3.65 47.7 2.9 47.35 L1.25 46.65 -0.25 45.7 Q-0.85 45.1 -0.85 44.1 -0.85 43.2 -0.4 42.5 0.05 41.8 0.85 41.45 1.65 41.05 2.65 41.05 L4.15 41.25 Q4.85 41.5 5.4 41.9 5.9 42.35 5.9 42.95 M12.85 49.05 L17.35 40.5 12.75 40.5 Q12.1 40.5 11.75 40.15 11.4 39.8 11.4 39.3 11.4 38.75 11.75 38.4 12.05 38.05 12.75 38.05 L19.25 38.05 Q19.9 38.05 20.25 38.45 L20.55 39.35 20.45 39.85 20.15 40.5 15.7 49.6 15.2 50.45 14.8 50.85 14.15 50.95 Q13.5 50.95 13.1 50.55 L12.7 49.7 Q12.7 49.4 12.85 49.05 M25.15 45.2 L25.15 42.6 Q25.15 42.1 25.45 41.8 25.75 41.5 26.25 41.5 26.75 41.5 27.05 41.8 L27.35 42.6 27.35 45.2 29.95 45.2 Q30.45 45.2 30.75 45.5 L31 46.3 30.75 47.1 29.95 47.4 27.35 47.4 27.35 50 27.05 50.75 26.25 51.05 25.45 50.75 Q25.15 50.45 25.15 50 L25.15 47.4 22.55 47.4 Q22.05 47.4 21.75 47.1 21.5 46.8 21.5 46.3 21.5 45.8 21.75 45.5 22.05 45.2 22.55 45.2 L25.15 45.2 M-32.55 49.1 L-28.9 39.3 -28.15 38.25 Q-27.65 37.8 -27 37.8 -26.3 37.8 -25.8 38.2 -25.3 38.6 -25.05 39.3 L-21.55 49.1 -21.4 49.75 -21.55 50.4 -22 50.8 -22.65 50.95 Q-23.65 50.95 -23.95 50 L-24.5 48.35 -29.5 48.35 -30.05 50 Q-30.35 50.95 -31.35 50.95 -31.9 50.95 -32.25 50.6 -32.65 50.25 -32.65 49.7 L-32.55 49.1 M-11.75 42.6 L-11.75 50.1 Q-11.75 51.6 -12.4 52.65 -13 53.7 -14.15 54.25 L-16.75 54.75 -18.35 54.55 -20.1 53.9 Q-20.85 53.45 -20.85 52.85 L-20.5 52.1 Q-20.15 51.7 -19.8 51.7 L-18.7 52 -17.6 52.4 -16.55 52.5 -15.4 52.25 -14.65 51.55 Q-14.35 51.1 -14.35 50.45 L-14.35 49.85 -14.4 49.85 Q-15.2 51.05 -17 51.05 L-18.75 50.65 -20 49.55 -20.75 47.95 -21 46.1 -20.7 44.2 -19.85 42.6 -18.45 41.45 Q-17.7 41.05 -16.75 41.05 L-15.8 41.2 -14.95 41.6 Q-14.6 41.85 -14.35 42.25 -14.1 41.15 -13.05 41.15 L-12.4 41.35 -11.9 41.85 Q-11.75 42.2 -11.75 42.6 M-27 40.65 L-28.7 45.85 -25.3 45.85 -27 40.65 M-14.35 46.15 L-14.55 44.85 Q-14.8 44.2 -15.25 43.85 -15.7 43.45 -16.4 43.45 -17 43.45 -17.45 43.8 L-18.15 44.8 -18.4 46.05 -18.15 47.35 -17.5 48.35 Q-17.05 48.7 -16.4 48.7 -15.4 48.7 -14.85 47.95 -14.35 47.2 -14.35 46.15 M-2.65 46.95 L-8.15 46.95 Q-8.05 47.85 -7.35 48.35 -6.7 48.8 -5.75 48.8 L-4.7 48.6 -3.7 48.1 Q-3.05 47.75 -2.8 47.75 L-2.25 47.9 -1.9 48.35 Q-1.75 48.6 -1.75 48.85 -1.75 49.3 -2.1 49.65 L-3.1 50.4 -4.5 50.9 -5.95 51.05 Q-7.4 51.05 -8.5 50.45 -9.6 49.8 -10.2 48.65 -10.8 47.5 -10.8 46.1 -10.8 45.1 -10.45 44.2 -10.15 43.3 -9.5 42.55 L-8 41.45 -6.15 41.05 Q-5.15 41.05 -4.3 41.5 -3.4 41.9 -2.8 42.6 L-1.85 44.1 Q-1.5 44.95 -1.5 45.75 -1.5 46.95 -2.65 46.95 M-8.25 45.2 L-4.1 45.2 Q-4.2 44.3 -4.75 43.75 -5.3 43.2 -6.15 43.2 -7 43.2 -7.55 43.75 -8.1 44.35 -8.25 45.2"/>
  </g>
</svg>