<svg xmlns="http://www.w3.org/2000/svg" xmlns:xlink="http://www.w3.org/1999/xlink">
  <defs/>
  <g>
    <path stroke="none" fill="#FFFFFF" d="M52 -49 Q52 -50.25 51.1 -51.15 50.25 -52 49 -52 47.75 -52 46.85 -51.15 46 -50.25 46 -49 46 -47.75 46.85 -46.9 47.75 -46 49 -46 50.25 -46 51.1 -46.9 52 -47.75 52 -49 M48.25 -58 Q58 -58 58 -48.2 L58 5 38 25 -48.2 25 Q-58 25 -58 15.25 L-58 -38 -38 -58 48.25 -58 M-46 17 Q-46 15.75 -46.9 14.85 -47.75 14 -49 14 -50.25 14 -51.15 14.85 -52 15.75 -52 17 -52 18.25 -51.15 19.1 -50.25 20 -49 20 -47.75 20 -46.9 19.1 -46 18.25 -46 17"/>
    <path stroke="none" fill="#11141E" d="M-46 17 Q-46 18.25 -46.9 19.1 -47.75 20 -49 20 -50.25 20 -51.15 19.1 -52 18.25 -52 17 -52 15.75 -51.15 14.85 -50.25 14 -49 14 -47.75 14 -46.9 14.85 -46 15.75 -46 17 M52 -49 Q52 -47.75 51.1 -46.9 50.25 -46 49 -46 47.75 -46 46.85 -46.9 46 -47.75 46 -49 46 -50.25 46.85 -51.15 47.75 -52 49 -52 50.25 -52 51.1 -51.15 52 -50.25 52 -49 M48.25 -64 Q64 -64 64 -48.2 L64 48.25 Q64 64 48.25 64 L-48.2 64 Q-64 64 -64 48.25 L-64 -49 Q-63.6 -63.1 -50 -63.95 L-50 -64 48.25 -64 M48.25 -58 L-38 -58 -58 -38 -58 15.25 Q-58 25 -48.2 25 L38 25 58 5 58 -48.2 Q58 -58 48.25 -58"/>
    <path stroke="none" fill="#11141E" d="M23.25 -14.4 L28.2 -1.9 Q28.6 -0.8 28.5 0.35 L28.15 4.35 Q28 6.45 26.35 7.8 24.8 9.15 22.75 8.95 L2.65 7.25 Q0.6 7.05 -0.8 5.45 -2.15 3.85 -2 1.75 L-1.65 -2.25 Q-1.55 -3.4 -0.9 -4.4 L6.2 -15.9 6.9 -16.8 Q5.45 -17.85 4.25 -19.2 0.3 -24 0.85 -30.25 1.35 -36.45 6.1 -40.45 10.9 -44.5 17.15 -43.95 23.4 -43.4 27.4 -38.65 31.45 -33.85 30.95 -27.65 30.4 -21.4 25.5 -17.4 L22.65 -15.5 23.25 -14.4 M-11.3 -6.35 L-5.9 2.4 Q-5.4 3.15 -5.3 4.05 L-5 7.2 Q-4.85 8.8 -5.85 10.05 -6.75 11.3 -8.4 11.45 L-23.5 13 Q-25.05 13.15 -26.3 12.15 -27.5 11.1 -27.65 9.5 L-27.95 6.4 Q-28.05 5.5 -27.75 4.7 L-24.15 -5.05 -24.05 -5.15 -25.9 -6.35 Q-29.55 -9.45 -29.95 -14.25 -30.45 -19 -27.55 -22.7 -24.55 -26.45 -19.8 -26.95 -15.1 -27.4 -11.5 -24.35 -7.85 -21.3 -7.35 -16.6 -6.9 -11.75 -9.85 -8 L-11.35 -6.5 -11.3 -6.35"/>
  </g>
</svg>