<svg xmlns="http://www.w3.org/2000/svg" xmlns:xlink="http://www.w3.org/1999/xlink">
  <defs/>
  <g>
    <path stroke="none" fill="#FFFFFF" d="M52 -49 Q52 -50.25 51.1 -51.15 50.25 -52 49 -52 47.75 -52 46.85 -51.15 46 -50.25 46 -49 46 -47.75 46.85 -46.9 47.75 -46 49 -46 50.25 -46 51.1 -46.9 52 -47.75 52 -49 M48.25 -58 Q58 -58 58 -48.2 L58 5 38 25 -48.2 25 Q-58 25 -58 15.25 L-58 -38 -38 -58 48.25 -58 M-46 17 Q-46 15.75 -46.9 14.85 -47.75 14 -49 14 -50.25 14 -51.15 14.85 -52 15.75 -52 17 -52 18.25 -51.15 19.1 -50.25 20 -49 20 -47.75 20 -46.9 19.1 -46 18.25 -46 17"/>
    <path stroke="none" fill="#11141E" d="M-46 17 Q-46 18.25 -46.9 19.1 -47.75 20 -49 20 -50.25 20 -51.15 19.1 -52 18.25 -52 17 -52 15.75 -51.15 14.85 -50.25 14 -49 14 -47.75 14 -46.9 14.85 -46 15.75 -46 17 M52 -49 Q52 -47.75 51.1 -46.9 50.25 -46 49 -46 47.75 -46 46.85 -46.9 46 -47.75 46 -49 46 -50.25 46.85 -51.15 47.75 -52 49 -52 50.25 -52 51.1 -51.15 52 -50.25 52 -49 M48.25 -64 Q64 -64 64 -48.2 L64 48.25 Q64 64 48.25 64 L-48.2 64 Q-64 64 -64 48.25 L-64 -49 Q-63.6 -63.1 -50 -63.95 L-50 -64 48.25 -64 M48.25 -58 L-38 -58 -58 -38 -58 15.25 Q-58 25 -48.2 25 L38 25 58 5 58 -48.2 Q58 -58 48.25 -58"/>
    <path stroke="none" fill="#11141E" d="M23.25 -14.4 L28.2 -1.9 Q28.6 -0.8 28.5 0.35 L28.15 4.35 Q28 6.45 26.35 7.8 24.8 9.15 22.75 8.95 L2.65 7.25 Q0.6 7.05 -0.8 5.45 -2.15 3.85 -2 1.75 L-1.65 -2.25 Q-1.55 -3.4 -0.9 -4.4 L6.2 -15.9 6.9 -16.8 Q5.45 -17.85 4.25 -19.2 0.3 -24 0.85 -30.25 1.35 -36.45 6.1 -40.45 10.9 -44.5 17.15 -43.95 23.4 -43.4 27.4 -38.65 31.45 -33.85 30.95 -27.65 30.4 -21.4 25.5 -17.4 L22.65 -15.5 23.25 -14.4 M-11.3 -6.35 L-5.9 2.4 Q-5.4 3.15 -5.3 4.05 L-5 7.2 Q-4.85 8.8 -5.85 10.05 -6.75 11.3 -8.4 11.45 L-23.5 13 Q-25.05 13.15 -26.3 12.15 -27.5 11.1 -27.65 9.5 L-27.95 6.4 Q-28.05 5.5 -27.75 4.7 L-24.15 -5.05 -24.05 -5.15 -25.9 -6.35 Q-29.55 -9.45 -29.95 -14.25 -30.45 -19 -27.55 -22.7 -24.55 -26.45 -19.8 -26.95 -15.1 -27.4 -11.5 -24.35 -7.85 -21.3 -7.35 -16.6 -6.9 -11.75 -9.85 -8 L-11.35 -6.5 -11.3 -6.35"/>
    <path stroke="none" fill="#FFFFFF" d="M5.6 42.95 L5.3 43.75 Q5 44.1 4.55 44.1 L3.8 43.85 2.9 43.45 2.2 43.35 1.6 43.5 Q1.35 43.7 1.35 44.05 1.35 44.45 2.1 44.75 L3.75 45.45 Q4.6 45.8 5.25 46.4 5.85 47 5.85 48 5.85 48.9 5.4 49.6 L4.1 50.65 2.15 51.05 0.55 50.8 -0.9 50.1 Q-1.45 49.6 -1.45 49.05 L-1.15 48.3 Q-0.85 47.9 -0.35 47.9 L0.25 48.05 0.95 48.35 1.6 48.7 2.35 48.8 3.15 48.65 3.35 48.05 Q3.35 47.7 2.6 47.35 L0.95 46.65 Q0.05 46.3 -0.55 45.7 -1.15 45.1 -1.15 44.1 L-0.7 42.5 Q-0.25 41.8 0.55 41.45 L2.35 41.05 3.85 41.25 Q4.55 41.5 5.1 41.9 5.6 42.35 5.6 42.95 M15.75 37.8 Q16.95 37.8 17.8 38.35 18.7 38.85 19.1 39.6 19.55 40.4 19.55 41.1 19.55 41.95 19.2 42.7 L18.1 43.85 Q19.1 44.35 19.7 45.2 20.3 46.05 20.3 47.1 20.3 48.15 19.7 49.05 19.1 50 18.05 50.55 17 51.05 15.75 51.05 14.5 51.05 13.5 50.55 12.5 50 12 49.2 11.45 48.4 11.45 47.7 11.45 47.2 11.85 46.8 12.3 46.45 12.8 46.45 13.3 46.45 13.85 47.25 L14.65 48.3 15.8 48.6 16.65 48.35 17.25 47.75 17.5 46.9 Q17.5 46.05 17.1 45.75 L15.9 45.35 14.8 45.05 Q14.4 44.8 14.4 44.1 14.4 43.5 14.75 43.25 15.05 43 15.7 42.85 L16.65 42.4 Q16.95 42.15 16.95 41.5 16.95 41 16.6 40.65 16.25 40.3 15.7 40.3 L14.75 40.55 14.15 41.2 13.6 41.85 13 42.05 Q12.45 42.05 12.15 41.65 11.8 41.25 11.8 40.75 11.8 40.2 12.15 39.7 12.45 39.15 13 38.75 13.6 38.3 14.3 38.05 L15.75 37.8 M25.5 45.2 L25.5 42.6 Q25.5 42.1 25.8 41.8 26.1 41.5 26.6 41.5 27.1 41.5 27.4 41.8 L27.7 42.6 27.7 45.2 30.3 45.2 Q30.8 45.2 31.1 45.5 L31.35 46.3 31.1 47.1 Q30.8 47.4 30.3 47.4 L27.7 47.4 27.7 50 27.4 50.75 Q27.1 51.05 26.6 51.05 26.1 51.05 25.8 50.75 25.5 50.45 25.5 50 L25.5 47.4 22.9 47.4 22.1 47.1 Q21.85 46.8 21.85 46.3 21.85 45.8 22.1 45.5 22.4 45.2 22.9 45.2 L25.5 45.2 M-32.85 49.1 L-29.2 39.3 -28.45 38.25 Q-27.95 37.8 -27.3 37.8 -26.6 37.8 -26.1 38.2 -25.6 38.6 -25.35 39.3 L-21.85 49.1 -21.7 49.75 -21.85 50.4 -22.3 50.8 -22.95 50.95 Q-23.95 50.95 -24.25 50 L-24.8 48.35 -29.8 48.35 -30.35 50 Q-30.65 50.95 -31.65 50.95 -32.2 50.95 -32.55 50.6 -32.95 50.25 -32.95 49.7 L-32.85 49.1 M-27.3 40.65 L-29 45.85 -25.6 45.85 -27.3 40.65 M-12.05 42.6 L-12.05 50.1 Q-12.05 51.6 -12.7 52.65 -13.3 53.7 -14.45 54.25 -15.55 54.75 -17.05 54.75 L-18.65 54.55 -20.4 53.9 Q-21.15 53.45 -21.15 52.85 -21.15 52.45 -20.8 52.1 -20.45 51.7 -20.1 51.7 L-19 52 -17.9 52.4 -16.85 52.5 -15.7 52.25 -14.95 51.55 Q-14.65 51.1 -14.65 50.45 L-14.65 49.85 -14.7 49.85 Q-15.5 51.05 -17.3 51.05 -18.3 51.05 -19.05 50.65 L-20.3 49.55 -21.05 47.95 -21.3 46.1 -21 44.2 -20.15 42.6 -18.75 41.45 -17.05 41.05 -16.1 41.2 Q-15.65 41.35 -15.25 41.6 L-14.65 42.25 Q-14.4 41.15 -13.35 41.15 L-12.7 41.35 -12.2 41.85 Q-12.05 42.2 -12.05 42.6 M-14.65 46.15 L-14.85 44.85 -15.55 43.85 Q-16 43.45 -16.7 43.45 -17.3 43.45 -17.75 43.8 L-18.45 44.8 -18.7 46.05 -18.45 47.35 -17.8 48.35 Q-17.35 48.7 -16.7 48.7 -15.7 48.7 -15.15 47.95 -14.65 47.2 -14.65 46.15 M-2.95 46.95 L-8.45 46.95 Q-8.35 47.85 -7.65 48.35 L-6.05 48.8 -5 48.6 -4 48.1 Q-3.35 47.75 -3.1 47.75 L-2.55 47.9 -2.2 48.35 -2.05 48.85 Q-2.05 49.3 -2.4 49.65 L-3.4 50.4 -4.8 50.9 -6.25 51.05 Q-7.7 51.05 -8.8 50.45 -9.9 49.8 -10.5 48.65 -11.1 47.5 -11.1 46.1 -11.1 45.1 -10.75 44.2 -10.45 43.3 -9.8 42.55 L-8.3 41.45 -6.45 41.05 Q-5.45 41.05 -4.6 41.5 -3.7 41.9 -3.1 42.6 L-2.15 44.1 Q-1.8 44.95 -1.8 45.75 -1.8 46.95 -2.95 46.95 M-8.55 45.2 L-4.4 45.2 Q-4.5 44.3 -5.05 43.75 -5.6 43.2 -6.45 43.2 -7.3 43.2 -7.85 43.75 -8.4 44.35 -8.55 45.2"/>
  </g>
</svg>