<svg xmlns="http://www.w3.org/2000/svg" xmlns:xlink="http://www.w3.org/1999/xlink">
  <defs/>
  <g>
    <path stroke="none" fill="#FFFFFF" d="M52 -49 Q52 -50.25 51.1 -51.15 50.25 -52 49 -52 47.75 -52 46.85 -51.15 46 -50.25 46 -49 46 -47.75 46.85 -46.9 47.75 -46 49 -46 50.25 -46 51.1 -46.9 52 -47.75 52 -49 M48.25 -58 Q58 -58 58 -48.2 L58 5 38 25 -48.2 25 Q-58 25 -58 15.25 L-58 -38 -38 -58 48.25 -58 M-46 17 Q-46 15.75 -46.9 14.85 -47.75 14 -49 14 -50.25 14 -51.15 14.85 -52 15.75 -52 17 -52 18.25 -51.15 19.1 -50.25 20 -49 20 -47.75 20 -46.9 19.1 -46 18.25 -46 17"/>
    <path stroke="none" fill="#11141E" d="M-46 17 Q-46 18.25 -46.9 19.1 -47.75 20 -49 20 -50.25 20 -51.15 19.1 -52 18.25 -52 17 -52 15.75 -51.15 14.85 -50.25 14 -49 14 -47.75 14 -46.9 14.85 -46 15.75 -46 17 M52 -49 Q52 -47.75 51.1 -46.9 50.25 -46 49 -46 47.75 -46 46.85 -46.9 46 -47.75 46 -49 46 -50.25 46.85 -51.15 47.75 -52 49 -52 50.25 -52 51.1 -51.15 52 -50.25 52 -49 M48.25 -58 L-38 -58 -58 -38 -58 15.25 Q-58 25 -48.2 25 L38 25 58 5 58 -48.2 Q58 -58 48.25 -58 M48.25 -64 Q64 -64 64 -48.2 L64 48.25 Q64 64 48.25 64 L-48.2 64 Q-64 64 -64 48.25 L-64 -49 Q-63.6 -63.1 -50 -63.95 L-50 -64 48.25 -64"/>
    <path stroke="none" fill="#11141E" d="M-5.45 -6.9 L11.3 -2.4 11.8 -2.25 11.85 -2.25 14.3 -2.2 Q15.1 -2.85 15.5 -4.35 L22.75 -31.3 Q23.55 -34.25 20.6 -35.05 L20.55 -35.05 12.9 -37.15 12.65 -37.25 11.95 -37.35 3.3 -39.75 3.35 -39.75 Q0.45 -40.55 -0.35 -37.55 L-0.35 -37.6 -1.8 -31.9 -1.9 -31.6 -7.5 -10.6 Q-8.3 -7.7 -5.45 -6.9 M6.95 8.85 L-10.35 13.5 Q-19 15.8 -21.35 7.15 L-28.55 -19.85 Q-30.8 -28.5 -22.2 -30.85 L-13.55 -33.15 -13.2 -33.2 -12.6 -33.45 -7.2 -34.85 -6.1 -39.05 -6.1 -39.1 Q-3.85 -47.8 4.9 -45.5 L13.55 -43.1 13.85 -43 14.5 -42.9 22.15 -40.8 Q30.8 -38.55 28.5 -29.75 L21.25 -2.8 Q20.1 1.45 17.3 2.95 15.6 4.05 13.25 4 11.9 7.5 6.95 8.85"/>
    <path stroke="none" fill="#FFFFFF" d="M13.75 38.45 L13.75 49.5 13.6 50.25 13.1 50.8 12.45 50.95 Q11.4 50.95 11.15 49.9 L10.15 50.75 8.75 51.05 Q7.55 51.05 6.55 50.4 5.55 49.7 5.05 48.55 4.5 47.4 4.5 46.2 4.5 44.85 5 43.7 5.45 42.5 6.4 41.8 7.35 41.05 8.7 41.05 L9.55 41.15 10.4 41.45 11.15 41.95 11.15 38.45 Q11.15 37.8 11.5 37.4 11.85 37 12.45 37 L13.1 37.15 13.6 37.7 13.75 38.45 M-1.15 49.5 L-1.15 42.45 Q-1.15 41.85 -0.75 41.5 -0.35 41.15 0.2 41.15 1.45 41.15 1.45 42.25 L1.5 42.25 2.3 41.4 3.3 41.15 Q3.8 41.15 4.2 41.5 4.55 41.9 4.55 42.55 L4.35 43.15 3.8 43.5 3 43.8 1.85 44.5 Q1.45 44.85 1.45 45.55 L1.45 49.5 1.3 50.25 0.8 50.8 0.15 50.95 Q-0.45 50.95 -0.8 50.55 L-1.15 49.5 M11.15 46 Q11.15 44.95 10.65 44.2 10.1 43.45 9.1 43.45 8.5 43.45 8.05 43.85 7.55 44.2 7.35 44.8 L7.1 46.1 Q7.1 46.55 7.25 47 7.35 47.5 7.6 47.85 L8.25 48.45 9.1 48.7 Q9.8 48.7 10.25 48.3 L10.95 47.25 11.15 46 M21.75 42.95 L21.45 43.75 Q21.15 44.1 20.7 44.1 L19.95 43.85 19.05 43.45 18.35 43.35 17.75 43.5 Q17.5 43.7 17.5 44.05 17.5 44.45 18.25 44.75 L19.9 45.45 Q20.75 45.8 21.4 46.4 22 47 22 48 22 48.9 21.55 49.6 L20.25 50.65 18.3 51.05 16.7 50.8 Q15.85 50.55 15.25 50.1 14.7 49.6 14.7 49.05 14.7 48.7 15 48.3 15.3 47.9 15.8 47.9 L16.4 48.05 17.1 48.35 17.75 48.7 18.5 48.8 19.3 48.65 19.5 48.05 Q19.5 47.7 18.75 47.35 L17.1 46.65 Q16.2 46.3 15.6 45.7 15 45.1 15 44.1 15 43.2 15.45 42.5 15.9 41.8 16.7 41.45 L18.5 41.05 20 41.25 Q20.7 41.5 21.25 41.9 21.75 42.35 21.75 42.95 M-22.9 44.45 Q-22.9 43.05 -22.45 41.85 -22 40.6 -21.15 39.7 L-19.2 38.3 Q-18.05 37.8 -16.7 37.8 L-15.45 37.9 -14.2 38.25 Q-13.6 38.5 -13.2 38.85 -12.85 39.25 -12.85 39.85 -12.85 40.35 -13.15 40.7 -13.45 41.05 -13.95 41.05 L-14.75 40.85 -15.65 40.5 -16.7 40.4 -18.15 40.75 -19.2 41.6 -19.85 42.9 -20.1 44.5 Q-20.1 46.2 -19.2 47.35 -18.3 48.5 -16.7 48.5 L-15.65 48.35 -14.7 47.95 -13.85 47.7 Q-13.3 47.7 -12.95 48.15 -12.65 48.55 -12.65 48.95 -12.65 49.75 -13.35 50.2 -14 50.7 -14.95 50.9 L-16.7 51.05 Q-18.5 51.05 -19.9 50.2 -21.3 49.3 -22.1 47.8 -22.9 46.3 -22.9 44.45 M-2.6 42.85 L-2.6 49.25 -2.8 50.5 Q-3 50.95 -3.85 50.95 L-4.65 50.7 -5.1 49.85 Q-6.1 51.05 -7.55 51.05 -8.75 51.05 -9.75 50.45 -10.7 49.8 -11.3 48.65 -11.85 47.5 -11.85 46.1 -11.85 44.7 -11.25 43.55 -10.7 42.4 -9.7 41.75 -8.75 41.05 -7.55 41.05 L-6.15 41.35 Q-5.5 41.65 -5.1 42.25 L-4.7 41.45 Q-4.3 41.15 -3.85 41.15 -3 41.15 -2.8 41.65 L-2.6 42.85 M-9.25 46.1 L-9 47.35 -8.3 48.3 Q-7.85 48.7 -7.2 48.7 -6.25 48.7 -5.7 47.9 -5.2 47.1 -5.2 46.1 L-5.4 44.8 -6.1 43.8 Q-6.55 43.45 -7.2 43.45 -7.85 43.45 -8.3 43.8 L-9 44.8 -9.25 46.1"/>
  </g>
</svg>