<svg xmlns="http://www.w3.org/2000/svg" xmlns:xlink="http://www.w3.org/1999/xlink">
  <defs/>
  <g>
    <path stroke="none" fill="#FFFFFF" d="M52 -49 Q52 -50.25 51.1 -51.15 50.25 -52 49 -52 47.75 -52 46.85 -51.15 46 -50.25 46 -49 46 -47.75 46.85 -46.9 47.75 -46 49 -46 50.25 -46 51.1 -46.9 52 -47.75 52 -49 M48.25 -58 Q58 -58 58 -48.2 L58 5 38 25 -48.2 25 Q-58 25 -58 15.25 L-58 -38 -38 -58 48.25 -58 M-46 17 Q-46 15.75 -46.9 14.85 -47.75 14 -49 14 -50.25 14 -51.15 14.85 -52 15.75 -52 17 -52 18.25 -51.15 19.1 -50.25 20 -49 20 -47.75 20 -46.9 19.1 -46 18.25 -46 17"/>
    <path stroke="none" fill="#11141E" d="M-46 17 Q-46 18.25 -46.9 19.1 -47.75 20 -49 20 -50.25 20 -51.15 19.1 -52 18.25 -52 17 -52 15.75 -51.15 14.85 -50.25 14 -49 14 -47.75 14 -46.9 14.85 -46 15.75 -46 17 M52 -49 Q52 -47.75 51.1 -46.9 50.25 -46 49 -46 47.75 -46 46.85 -46.9 46 -47.75 46 -49 46 -50.25 46.85 -51.15 47.75 -52 49 -52 50.25 -52 51.1 -51.15 52 -50.25 52 -49 M48.25 -58 L-38 -58 -58 -38 -58 15.25 Q-58 25 -48.2 25 L38 25 58 5 58 -48.2 Q58 -58 48.25 -58 M48.25 -64 Q64 -64 64 -48.2 L64 48.25 Q64 64 48.25 64 L-48.2 64 Q-64 64 -64 48.25 L-64 -49 Q-63.6 -63.1 -50 -63.95 L-50 -64 48.25 -64"/>
    <path stroke="none" fill="#11141E" d="M-5.45 -6.9 L11.3 -2.4 11.8 -2.25 11.85 -2.25 14.3 -2.2 Q15.1 -2.85 15.5 -4.35 L22.75 -31.3 Q23.55 -34.25 20.6 -35.05 L20.55 -35.05 12.9 -37.15 12.65 -37.25 11.95 -37.35 3.3 -39.75 3.35 -39.75 Q0.45 -40.55 -0.35 -37.55 L-0.35 -37.6 -1.8 -31.9 -1.9 -31.6 -7.5 -10.6 Q-8.3 -7.7 -5.45 -6.9 M6.95 8.85 L-10.35 13.5 Q-19 15.8 -21.35 7.15 L-28.55 -19.85 Q-30.8 -28.5 -22.2 -30.85 L-13.55 -33.15 -13.2 -33.2 -12.6 -33.45 -7.2 -34.85 -6.1 -39.05 -6.1 -39.1 Q-3.85 -47.8 4.9 -45.5 L13.55 -43.1 13.85 -43 14.5 -42.9 22.15 -40.8 Q30.8 -38.55 28.5 -29.75 L21.25 -2.8 Q20.1 1.45 17.3 2.95 15.6 4.05 13.25 4 11.9 7.5 6.95 8.85"/>
  </g>
</svg>