<svg xmlns="http://www.w3.org/2000/svg" xmlns:xlink="http://www.w3.org/1999/xlink">
  <defs/>
  <g>
    <path stroke="none" fill="#FFFFFF" d="M52 -49 Q52 -50.25 51.1 -51.15 50.25 -52 49 -52 47.75 -52 46.85 -51.15 46 -50.25 46 -49 46 -47.75 46.85 -46.9 47.75 -46 49 -46 50.25 -46 51.1 -46.9 52 -47.75 52 -49 M48.25 -58 Q58 -58 58 -48.2 L58 5 38 25 -48.2 25 Q-58 25 -58 15.25 L-58 -38 -38 -58 48.25 -58 M-46 17 Q-46 15.75 -46.9 14.85 -47.75 14 -49 14 -50.25 14 -51.15 14.85 -52 15.75 -52 17 -52 18.25 -51.15 19.1 -50.25 20 -49 20 -47.75 20 -46.9 19.1 -46 18.25 -46 17"/>
    <path stroke="none" fill="#11141E" d="M-46 17 Q-46 18.25 -46.9 19.1 -47.75 20 -49 20 -50.25 20 -51.15 19.1 -52 18.25 -52 17 -52 15.75 -51.15 14.85 -50.25 14 -49 14 -47.75 14 -46.9 14.85 -46 15.75 -46 17 M52 -49 Q52 -47.75 51.1 -46.9 50.25 -46 49 -46 47.75 -46 46.85 -46.9 46 -47.75 46 -49 46 -50.25 46.85 -51.15 47.75 -52 49 -52 50.25 -52 51.1 -51.15 52 -50.25 52 -49 M48.25 -64 Q64 -64 64 -48.2 L64 48.25 Q64 64 48.25 64 L-48.2 64 Q-64 64 -64 48.25 L-64 -49 Q-63.6 -63.1 -50 -63.95 L-50 -64 48.25 -64 M48.25 -58 L-38 -58 -58 -38 -58 15.25 Q-58 25 -48.2 25 L38 25 58 5 58 -48.2 Q58 -58 48.25 -58"/>
    <path stroke="none" fill="#11141E" d="M12.5 -31 L18 -33.25 Q21.7 -34.8 23.2 -31.1 L25.45 -25.6 Q27 -21.9 23.3 -20.35 L17.8 -18.1 Q14.1 -16.6 12.55 -20.3 L10.3 -25.8 Q8.8 -29.5 12.5 -31 M6.5 -13.2 L12.5 -1.2 Q13 -0.15 13 1 L13 5 Q13 7.1 11.55 8.55 10.1 10 8 10 L-12 10 Q-14.05 10 -15.5 8.55 -17 7.1 -17 5 L-17 1 Q-17 -0.15 -16.45 -1.2 L-10.45 -13.2 -9.85 -14.15 Q-11.35 -15.1 -12.65 -16.4 -17 -20.75 -17 -27 -17 -33.2 -12.65 -37.6 -8.25 -42 -2 -42 3.95 -42 8.25 -37.9 10.25 -35.75 8.6 -33.55 L1.25 -26.25 8.15 -19.35 Q9.95 -17.5 7.55 -15.4 L5.85 -14.2 6.5 -13.2 M-2.15 -31.5 L-5.55 -34.9 Q-6.15 -35.5 -7 -35.5 -7.85 -35.5 -8.4 -34.9 -9 -34.35 -9 -33.5 -9 -32.65 -8.4 -32.05 L-6.45 -30.1 -8.4 -28.1 Q-9 -27.55 -9 -26.7 -9 -25.85 -8.4 -25.25 -7.85 -24.7 -7 -24.7 -6.15 -24.7 -5.55 -25.25 L-2.15 -28.65 Q-1.6 -29.25 -1.6 -30.1 -1.6 -30.95 -2.15 -31.5"/>
  </g>
</svg>