<svg xmlns="http://www.w3.org/2000/svg" xmlns:xlink="http://www.w3.org/1999/xlink">
  <defs/>
  <g>
    <path stroke="none" fill="#FFFFFF" d="M52 -49 Q52 -50.25 51.1 -51.15 50.25 -52 49 -52 47.75 -52 46.85 -51.15 46 -50.25 46 -49 46 -47.75 46.85 -46.9 47.75 -46 49 -46 50.25 -46 51.1 -46.9 52 -47.75 52 -49 M48.25 -58 Q58 -58 58 -48.2 L58 5 38 25 -48.2 25 Q-58 25 -58 15.25 L-58 -38 -38 -58 48.25 -58 M-46 17 Q-46 15.75 -46.9 14.85 -47.75 14 -49 14 -50.25 14 -51.15 14.85 -52 15.75 -52 17 -52 18.25 -51.15 19.1 -50.25 20 -49 20 -47.75 20 -46.9 19.1 -46 18.25 -46 17"/>
    <path stroke="none" fill="#11141E" d="M-46 17 Q-46 18.25 -46.9 19.1 -47.75 20 -49 20 -50.25 20 -51.15 19.1 -52 18.25 -52 17 -52 15.75 -51.15 14.85 -50.25 14 -49 14 -47.75 14 -46.9 14.85 -46 15.75 -46 17 M52 -49 Q52 -47.75 51.1 -46.9 50.25 -46 49 -46 47.75 -46 46.85 -46.9 46 -47.75 46 -49 46 -50.25 46.85 -51.15 47.75 -52 49 -52 50.25 -52 51.1 -51.15 52 -50.25 52 -49 M48.25 -64 Q64 -64 64 -48.2 L64 48.25 Q64 64 48.25 64 L-48.2 64 Q-64 64 -64 48.25 L-64 -49 Q-63.6 -63.1 -50 -63.95 L-50 -64 48.25 -64 M48.25 -58 L-38 -58 -58 -38 -58 15.25 Q-58 25 -48.2 25 L38 25 58 5 58 -48.2 Q58 -58 48.25 -58"/>
    <path stroke="none" fill="#11141E" d="M12.5 -31 L18 -33.25 Q21.7 -34.8 23.2 -31.1 L25.45 -25.6 Q27 -21.9 23.3 -20.35 L17.8 -18.1 Q14.1 -16.6 12.55 -20.3 L10.3 -25.8 Q8.8 -29.5 12.5 -31 M6.5 -13.2 L12.5 -1.2 Q13 -0.15 13 1 L13 5 Q13 7.1 11.55 8.55 10.1 10 8 10 L-12 10 Q-14.05 10 -15.5 8.55 -17 7.1 -17 5 L-17 1 Q-17 -0.15 -16.45 -1.2 L-10.45 -13.2 -9.85 -14.15 Q-11.35 -15.1 -12.65 -16.4 -17 -20.75 -17 -27 -17 -33.2 -12.65 -37.6 -8.25 -42 -2 -42 3.95 -42 8.25 -37.9 10.25 -35.75 8.6 -33.55 L1.25 -26.25 8.15 -19.35 Q9.95 -17.5 7.55 -15.4 L5.85 -14.2 6.5 -13.2 M-2.15 -31.5 L-5.55 -34.9 Q-6.15 -35.5 -7 -35.5 -7.85 -35.5 -8.4 -34.9 -9 -34.35 -9 -33.5 -9 -32.65 -8.4 -32.05 L-6.45 -30.1 -8.4 -28.1 Q-9 -27.55 -9 -26.7 -9 -25.85 -8.4 -25.25 -7.85 -24.7 -7 -24.7 -6.15 -24.7 -5.55 -25.25 L-2.15 -28.65 Q-1.6 -29.25 -1.6 -30.1 -1.6 -30.95 -2.15 -31.5"/>
    <path stroke="none" fill="#FFFFFF" d="M54.35 38.9 L54.35 48.75 54.2 49.45 53.75 49.9 53.2 50.05 Q52.25 50.05 52.05 49.1 51.7 49.6 51.15 49.85 L49.9 50.15 Q48.8 50.15 47.95 49.55 47.05 48.9 46.6 47.9 46.1 46.9 46.1 45.8 46.1 44.65 46.55 43.6 46.95 42.55 47.8 41.9 48.65 41.25 49.85 41.25 L50.6 41.35 51.35 41.6 52.05 42.05 52.05 38.9 Q52.05 38.35 52.35 38 52.65 37.65 53.2 37.65 L53.8 37.8 54.2 38.25 54.35 38.9 M41.1 48.75 L41.1 42.5 Q41.1 41.95 41.45 41.65 41.8 41.35 42.25 41.35 43.4 41.35 43.4 42.3 L44.15 41.55 45.05 41.35 Q45.45 41.35 45.8 41.65 46.15 42 46.15 42.6 L45.95 43.1 45.5 43.4 44.75 43.7 43.75 44.3 Q43.4 44.6 43.4 45.25 L43.4 48.75 43.25 49.45 42.8 49.9 42.2 50.05 Q41.7 50.05 41.4 49.7 41.1 49.35 41.1 48.75 M52.05 45.65 Q52.05 44.7 51.55 44.05 51.1 43.35 50.2 43.35 49.65 43.35 49.25 43.7 L48.65 44.6 48.45 45.7 48.55 46.55 48.9 47.3 49.45 47.85 50.2 48.05 Q50.8 48.05 51.2 47.7 L51.85 46.75 52.05 45.65 M6.1 48.75 L6.1 38.9 Q6.1 38.35 6.45 38 6.75 37.65 7.25 37.65 L7.85 37.8 8.25 38.25 8.4 38.9 8.4 42.05 8.45 42.05 Q8.75 41.65 9.35 41.45 L10.55 41.25 Q11.45 41.25 12.15 41.6 12.9 42 13.3 42.7 13.7 43.4 13.7 44.35 L13.7 48.75 13.55 49.45 13.15 49.9 12.55 50.05 Q12 50.05 11.7 49.7 11.4 49.35 11.4 48.75 L11.4 44.75 Q11.4 43.95 10.95 43.6 10.55 43.15 9.9 43.15 9.45 43.15 9.1 43.4 L8.6 43.95 8.4 44.75 8.4 48.75 8.25 49.45 7.85 49.9 7.25 50.05 Q6.75 50.05 6.45 49.7 6.1 49.35 6.1 48.75 M0.5 42.6 L0.5 49.3 Q0.5 50.6 -0.05 51.55 -0.65 52.5 -1.65 52.95 L-3.95 53.45 -5.4 53.25 -6.95 52.65 Q-7.6 52.3 -7.6 51.7 L-7.3 51.05 Q-7 50.7 -6.65 50.7 L-5.7 50.95 -4.7 51.3 -3.8 51.4 -2.75 51.2 -2.05 50.6 -1.8 49.6 -1.8 49.05 -1.85 49.05 Q-2.6 50.15 -4.15 50.15 L-5.7 49.8 -6.85 48.8 -7.5 47.4 -7.75 45.7 -7.45 44.05 -6.7 42.6 Q-6.2 41.95 -5.5 41.6 L-3.95 41.25 -3.1 41.35 -2.35 41.75 -1.8 42.3 Q-1.6 41.35 -0.65 41.35 L-0.05 41.5 0.35 41.95 0.5 42.6 M22.9 42.85 L22.9 48.55 22.7 49.65 Q22.5 50.05 21.75 50.05 L21.05 49.8 20.65 49.1 Q19.75 50.15 18.5 50.15 17.4 50.15 16.55 49.6 15.65 49 15.15 48 14.65 47 14.65 45.7 14.65 44.5 15.2 43.45 15.7 42.45 16.55 41.85 17.45 41.25 18.5 41.25 L19.7 41.5 20.65 42.3 Q20.7 41.9 21.05 41.6 21.35 41.35 21.75 41.35 22.5 41.35 22.7 41.75 L22.9 42.85 M17 45.7 L17.2 46.85 17.8 47.7 Q18.2 48.05 18.8 48.05 19.65 48.05 20.1 47.35 20.6 46.65 20.6 45.7 L20.4 44.6 19.75 43.7 Q19.35 43.35 18.8 43.35 18.2 43.35 17.8 43.7 L17.2 44.6 17 45.7 M23.95 48.55 L27.55 43.45 24.9 43.45 24.15 43.2 Q23.85 42.9 23.85 42.45 23.85 42 24.15 41.7 24.45 41.45 24.9 41.45 L30.1 41.45 30.6 41.6 30.85 42.15 30.8 42.5 30.6 42.85 27 47.95 30.05 47.95 Q30.5 47.95 30.8 48.2 L31.05 48.95 30.8 49.7 30.05 49.95 24.65 49.95 24 49.75 Q23.75 49.55 23.75 49.15 L23.95 48.55 M39.8 42.85 L39.8 48.55 39.6 49.65 Q39.4 50.05 38.65 50.05 L37.95 49.8 37.55 49.1 Q36.65 50.15 35.4 50.15 34.3 50.15 33.45 49.6 32.55 49 32.05 48 31.55 47 31.55 45.7 31.55 44.5 32.1 43.45 32.6 42.45 33.45 41.85 34.35 41.25 35.4 41.25 L36.6 41.5 37.55 42.3 Q37.6 41.9 37.95 41.6 38.25 41.35 38.65 41.35 39.4 41.35 39.6 41.75 L39.8 42.85 M33.9 45.7 L34.1 46.85 34.7 47.7 Q35.1 48.05 35.7 48.05 36.55 48.05 37 47.35 37.5 46.65 37.5 45.7 L37.3 44.6 36.65 43.7 Q36.25 43.35 35.7 43.35 35.1 43.35 34.7 43.7 L34.1 44.6 33.9 45.7 M-32.95 41.25 Q-32.05 41.25 -31.3 41.6 -30.5 41.95 -29.95 42.6 -29.4 43.2 -29.1 44 -28.8 44.8 -28.8 45.7 -28.8 46.6 -29.1 47.4 L-29.95 48.85 -31.25 49.8 -32.95 50.15 Q-34.15 50.15 -35.1 49.55 L-36.55 47.95 Q-37.1 46.9 -37.1 45.7 -37.1 44.85 -36.75 44.05 -36.5 43.25 -35.9 42.6 L-34.6 41.6 -32.95 41.25 M-45.65 48.75 L-45.65 38.9 Q-45.65 38.35 -45.3 38 -45 37.65 -44.5 37.65 L-43.9 37.8 -43.5 38.25 Q-43.35 38.55 -43.35 38.9 L-43.35 42.05 -43.3 42.05 Q-43 41.65 -42.4 41.45 L-41.2 41.25 -39.6 41.6 Q-38.85 42 -38.45 42.7 -38.05 43.4 -38.05 44.35 L-38.05 48.75 -38.2 49.45 -38.6 49.9 -39.2 50.05 -40.05 49.7 -40.35 48.75 -40.35 44.75 Q-40.35 43.95 -40.8 43.6 -41.2 43.15 -41.85 43.15 L-42.65 43.4 -43.15 43.95 -43.35 44.75 -43.35 48.75 -43.5 49.45 -43.9 49.9 -44.5 50.05 Q-45 50.05 -45.3 49.7 L-45.65 48.75 M-32.95 43.35 Q-33.55 43.35 -33.95 43.7 L-34.55 44.6 -34.75 45.7 -34.55 46.85 -33.95 47.7 Q-33.55 48.05 -32.95 48.05 -32.35 48.05 -31.95 47.7 L-31.35 46.85 -31.15 45.7 -31.35 44.6 -31.95 43.7 Q-32.35 43.35 -32.95 43.35 M-27.85 48.75 L-27.85 38.9 Q-27.85 38.35 -27.5 38 -27.2 37.65 -26.7 37.65 L-26.1 37.8 -25.7 38.25 -25.55 38.9 -25.55 44.3 -23 41.85 Q-22.5 41.35 -21.95 41.35 -21.55 41.35 -21.25 41.65 L-21 42.4 Q-21 42.9 -21.45 43.3 L-23.5 45.1 -20.8 48.3 Q-20.5 48.6 -20.5 49.05 -20.5 49.5 -20.8 49.85 L-21.6 50.15 -22.15 50 -22.7 49.45 -25.5 45.95 -25.55 45.95 -25.55 48.75 -25.7 49.45 -26.1 49.9 -26.7 50.05 Q-27.2 50.05 -27.5 49.7 -27.85 49.35 -27.85 48.75 M-16.3 48.75 L-16.3 42.6 Q-16.3 42.05 -15.95 41.7 -15.65 41.35 -15.15 41.35 L-14.4 41.55 -14.1 42.2 Q-13.4 41.25 -11.85 41.25 -10.95 41.25 -10.25 41.6 -9.5 42 -9.1 42.7 -8.7 43.4 -8.7 44.35 L-8.7 48.75 -8.85 49.45 -9.25 49.9 -9.85 50.05 Q-10.4 50.05 -10.7 49.7 L-11 48.75 -11 44.75 Q-11 43.95 -11.45 43.6 -11.85 43.15 -12.5 43.15 L-13.3 43.4 -13.8 43.95 -14 44.75 -14 48.75 Q-14 49.15 -14.15 49.45 L-14.55 49.9 -15.15 50.05 Q-15.65 50.05 -15.95 49.7 -16.3 49.35 -16.3 48.75 M-18.75 37.9 Q-18.4 37.9 -18.1 38.05 L-17.6 38.55 -17.45 39.15 Q-17.45 39.7 -17.8 40.1 -18.2 40.5 -18.75 40.5 -19.25 40.5 -19.6 40.1 L-20 39.15 Q-20 38.65 -19.6 38.3 -19.25 37.9 -18.75 37.9 M-19.85 48.75 L-19.85 42.6 -19.55 41.7 Q-19.25 41.35 -18.75 41.35 -18.4 41.35 -18.1 41.5 L-17.7 41.95 Q-17.55 42.25 -17.55 42.6 L-17.55 48.75 -17.7 49.45 -18.15 49.9 -18.75 50.05 Q-19.25 50.05 -19.55 49.7 L-19.85 48.75 M-1.8 45.75 L-2 44.6 Q-2.2 44.05 -2.65 43.7 -3.05 43.35 -3.65 43.35 -4.2 43.35 -4.6 43.7 L-5.2 44.6 -5.4 45.7 -5.2 46.85 -4.6 47.7 Q-4.2 48.05 -3.65 48.05 -2.75 48.05 -2.3 47.35 -1.8 46.7 -1.8 45.75 M-55.8 44.25 Q-55.8 43 -55.4 41.95 -55 40.85 -54.25 40.05 L-52.5 38.8 -50.3 38.35 -49.15 38.45 -48.05 38.75 Q-47.55 38.95 -47.15 39.3 -46.85 39.65 -46.85 40.15 -46.85 40.6 -47.1 40.9 -47.4 41.25 -47.8 41.25 L-48.55 41.05 -49.35 40.75 -50.3 40.65 Q-51 40.65 -51.55 40.95 L-52.5 41.75 -53.1 42.9 -53.3 44.3 Q-53.3 45.8 -52.5 46.85 -51.7 47.85 -50.3 47.85 L-49.35 47.7 -48.5 47.4 -47.75 47.15 Q-47.25 47.15 -46.95 47.55 -46.65 47.9 -46.65 48.25 -46.65 48.95 -47.3 49.4 L-48.7 49.95 -50.3 50.15 Q-51.85 50.15 -53.1 49.35 -54.4 48.6 -55.05 47.25 -55.8 45.9 -55.8 44.25"/>
  </g>
</svg>