<svg xmlns="http://www.w3.org/2000/svg" xmlns:xlink="http://www.w3.org/1999/xlink">
  <defs/>
  <g>
    <path stroke="none" fill="#FFFFFF" d="M52 -49 Q52 -50.25 51.1 -51.15 50.25 -52 49 -52 47.75 -52 46.85 -51.15 46 -50.25 46 -49 46 -47.75 46.85 -46.9 47.75 -46 49 -46 50.25 -46 51.1 -46.9 52 -47.75 52 -49 M48.25 -58 Q58 -58 58 -48.2 L58 5 38 25 -48.2 25 Q-58 25 -58 15.25 L-58 -38 -38 -58 48.25 -58 M-46 17 Q-46 15.75 -46.9 14.85 -47.75 14 -49 14 -50.25 14 -51.15 14.85 -52 15.75 -52 17 -52 18.25 -51.15 19.1 -50.25 20 -49 20 -47.75 20 -46.9 19.1 -46 18.25 -46 17"/>
    <path stroke="none" fill="#11141E" d="M-46 17 Q-46 18.25 -46.9 19.1 -47.75 20 -49 20 -50.25 20 -51.15 19.1 -52 18.25 -52 17 -52 15.75 -51.15 14.85 -50.25 14 -49 14 -47.75 14 -46.9 14.85 -46 15.75 -46 17 M52 -49 Q52 -47.75 51.1 -46.9 50.25 -46 49 -46 47.75 -46 46.85 -46.9 46 -47.75 46 -49 46 -50.25 46.85 -51.15 47.75 -52 49 -52 50.25 -52 51.1 -51.15 52 -50.25 52 -49 M48.25 -64 Q64 -64 64 -48.2 L64 48.25 Q64 64 48.25 64 L-48.2 64 Q-64 64 -64 48.25 L-64 -49 Q-63.6 -63.1 -50 -63.95 L-50 -64 48.25 -64 M48.25 -58 L-38 -58 -58 -38 -58 15.25 Q-58 25 -48.2 25 L38 25 58 5 58 -48.2 Q58 -58 48.25 -58"/>
    <path stroke="none" fill="#11141E" d="M-9.4 -45.4 Q-8.8 -46 -8 -46 L7.95 -46 Q8.75 -46 9.35 -45.4 9.95 -44.8 9.95 -44 L9.95 -38.05 Q9.95 -37.25 9.35 -36.65 8.75 -36.05 7.95 -36.05 L6.95 -36.05 6.95 -35 Q9.75 -34.25 12.3 -32.75 L14.25 -34.75 14.25 -34.7 Q15.15 -35.75 16.6 -35.6 17.7 -35.5 18.45 -34.75 L24.15 -29.05 Q24.9 -28.3 25 -27.2 L25 -27.15 Q25.1 -25.95 24.45 -25.1 L24.25 -24.85 22.1 -22.65 Q24.95 -17.4 24.95 -10.95 24.95 -0.65 17.6 6.65 10.3 14 0 14 -10.35 14 -17.7 6.65 -25 -0.65 -25 -10.95 -25 -21.3 -17.7 -28.65 -13 -33.35 -7 -35 L-7 -36.05 -8 -36.05 Q-8.8 -36.05 -9.4 -36.65 -10 -37.25 -10 -38.05 L-10 -44 Q-10 -44.8 -9.4 -45.4 M6 -10.95 Q6 -8.5 4.25 -6.75 2.55 -5 0 -5 -2.5 -5 -4.25 -6.75 -6 -8.5 -6 -10.95 -6 -13.45 -4.25 -15.2 L-3.25 -16 -2.55 -24.5 -2.55 -24.55 -2 -25.55 -2.05 -25.55 Q-1.6 -26 -1 -26 L1 -26 Q1.6 -26 2.05 -25.55 2.5 -25.1 2.55 -24.55 L2.55 -24.5 3.3 -16 4.25 -15.2 Q6 -13.45 6 -10.95 M0 -27.95 Q-7.05 -27.95 -12.05 -23 -17 -18 -17 -10.95 -17 -3.95 -12.05 1 -7.05 6 0 6 7 6 11.95 1.05 L12 1 Q16.95 -3.95 16.95 -10.95 16.95 -18 11.95 -23 7 -27.95 0 -27.95"/>
    <path stroke="none" fill="#FFFFFF" d="M42.85 42.95 L42.55 43.75 Q42.25 44.1 41.8 44.1 L41.05 43.85 40.15 43.45 39.45 43.35 38.85 43.5 Q38.6 43.7 38.6 44.05 38.6 44.45 39.35 44.75 L41 45.45 Q41.85 45.8 42.5 46.4 43.1 47 43.1 48 43.1 48.9 42.65 49.6 L41.35 50.65 39.4 51.05 37.8 50.8 Q36.95 50.55 36.35 50.1 35.8 49.6 35.8 49.05 35.8 48.7 36.1 48.3 36.4 47.9 36.9 47.9 L37.5 48.05 38.2 48.35 38.85 48.7 39.6 48.8 40.4 48.65 40.6 48.05 39.85 47.35 38.2 46.65 Q37.3 46.3 36.7 45.7 36.1 45.1 36.1 44.1 36.1 43.2 36.55 42.5 37 41.8 37.8 41.45 L39.6 41.05 41.1 41.25 Q41.8 41.5 42.35 41.9 42.85 42.35 42.85 42.95 M1.35 49.5 L1.35 42.6 Q1.35 41.95 1.7 41.55 2.05 41.15 2.65 41.15 3.15 41.15 3.45 41.4 L3.85 42.1 Q4.6 41.05 6.3 41.05 7.35 41.05 8.15 41.5 8.95 41.9 9.4 42.7 9.85 43.45 9.85 44.55 L9.85 49.5 9.7 50.25 9.25 50.8 8.55 50.95 Q8 50.95 7.65 50.55 7.3 50.15 7.3 49.5 L7.3 45 Q7.3 44.15 6.8 43.7 6.35 43.2 5.6 43.2 L4.7 43.45 4.1 44.1 Q3.95 44.5 3.95 45 L3.95 49.5 3.75 50.25 3.3 50.8 2.65 50.95 Q2.05 50.95 1.7 50.55 1.35 50.15 1.35 49.5 M11.35 47.3 L11.35 42.6 Q11.35 41.95 11.7 41.55 12.05 41.15 12.65 41.15 L13.3 41.35 13.75 41.85 13.95 42.6 13.95 47.25 Q13.95 48 14.45 48.45 14.9 48.9 15.6 48.9 L16.45 48.7 17.05 48.15 17.3 47.25 17.3 42.6 Q17.3 41.95 17.65 41.55 18 41.15 18.55 41.15 L19.25 41.35 19.7 41.85 19.85 42.6 19.85 47.3 Q19.85 48.45 19.4 49.3 18.9 50.15 17.9 50.6 L15.6 51.05 Q13.55 51.05 12.45 50.05 11.35 49.05 11.35 47.3 M34.3 46.95 L28.8 46.95 Q28.9 47.85 29.6 48.35 30.25 48.8 31.2 48.8 L32.25 48.6 33.25 48.1 Q33.9 47.75 34.15 47.75 L34.7 47.9 35.05 48.35 35.2 48.85 34.85 49.65 33.85 50.4 32.45 50.9 31 51.05 Q29.55 51.05 28.45 50.45 27.35 49.8 26.75 48.65 26.15 47.5 26.15 46.1 26.15 45.1 26.5 44.2 26.8 43.3 27.45 42.55 28.05 41.85 28.95 41.45 L30.8 41.05 32.65 41.5 34.15 42.6 35.1 44.1 Q35.45 44.95 35.45 45.75 35.45 46.95 34.3 46.95 M21.95 49.5 L21.95 43.55 21.4 43.55 20.55 43.25 Q20.25 42.9 20.25 42.4 20.25 41.9 20.6 41.6 20.9 41.25 21.4 41.25 L21.95 41.25 21.95 39.7 Q21.95 39.1 22.35 38.7 22.7 38.3 23.25 38.3 L23.95 38.45 24.4 39 24.55 39.7 24.55 41.25 25.3 41.25 Q25.85 41.25 26.2 41.55 26.55 41.8 26.55 42.4 26.55 43 26.2 43.25 L25.3 43.55 24.55 43.55 24.55 49.5 24.4 50.25 23.95 50.75 23.25 50.95 Q22.7 50.95 22.35 50.55 21.95 50.15 21.95 49.5 M28.7 45.2 L32.85 45.2 Q32.75 44.3 32.2 43.75 31.65 43.2 30.8 43.2 29.95 43.2 29.4 43.75 28.85 44.35 28.7 45.2 M-28.75 51.05 Q-30.5 51.05 -31.55 50.1 -32.6 49.1 -33.1 47.6 L-33.55 44.45 Q-33.55 42.8 -33.1 41.3 -32.6 39.8 -31.55 38.8 -30.5 37.8 -28.75 37.8 -27.45 37.8 -26.55 38.4 -25.65 39 -25.05 39.95 -24.5 40.95 -24.25 42.1 -24 43.25 -24 44.45 L-24.25 46.75 Q-24.5 47.95 -25.05 48.9 -25.65 49.9 -26.55 50.5 -27.45 51.05 -28.75 51.05 M-39.45 48.5 L-36.2 48.5 Q-35.55 48.5 -35.15 48.8 -34.8 49.05 -34.8 49.65 -34.8 50.25 -35.15 50.55 L-36.05 50.85 -42.1 50.85 -43.1 50.55 Q-43.5 50.25 -43.5 49.65 L-43.1 48.75 -42 47.5 -40.8 46.1 -39.6 44.75 -38.6 43.35 Q-37.95 42.45 -37.95 41.7 -37.95 41.15 -38.35 40.7 -38.7 40.3 -39.25 40.3 -39.95 40.3 -40.25 40.7 L-40.8 41.8 -41.25 42.85 Q-41.5 43.2 -42.05 43.2 -42.65 43.2 -43.05 42.85 L-43.4 41.9 Q-43.4 40.8 -42.8 39.85 -42.2 38.9 -41.2 38.35 -40.25 37.8 -39.15 37.8 -38.05 37.8 -37.1 38.3 -36.2 38.75 -35.7 39.6 -35.15 40.45 -35.15 41.55 -35.15 42.4 -35.55 43.35 L-36.65 45.1 -38.15 46.95 -39.45 48.5 M-28.8 48.6 Q-27.95 48.6 -27.5 47.9 -27.1 47.2 -26.95 46.25 -26.8 45.35 -26.8 44.45 -26.8 42.8 -27.2 41.55 -27.6 40.25 -28.8 40.25 -30 40.25 -30.35 41.55 -30.75 42.85 -30.75 44.45 -30.75 46 -30.35 47.3 -29.95 48.6 -28.8 48.6 M-18 49.5 L-18 42.6 Q-18 41.95 -17.65 41.55 -17.3 41.15 -16.7 41.15 L-15.9 41.4 -15.5 42.15 Q-14.55 41.05 -13.1 41.05 -11.5 41.05 -10.45 42.35 -9.9 41.8 -9.15 41.4 L-7.7 41.05 -5.85 41.45 Q-5.05 41.85 -4.6 42.65 -4.15 43.45 -4.15 44.55 L-4.15 49.5 Q-4.15 49.95 -4.3 50.25 L-4.8 50.8 -5.45 50.95 Q-6.05 50.95 -6.4 50.55 -6.75 50.15 -6.75 49.5 L-6.75 45 Q-6.75 44.45 -6.9 44.05 L-7.45 43.45 Q-7.8 43.2 -8.25 43.2 -8.95 43.2 -9.35 43.7 -9.8 44.2 -9.8 45 L-9.8 49.5 Q-9.8 49.95 -9.95 50.25 L-10.4 50.8 -11.1 50.95 Q-11.65 50.95 -12 50.55 -12.4 50.15 -12.4 49.5 L-12.4 45 Q-12.4 44.45 -12.55 44.05 -12.75 43.7 -13.1 43.45 -13.4 43.2 -13.9 43.2 L-14.75 43.45 -15.25 44.05 -15.4 45 -15.4 49.5 -15.6 50.25 -16.05 50.8 -16.7 50.95 Q-17.3 50.95 -17.65 50.55 -18 50.15 -18 49.5 M-1.4 37.3 L-0.7 37.5 -0.15 38 0.05 38.7 Q0.05 39.3 -0.35 39.75 -0.8 40.2 -1.4 40.2 L-2.4 39.75 -2.85 38.7 Q-2.85 38.15 -2.4 37.7 -2 37.3 -1.4 37.3 M-2.7 49.5 L-2.7 42.6 Q-2.7 41.95 -2.35 41.55 -2 41.15 -1.4 41.15 L-0.75 41.35 -0.25 41.85 -0.1 42.6 -0.1 49.5 -0.25 50.25 -0.75 50.8 -1.4 50.95 Q-2 50.95 -2.35 50.55 -2.7 50.15 -2.7 49.5"/>
  </g>
</svg>