<svg xmlns="http://www.w3.org/2000/svg" xmlns:xlink="http://www.w3.org/1999/xlink">
  <defs/>
  <g>
    <path stroke="none" fill="#FFFFFF" d="M52 -49 Q52 -50.25 51.1 -51.15 50.25 -52 49 -52 47.75 -52 46.85 -51.15 46 -50.25 46 -49 46 -47.75 46.85 -46.9 47.75 -46 49 -46 50.25 -46 51.1 -46.9 52 -47.75 52 -49 M48.25 -58 Q58 -58 58 -48.2 L58 5 38 25 -48.2 25 Q-58 25 -58 15.25 L-58 -38 -38 -58 48.25 -58 M-46 17 Q-46 15.75 -46.9 14.85 -47.75 14 -49 14 -50.25 14 -51.15 14.85 -52 15.75 -52 17 -52 18.25 -51.15 19.1 -50.25 20 -49 20 -47.75 20 -46.9 19.1 -46 18.25 -46 17"/>
    <path stroke="none" fill="#11141E" d="M-46 17 Q-46 18.25 -46.9 19.1 -47.75 20 -49 20 -50.25 20 -51.15 19.1 -52 18.25 -52 17 -52 15.75 -51.15 14.85 -50.25 14 -49 14 -47.75 14 -46.9 14.85 -46 15.75 -46 17 M52 -49 Q52 -47.75 51.1 -46.9 50.25 -46 49 -46 47.75 -46 46.85 -46.9 46 -47.75 46 -49 46 -50.25 46.85 -51.15 47.75 -52 49 -52 50.25 -52 51.1 -51.15 52 -50.25 52 -49 M48.25 -64 Q64 -64 64 -48.2 L64 48.25 Q64 64 48.25 64 L-48.2 64 Q-64 64 -64 48.25 L-64 -49 Q-63.6 -63.1 -50 -63.95 L-50 -64 48.25 -64 M48.25 -58 L-38 -58 -58 -38 -58 15.25 Q-58 25 -48.2 25 L38 25 58 5 58 -48.2 Q58 -58 48.25 -58"/>
    <path stroke="none" fill="#11141E" d="M-9.4 -45.4 Q-8.8 -46 -8 -46 L7.95 -46 Q8.75 -46 9.35 -45.4 9.95 -44.8 9.95 -44 L9.95 -38.05 Q9.95 -37.25 9.35 -36.65 8.75 -36.05 7.95 -36.05 L6.95 -36.05 6.95 -35 Q9.75 -34.25 12.3 -32.75 L14.25 -34.75 14.25 -34.7 Q15.15 -35.75 16.6 -35.6 17.7 -35.5 18.45 -34.75 L24.15 -29.05 Q24.9 -28.3 25 -27.2 L25 -27.15 Q25.1 -25.95 24.45 -25.1 L24.25 -24.85 22.1 -22.65 Q24.95 -17.4 24.95 -10.95 24.95 -0.65 17.6 6.65 10.3 14 0 14 -10.35 14 -17.7 6.65 -25 -0.65 -25 -10.95 -25 -21.3 -17.7 -28.65 -13 -33.35 -7 -35 L-7 -36.05 -8 -36.05 Q-8.8 -36.05 -9.4 -36.65 -10 -37.25 -10 -38.05 L-10 -44 Q-10 -44.8 -9.4 -45.4 M6 -10.95 Q6 -8.5 4.25 -6.75 2.55 -5 0 -5 -2.5 -5 -4.25 -6.75 -6 -8.5 -6 -10.95 -6 -13.45 -4.25 -15.2 L-3.25 -16 -2.55 -24.5 -2.55 -24.55 -2 -25.55 -2.05 -25.55 Q-1.6 -26 -1 -26 L1 -26 Q1.6 -26 2.05 -25.55 2.5 -25.1 2.55 -24.55 L2.55 -24.5 3.3 -16 4.25 -15.2 Q6 -13.45 6 -10.95 M0 -27.95 Q-7.05 -27.95 -12.05 -23 -17 -18 -17 -10.95 -17 -3.95 -12.05 1 -7.05 6 0 6 7 6 11.95 1.05 L12 1 Q16.95 -3.95 16.95 -10.95 16.95 -18 11.95 -23 7 -27.95 0 -27.95"/>
    <path stroke="none" fill="#FFFFFF" d="M34.55 49.5 L34.55 42.6 Q34.55 41.95 34.9 41.55 35.25 41.15 35.85 41.15 36.35 41.15 36.65 41.4 L37.05 42.1 Q37.8 41.05 39.5 41.05 40.55 41.05 41.35 41.5 42.15 41.9 42.6 42.7 43.05 43.45 43.05 44.55 L43.05 49.5 42.9 50.25 42.45 50.8 41.75 50.95 Q41.2 50.95 40.85 50.55 40.5 50.15 40.5 49.5 L40.5 45 Q40.5 44.15 40 43.7 39.55 43.2 38.8 43.2 38.25 43.2 37.9 43.45 L37.3 44.1 Q37.15 44.5 37.15 45 L37.15 49.5 36.95 50.25 36.5 50.8 35.85 50.95 Q35.25 50.95 34.9 50.55 34.55 50.15 34.55 49.5 M4.45 51.05 Q2.7 51.05 1.65 50.1 0.6 49.1 0.1 47.6 L-0.35 44.45 Q-0.35 42.8 0.1 41.3 0.6 39.8 1.65 38.8 2.7 37.8 4.45 37.8 5.75 37.8 6.65 38.4 7.55 39 8.15 39.95 L8.95 42.1 9.2 44.45 8.95 46.75 8.15 48.9 6.65 50.5 Q5.75 51.05 4.45 51.05 M4.4 48.6 Q5.25 48.6 5.7 47.9 L6.25 46.25 6.4 44.45 Q6.4 42.8 6 41.55 5.6 40.25 4.4 40.25 3.2 40.25 2.85 41.55 2.45 42.85 2.45 44.45 2.45 46 2.85 47.3 3.25 48.6 4.4 48.6 M15.2 49.5 L15.2 42.6 Q15.2 41.95 15.55 41.55 15.9 41.15 16.5 41.15 L17.3 41.4 17.7 42.15 Q18.65 41.05 20.1 41.05 21.7 41.05 22.75 42.35 L24.05 41.4 Q24.85 41.05 25.5 41.05 L27.35 41.45 Q28.15 41.85 28.6 42.65 29.05 43.45 29.05 44.55 L29.05 49.5 28.9 50.25 28.4 50.8 27.75 50.95 Q27.15 50.95 26.8 50.55 26.45 50.15 26.45 49.5 L26.45 45 26.3 44.05 25.75 43.45 Q25.4 43.2 24.95 43.2 24.25 43.2 23.85 43.7 23.4 44.2 23.4 45 L23.4 49.5 23.25 50.25 22.8 50.8 22.1 50.95 Q21.55 50.95 21.2 50.55 20.8 50.15 20.8 49.5 L20.8 45 20.65 44.05 20.1 43.45 19.3 43.2 Q18.8 43.2 18.45 43.45 L17.95 44.05 Q17.8 44.45 17.8 45 L17.8 49.5 17.6 50.25 17.15 50.8 16.5 50.95 Q15.9 50.95 15.55 50.55 15.2 50.15 15.2 49.5 M31.8 37.3 L32.5 37.5 33.05 38 33.25 38.7 Q33.25 39.3 32.85 39.75 L31.8 40.2 Q31.2 40.2 30.8 39.75 30.35 39.3 30.35 38.7 30.35 38.15 30.8 37.7 31.2 37.3 31.8 37.3 M30.5 49.5 L30.5 42.6 Q30.5 41.95 30.85 41.55 31.2 41.15 31.8 41.15 L32.45 41.35 32.95 41.85 33.1 42.6 33.1 49.5 32.95 50.25 32.45 50.8 31.8 50.95 Q31.2 50.95 30.85 50.55 30.5 50.15 30.5 49.5 M-33.65 40.5 L-33.9 42.45 -32.55 42.25 Q-31.5 42.25 -30.65 42.75 -29.8 43.25 -29.3 44.15 -28.85 45.05 -28.85 46.1 -28.85 47.2 -29.15 48.1 -29.45 49.05 -30.05 49.7 L-31.55 50.7 -33.6 51.05 -35.3 50.8 -36.9 49.95 Q-37.55 49.35 -37.55 48.65 L-37.4 48.05 -36.95 47.6 -36.35 47.45 Q-36.05 47.45 -35.45 47.8 L-34.45 48.4 -33.55 48.6 Q-32.65 48.6 -32.15 47.85 -31.65 47.15 -31.65 46.25 L-31.85 45.3 -32.45 44.65 -33.35 44.4 -34.5 44.7 -35.5 45 -36.25 44.7 -36.55 44.15 -36.55 43.9 -36.5 43.55 -36.05 39.75 -35.85 38.85 -35.6 38.35 -35.2 38.1 -34.65 38.05 -30.3 38.05 Q-29.7 38.05 -29.35 38.35 -29 38.7 -29 39.15 -29 40 -29.4 40.25 L-30.25 40.5 -33.65 40.5 M-42.05 49.55 L-42.05 40.5 -43.15 40.5 -44.05 40.15 -44.35 39.3 Q-44.35 38.8 -44 38.4 -43.7 38.05 -43.15 38.05 L-40.55 38.05 Q-40 38.05 -39.7 38.4 -39.35 38.75 -39.35 39.3 L-39.35 49.55 Q-39.35 50.25 -39.75 50.6 -40.1 50.95 -40.7 50.95 -41.3 50.95 -41.7 50.6 L-42.05 49.55 M-21.35 44.5 L-17.55 44.5 Q-17.05 44.55 -16.75 44.85 -16.5 45.15 -16.5 45.65 L-16.75 46.4 Q-17.05 46.75 -17.55 46.75 L-21.35 46.75 Q-21.85 46.75 -22.1 46.45 L-22.4 45.65 -22.1 44.85 Q-21.85 44.55 -21.35 44.5 M-6.2 37.8 Q-5 37.8 -4.15 38.35 -3.25 38.85 -2.85 39.6 -2.4 40.4 -2.4 41.1 -2.4 41.95 -2.75 42.7 L-3.85 43.85 Q-2.85 44.35 -2.25 45.2 -1.65 46.05 -1.65 47.1 -1.65 48.15 -2.25 49.05 -2.85 50 -3.9 50.55 L-6.2 51.05 -8.45 50.55 -9.95 49.2 Q-10.5 48.4 -10.5 47.7 -10.5 47.2 -10.1 46.8 -9.65 46.45 -9.15 46.45 -8.65 46.45 -8.1 47.25 L-7.3 48.3 -6.15 48.6 -5.3 48.35 -4.7 47.75 -4.45 46.9 Q-4.45 46.05 -4.85 45.75 L-6.05 45.35 -7.15 45.05 Q-7.55 44.8 -7.55 44.1 -7.55 43.5 -7.2 43.25 L-6.25 42.85 Q-5.6 42.7 -5.3 42.4 -5 42.15 -5 41.5 -5 41 -5.35 40.65 -5.7 40.3 -6.25 40.3 L-7.2 40.55 -7.8 41.2 -8.35 41.85 Q-8.55 42.05 -8.95 42.05 -9.5 42.05 -9.8 41.65 L-10.15 40.75 -9.8 39.7 -8.95 38.75 Q-8.35 38.3 -7.65 38.05 L-6.2 37.8"/>
  </g>
</svg>