<svg xmlns="http://www.w3.org/2000/svg" xmlns:xlink="http://www.w3.org/1999/xlink">
  <defs/>
  <g>
    <path stroke="none" fill="#FFFFFF" d="M52 -49 Q52 -50.25 51.1 -51.15 50.25 -52 49 -52 47.75 -52 46.85 -51.15 46 -50.25 46 -49 46 -47.75 46.85 -46.9 47.75 -46 49 -46 50.25 -46 51.1 -46.9 52 -47.75 52 -49 M48.25 -58 Q58 -58 58 -48.2 L58 5 38 25 -48.2 25 Q-58 25 -58 15.25 L-58 -38 -38 -58 48.25 -58 M-46 17 Q-46 15.75 -46.9 14.85 -47.75 14 -49 14 -50.25 14 -51.15 14.85 -52 15.75 -52 17 -52 18.25 -51.15 19.1 -50.25 20 -49 20 -47.75 20 -46.9 19.1 -46 18.25 -46 17"/>
    <path stroke="none" fill="#11141E" d="M-46 17 Q-46 18.25 -46.9 19.1 -47.75 20 -49 20 -50.25 20 -51.15 19.1 -52 18.25 -52 17 -52 15.75 -51.15 14.85 -50.25 14 -49 14 -47.75 14 -46.9 14.85 -46 15.75 -46 17 M52 -49 Q52 -47.75 51.1 -46.9 50.25 -46 49 -46 47.75 -46 46.85 -46.9 46 -47.75 46 -49 46 -50.25 46.85 -51.15 47.75 -52 49 -52 50.25 -52 51.1 -51.15 52 -50.25 52 -49 M48.25 -58 L-38 -58 -58 -38 -58 15.25 Q-58 25 -48.2 25 L38 25 58 5 58 -48.2 Q58 -58 48.25 -58 M48.25 -64 Q64 -64 64 -48.2 L64 48.25 Q64 64 48.25 64 L-48.2 64 Q-64 64 -64 48.25 L-64 -49 Q-63.6 -63.1 -50 -63.95 L-50 -64 48.25 -64"/>
    <path stroke="none" fill="#11141E" d="M-9.4 -45.4 Q-8.8 -46 -8 -46 L7.95 -46 Q8.75 -46 9.35 -45.4 9.95 -44.8 9.95 -44 L9.95 -38.05 Q9.95 -37.25 9.35 -36.65 8.75 -36.05 7.95 -36.05 L6.95 -36.05 6.95 -35 Q9.75 -34.25 12.3 -32.75 L14.25 -34.75 14.25 -34.7 Q15.15 -35.75 16.6 -35.6 17.7 -35.5 18.45 -34.75 L24.15 -29.05 Q24.9 -28.3 25 -27.2 L25 -27.15 Q25.1 -25.95 24.45 -25.1 L24.25 -24.85 22.1 -22.65 Q24.95 -17.4 24.95 -10.95 24.95 -0.65 17.6 6.65 10.3 14 0 14 -10.35 14 -17.7 6.65 -25 -0.65 -25 -10.95 -25 -21.3 -17.7 -28.65 -13 -33.35 -7 -35 L-7 -36.05 -8 -36.05 Q-8.8 -36.05 -9.4 -36.65 -10 -37.25 -10 -38.05 L-10 -44 Q-10 -44.8 -9.4 -45.4 M6 -10.95 Q6 -8.5 4.25 -6.75 2.55 -5 0 -5 -2.5 -5 -4.25 -6.75 -6 -8.5 -6 -10.95 -6 -13.45 -4.25 -15.2 L-3.25 -16 -2.55 -24.5 -2.55 -24.55 -2 -25.55 -2.05 -25.55 Q-1.6 -26 -1 -26 L1 -26 Q1.6 -26 2.05 -25.55 2.5 -25.1 2.55 -24.55 L2.55 -24.5 3.3 -16 4.25 -15.2 Q6 -13.45 6 -10.95 M0 -27.95 Q-7.05 -27.95 -12.05 -23 -17 -18 -17 -10.95 -17 -3.95 -12.05 1 -7.05 6 0 6 7 6 11.95 1.05 L12 1 Q16.95 -3.95 16.95 -10.95 16.95 -18 11.95 -23 7 -27.95 0 -27.95"/>
    <path stroke="none" fill="#FFFFFF" d="M36.4 49.5 L36.4 42.6 Q36.4 41.95 36.75 41.55 37.1 41.15 37.7 41.15 L38.5 41.4 38.9 42.1 Q39.65 41.05 41.35 41.05 42.4 41.05 43.2 41.5 44 41.9 44.45 42.7 44.9 43.45 44.9 44.55 L44.9 49.5 44.75 50.25 44.3 50.8 43.6 50.95 Q43.05 50.95 42.7 50.55 42.35 50.15 42.35 49.5 L42.35 45 Q42.35 44.15 41.85 43.7 41.4 43.2 40.65 43.2 40.1 43.2 39.75 43.45 L39.15 44.1 Q39 44.5 39 45 L39 49.5 38.8 50.25 38.35 50.8 37.7 50.95 Q37.1 50.95 36.75 50.55 36.4 50.15 36.4 49.5 M6.3 51.05 Q4.55 51.05 3.5 50.1 2.45 49.1 1.95 47.6 1.5 46.05 1.5 44.45 1.5 42.8 1.95 41.3 2.45 39.8 3.5 38.8 4.55 37.8 6.3 37.8 7.6 37.8 8.5 38.4 9.4 39 10 39.95 L10.8 42.1 11.05 44.45 10.8 46.75 10 48.9 Q9.4 49.9 8.5 50.5 7.6 51.05 6.3 51.05 M6.25 48.6 Q7.1 48.6 7.55 47.9 L8.1 46.25 8.25 44.45 Q8.25 42.8 7.85 41.55 7.45 40.25 6.25 40.25 5.05 40.25 4.7 41.55 4.3 42.85 4.3 44.45 4.3 46 4.7 47.3 5.1 48.6 6.25 48.6 M17.05 49.5 L17.05 42.6 Q17.05 41.95 17.4 41.55 17.75 41.15 18.35 41.15 L19.15 41.4 19.55 42.15 Q20.5 41.05 21.95 41.05 23.55 41.05 24.6 42.35 L25.9 41.4 Q26.7 41.05 27.35 41.05 L29.2 41.45 Q30 41.85 30.45 42.65 30.9 43.45 30.9 44.55 L30.9 49.5 30.75 50.25 30.25 50.8 29.6 50.95 Q29 50.95 28.65 50.55 28.3 50.15 28.3 49.5 L28.3 45 28.15 44.05 27.6 43.45 26.8 43.2 Q26.1 43.2 25.7 43.7 25.25 44.2 25.25 45 L25.25 49.5 25.1 50.25 24.65 50.8 23.95 50.95 Q23.4 50.95 23.05 50.55 22.65 50.15 22.65 49.5 L22.65 45 22.5 44.05 21.95 43.45 Q21.65 43.2 21.15 43.2 L20.3 43.45 19.8 44.05 Q19.65 44.45 19.65 45 L19.65 49.5 19.45 50.25 19 50.8 18.35 50.95 Q17.75 50.95 17.4 50.55 17.05 50.15 17.05 49.5 M33.65 37.3 L34.35 37.5 34.9 38 35.1 38.7 Q35.1 39.3 34.7 39.75 34.25 40.2 33.65 40.2 33.05 40.2 32.65 39.75 32.2 39.3 32.2 38.7 32.2 38.15 32.65 37.7 33.05 37.3 33.65 37.3 M32.35 49.5 L32.35 42.6 Q32.35 41.95 32.7 41.55 33.05 41.15 33.65 41.15 L34.3 41.35 34.8 41.85 34.95 42.6 34.95 49.5 34.8 50.25 34.3 50.8 33.65 50.95 Q33.05 50.95 32.7 50.55 32.35 50.15 32.35 49.5 M-31.1 51.05 Q-32.85 51.05 -33.9 50.1 -34.95 49.1 -35.45 47.6 L-35.9 44.45 Q-35.9 42.8 -35.45 41.3 -34.95 39.8 -33.9 38.8 -32.85 37.8 -31.1 37.8 -29.8 37.8 -28.9 38.4 -28 39 -27.4 39.95 -26.85 40.95 -26.6 42.1 -26.35 43.25 -26.35 44.45 L-26.6 46.75 Q-26.85 47.95 -27.4 48.9 -28 49.9 -28.9 50.5 -29.8 51.05 -31.1 51.05 M-31.15 48.6 Q-30.3 48.6 -29.85 47.9 -29.45 47.2 -29.3 46.25 -29.15 45.35 -29.15 44.45 -29.15 42.8 -29.55 41.55 -29.95 40.25 -31.15 40.25 -32.35 40.25 -32.7 41.55 -33.1 42.85 -33.1 44.45 -33.1 46 -32.7 47.3 -32.3 48.6 -31.15 48.6 M-41.5 51.05 Q-42.85 51.05 -43.85 50.45 -44.9 49.85 -45.45 48.85 -46 47.8 -46 46.6 -46 45.35 -45.3 43.75 L-43.5 40.75 -41.45 38.4 -40.85 37.95 -40.3 37.8 -39.75 38 -39.25 38.5 -39.05 39.15 Q-39.05 39.4 -39.4 39.85 L-40.6 41.25 -41.9 42.75 -41.85 42.8 -40.75 42.55 Q-39.9 42.55 -39.2 42.9 L-38.05 43.8 -37.25 45.05 Q-36.95 45.8 -36.95 46.6 -36.95 47.75 -37.55 48.8 -38.1 49.85 -39.15 50.45 -40.2 51.05 -41.5 51.05 M-41.45 44.75 Q-42 44.75 -42.35 45 L-43 45.65 -43.2 46.6 Q-43.2 47.4 -42.7 47.95 -42.25 48.5 -41.45 48.5 -40.7 48.5 -40.25 47.95 -39.75 47.4 -39.75 46.6 L-39.95 45.7 -40.55 45 -41.45 44.75 M-19.5 44.5 L-15.7 44.5 Q-15.2 44.55 -14.9 44.85 -14.65 45.15 -14.65 45.65 -14.65 46.1 -14.9 46.4 -15.2 46.75 -15.7 46.75 L-19.5 46.75 -20.25 46.45 -20.55 45.65 -20.25 44.85 Q-20 44.55 -19.5 44.5 M-4.05 44.15 Q-3.3 44.15 -2.85 43.65 -2.35 43.1 -2.35 42.3 -2.35 41.5 -2.85 40.95 -3.3 40.4 -4.05 40.4 -4.85 40.4 -5.3 40.95 -5.8 41.5 -5.8 42.3 -5.8 43.05 -5.35 43.6 -4.9 44.15 -4.05 44.15 M-4.1 37.8 Q-2.75 37.8 -1.7 38.45 -0.7 39.05 -0.1 40.05 0.45 41.1 0.45 42.3 0.45 43.55 -0.3 45.1 -1 46.7 -2.05 48.15 L-4.15 50.5 -4.7 50.95 -5.25 51.05 Q-5.65 51.05 -6.1 50.65 L-6.55 49.75 -6.45 49.45 -6.15 49 -4.95 47.65 -3.65 46.15 -3.7 46.1 -4.85 46.3 Q-5.9 46.3 -6.75 45.75 -7.6 45.2 -8.1 44.25 -8.6 43.35 -8.6 42.3 -8.6 41.1 -8 40.1 -7.45 39.05 -6.4 38.45 -5.35 37.8 -4.1 37.8"/>
  </g>
</svg>