<svg xmlns="http://www.w3.org/2000/svg" xmlns:xlink="http://www.w3.org/1999/xlink">
  <defs/>
  <g>
    <path stroke="none" fill="#FFFFFF" d="M52 -49 Q52 -50.25 51.1 -51.15 50.25 -52 49 -52 47.75 -52 46.85 -51.15 46 -50.25 46 -49 46 -47.75 46.85 -46.9 47.75 -46 49 -46 50.25 -46 51.1 -46.9 52 -47.75 52 -49 M48.25 -58 Q58 -58 58 -48.2 L58 5 38 25 -48.2 25 Q-58 25 -58 15.25 L-58 -38 -38 -58 48.25 -58 M-46 17 Q-46 15.75 -46.9 14.85 -47.75 14 -49 14 -50.25 14 -51.15 14.85 -52 15.75 -52 17 -52 18.25 -51.15 19.1 -50.25 20 -49 20 -47.75 20 -46.9 19.1 -46 18.25 -46 17"/>
    <path stroke="none" fill="#11141E" d="M-46 17 Q-46 18.25 -46.9 19.1 -47.75 20 -49 20 -50.25 20 -51.15 19.1 -52 18.25 -52 17 -52 15.75 -51.15 14.85 -50.25 14 -49 14 -47.75 14 -46.9 14.85 -46 15.75 -46 17 M52 -49 Q52 -47.75 51.1 -46.9 50.25 -46 49 -46 47.75 -46 46.85 -46.9 46 -47.75 46 -49 46 -50.25 46.85 -51.15 47.75 -52 49 -52 50.25 -52 51.1 -51.15 52 -50.25 52 -49 M48.25 -64 Q64 -64 64 -48.2 L64 48.25 Q64 64 48.25 64 L-48.2 64 Q-64 64 -64 48.25 L-64 -49 Q-63.6 -63.1 -50 -63.95 L-50 -64 48.25 -64 M48.25 -58 L-38 -58 -58 -38 -58 15.25 Q-58 25 -48.2 25 L38 25 58 5 58 -48.2 Q58 -58 48.25 -58"/>
    <path stroke="none" fill="#11141E" d="M-12.45 -2.8 Q-12.95 -2.95 -13.3 -3.35 L-13.7 -4.2 -13.6 -5.15 -10.25 -13.15 -9.25 -14.1 Q-8.6 -14.35 -7.85 -14.1 -7.2 -13.8 -6.95 -13.15 -6.65 -12.45 -6.95 -11.75 2.05 -16.8 8.65 -13.65 9.95 -13.1 10.55 -11.7 11.15 -10.35 10.55 -9 9.95 -7.65 8.65 -7.1 7.25 -6.5 5.9 -7.1 1.3 -8.65 -5.4 -4.35 L-4.75 -4.2 Q-4.05 -3.95 -3.7 -3.3 -3.4 -2.65 -3.6 -1.95 -3.8 -1.25 -4.45 -0.9 L-5.8 -0.8 -12.45 -2.8 M11.85 -3.05 L12.65 -2.5 13.1 -1.6 12.95 -0.65 12.55 0.4 12.5 0.55 11.75 2.3 9.6 7.35 Q9.3 8 8.65 8.25 7.95 8.55 7.3 8.25 6.6 7.95 6.3 7.3 6.05 6.6 6.3 5.95 -2.65 10.9 -9.25 7.85 -10.65 7.35 -11.15 5.95 -11.75 4.6 -11.2 3.25 -10.65 1.85 -9.3 1.35 L-6.55 1.3 Q-1.9 2.85 4.8 -1.45 L4.2 -1.6 Q3.5 -1.85 3.1 -2.5 2.75 -3.15 3 -3.85 3.15 -4.55 3.85 -4.9 L5.2 -5.05 11.85 -3.05 M24.05 8.9 L12.8 7.4 14.4 3.5 15.2 1.5 15.6 0.55 Q16.15 -0.65 15.95 -1.85 15.7 -3.15 15 -4.1 L14.9 -4.15 Q14.05 -5.1 12.8 -5.5 L11.45 -5.9 Q12.35 -6.8 12.9 -8.05 L12.95 -8.1 Q13.95 -10.4 13.05 -12.8 L12.95 -12.85 Q12 -15.2 9.65 -16.2 L9.75 -16.1 9.65 -16.15 9.1 -16.85 Q5.7 -21.25 6.45 -26.75 7.15 -32.2 11.6 -35.6 16 -38.95 21.45 -38.15 26.95 -37.4 30.3 -33.05 33.6 -28.6 32.9 -23.15 32.15 -17.65 27.75 -14.35 26.5 -13.3 25.05 -12.7 L25.5 -11.75 29.35 -0.45 Q29.65 0.55 29.5 1.5 L29.05 5.05 Q28.8 6.9 27.3 8 25.85 9.1 24.05 8.9 M-24 6.2 Q-25.85 6.45 -27.3 5.35 -28.8 4.2 -29.05 2.4 L-29.5 -1.15 Q-29.65 -2.15 -29.3 -3.1 L-25.5 -14.4 -25.05 -15.35 Q-26.45 -16 -27.75 -17 -32.1 -20.35 -32.85 -25.8 -33.6 -31.3 -30.3 -35.75 -26.95 -40.1 -21.45 -40.85 -15.95 -41.6 -11.6 -38.25 -7.15 -34.9 -6.45 -29.4 -5.7 -23.95 -9.05 -19.55 -10.05 -18.25 -11.2 -17.25 L-10.6 -16.5 Q-12.05 -15.75 -12.75 -14.25 L-14.75 -9.35 Q-15.45 -8.4 -15.65 -7.3 L-16.1 -6.35 Q-16.65 -5.1 -16.35 -3.9 -16.2 -2.65 -15.4 -1.7 L-15.35 -1.65 Q-14.55 -0.65 -13.3 -0.25 L-11.95 0.15 Q-12.85 1 -13.4 2.25 L-13.45 2.3 Q-13.9 3.55 -13.9 4.85 L-24 6.2"/>
    <path stroke="none" fill="#FFFFFF" d="M13.15 49.5 L13.15 43.55 12.6 43.55 Q12.1 43.55 11.75 43.25 L11.6 43 11.35 43.55 Q11.05 43.95 10.65 43.95 L9.7 43.7 8.6 43.45 Q7.9 43.45 7.4 43.8 L6.65 44.8 Q6.4 45.4 6.4 46.1 6.4 47.1 7 47.9 7.6 48.7 8.6 48.7 L9.15 48.6 9.95 48.35 10.5 48.15 11.05 48.3 11.45 48.7 11.6 49.3 Q11.6 49.9 11.05 50.3 L9.75 50.9 8.45 51.05 Q7.1 51.05 6.05 50.4 5 49.75 4.4 48.6 3.8 47.45 3.8 46.1 3.8 45.1 4.15 44.2 4.5 43.3 5.1 42.6 5.75 41.85 6.6 41.45 7.45 41.05 8.45 41.05 L9.8 41.25 Q10.55 41.4 11.1 41.75 L11.5 42.15 Q11.55 41.8 11.8 41.6 12.1 41.25 12.6 41.25 L13.15 41.25 13.15 39.7 Q13.15 39.1 13.55 38.7 13.9 38.3 14.45 38.3 L15.15 38.45 15.6 39 15.75 39.7 15.75 41.25 16.5 41.25 Q17.05 41.25 17.4 41.55 17.75 41.8 17.75 42.4 17.75 43 17.4 43.25 L16.5 43.55 15.75 43.55 15.75 49.5 15.6 50.25 15.15 50.75 14.45 50.95 Q13.9 50.95 13.55 50.55 13.15 50.15 13.15 49.5 M2.7 42.85 L2.7 49.25 2.5 50.5 Q2.3 50.95 1.45 50.95 L0.65 50.7 Q0.35 50.4 0.2 49.85 -0.8 51.05 -2.25 51.05 -3.45 51.05 -4.45 50.45 -5.4 49.8 -6 48.65 -6.55 47.5 -6.55 46.1 -6.55 44.7 -5.95 43.55 -5.4 42.4 -4.4 41.75 -3.45 41.05 -2.25 41.05 -1.55 41.05 -0.85 41.35 -0.2 41.65 0.2 42.25 0.25 41.75 0.6 41.45 1 41.15 1.45 41.15 2.3 41.15 2.5 41.65 L2.7 42.85 M19.15 37.3 L19.85 37.5 20.4 38 20.6 38.7 Q20.6 39.3 20.2 39.75 19.75 40.2 19.15 40.2 18.55 40.2 18.15 39.75 17.7 39.3 17.7 38.7 17.7 38.15 18.15 37.7 18.55 37.3 19.15 37.3 M17.85 49.5 L17.85 42.6 Q17.85 41.95 18.2 41.55 18.55 41.15 19.15 41.15 L19.8 41.35 20.3 41.85 20.45 42.6 20.45 49.5 20.3 50.25 19.8 50.8 19.15 50.95 Q18.55 50.95 18.2 50.55 17.85 50.15 17.85 49.5 M26.15 41.05 L28 41.45 29.5 42.6 30.45 44.2 Q30.8 45.1 30.8 46.1 L30.45 48 29.55 49.6 28.05 50.65 Q27.15 51.05 26.15 51.05 24.8 51.05 23.75 50.4 22.7 49.75 22.1 48.6 21.5 47.45 21.5 46.1 21.5 45.1 21.85 44.2 L22.8 42.6 Q23.45 41.85 24.3 41.45 L26.15 41.05 M26.15 43.45 Q25.5 43.45 25.05 43.8 24.55 44.2 24.35 44.8 L24.1 46.1 24.35 47.35 Q24.55 47.95 25.05 48.3 25.5 48.7 26.15 48.7 26.8 48.7 27.3 48.3 L28 47.35 28.2 46.1 28 44.8 27.3 43.8 Q26.8 43.45 26.15 43.45 M31.9 49.5 L31.9 42.6 Q31.9 41.95 32.25 41.55 32.6 41.15 33.2 41.15 L34 41.4 34.4 42.1 Q35.15 41.05 36.85 41.05 37.9 41.05 38.7 41.5 39.5 41.9 39.95 42.7 40.4 43.45 40.4 44.55 L40.4 49.5 40.25 50.25 39.8 50.8 39.1 50.95 Q38.55 50.95 38.2 50.55 37.85 50.15 37.85 49.5 L37.85 45 Q37.85 44.15 37.35 43.7 36.9 43.2 36.15 43.2 35.6 43.2 35.25 43.45 L34.65 44.1 Q34.5 44.5 34.5 45 L34.5 49.5 34.3 50.25 33.85 50.8 33.2 50.95 Q32.6 50.95 32.25 50.55 31.9 50.15 31.9 49.5 M-37.15 49.5 L-37.15 42.6 Q-37.15 41.95 -36.8 41.55 -36.45 41.15 -35.85 41.15 -35.35 41.15 -35.05 41.4 L-34.65 42.1 Q-33.9 41.05 -32.2 41.05 -31.15 41.05 -30.35 41.5 -29.55 41.9 -29.1 42.7 -28.65 43.45 -28.65 44.55 L-28.65 49.5 Q-28.65 49.95 -28.8 50.25 L-29.25 50.8 -29.95 50.95 Q-30.5 50.95 -30.85 50.55 -31.2 50.15 -31.2 49.5 L-31.2 45 Q-31.2 44.15 -31.7 43.7 -32.15 43.2 -32.9 43.2 L-33.8 43.45 Q-34.2 43.7 -34.4 44.1 L-34.55 45 -34.55 49.5 -34.75 50.25 -35.2 50.8 -35.85 50.95 Q-36.45 50.95 -36.8 50.55 L-37.15 49.5 M-41.4 49.55 L-41.4 39.35 Q-41.4 38.7 -41 38.3 -40.65 37.95 -40.05 37.95 -39.45 37.95 -39.05 38.3 -38.7 38.65 -38.7 39.35 L-38.7 49.55 Q-38.7 50.25 -39.05 50.6 L-40.05 50.95 Q-40.65 50.95 -41 50.6 -41.4 50.2 -41.4 49.55 M-26.55 49.5 L-26.55 43.55 -27.1 43.55 Q-27.6 43.55 -27.95 43.25 L-28.25 42.4 Q-28.25 41.9 -27.9 41.6 -27.6 41.25 -27.1 41.25 L-26.55 41.25 -26.55 39.7 Q-26.55 39.1 -26.15 38.7 -25.8 38.3 -25.25 38.3 L-24.55 38.45 Q-24.25 38.65 -24.1 39 -23.95 39.3 -23.95 39.7 L-23.95 41.25 -23.2 41.25 Q-22.65 41.25 -22.3 41.55 -21.95 41.8 -21.95 42.4 -21.95 43 -22.3 43.25 -22.65 43.55 -23.2 43.55 L-23.95 43.55 -23.95 49.5 Q-23.95 49.95 -24.1 50.25 L-24.55 50.75 -25.25 50.95 Q-25.8 50.95 -26.15 50.55 -26.55 50.15 -26.55 49.5 M-14.2 46.95 L-19.7 46.95 Q-19.6 47.85 -18.9 48.35 L-17.3 48.8 -16.25 48.6 -15.25 48.1 -14.35 47.75 -13.8 47.9 -13.45 48.35 Q-13.3 48.6 -13.3 48.85 -13.3 49.3 -13.65 49.65 L-14.65 50.4 -16.05 50.9 -17.5 51.05 Q-18.95 51.05 -20.05 50.45 -21.15 49.8 -21.75 48.65 -22.35 47.5 -22.35 46.1 -22.35 45.1 -22 44.2 -21.7 43.3 -21.05 42.55 L-19.55 41.45 -17.7 41.05 Q-16.7 41.05 -15.85 41.5 L-14.35 42.6 Q-13.75 43.25 -13.4 44.1 -13.05 44.95 -13.05 45.75 -13.05 46.95 -14.2 46.95 M-12.2 49.5 L-12.2 42.45 Q-12.2 41.85 -11.8 41.5 -11.4 41.15 -10.85 41.15 -9.6 41.15 -9.6 42.25 L-9.55 42.25 -8.75 41.4 -7.75 41.15 Q-7.25 41.15 -6.85 41.5 -6.5 41.9 -6.5 42.55 L-6.7 43.15 -7.25 43.5 -8.05 43.8 -9.2 44.5 Q-9.6 44.85 -9.6 45.55 L-9.6 49.5 -9.75 50.25 -10.25 50.8 -10.9 50.95 Q-11.5 50.95 -11.85 50.55 L-12.2 49.5 M-19.8 45.2 L-15.65 45.2 Q-15.75 44.3 -16.3 43.75 -16.85 43.2 -17.7 43.2 -18.55 43.2 -19.1 43.75 -19.65 44.35 -19.8 45.2 M-3.95 46.1 L-3.7 47.35 -3 48.3 Q-2.55 48.7 -1.9 48.7 -0.95 48.7 -0.4 47.9 0.1 47.1 0.1 46.1 L-0.1 44.8 -0.8 43.8 Q-1.25 43.45 -1.9 43.45 -2.55 43.45 -3 43.8 L-3.7 44.8 -3.95 46.1"/>
  </g>
</svg>