<svg xmlns="http://www.w3.org/2000/svg" xmlns:xlink="http://www.w3.org/1999/xlink">
  <defs/>
  <g>
    <path stroke="none" fill="#FFFFFF" d="M52 -49 Q52 -50.25 51.1 -51.15 50.25 -52 49 -52 47.75 -52 46.85 -51.15 46 -50.25 46 -49 46 -47.75 46.85 -46.9 47.75 -46 49 -46 50.25 -46 51.1 -46.9 52 -47.75 52 -49 M48.25 -58 Q58 -58 58 -48.2 L58 5 38 25 -48.2 25 Q-58 25 -58 15.25 L-58 -38 -38 -58 48.25 -58 M-46 17 Q-46 15.75 -46.9 14.85 -47.75 14 -49 14 -50.25 14 -51.15 14.85 -52 15.75 -52 17 -52 18.25 -51.15 19.1 -50.25 20 -49 20 -47.75 20 -46.9 19.1 -46 18.25 -46 17"/>
    <path stroke="none" fill="#11141E" d="M-46 17 Q-46 18.25 -46.9 19.1 -47.75 20 -49 20 -50.25 20 -51.15 19.1 -52 18.25 -52 17 -52 15.75 -51.15 14.85 -50.25 14 -49 14 -47.75 14 -46.9 14.85 -46 15.75 -46 17 M52 -49 Q52 -47.75 51.1 -46.9 50.25 -46 49 -46 47.75 -46 46.85 -46.9 46 -47.75 46 -49 46 -50.25 46.85 -51.15 47.75 -52 49 -52 50.25 -52 51.1 -51.15 52 -50.25 52 -49 M48.25 -64 Q64 -64 64 -48.2 L64 48.25 Q64 64 48.25 64 L-48.2 64 Q-64 64 -64 48.25 L-64 -49 Q-63.6 -63.1 -50 -63.95 L-50 -64 48.25 -64 M48.25 -58 L-38 -58 -58 -38 -58 15.25 Q-58 25 -48.2 25 L38 25 58 5 58 -48.2 Q58 -58 48.25 -58"/>
    <path stroke="none" fill="#11141E" d="M32.15 -35.1 Q33 -34.3 33 -33 L33 2.95 32.65 4.45 32.6 4.55 31.5 5.6 31.45 5.6 29.95 5.95 29.3 5.95 29 5.95 28.95 5.95 28.3 5.95 27.95 5.95 27.9 5.95 25.95 5.9 19 6 Q7.9 6.65 2.55 9.65 L2.5 9.65 1 10 Q0.2 10 -0.45 9.65 L-0.5 9.65 Q-6.1 6.45 -18.05 5.95 -20.85 5.85 -24 5.9 L-24.05 5.9 -25.9 5.95 -25.95 5.95 -26.3 5.95 -26.95 5.95 -27 5.95 -27.3 5.95 -27.95 5.95 -29.4 5.6 -30.55 4.55 -30.55 4.5 -31 2.95 -31 -33 Q-31 -34.25 -30.1 -35.05 L-30.05 -35.1 Q-29.25 -36 -28 -36 L-25 -36 -24.3 -35.7 Q-24 -35.4 -24 -35 L-24 -5.05 Q-24 -4.25 -23.45 -3.65 L-23.35 -3.55 Q-22.8 -3.05 -22.05 -3.05 L-16.95 -2.75 Q-5.35 -1.8 0.15 0.85 L1 1.05 1.95 0.85 Q7.05 -1.7 17.85 -2.7 L17.9 -2.7 24.1 -3.05 Q24.8 -3.1 25.35 -3.5 L25.45 -3.6 25.45 -3.65 Q26 -4.25 26 -5.05 L26 -35 26.3 -35.7 27 -36 30 -36 Q31.25 -36 32.15 -35.1 M1 -3.95 Q-4.75 -6.8 -20 -7.95 L-21 -8.05 -21 -40 -19.9 -39.9 Q-9.85 -39.1 -5.25 -38 -1.65 -37.15 0.8 -36 L1 -35.9 1.25 -36 Q3.7 -37.15 7.3 -38 11.15 -38.9 23 -40 L23 -8.05 18.95 -7.65 Q6.35 -6.6 1 -3.95"/>
    <path stroke="none" fill="#FFFFFF" d="M42.7 46.95 L37.2 46.95 Q37.3 47.85 38 48.35 38.65 48.8 39.6 48.8 L40.65 48.6 41.65 48.1 Q42.3 47.75 42.55 47.75 L43.1 47.9 43.45 48.35 43.6 48.85 43.25 49.65 42.25 50.4 40.85 50.9 39.4 51.05 Q37.95 51.05 36.85 50.45 35.75 49.8 35.15 48.65 34.55 47.5 34.55 46.1 34.55 45.1 34.9 44.2 35.2 43.3 35.85 42.55 36.45 41.85 37.35 41.45 L39.2 41.05 Q40.2 41.05 41.05 41.5 41.95 41.9 42.55 42.6 L43.5 44.1 Q43.85 44.95 43.85 45.75 43.85 46.95 42.7 46.95 M37.1 45.2 L41.25 45.2 Q41.15 44.3 40.6 43.75 40.05 43.2 39.2 43.2 38.35 43.2 37.8 43.75 37.25 44.35 37.1 45.2 M12.35 46.95 L6.85 46.95 Q6.95 47.85 7.65 48.35 8.3 48.8 9.25 48.8 L10.3 48.6 11.3 48.1 12.2 47.75 12.75 47.9 13.1 48.35 13.25 48.85 12.9 49.65 11.9 50.4 10.5 50.9 9.05 51.05 Q7.6 51.05 6.5 50.45 5.4 49.8 4.8 48.65 4.2 47.5 4.2 46.1 4.2 45.1 4.55 44.2 4.85 43.3 5.5 42.55 6.1 41.85 7 41.45 L8.85 41.05 Q9.85 41.05 10.7 41.5 11.6 41.9 12.2 42.6 L13.15 44.1 13.5 45.75 Q13.5 46.95 12.35 46.95 M0.7 49.5 L0.7 38.45 Q0.7 37.8 1.05 37.4 1.4 37 2 37 L2.65 37.15 3.15 37.7 3.3 38.45 3.3 49.5 3.15 50.25 2.65 50.8 2 50.95 Q1.4 50.95 1.05 50.55 0.7 50.15 0.7 49.5 M6.75 45.2 L10.9 45.2 Q10.8 44.3 10.25 43.75 9.7 43.2 8.85 43.2 8 43.2 7.45 43.75 6.9 44.35 6.75 45.2 M23.25 38.45 L23.25 49.5 23.1 50.25 22.6 50.8 21.95 50.95 Q20.9 50.95 20.65 49.9 L19.65 50.75 18.25 51.05 Q17.05 51.05 16.05 50.4 15.05 49.7 14.55 48.55 14 47.4 14 46.2 14 44.85 14.5 43.7 14.95 42.5 15.9 41.8 16.85 41.05 18.2 41.05 L19.05 41.15 19.9 41.45 20.65 41.95 20.65 38.45 Q20.65 37.8 21 37.4 21.35 37 21.95 37 L22.6 37.15 23.1 37.7 23.25 38.45 M20.65 46 Q20.65 44.95 20.15 44.2 19.6 43.45 18.6 43.45 18 43.45 17.55 43.85 17.05 44.2 16.85 44.8 L16.6 46.1 16.75 47 Q16.85 47.5 17.1 47.85 L17.75 48.45 18.6 48.7 Q19.3 48.7 19.75 48.3 L20.45 47.25 20.65 46 M33.6 42.6 L33.6 50.1 Q33.6 51.6 32.95 52.65 32.35 53.7 31.2 54.25 L28.6 54.75 27 54.55 Q26 54.35 25.25 53.9 24.5 53.45 24.5 52.85 24.5 52.45 24.85 52.1 25.2 51.7 25.55 51.7 L26.65 52 27.75 52.4 28.8 52.5 29.95 52.25 30.7 51.55 31 50.45 31 49.85 30.95 49.85 Q30.15 51.05 28.35 51.05 27.35 51.05 26.6 50.65 25.85 50.3 25.35 49.55 24.85 48.85 24.6 47.95 24.35 47.1 24.35 46.1 24.35 45.1 24.65 44.2 24.95 43.3 25.5 42.6 L26.9 41.45 28.6 41.05 29.55 41.2 30.4 41.6 31 42.25 Q31.25 41.15 32.3 41.15 L32.95 41.35 33.45 41.85 33.6 42.6 M31 46.15 L30.8 44.85 Q30.55 44.2 30.1 43.85 29.65 43.45 28.95 43.45 28.35 43.45 27.9 43.8 27.4 44.2 27.2 44.8 26.95 45.4 26.95 46.05 26.95 46.75 27.2 47.35 27.4 47.95 27.85 48.35 L28.95 48.7 Q29.95 48.7 30.5 47.95 31 47.2 31 46.15 M-33.25 49.5 L-33.25 42.6 Q-33.25 41.95 -32.9 41.55 -32.55 41.15 -31.95 41.15 -31.45 41.15 -31.15 41.4 L-30.75 42.1 Q-30 41.05 -28.3 41.05 -27.25 41.05 -26.45 41.5 -25.65 41.9 -25.2 42.7 -24.75 43.45 -24.75 44.55 L-24.75 49.5 Q-24.75 49.95 -24.9 50.25 L-25.35 50.8 -26.05 50.95 Q-26.6 50.95 -26.95 50.55 -27.3 50.15 -27.3 49.5 L-27.3 45 Q-27.3 44.15 -27.8 43.7 -28.25 43.2 -29 43.2 L-29.9 43.45 -30.5 44.1 -30.65 45 -30.65 49.5 -30.85 50.25 -31.3 50.8 -31.95 50.95 Q-32.55 50.95 -32.9 50.55 L-33.25 49.5 M-44.2 49.65 L-44.2 39.25 Q-44.2 38.7 -43.8 38.3 -43.45 37.95 -42.85 37.95 -42.25 37.95 -41.85 38.3 -41.5 38.65 -41.5 39.25 L-41.5 43.15 -37.05 38.45 Q-36.6 37.95 -36 37.95 -35.5 37.95 -35.1 38.3 -34.7 38.65 -34.7 39.2 L-34.9 39.9 -35.55 40.65 -38.95 44 -34.8 48.35 Q-34.05 49.1 -34.05 49.7 -34.05 50.3 -34.45 50.65 -34.85 50.95 -35.45 50.95 L-36.1 50.75 -36.85 50.1 -41.5 45.1 -41.5 49.65 Q-41.5 50.2 -41.85 50.6 -42.25 50.95 -42.85 50.95 -43.45 50.95 -43.8 50.6 -44.2 50.25 -44.2 49.65 M-19 41.05 L-17.15 41.45 Q-16.25 41.9 -15.65 42.6 L-14.7 44.2 Q-14.35 45.1 -14.35 46.1 -14.35 47.1 -14.7 48 L-15.6 49.6 -17.1 50.65 -19 51.05 Q-20.35 51.05 -21.4 50.4 -22.45 49.75 -23.05 48.6 -23.65 47.45 -23.65 46.1 -23.65 45.1 -23.3 44.2 L-22.35 42.6 Q-21.7 41.85 -20.85 41.45 -20 41.05 -19 41.05 M-19 43.45 Q-19.65 43.45 -20.1 43.8 L-20.8 44.8 -21.05 46.1 -20.8 47.35 -20.1 48.3 Q-19.65 48.7 -19 48.7 -18.35 48.7 -17.85 48.3 L-17.15 47.35 -16.95 46.1 -17.15 44.8 -17.85 43.8 Q-18.35 43.45 -19 43.45 M-11.4 49.65 L-13.6 43.45 -13.9 42.2 Q-13.9 41.75 -13.5 41.45 -13.15 41.15 -12.6 41.15 -12.1 41.15 -11.8 41.45 -11.45 41.75 -11.35 42.2 L-9.85 47.15 -8.3 42.3 -7.85 41.45 Q-7.55 41.15 -7 41.15 -6.45 41.15 -6.15 41.45 -5.85 41.75 -5.7 42.3 L-4.15 47.15 -2.65 42.2 -2.2 41.45 Q-1.9 41.15 -1.4 41.15 L-0.75 41.3 Q-0.45 41.45 -0.3 41.75 L-0.1 42.45 -0.4 43.4 -2.6 49.65 Q-3.05 50.95 -4.15 50.95 -5.25 50.95 -5.65 49.75 L-7 45.6 -8.35 49.75 Q-8.75 50.95 -9.85 50.95 L-10.8 50.6 -11.4 49.65"/>
  </g>
</svg>