<svg xmlns="http://www.w3.org/2000/svg" xmlns:xlink="http://www.w3.org/1999/xlink">
  <defs/>
  <g>
    <path stroke="none" fill="#FFFFFF" d="M52 -49 Q52 -50.25 51.1 -51.15 50.25 -52 49 -52 47.75 -52 46.85 -51.15 46 -50.25 46 -49 46 -47.75 46.85 -46.9 47.75 -46 49 -46 50.25 -46 51.1 -46.9 52 -47.75 52 -49 M48.25 -58 Q58 -58 58 -48.2 L58 5 38 25 -48.2 25 Q-58 25 -58 15.25 L-58 -38 -38 -58 48.25 -58 M-46 17 Q-46 15.75 -46.9 14.85 -47.75 14 -49 14 -50.25 14 -51.15 14.85 -52 15.75 -52 17 -52 18.25 -51.15 19.1 -50.25 20 -49 20 -47.75 20 -46.9 19.1 -46 18.25 -46 17"/>
    <path stroke="none" fill="#11141E" d="M-46 17 Q-46 18.25 -46.9 19.1 -47.75 20 -49 20 -50.25 20 -51.15 19.1 -52 18.25 -52 17 -52 15.75 -51.15 14.85 -50.25 14 -49 14 -47.75 14 -46.9 14.85 -46 15.75 -46 17 M52 -49 Q52 -47.75 51.1 -46.9 50.25 -46 49 -46 47.75 -46 46.85 -46.9 46 -47.75 46 -49 46 -50.25 46.85 -51.15 47.75 -52 49 -52 50.25 -52 51.1 -51.15 52 -50.25 52 -49 M48.25 -64 Q64 -64 64 -48.2 L64 48.25 Q64 64 48.25 64 L-48.2 64 Q-64 64 -64 48.25 L-64 -49 Q-63.6 -63.1 -50 -63.95 L-50 -64 48.25 -64 M48.25 -58 L-38 -58 -58 -38 -58 15.25 Q-58 25 -48.2 25 L38 25 58 5 58 -48.2 Q58 -58 48.25 -58"/>
    <path stroke="none" fill="#11141E" d="M32.15 -35.1 Q33 -34.3 33 -33 L33 2.95 32.65 4.45 32.6 4.55 31.5 5.6 31.45 5.6 29.95 5.95 29.3 5.95 29 5.95 28.95 5.95 28.3 5.95 27.95 5.95 27.9 5.95 25.95 5.9 19 6 Q7.9 6.65 2.55 9.65 L2.5 9.65 1 10 Q0.2 10 -0.45 9.65 L-0.5 9.65 Q-6.1 6.45 -18.05 5.95 -20.85 5.85 -24 5.9 L-24.05 5.9 -25.9 5.95 -25.95 5.95 -26.3 5.95 -26.95 5.95 -27 5.95 -27.3 5.95 -27.95 5.95 -29.4 5.6 -30.55 4.55 -30.55 4.5 -31 2.95 -31 -33 Q-31 -34.25 -30.1 -35.05 L-30.05 -35.1 Q-29.25 -36 -28 -36 L-25 -36 -24.3 -35.7 Q-24 -35.4 -24 -35 L-24 -5.05 Q-24 -4.25 -23.45 -3.65 L-23.35 -3.55 Q-22.8 -3.05 -22.05 -3.05 L-16.95 -2.75 Q-5.35 -1.8 0.15 0.85 L1 1.05 1.95 0.85 Q7.05 -1.7 17.85 -2.7 L17.9 -2.7 24.1 -3.05 Q24.8 -3.1 25.35 -3.5 L25.45 -3.6 25.45 -3.65 Q26 -4.25 26 -5.05 L26 -35 26.3 -35.7 27 -36 30 -36 Q31.25 -36 32.15 -35.1 M1 -3.95 Q-4.75 -6.8 -20 -7.95 L-21 -8.05 -21 -40 -19.9 -39.9 Q-9.85 -39.1 -5.25 -38 -1.65 -37.15 0.8 -36 L1 -35.9 1.25 -36 Q3.7 -37.15 7.3 -38 11.15 -38.9 23 -40 L23 -8.05 18.95 -7.65 Q6.35 -6.6 1 -3.95"/>
  </g>
</svg>