<svg xmlns="http://www.w3.org/2000/svg" xmlns:xlink="http://www.w3.org/1999/xlink">
  <defs/>
  <g>
    <path stroke="none" fill="#FFFFFF" d="M52 -49 Q52 -50.25 51.1 -51.15 50.25 -52 49 -52 47.75 -52 46.85 -51.15 46 -50.25 46 -49 46 -47.75 46.85 -46.9 47.75 -46 49 -46 50.25 -46 51.1 -46.9 52 -47.75 52 -49 M48.25 -58 Q58 -58 58 -48.2 L58 5 38 25 -48.2 25 Q-58 25 -58 15.25 L-58 -38 -38 -58 48.25 -58 M-46 17 Q-46 15.75 -46.9 14.85 -47.75 14 -49 14 -50.25 14 -51.15 14.85 -52 15.75 -52 17 -52 18.25 -51.15 19.1 -50.25 20 -49 20 -47.75 20 -46.9 19.1 -46 18.25 -46 17"/>
    <path stroke="none" fill="#11141E" d="M-46 17 Q-46 18.25 -46.9 19.1 -47.75 20 -49 20 -50.25 20 -51.15 19.1 -52 18.25 -52 17 -52 15.75 -51.15 14.85 -50.25 14 -49 14 -47.75 14 -46.9 14.85 -46 15.75 -46 17 M52 -49 Q52 -47.75 51.1 -46.9 50.25 -46 49 -46 47.75 -46 46.85 -46.9 46 -47.75 46 -49 46 -50.25 46.85 -51.15 47.75 -52 49 -52 50.25 -52 51.1 -51.15 52 -50.25 52 -49 M48.25 -58 L-38 -58 -58 -38 -58 15.25 Q-58 25 -48.2 25 L38 25 58 5 58 -48.2 Q58 -58 48.25 -58 M48.25 -64 Q64 -64 64 -48.2 L64 48.25 Q64 64 48.25 64 L-48.2 64 Q-64 64 -64 48.25 L-64 -49 Q-63.6 -63.1 -50 -63.95 L-50 -64 48.25 -64"/>
    <path stroke="none" fill="#11141E" d="M-16.45 -21.5 L-7.15 -23.8 -2.15 -32.05 Q-1.8 -32.65 -1.1 -32.85 -0.5 -33.1 0.2 -32.85 0.85 -32.65 1.2 -32.05 L6.2 -23.8 15.5 -21.5 16.6 -20.75 Q17.05 -20.2 17 -19.45 17 -18.75 16.55 -18.2 L10.35 -10.8 11.05 -1.15 Q11.1 -0.45 10.7 0.15 10.3 0.7 9.65 0.95 L8.35 0.85 -0.5 -2.85 -9.3 0.85 -10.65 0.95 -11.7 0.15 Q-12.1 -0.45 -12.05 -1.15 L-11.3 -10.8 -17.5 -18.2 Q-18 -18.75 -18 -19.45 -18.05 -20.2 -17.6 -20.75 -17.15 -21.3 -16.45 -21.5"/>
    <path stroke="none" fill="#FFFFFF" d="M3.1 48.75 L3.1 38.9 Q3.1 38.35 3.45 38 3.75 37.65 4.25 37.65 L4.85 37.8 5.25 38.25 5.4 38.9 5.4 42.05 5.45 42.05 Q5.75 41.65 6.35 41.45 L7.55 41.25 Q8.45 41.25 9.15 41.6 9.9 42 10.3 42.7 10.7 43.4 10.7 44.35 L10.7 48.75 10.55 49.45 10.15 49.9 9.55 50.05 Q9 50.05 8.7 49.7 8.4 49.35 8.4 48.75 L8.4 44.75 Q8.4 43.95 7.95 43.6 7.55 43.15 6.9 43.15 6.45 43.15 6.1 43.4 L5.6 43.95 5.4 44.75 5.4 48.75 5.25 49.45 4.85 49.9 4.25 50.05 Q3.75 50.05 3.45 49.7 3.1 49.35 3.1 48.75 M1.8 42.6 L1.8 49.3 Q1.8 50.6 1.25 51.55 0.65 52.5 -0.35 52.95 -1.35 53.45 -2.65 53.45 L-4.1 53.25 -5.65 52.65 Q-6.3 52.3 -6.3 51.7 L-6 51.05 Q-5.7 50.7 -5.35 50.7 L-4.4 50.95 -3.4 51.3 -2.5 51.4 -1.45 51.2 -0.75 50.6 -0.5 49.6 -0.5 49.05 -0.55 49.05 Q-1.3 50.15 -2.85 50.15 L-4.4 49.8 -5.55 48.8 -6.2 47.4 -6.45 45.7 -6.15 44.05 -5.4 42.6 Q-4.9 41.95 -4.2 41.6 L-2.65 41.25 -1.8 41.35 -1.05 41.75 -0.5 42.3 Q-0.3 41.35 0.65 41.35 L1.25 41.5 1.65 41.95 1.8 42.6 M12.55 48.75 L12.55 43.45 12.05 43.45 11.35 43.2 Q11.05 42.9 11.05 42.45 11.05 42 11.35 41.7 L12.05 41.45 12.55 41.45 12.55 40.05 Q12.55 39.5 12.9 39.15 13.2 38.8 13.7 38.8 L14.3 38.95 14.75 39.4 14.85 40.05 14.85 41.45 15.55 41.45 16.3 41.7 Q16.65 41.95 16.65 42.45 L16.35 43.2 15.55 43.45 14.85 43.45 14.85 48.75 14.75 49.45 14.3 49.9 13.7 50.05 Q13.2 50.05 12.9 49.7 12.55 49.35 12.55 48.75 M-16.4 48.65 L-16.4 39.7 Q-16.4 39.15 -16.05 38.8 -15.7 38.45 -15.2 38.45 -14.65 38.45 -14.3 38.8 -14 39.1 -14 39.7 L-14 47.75 -11.15 47.75 Q-10.55 47.75 -10.25 48.1 -10 48.45 -10 48.9 L-10.3 49.65 -11.15 49.95 -15.15 49.95 Q-15.7 49.95 -16.05 49.6 -16.4 49.25 -16.4 48.65 M-8.55 37.9 L-7.9 38.05 -7.4 38.55 -7.25 39.15 Q-7.25 39.7 -7.6 40.1 -8 40.5 -8.55 40.5 -9.05 40.5 -9.4 40.1 -9.8 39.65 -9.8 39.15 -9.8 38.65 -9.4 38.3 -9.05 37.9 -8.55 37.9 M-9.65 48.75 L-9.65 42.6 -9.35 41.7 Q-9.05 41.35 -8.55 41.35 L-7.9 41.5 -7.5 41.95 Q-7.35 42.25 -7.35 42.6 L-7.35 48.75 -7.5 49.45 -7.95 49.9 -8.55 50.05 Q-9.05 50.05 -9.35 49.7 L-9.65 48.75 M-0.5 45.75 L-0.7 44.6 -1.35 43.7 Q-1.75 43.35 -2.35 43.35 -2.9 43.35 -3.3 43.7 L-3.9 44.6 -4.1 45.7 -3.9 46.85 -3.3 47.7 Q-2.9 48.05 -2.35 48.05 -1.45 48.05 -1 47.35 -0.5 46.7 -0.5 45.75"/>
  </g>
</svg>