<svg xmlns="http://www.w3.org/2000/svg" xmlns:xlink="http://www.w3.org/1999/xlink">
  <defs/>
  <g>
    <path stroke="none" fill="#FFFFFF" d="M52 -49 Q52 -50.25 51.1 -51.15 50.25 -52 49 -52 47.75 -52 46.85 -51.15 46 -50.25 46 -49 46 -47.75 46.85 -46.9 47.75 -46 49 -46 50.25 -46 51.1 -46.9 52 -47.75 52 -49 M48.25 -58 Q58 -58 58 -48.2 L58 5 38 25 -48.2 25 Q-58 25 -58 15.25 L-58 -38 -38 -58 48.25 -58 M-46 17 Q-46 15.75 -46.9 14.85 -47.75 14 -49 14 -50.25 14 -51.15 14.85 -52 15.75 -52 17 -52 18.25 -51.15 19.1 -50.25 20 -49 20 -47.75 20 -46.9 19.1 -46 18.25 -46 17"/>
    <path stroke="none" fill="#11141E" d="M-46 17 Q-46 18.25 -46.9 19.1 -47.75 20 -49 20 -50.25 20 -51.15 19.1 -52 18.25 -52 17 -52 15.75 -51.15 14.85 -50.25 14 -49 14 -47.75 14 -46.9 14.85 -46 15.75 -46 17 M52 -49 Q52 -47.75 51.1 -46.9 50.25 -46 49 -46 47.75 -46 46.85 -46.9 46 -47.75 46 -49 46 -50.25 46.85 -51.15 47.75 -52 49 -52 50.25 -52 51.1 -51.15 52 -50.25 52 -49 M48.25 -58 L-38 -58 -58 -38 -58 15.25 Q-58 25 -48.2 25 L38 25 58 5 58 -48.2 Q58 -58 48.25 -58 M48.25 -64 Q64 -64 64 -48.2 L64 48.25 Q64 64 48.25 64 L-48.2 64 Q-64 64 -64 48.25 L-64 -49 Q-63.6 -63.1 -50 -63.95 L-50 -64 48.25 -64"/>
    <path stroke="none" fill="#11141E" d="M-20.35 -44.95 L-18.65 -46.2 -18.75 -46.2 -18.1 -46.55 -18.15 -46.45 Q-15.15 -48.2 -11.55 -47.95 L-11.45 -47.95 -9.9 -47.75 -9.55 -47.65 0.45 -45.7 Q5 -44.75 5.35 -42.15 L5.45 -41.9 9.55 -26.3 9.7 -26 4.4 -26.3 Q-1.95 -26.7 -3.7 -23.35 L-11.15 -10.4 -11.75 -10.5 -11.8 -10.55 -21.9 -12.65 Q-25.7 -13.6 -26.4 -15.6 L-26.45 -15.7 -27.15 -17.8 -30.85 -32.35 -31 -33.25 Q-31.1 -35.25 -28.4 -37.75 L-20.75 -44.7 -20.35 -44.95 M15 -22.7 L17.1 -22.35 17 -22.4 17.75 -22.2 17.65 -22.2 Q21 -21.25 23.4 -18.5 L23.45 -18.45 24.45 -17.2 24.65 -16.85 30.35 -8.35 Q32.95 -4.45 31.4 -2.35 L31.3 -2.2 23.25 11.65 Q22.4 14.25 17.45 13.95 L7.1 13.3 Q0.65 12.9 -3 7.55 L-3 7.5 -8.7 -1.05 -8.75 -1.15 Q-10.65 -4.25 -10.05 -6.05 L-9.95 -6.35 -9.9 -6.45 -2.05 -20.15 -1.35 -21.3 -1.35 -21.35 Q-0.3 -23.6 4.2 -23.3 L14.55 -22.75 15 -22.7 M-16.7 -22 Q-16.9 -22.85 -17.55 -23.55 L-19.1 -24.4 Q-19.95 -24.5 -20.4 -24.05 -20.9 -23.5 -20.75 -22.7 -20.55 -21.8 -19.85 -21.1 -19.15 -20.4 -18.3 -20.25 -17.45 -20.1 -16.95 -20.65 -16.55 -21.1 -16.7 -22 M-20.5 -17.25 Q-20.7 -18.1 -21.35 -18.85 -22.05 -19.55 -22.9 -19.7 -23.75 -19.8 -24.2 -19.35 -24.7 -18.8 -24.55 -17.95 -24.35 -17.05 -23.65 -16.35 -22.95 -15.65 -22.1 -15.5 -21.25 -15.4 -20.75 -15.9 -20.35 -16.35 -20.5 -17.25 M-13.15 -26.55 Q-13.35 -27.4 -14 -28.15 -14.7 -28.85 -15.55 -29 -16.4 -29.1 -16.85 -28.65 -17.35 -28.1 -17.2 -27.25 -17 -26.35 -16.3 -25.65 -15.6 -24.95 -14.75 -24.8 -13.9 -24.65 -13.4 -25.2 -13 -25.65 -13.15 -26.55 M-10.95 -41.65 L-12.25 -41.85 Q-14.05 -41.85 -15.65 -41 L-17 -40.05 -23.95 -33.75 -14.85 -31.9 Q-11.5 -31.15 -8.85 -33.55 L-1.9 -39.75 -10.95 -41.65 M13.9 7.7 Q14.25 6.8 13.9 6.15 13.5 5.45 12.55 5.45 11.6 5.4 10.7 6.05 9.8 6.65 9.45 7.55 9.05 8.45 9.4 9.15 9.75 9.8 10.7 9.85 11.65 9.85 12.6 9.25 13.5 8.6 13.9 7.7 M21.75 7.9 Q22.1 7.05 21.7 6.4 21.35 5.75 20.4 5.7 19.45 5.65 18.6 6.3 17.7 6.9 17.35 7.8 16.95 8.7 17.3 9.4 17.65 10.05 18.6 10.1 19.5 10.15 20.4 9.5 21.35 8.85 21.75 7.9 M24.95 0.25 Q25.35 -0.6 24.95 -1.3 24.6 -1.9 23.65 -1.95 22.7 -2 21.8 -1.4 20.9 -0.75 20.5 0.1 20.15 1.05 20.45 1.7 20.85 2.35 21.8 2.4 22.75 2.45 23.6 1.8 24.6 1.2 24.95 0.25 M17.1 0.05 Q17.5 -0.85 17.15 -1.55 16.75 -2.2 15.8 -2.2 14.85 -2.25 13.95 -1.65 13.05 -1 12.65 -0.1 12.3 0.8 12.6 1.45 13 2.1 13.95 2.15 14.9 2.15 15.8 1.55 16.75 0.95 17.1 0.05 M2.7 -1.95 Q3.2 -2.85 3.05 -4.1 2.95 -5.4 2.25 -6.25 1.55 -7.15 0.65 -7.05 -0.2 -7.1 -0.75 -6.2 -1.3 -5.3 -1.25 -4 -1.1 -2.75 -0.4 -1.85 0.35 -1 1.2 -1.05 2.15 -1.05 2.7 -1.95 M19.65 -13.6 L18.85 -14.65 Q17.6 -15.95 15.85 -16.5 L14.2 -16.75 4.8 -17.3 10 -9.55 Q11.9 -6.65 15.45 -6.45 L24.75 -5.85 19.65 -13.6"/>
    <path stroke="none" fill="#FFFFFF" d="M8.75 49.5 L8.75 38.45 Q8.75 37.8 9.1 37.4 9.45 37 10.05 37 L10.7 37.15 11.15 37.7 11.35 38.45 11.35 44.5 14.15 41.75 Q14.75 41.15 15.35 41.15 15.8 41.15 16.15 41.5 L16.45 42.35 Q16.45 42.9 15.95 43.35 L13.65 45.4 16.65 49 Q17 49.35 17 49.85 L16.65 50.7 Q16.3 51.05 15.8 51.05 L15.15 50.9 14.55 50.25 11.35 46.35 11.35 49.5 11.15 50.25 10.7 50.8 10.05 50.95 Q9.45 50.95 9.1 50.55 8.75 50.15 8.75 49.5 M7.8 42.7 L7.55 43.55 Q7.25 43.95 6.85 43.95 L5.9 43.7 4.8 43.45 Q4.1 43.45 3.6 43.8 L2.85 44.8 Q2.6 45.4 2.6 46.1 2.6 47.1 3.2 47.9 3.8 48.7 4.8 48.7 L5.35 48.6 6.15 48.35 6.7 48.15 7.25 48.3 7.65 48.7 7.8 49.3 Q7.8 49.9 7.25 50.3 6.7 50.7 5.95 50.9 L4.65 51.05 Q3.3 51.05 2.25 50.4 1.2 49.75 0.6 48.6 0 47.45 0 46.1 0 45.1 0.35 44.2 0.7 43.3 1.3 42.6 1.95 41.85 2.8 41.45 3.65 41.05 4.65 41.05 L6 41.25 Q6.75 41.4 7.3 41.75 7.8 42.1 7.8 42.7 M-17.2 49.35 L-17.2 39.35 Q-17.2 38.7 -16.8 38.3 -16.45 37.95 -15.85 37.95 -15.25 37.95 -14.85 38.3 -14.5 38.65 -14.5 39.35 L-14.5 48.35 -11.3 48.35 Q-10.65 48.35 -10.3 48.75 -10 49.15 -10 49.65 -10 50.15 -10.35 50.5 -10.7 50.85 -11.3 50.85 L-15.8 50.85 Q-16.45 50.85 -16.8 50.45 -17.2 50.05 -17.2 49.35 M-9.6 47.3 L-9.6 42.6 Q-9.6 41.95 -9.25 41.55 -8.9 41.15 -8.3 41.15 L-7.65 41.35 -7.2 41.85 -7 42.6 -7 47.25 Q-7 48 -6.5 48.45 -6.05 48.9 -5.35 48.9 L-4.5 48.7 -3.9 48.15 Q-3.65 47.75 -3.65 47.25 L-3.65 42.6 Q-3.65 41.95 -3.3 41.55 -2.95 41.15 -2.4 41.15 L-1.7 41.35 -1.25 41.85 -1.1 42.6 -1.1 47.3 Q-1.1 48.45 -1.55 49.3 -2.05 50.15 -3.05 50.6 L-5.35 51.05 Q-7.4 51.05 -8.5 50.05 -9.6 49.05 -9.6 47.3"/>
  </g>
</svg>