<svg xmlns="http://www.w3.org/2000/svg" xmlns:xlink="http://www.w3.org/1999/xlink">
  <defs/>
  <g>
    <path stroke="none" fill="#FFFFFF" d="M52 -49 Q52 -50.25 51.1 -51.15 50.25 -52 49 -52 47.75 -52 46.85 -51.15 46 -50.25 46 -49 46 -47.75 46.85 -46.9 47.75 -46 49 -46 50.25 -46 51.1 -46.9 52 -47.75 52 -49 M48.25 -58 Q58 -58 58 -48.2 L58 5 38 25 -48.2 25 Q-58 25 -58 15.25 L-58 -38 -38 -58 48.25 -58 M-46 17 Q-46 15.75 -46.9 14.85 -47.75 14 -49 14 -50.25 14 -51.15 14.85 -52 15.75 -52 17 -52 18.25 -51.15 19.1 -50.25 20 -49 20 -47.75 20 -46.9 19.1 -46 18.25 -46 17"/>
    <path stroke="none" fill="#11141E" d="M-46 17 Q-46 18.25 -46.9 19.1 -47.75 20 -49 20 -50.25 20 -51.15 19.1 -52 18.25 -52 17 -52 15.75 -51.15 14.85 -50.25 14 -49 14 -47.75 14 -46.9 14.85 -46 15.75 -46 17 M52 -49 Q52 -47.75 51.1 -46.9 50.25 -46 49 -46 47.75 -46 46.85 -46.9 46 -47.75 46 -49 46 -50.25 46.85 -51.15 47.75 -52 49 -52 50.25 -52 51.1 -51.15 52 -50.25 52 -49 M48.25 -64 Q64 -64 64 -48.2 L64 48.25 Q64 64 48.25 64 L-48.2 64 Q-64 64 -64 48.25 L-64 -49 Q-63.6 -63.1 -50 -63.95 L-50 -64 48.25 -64 M48.25 -58 L-38 -58 -58 -38 -58 15.25 Q-58 25 -48.2 25 L38 25 58 5 58 -48.2 Q58 -58 48.25 -58"/>
    <path stroke="none" fill="#11141E" d="M-20.35 -44.95 L-18.65 -46.2 -18.75 -46.2 -18.1 -46.55 -18.15 -46.45 Q-15.15 -48.2 -11.55 -47.95 L-11.45 -47.95 -9.9 -47.75 -9.55 -47.65 0.45 -45.7 Q5 -44.75 5.35 -42.15 L5.45 -41.9 9.55 -26.3 9.7 -26 4.4 -26.3 Q-1.95 -26.7 -3.7 -23.35 L-11.15 -10.4 -11.75 -10.5 -11.8 -10.55 -21.9 -12.65 Q-25.7 -13.6 -26.4 -15.6 L-26.45 -15.7 -27.15 -17.8 -30.85 -32.35 -31 -33.25 Q-31.1 -35.25 -28.4 -37.75 L-20.75 -44.7 -20.35 -44.95 M19.65 -13.6 L18.85 -14.65 Q17.6 -15.95 15.85 -16.5 L14.2 -16.75 4.8 -17.3 10 -9.55 Q11.9 -6.65 15.45 -6.45 L24.75 -5.85 19.65 -13.6 M15 -22.7 L17.1 -22.35 17 -22.4 17.75 -22.2 17.65 -22.2 Q21 -21.25 23.4 -18.5 L23.45 -18.45 24.45 -17.2 24.65 -16.85 30.35 -8.35 Q32.95 -4.45 31.4 -2.35 L31.3 -2.2 23.25 11.65 Q22.4 14.25 17.45 13.95 L7.1 13.3 Q0.65 12.9 -3 7.55 L-3 7.5 -8.7 -1.05 -8.75 -1.15 Q-10.65 -4.25 -10.05 -6.05 L-9.95 -6.35 -9.9 -6.45 -2.05 -20.15 -1.35 -21.3 -1.35 -21.35 Q-0.3 -23.6 4.2 -23.3 L14.55 -22.75 15 -22.7 M-20.5 -17.25 Q-20.7 -18.1 -21.35 -18.85 -22.05 -19.55 -22.9 -19.7 -23.75 -19.8 -24.2 -19.35 -24.7 -18.8 -24.55 -17.95 -24.35 -17.05 -23.65 -16.35 -22.95 -15.65 -22.1 -15.5 -21.25 -15.4 -20.75 -15.9 -20.35 -16.35 -20.5 -17.25 M-16.7 -22 Q-16.9 -22.85 -17.55 -23.55 L-19.1 -24.4 Q-19.95 -24.5 -20.4 -24.05 -20.9 -23.5 -20.75 -22.7 -20.55 -21.8 -19.85 -21.1 -19.15 -20.4 -18.3 -20.25 -17.45 -20.1 -16.95 -20.65 -16.55 -21.1 -16.7 -22 M-13.15 -26.55 Q-13.35 -27.4 -14 -28.15 -14.7 -28.85 -15.55 -29 -16.4 -29.1 -16.85 -28.65 -17.35 -28.1 -17.2 -27.25 -17 -26.35 -16.3 -25.65 -15.6 -24.95 -14.75 -24.8 -13.9 -24.65 -13.4 -25.2 -13 -25.65 -13.15 -26.55 M-10.95 -41.65 L-12.25 -41.85 Q-14.05 -41.85 -15.65 -41 L-17 -40.05 -23.95 -33.75 -14.85 -31.9 Q-11.5 -31.15 -8.85 -33.55 L-1.9 -39.75 -10.95 -41.65 M13.9 7.7 Q14.25 6.8 13.9 6.15 13.5 5.45 12.55 5.45 11.6 5.4 10.7 6.05 9.8 6.65 9.45 7.55 9.05 8.45 9.4 9.15 9.75 9.8 10.7 9.85 11.65 9.85 12.6 9.25 13.5 8.6 13.9 7.7 M21.75 7.9 Q22.1 7.05 21.7 6.4 21.35 5.75 20.4 5.7 19.45 5.65 18.6 6.3 17.7 6.9 17.35 7.8 16.95 8.7 17.3 9.4 17.65 10.05 18.6 10.1 19.5 10.15 20.4 9.5 21.35 8.85 21.75 7.9 M24.95 0.25 Q25.35 -0.6 24.95 -1.3 24.6 -1.9 23.65 -1.95 22.7 -2 21.8 -1.4 20.9 -0.75 20.5 0.1 20.15 1.05 20.45 1.7 20.85 2.35 21.8 2.4 22.75 2.45 23.6 1.8 24.6 1.2 24.95 0.25 M17.1 0.05 Q17.5 -0.85 17.15 -1.55 16.75 -2.2 15.8 -2.2 14.85 -2.25 13.95 -1.65 13.05 -1 12.65 -0.1 12.3 0.8 12.6 1.45 13 2.1 13.95 2.15 14.9 2.15 15.8 1.55 16.75 0.95 17.1 0.05 M2.7 -1.95 Q3.2 -2.85 3.05 -4.1 2.95 -5.4 2.25 -6.25 1.55 -7.15 0.65 -7.05 -0.2 -7.1 -0.75 -6.2 -1.3 -5.3 -1.25 -4 -1.1 -2.75 -0.4 -1.85 0.35 -1 1.2 -1.05 2.15 -1.05 2.7 -1.95"/>
  </g>
</svg>