<svg xmlns="http://www.w3.org/2000/svg" xmlns:xlink="http://www.w3.org/1999/xlink">
  <defs/>
  <g>
    <path stroke="none" fill="#FFFFFF" d="M52 -49 Q52 -50.25 51.1 -51.15 50.25 -52 49 -52 47.75 -52 46.85 -51.15 46 -50.25 46 -49 46 -47.75 46.85 -46.9 47.75 -46 49 -46 50.25 -46 51.1 -46.9 52 -47.75 52 -49 M48.25 -58 Q58 -58 58 -48.2 L58 5 38 25 -48.2 25 Q-58 25 -58 15.25 L-58 -38 -38 -58 48.25 -58 M-46 17 Q-46 15.75 -46.9 14.85 -47.75 14 -49 14 -50.25 14 -51.15 14.85 -52 15.75 -52 17 -52 18.25 -51.15 19.1 -50.25 20 -49 20 -47.75 20 -46.9 19.1 -46 18.25 -46 17"/>
    <path stroke="none" fill="#11141E" d="M-46 17 Q-46 18.25 -46.9 19.1 -47.75 20 -49 20 -50.25 20 -51.15 19.1 -52 18.25 -52 17 -52 15.75 -51.15 14.85 -50.25 14 -49 14 -47.75 14 -46.9 14.85 -46 15.75 -46 17 M52 -49 Q52 -47.75 51.1 -46.9 50.25 -46 49 -46 47.75 -46 46.85 -46.9 46 -47.75 46 -49 46 -50.25 46.85 -51.15 47.75 -52 49 -52 50.25 -52 51.1 -51.15 52 -50.25 52 -49 M48.25 -58 L-38 -58 -58 -38 -58 15.25 Q-58 25 -48.2 25 L38 25 58 5 58 -48.2 Q58 -58 48.25 -58 M48.25 -64 Q64 -64 64 -48.2 L64 48.25 Q64 64 48.25 64 L-48.2 64 Q-64 64 -64 48.25 L-64 -49 Q-63.6 -63.1 -50 -63.95 L-50 -64 48.25 -64"/>
    <path stroke="none" fill="#11141E" d="M7.5 -10.1 L14.5 -11.85 18.25 -18.05 19.05 -18.65 20 -18.65 20.75 -18.05 24.5 -11.85 31.5 -10.1 32.3 -9.55 Q32.65 -9.15 32.6 -8.6 32.6 -8.05 32.25 -7.65 L27.6 -2.1 28.15 5.15 27.9 6.1 Q27.6 6.55 27.1 6.7 L26.1 6.65 19.5 3.85 12.9 6.65 11.85 6.7 11.1 6.1 Q10.8 5.65 10.8 5.15 L11.4 -2.1 6.75 -7.65 Q6.35 -8.05 6.35 -8.6 6.3 -9.15 6.65 -9.55 L7.5 -10.1"/>
    <path stroke="none" fill="#11141E" d="M-32.5 -10.1 L-25.5 -11.85 -21.75 -18.05 Q-21.5 -18.5 -20.95 -18.65 L-20 -18.65 -19.25 -18.05 -15.5 -11.85 -8.5 -10.1 Q-8.05 -9.95 -7.7 -9.55 -7.35 -9.15 -7.4 -8.6 -7.4 -8.05 -7.75 -7.65 L-12.4 -2.1 -11.85 5.15 Q-11.8 5.65 -12.1 6.1 L-12.9 6.7 -13.9 6.65 -20.5 3.85 -27.1 6.65 -28.15 6.7 -28.9 6.1 -29.2 5.15 -28.6 -2.1 -33.25 -7.65 Q-33.65 -8.05 -33.65 -8.6 -33.7 -9.15 -33.35 -9.55 L-32.5 -10.1"/>
    <path stroke="none" fill="#11141E" d="M-12.5 -36.1 L-5.5 -37.85 -1.75 -44.05 -0.95 -44.65 0 -44.65 0.75 -44.05 4.5 -37.85 11.5 -36.1 12.3 -35.55 Q12.65 -35.15 12.6 -34.6 12.6 -34.05 12.25 -33.65 L7.6 -28.1 8.15 -20.85 Q8.2 -20.35 7.9 -19.9 7.6 -19.45 7.1 -19.3 L6.1 -19.35 -0.5 -22.15 -7.1 -19.35 -8.15 -19.3 -8.9 -19.9 -9.2 -20.85 -8.6 -28.1 -13.25 -33.65 Q-13.65 -34.05 -13.65 -34.6 -13.7 -35.15 -13.35 -35.55 L-12.5 -36.1"/>
  </g>
</svg>