<svg xmlns="http://www.w3.org/2000/svg" xmlns:xlink="http://www.w3.org/1999/xlink">
  <defs/>
  <g>
    <path stroke="none" fill="#FFFFFF" d="M52 -49 Q52 -50.25 51.1 -51.15 50.25 -52 49 -52 47.75 -52 46.85 -51.15 46 -50.25 46 -49 46 -47.75 46.85 -46.9 47.75 -46 49 -46 50.25 -46 51.1 -46.9 52 -47.75 52 -49 M48.25 -58 Q58 -58 58 -48.2 L58 5 38 25 -48.2 25 Q-58 25 -58 15.25 L-58 -38 -38 -58 48.25 -58 M-46 17 Q-46 15.75 -46.9 14.85 -47.75 14 -49 14 -50.25 14 -51.15 14.85 -52 15.75 -52 17 -52 18.25 -51.15 19.1 -50.25 20 -49 20 -47.75 20 -46.9 19.1 -46 18.25 -46 17"/>
    <path stroke="none" fill="#11141E" d="M-46 17 Q-46 18.25 -46.9 19.1 -47.75 20 -49 20 -50.25 20 -51.15 19.1 -52 18.25 -52 17 -52 15.75 -51.15 14.85 -50.25 14 -49 14 -47.75 14 -46.9 14.85 -46 15.75 -46 17 M52 -49 Q52 -47.75 51.1 -46.9 50.25 -46 49 -46 47.75 -46 46.85 -46.9 46 -47.75 46 -49 46 -50.25 46.85 -51.15 47.75 -52 49 -52 50.25 -52 51.1 -51.15 52 -50.25 52 -49 M48.25 -64 Q64 -64 64 -48.2 L64 48.25 Q64 64 48.25 64 L-48.2 64 Q-64 64 -64 48.25 L-64 -49 Q-63.6 -63.1 -50 -63.95 L-50 -64 48.25 -64 M48.25 -58 L-38 -58 -58 -38 -58 15.25 Q-58 25 -48.2 25 L38 25 58 5 58 -48.2 Q58 -58 48.25 -58"/>
    <path stroke="none" fill="#11141E" d="M3 -6.1 L10 -7.85 13.75 -14.05 14.55 -14.65 15.5 -14.65 16.25 -14.05 20 -7.85 27 -6.1 27.8 -5.55 Q28.15 -5.15 28.1 -4.6 28.1 -4.05 27.75 -3.65 L23.1 1.9 23.65 9.15 23.4 10.1 Q23.1 10.55 22.6 10.7 L21.6 10.65 15 7.85 8.4 10.65 7.35 10.7 Q6.9 10.55 6.6 10.1 6.3 9.65 6.3 9.15 L6.9 1.9 2.25 -3.65 Q1.85 -4.05 1.85 -4.6 1.8 -5.15 2.15 -5.55 2.5 -5.95 3 -6.1"/>
    <path stroke="none" fill="#11141E" d="M-27 -6.1 L-20 -7.85 -16.25 -14.05 -15.45 -14.65 -14.5 -14.65 Q-14 -14.5 -13.75 -14.05 L-10 -7.85 -3 -6.1 -2.2 -5.55 Q-1.85 -5.15 -1.9 -4.6 -1.9 -4.05 -2.25 -3.65 L-6.9 1.9 -6.35 9.15 Q-6.3 9.65 -6.6 10.1 -6.9 10.55 -7.4 10.7 L-8.4 10.65 -15 7.85 -21.6 10.65 -22.65 10.7 -23.4 10.1 -23.7 9.15 -23.1 1.9 -27.75 -3.65 Q-28.15 -4.05 -28.15 -4.6 -28.2 -5.15 -27.85 -5.55 L-27 -6.1"/>
    <path stroke="none" fill="#11141E" d="M3 -36.1 L10 -37.85 13.75 -44.05 14.55 -44.65 15.5 -44.65 16.25 -44.05 20 -37.85 27 -36.1 27.8 -35.55 Q28.15 -35.15 28.1 -34.6 28.1 -34.05 27.75 -33.65 L23.1 -28.1 23.65 -20.85 Q23.7 -20.35 23.4 -19.9 23.1 -19.45 22.6 -19.3 L21.6 -19.35 15 -22.15 8.4 -19.35 7.35 -19.3 Q6.9 -19.45 6.6 -19.9 6.3 -20.35 6.3 -20.85 L6.9 -28.1 2.25 -33.65 Q1.85 -34.05 1.85 -34.6 1.8 -35.15 2.15 -35.55 2.5 -35.95 3 -36.1"/>
    <path stroke="none" fill="#11141E" d="M-27 -36.1 L-20 -37.85 -16.25 -44.05 -15.45 -44.65 -14.5 -44.65 Q-14 -44.5 -13.75 -44.05 L-10 -37.85 -3 -36.1 -2.2 -35.55 Q-1.85 -35.15 -1.9 -34.6 -1.9 -34.05 -2.25 -33.65 L-6.9 -28.1 -6.35 -20.85 Q-6.3 -20.35 -6.6 -19.9 -6.9 -19.45 -7.4 -19.3 L-8.4 -19.35 -15 -22.15 -21.6 -19.35 -22.65 -19.3 -23.4 -19.9 -23.7 -20.85 -23.1 -28.1 -27.75 -33.65 Q-28.15 -34.05 -28.15 -34.6 -28.2 -35.15 -27.85 -35.55 L-27 -36.1"/>
    <path stroke="none" fill="#FFFFFF" d="M48.65 49.3 L46.1 42.95 46 42.65 45.85 43.15 43.55 49.1 43.1 49.8 42.3 50.05 41.5 49.8 41.05 49.1 38.75 43.15 38.6 42.45 Q38.6 41.95 38.95 41.65 39.3 41.35 39.8 41.35 40.55 41.35 40.8 42.15 L42.3 46.7 43.8 42.15 Q44.05 41.35 44.8 41.35 45.3 41.35 45.65 41.65 L46 42.15 46.3 41.65 47.05 41.35 47.75 41.55 48.2 42.15 49.8 46.5 51.5 42.15 51.95 41.55 52.65 41.35 Q53.05 41.35 53.4 41.65 L53.75 42.35 53.6 42.95 49.75 52.55 Q49.4 53.45 48.65 53.45 L47.8 53.15 Q47.45 52.85 47.45 52.45 L47.6 51.75 48.65 49.3 M3.3 48.8 L7.6 38.95 Q7.85 38.35 8.5 38.35 8.9 38.35 9.15 38.6 L9.45 39.25 9.3 39.7 5.05 49.55 Q4.75 50.15 4.15 50.15 L3.45 49.9 3.2 49.25 3.3 48.8 M-9.95 48.75 L-9.95 42.6 -9.6 41.7 Q-9.3 41.35 -8.8 41.35 L-8.05 41.55 -7.75 42.2 Q-6.85 41.25 -5.6 41.25 -4.15 41.25 -3.2 42.4 -2.75 41.9 -2.05 41.55 L-0.8 41.25 0.9 41.6 Q1.6 41.95 2 42.65 2.4 43.35 2.4 44.35 L2.4 48.75 2.25 49.45 1.8 49.9 1.2 50.05 Q0.7 50.05 0.4 49.7 0.05 49.35 0.05 48.75 L0.05 44.75 -0.1 43.95 Q-0.25 43.6 -0.55 43.35 L-1.25 43.15 Q-1.9 43.15 -2.25 43.6 -2.65 44.05 -2.65 44.75 L-2.65 48.75 -2.8 49.45 -3.2 49.9 -3.8 50.05 Q-4.3 50.05 -4.6 49.7 L-4.95 48.75 -4.95 44.75 Q-4.95 44.3 -5.1 43.95 -5.25 43.6 -5.55 43.35 -5.85 43.15 -6.3 43.15 L-7.05 43.35 -7.5 43.9 -7.65 44.75 -7.65 48.75 -7.8 49.45 -8.2 49.9 -8.8 50.05 Q-9.3 50.05 -9.6 49.7 L-9.95 48.75 M10.25 48.8 L10.25 39.7 Q10.25 39.15 10.6 38.8 10.95 38.45 11.45 38.45 12 38.45 12.35 38.8 L12.65 39.7 12.65 43.1 17.7 43.1 17.7 39.7 Q17.7 39.15 18.05 38.8 18.4 38.45 18.9 38.45 19.45 38.45 19.75 38.8 20.1 39.1 20.1 39.7 L20.1 48.8 19.75 49.7 18.9 50.05 Q18.4 50.05 18.05 49.7 17.7 49.4 17.7 48.8 L17.7 45.3 12.65 45.3 12.65 48.8 12.35 49.7 Q12 50.05 11.45 50.05 10.95 50.05 10.6 49.7 10.25 49.4 10.25 48.8 M28.2 46.45 L23.3 46.45 Q23.45 47.3 24.05 47.7 24.65 48.15 25.5 48.15 L26.4 47.95 27.3 47.5 Q27.85 47.2 28.1 47.2 L28.55 47.35 28.9 47.7 29.05 48.2 28.7 48.9 27.85 49.55 26.6 50 25.3 50.15 Q24 50.15 23.05 49.6 22.05 49 21.5 48 20.95 46.95 20.95 45.7 20.95 44.85 21.25 44.05 21.55 43.2 22.15 42.6 22.7 41.95 23.45 41.6 24.2 41.25 25.1 41.25 26 41.25 26.75 41.6 L28.1 42.6 28.95 43.95 29.25 45.45 Q29.25 46.45 28.2 46.45 M23.25 44.95 L26.95 44.95 Q26.85 44.15 26.35 43.65 25.85 43.15 25.1 43.15 24.35 43.15 23.85 43.65 23.35 44.15 23.25 44.95 M37.95 42.85 L37.95 48.55 37.75 49.65 Q37.55 50.05 36.8 50.05 L36.1 49.8 Q35.85 49.55 35.7 49.1 34.8 50.15 33.55 50.15 32.45 50.15 31.6 49.6 30.7 49 30.2 48 29.7 47 29.7 45.7 29.7 44.5 30.25 43.45 30.75 42.45 31.6 41.85 32.5 41.25 33.55 41.25 L34.75 41.5 35.7 42.3 Q35.75 41.9 36.1 41.6 36.4 41.35 36.8 41.35 37.55 41.35 37.75 41.75 L37.95 42.85 M32.05 45.7 L32.25 46.85 32.85 47.7 Q33.25 48.05 33.85 48.05 34.7 48.05 35.15 47.35 35.65 46.65 35.65 45.7 L35.45 44.6 34.8 43.7 Q34.4 43.35 33.85 43.35 33.25 43.35 32.85 43.7 L32.25 44.6 32.05 45.7 M-33.45 46.45 L-38.35 46.45 Q-38.2 47.3 -37.6 47.7 -37 48.15 -36.15 48.15 L-35.25 47.95 -34.35 47.5 -33.55 47.2 Q-33.3 47.2 -33.1 47.35 L-32.75 47.7 -32.6 48.2 Q-32.6 48.55 -32.95 48.9 L-33.8 49.55 -35.05 50 -36.35 50.15 Q-37.65 50.15 -38.6 49.6 -39.6 49 -40.15 48 -40.7 46.95 -40.7 45.7 L-40.4 44.05 -39.5 42.6 -38.2 41.6 Q-37.45 41.25 -36.55 41.25 -35.65 41.25 -34.9 41.6 L-33.55 42.6 Q-33.05 43.2 -32.7 43.95 -32.4 44.7 -32.4 45.45 -32.4 46.45 -33.45 46.45 M-38.4 44.95 L-34.7 44.95 Q-34.8 44.15 -35.3 43.65 -35.8 43.15 -36.55 43.15 -37.3 43.15 -37.8 43.65 -38.3 44.15 -38.4 44.95 M-23.7 38.9 L-23.7 48.75 Q-23.7 49.15 -23.85 49.45 L-24.3 49.9 -24.85 50.05 Q-25.8 50.05 -26 49.1 L-26.9 49.85 -28.15 50.15 Q-29.25 50.15 -30.1 49.55 L-31.45 47.9 Q-31.95 46.9 -31.95 45.8 -31.95 44.65 -31.5 43.6 -31.1 42.55 -30.25 41.9 -29.4 41.25 -28.2 41.25 L-27.45 41.35 -26.7 41.6 -26 42.05 -26 38.9 -25.7 38 Q-25.4 37.65 -24.85 37.65 L-24.25 37.8 Q-24 37.95 -23.85 38.25 L-23.7 38.9 M-21.3 37.9 L-20.65 38.05 -20.15 38.55 -20 39.15 Q-20 39.7 -20.35 40.1 -20.75 40.5 -21.3 40.5 -21.8 40.5 -22.15 40.1 -22.55 39.65 -22.55 39.15 -22.55 38.65 -22.15 38.3 -21.8 37.9 -21.3 37.9 M-22.4 48.75 L-22.4 42.6 -22.1 41.7 Q-21.8 41.35 -21.3 41.35 L-20.65 41.5 Q-20.4 41.65 -20.25 41.95 -20.1 42.25 -20.1 42.6 L-20.1 48.75 -20.25 49.45 -20.7 49.9 -21.3 50.05 Q-21.8 50.05 -22.1 49.7 L-22.4 48.75 M-26 45.65 Q-26 44.7 -26.5 44.05 -26.95 43.35 -27.85 43.35 -28.4 43.35 -28.8 43.7 L-29.4 44.6 -29.6 45.7 -29.5 46.55 -29.15 47.3 -28.6 47.85 -27.85 48.05 Q-27.25 48.05 -26.85 47.7 L-26.2 46.75 -26 45.65 M-18.85 46.8 L-18.85 42.6 Q-18.85 42.05 -18.5 41.7 -18.2 41.35 -17.7 41.35 L-17.1 41.5 Q-16.85 41.65 -16.7 41.95 L-16.55 42.6 -16.55 46.75 -16.1 47.8 Q-15.65 48.2 -15.05 48.2 L-14.3 48.05 -13.75 47.55 -13.55 46.75 -13.55 42.6 -13.25 41.7 Q-12.95 41.35 -12.4 41.35 L-11.8 41.5 -11.4 41.95 Q-11.25 42.25 -11.25 42.6 L-11.25 46.8 Q-11.25 47.8 -11.7 48.55 -12.15 49.35 -13 49.75 -13.85 50.15 -15.05 50.15 -16.85 50.15 -17.85 49.25 -18.85 48.35 -18.85 46.8 M-54.35 48.6 L-52.85 39.7 -52.35 38.85 Q-51.9 38.45 -51.3 38.45 -50.7 38.45 -50.25 38.8 -49.85 39.15 -49.7 39.6 L-47.8 45.95 -47.75 45.95 -45.9 39.6 -45.3 38.8 Q-44.85 38.45 -44.3 38.45 -43.7 38.45 -43.25 38.85 -42.8 39.25 -42.7 39.7 L-41.25 48.6 -41.2 48.9 Q-41.2 49.4 -41.55 49.75 -41.85 50.05 -42.35 50.05 L-43.25 49.8 -43.6 48.95 -44.55 42.4 -44.6 42.4 -46.5 49.1 Q-46.8 50.05 -47.8 50.05 -48.8 50.05 -49.05 49.1 L-51 42.4 -51.95 48.95 -52.35 49.8 -53.2 50.05 -54.05 49.75 -54.35 48.9 -54.35 48.6"/>
  </g>
</svg>