<svg xmlns="http://www.w3.org/2000/svg" xmlns:xlink="http://www.w3.org/1999/xlink">
  <defs/>
  <g>
    <path stroke="none" fill="#FFFFFF" d="M52 -49 Q52 -50.25 51.1 -51.15 50.25 -52 49 -52 47.75 -52 46.85 -51.15 46 -50.25 46 -49 46 -47.75 46.85 -46.9 47.75 -46 49 -46 50.25 -46 51.1 -46.9 52 -47.75 52 -49 M48.25 -58 Q58 -58 58 -48.2 L58 5 38 25 -48.2 25 Q-58 25 -58 15.25 L-58 -38 -38 -58 48.25 -58 M-46 17 Q-46 15.75 -46.9 14.85 -47.75 14 -49 14 -50.25 14 -51.15 14.85 -52 15.75 -52 17 -52 18.25 -51.15 19.1 -50.25 20 -49 20 -47.75 20 -46.9 19.1 -46 18.25 -46 17"/>
    <path stroke="none" fill="#11141E" d="M-46 17 Q-46 18.25 -46.9 19.1 -47.75 20 -49 20 -50.25 20 -51.15 19.1 -52 18.25 -52 17 -52 15.75 -51.15 14.85 -50.25 14 -49 14 -47.75 14 -46.9 14.85 -46 15.75 -46 17 M52 -49 Q52 -47.75 51.1 -46.9 50.25 -46 49 -46 47.75 -46 46.85 -46.9 46 -47.75 46 -49 46 -50.25 46.85 -51.15 47.75 -52 49 -52 50.25 -52 51.1 -51.15 52 -50.25 52 -49 M48.25 -64 Q64 -64 64 -48.2 L64 48.25 Q64 64 48.25 64 L-48.2 64 Q-64 64 -64 48.25 L-64 -49 Q-63.6 -63.1 -50 -63.95 L-50 -64 48.25 -64 M48.25 -58 L-38 -58 -58 -38 -58 15.25 Q-58 25 -48.2 25 L38 25 58 5 58 -48.2 Q58 -58 48.25 -58"/>
    <path stroke="none" fill="#11141E" d="M7.5 -20.1 L14.5 -21.85 18.25 -28.05 19.05 -28.65 20 -28.65 20.75 -28.05 24.5 -21.85 31.5 -20.1 32.3 -19.55 Q32.65 -19.15 32.6 -18.6 32.6 -18.05 32.25 -17.65 L27.6 -12.1 28.15 -4.85 Q28.2 -4.35 27.9 -3.9 27.6 -3.45 27.1 -3.3 L26.1 -3.35 19.5 -6.15 12.9 -3.35 11.85 -3.3 Q11.4 -3.45 11.1 -3.9 10.8 -4.35 10.8 -4.85 L11.4 -12.1 6.75 -17.65 Q6.35 -18.05 6.35 -18.6 6.3 -19.15 6.65 -19.55 L7.5 -20.1"/>
    <path stroke="none" fill="#11141E" d="M-32.5 -20.1 L-25.5 -21.85 -21.75 -28.05 Q-21.5 -28.5 -20.95 -28.65 L-20 -28.65 -19.25 -28.05 -15.5 -21.85 -8.5 -20.1 Q-8.05 -19.95 -7.7 -19.55 -7.35 -19.15 -7.4 -18.6 -7.4 -18.05 -7.75 -17.65 L-12.4 -12.1 -11.85 -4.85 Q-11.8 -4.35 -12.1 -3.9 -12.4 -3.45 -12.9 -3.3 L-13.9 -3.35 -20.5 -6.15 -27.1 -3.35 -28.15 -3.3 -28.9 -3.9 -29.2 -4.85 -28.6 -12.1 -33.25 -17.65 Q-33.65 -18.05 -33.65 -18.6 -33.7 -19.15 -33.35 -19.55 L-32.5 -20.1"/>
  </g>
</svg>