<svg xmlns="http://www.w3.org/2000/svg" xmlns:xlink="http://www.w3.org/1999/xlink">
  <defs/>
  <g>
    <path stroke="none" fill="#FFFFFF" d="M52 -49 Q52 -50.25 51.1 -51.15 50.25 -52 49 -52 47.75 -52 46.85 -51.15 46 -50.25 46 -49 46 -47.75 46.85 -46.9 47.75 -46 49 -46 50.25 -46 51.1 -46.9 52 -47.75 52 -49 M48.25 -58 Q58 -58 58 -48.2 L58 5 38 25 -48.2 25 Q-58 25 -58 15.25 L-58 -38 -38 -58 48.25 -58 M-46 17 Q-46 15.75 -46.9 14.85 -47.75 14 -49 14 -50.25 14 -51.15 14.85 -52 15.75 -52 17 -52 18.25 -51.15 19.1 -50.25 20 -49 20 -47.75 20 -46.9 19.1 -46 18.25 -46 17"/>
    <path stroke="none" fill="#11141E" d="M-46 17 Q-46 18.25 -46.9 19.1 -47.75 20 -49 20 -50.25 20 -51.15 19.1 -52 18.25 -52 17 -52 15.75 -51.15 14.85 -50.25 14 -49 14 -47.75 14 -46.9 14.85 -46 15.75 -46 17 M52 -49 Q52 -47.75 51.1 -46.9 50.25 -46 49 -46 47.75 -46 46.85 -46.9 46 -47.75 46 -49 46 -50.25 46.85 -51.15 47.75 -52 49 -52 50.25 -52 51.1 -51.15 52 -50.25 52 -49 M48.25 -64 Q64 -64 64 -48.2 L64 48.25 Q64 64 48.25 64 L-48.2 64 Q-64 64 -64 48.25 L-64 -49 Q-63.6 -63.1 -50 -63.95 L-50 -64 48.25 -64 M48.25 -58 L-38 -58 -58 -38 -58 15.25 Q-58 25 -48.2 25 L38 25 58 5 58 -48.2 Q58 -58 48.25 -58"/>
    <path stroke="none" fill="#11141E" d="M7.5 -20.1 L14.5 -21.85 18.25 -28.05 19.05 -28.65 20 -28.65 20.75 -28.05 24.5 -21.85 31.5 -20.1 32.3 -19.55 Q32.65 -19.15 32.6 -18.6 32.6 -18.05 32.25 -17.65 L27.6 -12.1 28.15 -4.85 Q28.2 -4.35 27.9 -3.9 27.6 -3.45 27.1 -3.3 L26.1 -3.35 19.5 -6.15 12.9 -3.35 11.85 -3.3 Q11.4 -3.45 11.1 -3.9 10.8 -4.35 10.8 -4.85 L11.4 -12.1 6.75 -17.65 Q6.35 -18.05 6.35 -18.6 6.3 -19.15 6.65 -19.55 L7.5 -20.1"/>
    <path stroke="none" fill="#11141E" d="M-32.5 -20.1 L-25.5 -21.85 -21.75 -28.05 Q-21.5 -28.5 -20.95 -28.65 L-20 -28.65 -19.25 -28.05 -15.5 -21.85 -8.5 -20.1 Q-8.05 -19.95 -7.7 -19.55 -7.35 -19.15 -7.4 -18.6 -7.4 -18.05 -7.75 -17.65 L-12.4 -12.1 -11.85 -4.85 Q-11.8 -4.35 -12.1 -3.9 -12.4 -3.45 -12.9 -3.3 L-13.9 -3.35 -20.5 -6.15 -27.1 -3.35 -28.15 -3.3 -28.9 -3.9 -29.2 -4.85 -28.6 -12.1 -33.25 -17.65 Q-33.65 -18.05 -33.65 -18.6 -33.7 -19.15 -33.35 -19.55 L-32.5 -20.1"/>
    <path stroke="none" fill="#FFFFFF" d="M44.7 48.75 L44.7 43.45 44.2 43.45 43.5 43.2 Q43.2 42.9 43.2 42.45 43.2 42 43.5 41.7 43.75 41.45 44.2 41.45 L44.7 41.45 44.7 40.05 Q44.7 39.5 45.05 39.15 45.35 38.8 45.85 38.8 L46.45 38.95 46.9 39.4 47 40.05 47 41.45 47.7 41.45 48.45 41.7 Q48.8 41.95 48.8 42.45 L48.5 43.2 47.7 43.45 47 43.45 47 48.75 46.9 49.45 46.45 49.9 45.85 50.05 45.05 49.7 Q44.7 49.35 44.7 48.75 M35.25 48.75 L35.25 38.9 Q35.25 38.35 35.6 38 35.9 37.65 36.4 37.65 L37 37.8 37.4 38.25 37.55 38.9 37.55 42.05 37.6 42.05 Q37.9 41.65 38.5 41.45 L39.7 41.25 Q40.6 41.25 41.3 41.6 42.05 42 42.45 42.7 42.85 43.4 42.85 44.35 L42.85 48.75 42.7 49.45 42.3 49.9 41.7 50.05 Q41.15 50.05 40.85 49.7 40.55 49.35 40.55 48.75 L40.55 44.75 Q40.55 43.95 40.1 43.6 39.7 43.15 39.05 43.15 L38.25 43.4 Q37.9 43.6 37.75 43.95 L37.55 44.75 37.55 48.75 37.4 49.45 37 49.9 36.4 50.05 Q35.9 50.05 35.6 49.7 35.25 49.35 35.25 48.75 M-4.45 48.75 L-4.45 42.6 Q-4.45 42.05 -4.1 41.7 -3.8 41.35 -3.3 41.35 -2.85 41.35 -2.55 41.55 -2.3 41.8 -2.25 42.2 -1.35 41.25 -0.1 41.25 1.35 41.25 2.3 42.4 L3.45 41.55 Q4.15 41.25 4.7 41.25 5.65 41.25 6.4 41.6 7.1 41.95 7.5 42.65 7.9 43.35 7.9 44.35 L7.9 48.75 7.75 49.45 7.3 49.9 6.7 50.05 Q6.2 50.05 5.9 49.7 5.55 49.35 5.55 48.75 L5.55 44.75 5.4 43.95 4.95 43.35 4.25 43.15 Q3.6 43.15 3.25 43.6 2.85 44.05 2.85 44.75 L2.85 48.75 2.7 49.45 2.3 49.9 1.7 50.05 Q1.2 50.05 0.9 49.7 0.55 49.35 0.55 48.75 L0.55 44.75 0.4 43.95 -0.05 43.35 -0.8 43.15 -1.55 43.35 -2 43.9 -2.15 44.75 -2.15 48.75 -2.3 49.45 -2.7 49.9 -3.3 50.05 Q-3.8 50.05 -4.1 49.7 L-4.45 48.75 M8.8 48.8 L13.1 38.95 Q13.35 38.35 14 38.35 14.4 38.35 14.65 38.6 L14.95 39.25 14.8 39.7 10.55 49.55 Q10.25 50.15 9.65 50.15 L8.95 49.9 8.7 49.25 8.8 48.8 M15.75 48.65 L15.75 39.7 Q15.75 39.15 16.1 38.8 16.45 38.45 16.95 38.45 17.5 38.45 17.85 38.8 18.15 39.1 18.15 39.7 L18.15 47.75 21 47.75 Q21.6 47.75 21.9 48.1 L22.15 48.9 21.85 49.65 Q21.5 49.95 21 49.95 L17 49.95 Q16.45 49.95 16.1 49.6 15.75 49.25 15.75 48.65 M33.95 42.6 L33.95 49.3 Q33.95 50.6 33.4 51.55 32.8 52.5 31.8 52.95 30.8 53.45 29.5 53.45 L28.05 53.25 26.5 52.65 Q25.85 52.3 25.85 51.7 25.85 51.4 26.15 51.05 26.45 50.7 26.8 50.7 L27.75 50.95 28.75 51.3 29.65 51.4 30.7 51.2 31.4 50.6 31.65 49.6 31.65 49.05 31.6 49.05 Q30.85 50.15 29.3 50.15 L27.75 49.8 26.6 48.8 Q26.15 48.2 25.95 47.4 L25.7 45.7 Q25.7 44.85 26 44.05 26.25 43.25 26.75 42.6 L27.95 41.6 Q28.65 41.25 29.5 41.25 L30.35 41.35 31.1 41.75 31.65 42.3 Q31.85 41.35 32.8 41.35 L33.4 41.5 33.8 41.95 33.95 42.6 M23.6 37.9 L24.25 38.05 24.75 38.55 24.9 39.15 24.55 40.1 Q24.15 40.5 23.6 40.5 23.1 40.5 22.75 40.1 22.35 39.65 22.35 39.15 22.35 38.65 22.75 38.3 23.1 37.9 23.6 37.9 M22.5 48.75 L22.5 42.6 Q22.5 42.05 22.8 41.7 23.1 41.35 23.6 41.35 L24.25 41.5 24.65 41.95 24.8 42.6 24.8 48.75 24.65 49.45 24.2 49.9 23.6 50.05 Q23.1 50.05 22.8 49.7 22.5 49.35 22.5 48.75 M31.65 45.75 L31.45 44.6 30.8 43.7 Q30.4 43.35 29.8 43.35 29.25 43.35 28.85 43.7 L28.25 44.6 28.05 45.7 28.25 46.85 28.85 47.7 Q29.25 48.05 29.8 48.05 30.7 48.05 31.15 47.35 31.65 46.7 31.65 45.75 M-27.95 46.45 L-32.85 46.45 Q-32.7 47.3 -32.1 47.7 L-30.65 48.15 -29.75 47.95 -28.85 47.5 Q-28.3 47.2 -28.05 47.2 -27.8 47.2 -27.6 47.35 L-27.25 47.7 Q-27.1 47.95 -27.1 48.2 -27.1 48.55 -27.45 48.9 L-28.3 49.55 -29.55 50 -30.85 50.15 Q-32.15 50.15 -33.1 49.6 -34.1 49 -34.65 48 -35.2 46.95 -35.2 45.7 L-34.9 44.05 -34 42.6 Q-33.45 41.95 -32.7 41.6 L-31.05 41.25 Q-30.15 41.25 -29.4 41.6 L-28.05 42.6 Q-27.55 43.2 -27.2 43.95 -26.9 44.7 -26.9 45.45 -26.9 46.45 -27.95 46.45 M-48.85 48.6 L-47.35 39.7 -46.85 38.85 Q-46.4 38.45 -45.8 38.45 -45.2 38.45 -44.75 38.8 L-44.2 39.6 -42.3 45.95 -42.25 45.95 -40.4 39.6 -39.8 38.8 Q-39.35 38.45 -38.8 38.45 -38.2 38.45 -37.75 38.85 -37.3 39.25 -37.2 39.7 L-35.75 48.6 -35.7 48.9 Q-35.7 49.4 -36.05 49.75 L-36.85 50.05 -37.75 49.8 -38.1 48.95 -39.05 42.4 -39.1 42.4 -41 49.1 Q-41.3 50.05 -42.3 50.05 -43.3 50.05 -43.55 49.1 L-45.5 42.4 -46.45 48.95 -46.85 49.8 -47.7 50.05 -48.55 49.75 -48.85 48.9 -48.85 48.6 M-32.9 44.95 L-29.2 44.95 Q-29.3 44.15 -29.8 43.65 -30.3 43.15 -31.05 43.15 -31.8 43.15 -32.3 43.65 -32.8 44.15 -32.9 44.95 M-18.2 38.9 L-18.2 48.75 Q-18.2 49.15 -18.35 49.45 L-18.8 49.9 -19.35 50.05 Q-20.3 50.05 -20.5 49.1 L-21.4 49.85 -22.65 50.15 Q-23.75 50.15 -24.6 49.55 -25.5 48.9 -25.95 47.9 -26.45 46.9 -26.45 45.8 -26.45 44.65 -26 43.6 -25.6 42.55 -24.75 41.9 -23.9 41.25 -22.7 41.25 L-21.95 41.35 -21.2 41.6 -20.5 42.05 -20.5 38.9 -20.2 38 Q-19.9 37.65 -19.35 37.65 L-18.75 37.8 -18.35 38.25 -18.2 38.9 M-20.5 45.65 Q-20.5 44.7 -21 44.05 -21.45 43.35 -22.35 43.35 -22.9 43.35 -23.3 43.7 L-23.9 44.6 -24.1 45.7 -24 46.55 -23.65 47.3 -23.1 47.85 -22.35 48.05 Q-21.75 48.05 -21.35 47.7 L-20.7 46.75 -20.5 45.65 M-15.8 37.9 L-15.15 38.05 -14.65 38.55 -14.5 39.15 Q-14.5 39.7 -14.85 40.1 -15.25 40.5 -15.8 40.5 -16.3 40.5 -16.65 40.1 L-17.05 39.15 Q-17.05 38.65 -16.65 38.3 -16.3 37.9 -15.8 37.9 M-16.9 48.75 L-16.9 42.6 -16.6 41.7 Q-16.3 41.35 -15.8 41.35 L-15.15 41.5 -14.75 41.95 -14.6 42.6 -14.6 48.75 Q-14.6 49.15 -14.75 49.45 L-15.2 49.9 -15.8 50.05 Q-16.3 50.05 -16.6 49.7 L-16.9 48.75 M-13.35 46.8 L-13.35 42.6 Q-13.35 42.05 -13 41.7 -12.7 41.35 -12.2 41.35 L-11.6 41.5 -11.2 41.95 Q-11.05 42.25 -11.05 42.6 L-11.05 46.75 -10.6 47.8 Q-10.15 48.2 -9.55 48.2 L-8.8 48.05 -8.25 47.55 -8.05 46.75 -8.05 42.6 -7.75 41.7 Q-7.45 41.35 -6.9 41.35 L-6.3 41.5 Q-6.05 41.65 -5.9 41.95 -5.75 42.25 -5.75 42.6 L-5.75 46.8 Q-5.75 47.8 -6.2 48.55 -6.65 49.35 -7.5 49.75 L-9.55 50.15 Q-11.35 50.15 -12.35 49.25 -13.35 48.35 -13.35 46.8"/>
  </g>
</svg>