<svg xmlns="http://www.w3.org/2000/svg" xmlns:xlink="http://www.w3.org/1999/xlink">
  <defs/>
  <g>
    <path stroke="none" fill="#FFFFFF" d="M52 -49 Q52 -50.25 51.1 -51.15 50.25 -52 49 -52 47.75 -52 46.85 -51.15 46 -50.25 46 -49 46 -47.75 46.85 -46.9 47.75 -46 49 -46 50.25 -46 51.1 -46.9 52 -47.75 52 -49 M48.25 -58 Q58 -58 58 -48.2 L58 5 38 25 -48.2 25 Q-58 25 -58 15.25 L-58 -38 -38 -58 48.25 -58 M-46 17 Q-46 15.75 -46.9 14.85 -47.75 14 -49 14 -50.25 14 -51.15 14.85 -52 15.75 -52 17 -52 18.25 -51.15 19.1 -50.25 20 -49 20 -47.75 20 -46.9 19.1 -46 18.25 -46 17"/>
    <path stroke="none" fill="#11141E" d="M-46 17 Q-46 18.25 -46.9 19.1 -47.75 20 -49 20 -50.25 20 -51.15 19.1 -52 18.25 -52 17 -52 15.75 -51.15 14.85 -50.25 14 -49 14 -47.75 14 -46.9 14.85 -46 15.75 -46 17 M52 -49 Q52 -47.75 51.1 -46.9 50.25 -46 49 -46 47.75 -46 46.85 -46.9 46 -47.75 46 -49 46 -50.25 46.85 -51.15 47.75 -52 49 -52 50.25 -52 51.1 -51.15 52 -50.25 52 -49 M48.25 -58 L-38 -58 -58 -38 -58 15.25 Q-58 25 -48.2 25 L38 25 58 5 58 -48.2 Q58 -58 48.25 -58 M48.25 -64 Q64 -64 64 -48.2 L64 48.25 Q64 64 48.25 64 L-48.2 64 Q-64 64 -64 48.25 L-64 -49 Q-63.6 -63.1 -50 -63.95 L-50 -64 48.25 -64"/>
    <path stroke="none" fill="#11141E" d="M3 -6.1 L10 -7.85 13.75 -14.05 14.55 -14.65 15.5 -14.65 16.25 -14.05 20 -7.85 27 -6.1 27.8 -5.55 Q28.15 -5.15 28.1 -4.6 28.1 -4.05 27.75 -3.65 L23.1 1.9 23.65 9.15 23.4 10.1 Q23.1 10.55 22.6 10.7 L21.6 10.65 15 7.85 8.4 10.65 7.35 10.7 Q6.9 10.55 6.6 10.1 6.3 9.65 6.3 9.15 L6.9 1.9 2.25 -3.65 Q1.85 -4.05 1.85 -4.6 1.8 -5.15 2.15 -5.55 2.5 -5.95 3 -6.1"/>
    <path stroke="none" fill="#11141E" d="M-27 -6.1 L-20 -7.85 -16.25 -14.05 -15.45 -14.65 -14.5 -14.65 Q-14 -14.5 -13.75 -14.05 L-10 -7.85 -3 -6.1 -2.2 -5.55 Q-1.85 -5.15 -1.9 -4.6 -1.9 -4.05 -2.25 -3.65 L-6.9 1.9 -6.35 9.15 Q-6.3 9.65 -6.6 10.1 -6.9 10.55 -7.4 10.7 L-8.4 10.65 -15 7.85 -21.6 10.65 -22.65 10.7 -23.4 10.1 -23.7 9.15 -23.1 1.9 -27.75 -3.65 Q-28.15 -4.05 -28.15 -4.6 -28.2 -5.15 -27.85 -5.55 L-27 -6.1"/>
    <path stroke="none" fill="#11141E" d="M3 -36.1 L10 -37.85 13.75 -44.05 14.55 -44.65 15.5 -44.65 16.25 -44.05 20 -37.85 27 -36.1 27.8 -35.55 Q28.15 -35.15 28.1 -34.6 28.1 -34.05 27.75 -33.65 L23.1 -28.1 23.65 -20.85 Q23.7 -20.35 23.4 -19.9 23.1 -19.45 22.6 -19.3 L21.6 -19.35 15 -22.15 8.4 -19.35 7.35 -19.3 Q6.9 -19.45 6.6 -19.9 6.3 -20.35 6.3 -20.85 L6.9 -28.1 2.25 -33.65 Q1.85 -34.05 1.85 -34.6 1.8 -35.15 2.15 -35.55 2.5 -35.95 3 -36.1"/>
    <path stroke="none" fill="#11141E" d="M-27 -36.1 L-20 -37.85 -16.25 -44.05 -15.45 -44.65 -14.5 -44.65 Q-14 -44.5 -13.75 -44.05 L-10 -37.85 -3 -36.1 -2.2 -35.55 Q-1.85 -35.15 -1.9 -34.6 -1.9 -34.05 -2.25 -33.65 L-6.9 -28.1 -6.35 -20.85 Q-6.3 -20.35 -6.6 -19.9 -6.9 -19.45 -7.4 -19.3 L-8.4 -19.35 -15 -22.15 -21.6 -19.35 -22.65 -19.3 -23.4 -19.9 -23.7 -20.85 -23.1 -28.1 -27.75 -33.65 Q-28.15 -34.05 -28.15 -34.6 -28.2 -35.15 -27.85 -35.55 L-27 -36.1"/>
  </g>
</svg>