<svg xmlns="http://www.w3.org/2000/svg" xmlns:xlink="http://www.w3.org/1999/xlink">
  <defs/>
  <g>
    <path stroke="none" fill="#FFFFFF" d="M52 -49 Q52 -50.25 51.1 -51.15 50.25 -52 49 -52 47.75 -52 46.85 -51.15 46 -50.25 46 -49 46 -47.75 46.85 -46.9 47.75 -46 49 -46 50.25 -46 51.1 -46.9 52 -47.75 52 -49 M48.25 -58 Q58 -58 58 -48.2 L58 5 38 25 -48.2 25 Q-58 25 -58 15.25 L-58 -38 -38 -58 48.25 -58 M-46 17 Q-46 15.75 -46.9 14.85 -47.75 14 -49 14 -50.25 14 -51.15 14.85 -52 15.75 -52 17 -52 18.25 -51.15 19.1 -50.25 20 -49 20 -47.75 20 -46.9 19.1 -46 18.25 -46 17"/>
    <path stroke="none" fill="#11141E" d="M-46 17 Q-46 18.25 -46.9 19.1 -47.75 20 -49 20 -50.25 20 -51.15 19.1 -52 18.25 -52 17 -52 15.75 -51.15 14.85 -50.25 14 -49 14 -47.75 14 -46.9 14.85 -46 15.75 -46 17 M52 -49 Q52 -47.75 51.1 -46.9 50.25 -46 49 -46 47.75 -46 46.85 -46.9 46 -47.75 46 -49 46 -50.25 46.85 -51.15 47.75 -52 49 -52 50.25 -52 51.1 -51.15 52 -50.25 52 -49 M48.25 -58 L-38 -58 -58 -38 -58 15.25 Q-58 25 -48.2 25 L38 25 58 5 58 -48.2 Q58 -58 48.25 -58 M48.25 -64 Q64 -64 64 -48.2 L64 48.25 Q64 64 48.25 64 L-48.2 64 Q-64 64 -64 48.25 L-64 -49 Q-63.6 -63.1 -50 -63.95 L-50 -64 48.25 -64"/>
    <path stroke="none" fill="#11141E" d="M7.5 -10.1 L14.5 -11.85 18.25 -18.05 19.05 -18.65 20 -18.65 20.75 -18.05 24.5 -11.85 31.5 -10.1 32.3 -9.55 Q32.65 -9.15 32.6 -8.6 32.6 -8.05 32.25 -7.65 L27.6 -2.1 28.15 5.15 27.9 6.1 Q27.6 6.55 27.1 6.7 L26.1 6.65 19.5 3.85 12.9 6.65 11.85 6.7 11.1 6.1 Q10.8 5.65 10.8 5.15 L11.4 -2.1 6.75 -7.65 Q6.35 -8.05 6.35 -8.6 6.3 -9.15 6.65 -9.55 L7.5 -10.1"/>
    <path stroke="none" fill="#11141E" d="M-32.5 -10.1 L-25.5 -11.85 -21.75 -18.05 Q-21.5 -18.5 -20.95 -18.65 L-20 -18.65 -19.25 -18.05 -15.5 -11.85 -8.5 -10.1 Q-8.05 -9.95 -7.7 -9.55 -7.35 -9.15 -7.4 -8.6 -7.4 -8.05 -7.75 -7.65 L-12.4 -2.1 -11.85 5.15 Q-11.8 5.65 -12.1 6.1 L-12.9 6.7 -13.9 6.65 -20.5 3.85 -27.1 6.65 -28.15 6.7 -28.9 6.1 -29.2 5.15 -28.6 -2.1 -33.25 -7.65 Q-33.65 -8.05 -33.65 -8.6 -33.7 -9.15 -33.35 -9.55 L-32.5 -10.1"/>
    <path stroke="none" fill="#11141E" d="M-12.5 -36.1 L-5.5 -37.85 -1.75 -44.05 -0.95 -44.65 0 -44.65 0.75 -44.05 4.5 -37.85 11.5 -36.1 12.3 -35.55 Q12.65 -35.15 12.6 -34.6 12.6 -34.05 12.25 -33.65 L7.6 -28.1 8.15 -20.85 Q8.2 -20.35 7.9 -19.9 7.6 -19.45 7.1 -19.3 L6.1 -19.35 -0.5 -22.15 -7.1 -19.35 -8.15 -19.3 -8.9 -19.9 -9.2 -20.85 -8.6 -28.1 -13.25 -33.65 Q-13.65 -34.05 -13.65 -34.6 -13.7 -35.15 -13.35 -35.55 L-12.5 -36.1"/>
    <path stroke="none" fill="#FFFFFF" d="M6.5 46.8 L6.5 42.6 Q6.5 42.05 6.85 41.7 7.15 41.35 7.65 41.35 L8.25 41.5 8.65 41.95 8.8 42.6 8.8 46.75 Q8.8 47.4 9.25 47.8 9.7 48.2 10.3 48.2 L11.05 48.05 11.6 47.55 11.8 46.75 11.8 42.6 Q11.8 42.05 12.1 41.7 12.4 41.35 12.95 41.35 L13.55 41.5 13.95 41.95 14.1 42.6 14.1 46.8 13.65 48.55 Q13.2 49.35 12.35 49.75 11.5 50.15 10.3 50.15 8.5 50.15 7.5 49.25 6.5 48.35 6.5 46.8 M4.05 37.9 L4.7 38.05 5.2 38.55 5.35 39.15 Q5.35 39.7 5 40.1 4.6 40.5 4.05 40.5 3.55 40.5 3.2 40.1 L2.8 39.15 Q2.8 38.65 3.2 38.3 3.55 37.9 4.05 37.9 M2.95 48.75 L2.95 42.6 Q2.95 42.05 3.25 41.7 3.55 41.35 4.05 41.35 L4.7 41.5 5.1 41.95 5.25 42.6 5.25 48.75 5.1 49.45 4.65 49.9 4.05 50.05 Q3.55 50.05 3.25 49.7 2.95 49.35 2.95 48.75 M1.65 38.9 L1.65 48.75 1.5 49.45 1.05 49.9 0.5 50.05 Q-0.45 50.05 -0.65 49.1 L-1.55 49.85 -2.8 50.15 Q-3.9 50.15 -4.75 49.55 -5.65 48.9 -6.1 47.9 -6.6 46.9 -6.6 45.8 -6.6 44.65 -6.15 43.6 -5.75 42.55 -4.9 41.9 -4.05 41.25 -2.85 41.25 L-2.1 41.35 -1.35 41.6 -0.65 42.05 -0.65 38.9 -0.35 38 Q-0.05 37.65 0.5 37.65 L1.1 37.8 1.5 38.25 1.65 38.9 M15.4 48.75 L15.4 42.6 Q15.4 42.05 15.75 41.7 16.05 41.35 16.55 41.35 L17.3 41.55 17.6 42.2 Q18.5 41.25 19.75 41.25 21.2 41.25 22.15 42.4 L23.3 41.55 24.55 41.25 Q25.5 41.25 26.25 41.6 26.95 41.95 27.35 42.65 27.75 43.35 27.75 44.35 L27.75 48.75 27.6 49.45 27.15 49.9 26.55 50.05 Q26.05 50.05 25.75 49.7 25.4 49.35 25.4 48.75 L25.4 44.75 25.25 43.95 24.8 43.35 24.1 43.15 Q23.45 43.15 23.1 43.6 22.7 44.05 22.7 44.75 L22.7 48.75 22.55 49.45 22.15 49.9 21.55 50.05 Q21.05 50.05 20.75 49.7 20.4 49.35 20.4 48.75 L20.4 44.75 20.25 43.95 19.8 43.35 19.05 43.15 18.3 43.35 Q18 43.55 17.85 43.9 17.7 44.25 17.7 44.75 L17.7 48.75 17.55 49.45 17.15 49.9 16.55 50.05 Q16.05 50.05 15.75 49.7 15.4 49.35 15.4 48.75 M-29 48.6 L-27.5 39.7 -27 38.85 Q-26.55 38.45 -25.95 38.45 -25.35 38.45 -24.9 38.8 -24.5 39.15 -24.35 39.6 L-22.45 45.95 -22.4 45.95 -20.55 39.6 -19.95 38.8 Q-19.5 38.45 -18.95 38.45 -18.35 38.45 -17.9 38.85 -17.45 39.25 -17.35 39.7 L-15.9 48.6 -15.85 48.9 Q-15.85 49.4 -16.2 49.75 -16.5 50.05 -17 50.05 L-17.9 49.8 -18.25 48.95 -19.2 42.4 -19.25 42.4 -21.15 49.1 Q-21.45 50.05 -22.45 50.05 -23.45 50.05 -23.7 49.1 L-25.65 42.4 -26.6 48.95 -27 49.8 -27.85 50.05 -28.7 49.75 -29 48.9 -29 48.6 M-8.1 46.45 L-13 46.45 Q-12.85 47.3 -12.25 47.7 -11.65 48.15 -10.8 48.15 L-9.9 47.95 -9 47.5 -8.2 47.2 Q-7.95 47.2 -7.75 47.35 L-7.4 47.7 -7.25 48.2 Q-7.25 48.55 -7.6 48.9 L-8.45 49.55 -9.7 50 -11 50.15 Q-12.3 50.15 -13.25 49.6 -14.25 49 -14.8 48 -15.35 46.95 -15.35 45.7 L-15.05 44.05 -14.15 42.6 -12.85 41.6 -11.2 41.25 Q-10.3 41.25 -9.55 41.6 L-8.2 42.6 Q-7.7 43.2 -7.35 43.95 -7.05 44.7 -7.05 45.45 -7.05 46.45 -8.1 46.45 M-13.05 44.95 L-9.35 44.95 Q-9.45 44.15 -9.95 43.65 -10.45 43.15 -11.2 43.15 -11.95 43.15 -12.45 43.65 -12.95 44.15 -13.05 44.95 M-0.65 45.65 Q-0.65 44.7 -1.15 44.05 -1.6 43.35 -2.5 43.35 -3.05 43.35 -3.45 43.7 L-4.05 44.6 -4.25 45.7 -4.15 46.55 -3.8 47.3 -3.25 47.85 -2.5 48.05 Q-1.9 48.05 -1.5 47.7 L-0.85 46.75 -0.65 45.65"/>
  </g>
</svg>