<svg xmlns="http://www.w3.org/2000/svg" xmlns:xlink="http://www.w3.org/1999/xlink">
  <defs/>
  <g>
    <path stroke="none" fill="#FFFFFF" d="M52 -49 Q52 -50.25 51.1 -51.15 50.25 -52 49 -52 47.75 -52 46.85 -51.15 46 -50.25 46 -49 46 -47.75 46.85 -46.9 47.75 -46 49 -46 50.25 -46 51.1 -46.9 52 -47.75 52 -49 M48.25 -58 Q58 -58 58 -48.2 L58 5 38 25 -48.2 25 Q-58 25 -58 15.25 L-58 -38 -38 -58 48.25 -58 M-46 17 Q-46 15.75 -46.9 14.85 -47.75 14 -49 14 -50.25 14 -51.15 14.85 -52 15.75 -52 17 -52 18.25 -51.15 19.1 -50.25 20 -49 20 -47.75 20 -46.9 19.1 -46 18.25 -46 17"/>
    <path stroke="none" fill="#11141E" d="M-46 17 Q-46 18.25 -46.9 19.1 -47.75 20 -49 20 -50.25 20 -51.15 19.1 -52 18.25 -52 17 -52 15.75 -51.15 14.85 -50.25 14 -49 14 -47.75 14 -46.9 14.85 -46 15.75 -46 17 M52 -49 Q52 -47.75 51.1 -46.9 50.25 -46 49 -46 47.75 -46 46.85 -46.9 46 -47.75 46 -49 46 -50.25 46.85 -51.15 47.75 -52 49 -52 50.25 -52 51.1 -51.15 52 -50.25 52 -49 M48.25 -64 Q64 -64 64 -48.2 L64 48.25 Q64 64 48.25 64 L-48.2 64 Q-64 64 -64 48.25 L-64 -49 Q-63.6 -63.1 -50 -63.95 L-50 -64 48.25 -64 M48.25 -58 L-38 -58 -58 -38 -58 15.25 Q-58 25 -48.2 25 L38 25 58 5 58 -48.2 Q58 -58 48.25 -58"/>
    <path stroke="none" fill="#11141E" d="M-16.55 -28.6 L-20.55 -35.55 -20.65 -36.3 -20.2 -36.9 -13.25 -40.9 -12.5 -41 -11.9 -40.55 -8.3 -34.3 -8.15 -34.1 1.85 -16.75 1.95 -16 0.45 -10.55 0 -9.95 -0.75 -9.85 -6.2 -11.3 Q-6.6 -11.45 -6.8 -11.75 L-16.4 -28.4 -16.55 -28.6 M4.35 -18.4 L-1.2 -28 -1.15 -28.05 Q5.25 -32.05 11.6 -28.1 L27.1 -18.35 Q31.3 -15.75 30.9 -12.8 31.3 -9.95 27.1 -7.3 L2.05 8.4 Q-4.3 12.35 -10.65 8.4 L-10.7 8.4 -26.15 -1.35 -26.1 -1.35 Q-30.35 -3.95 -29.95 -6.85 -30.35 -9.75 -26.1 -12.35 L-26.15 -12.35 -14.75 -19.5 -9.4 -10.25 -9.3 -10.05 Q-8.65 -9 -7.25 -8.5 L-6.95 -8.4 -1.5 -6.95 -1.45 -6.95 Q0.1 -6.55 1.5 -7.35 2.95 -8.15 3.35 -9.8 L3.35 -9.75 4.85 -15.2 4.9 -15.35 Q5.3 -17.2 4.35 -18.4"/>
  </g>
</svg>