<svg xmlns="http://www.w3.org/2000/svg" xmlns:xlink="http://www.w3.org/1999/xlink">
  <defs/>
  <g>
    <path stroke="none" fill="#FFFFFF" d="M52 -49 Q52 -50.25 51.1 -51.15 50.25 -52 49 -52 47.75 -52 46.85 -51.15 46 -50.25 46 -49 46 -47.75 46.85 -46.9 47.75 -46 49 -46 50.25 -46 51.1 -46.9 52 -47.75 52 -49 M48.25 -58 Q58 -58 58 -48.2 L58 5 38 25 -48.2 25 Q-58 25 -58 15.25 L-58 -38 -38 -58 48.25 -58 M-46 17 Q-46 15.75 -46.9 14.85 -47.75 14 -49 14 -50.25 14 -51.15 14.85 -52 15.75 -52 17 -52 18.25 -51.15 19.1 -50.25 20 -49 20 -47.75 20 -46.9 19.1 -46 18.25 -46 17"/>
    <path stroke="none" fill="#11141E" d="M-46 17 Q-46 18.25 -46.9 19.1 -47.75 20 -49 20 -50.25 20 -51.15 19.1 -52 18.25 -52 17 -52 15.75 -51.15 14.85 -50.25 14 -49 14 -47.75 14 -46.9 14.85 -46 15.75 -46 17 M52 -49 Q52 -47.75 51.1 -46.9 50.25 -46 49 -46 47.75 -46 46.85 -46.9 46 -47.75 46 -49 46 -50.25 46.85 -51.15 47.75 -52 49 -52 50.25 -52 51.1 -51.15 52 -50.25 52 -49 M48.25 -64 Q64 -64 64 -48.2 L64 48.25 Q64 64 48.25 64 L-48.2 64 Q-64 64 -64 48.25 L-64 -49 Q-63.6 -63.1 -50 -63.95 L-50 -64 48.25 -64 M48.25 -58 L-38 -58 -58 -38 -58 15.25 Q-58 25 -48.2 25 L38 25 58 5 58 -48.2 Q58 -58 48.25 -58"/>
    <path stroke="none" fill="#11141E" d="M38 -12.8 L42.6 -3.6 Q43 -2.8 43 -1.9 L43 1.2 Q43 2.8 41.9 3.9 40.8 5 39.15 5 L23.85 5 Q22.25 5 21.15 3.9 20 2.8 20 1.2 L20 -1.9 Q20 -2.8 20.4 -3.6 L25 -12.8 25.1 -12.9 23.35 -14.35 Q20 -17.7 20 -22.5 20 -27.25 23.35 -30.6 26.7 -34 31.5 -34 36.25 -34 39.6 -30.6 43 -27.25 43 -22.5 43 -17.7 39.6 -14.35 L37.95 -12.95 38 -12.8 M-17 -9.05 Q-17 -11.05 -15.5 -12.5 -14.05 -14 -12 -14 L13 -14 Q15.05 -14 16.55 -12.5 18 -11.05 18 -9.05 L18 -7 Q18 -4.95 16.6 -3.45 L16.55 -3.4 Q15.45 -2.35 14 -2.1 L14 5 Q14 5.8 13.4 6.4 12.8 7 12 7 L8 7 Q7.2 7 6.6 6.4 6 5.8 6 5 L6 -2 -5 -2 -5 5 Q-5 5.8 -5.6 6.4 -6.2 7 -7 7 L-11 7 Q-11.8 7 -12.4 6.4 -13 5.8 -13 5 L-13 -2.1 Q-14.4 -2.35 -15.5 -3.45 -17 -4.95 -17 -7 L-17 -9.05 M-24 -12.8 L-19.4 -3.6 Q-19 -2.8 -19 -1.9 L-19 1.2 Q-19 2.8 -20.1 3.9 -21.2 5 -22.85 5 L-38.15 5 Q-39.75 5 -40.85 3.9 -42 2.8 -42 1.2 L-42 -1.9 Q-42 -2.8 -41.6 -3.6 L-37 -12.8 -36.9 -12.9 -38.65 -14.35 Q-42 -17.7 -42 -22.5 -42 -27.25 -38.65 -30.6 -35.3 -34 -30.5 -34 -25.75 -34 -22.4 -30.6 -19 -27.25 -19 -22.5 -19 -17.7 -22.4 -14.35 L-24.05 -12.95 -24 -12.8"/>
    <path stroke="none" fill="#FFFFFF" d="M50 42.95 L49.7 43.75 Q49.4 44.1 48.95 44.1 L48.2 43.85 47.3 43.45 46.6 43.35 46 43.5 Q45.75 43.7 45.75 44.05 45.75 44.45 46.5 44.75 L48.15 45.45 Q49 45.8 49.65 46.4 50.25 47 50.25 48 50.25 48.9 49.8 49.6 L48.5 50.65 46.55 51.05 44.95 50.8 Q44.1 50.55 43.5 50.1 42.95 49.6 42.95 49.05 42.95 48.7 43.25 48.3 43.55 47.9 44.05 47.9 L44.65 48.05 45.35 48.35 46 48.7 46.75 48.8 47.55 48.65 47.75 48.05 Q47.75 47.7 47 47.35 L45.35 46.65 43.85 45.7 Q43.25 45.1 43.25 44.1 43.25 43.2 43.7 42.5 44.15 41.8 44.95 41.45 45.75 41.05 46.75 41.05 L48.25 41.25 Q48.95 41.5 49.5 41.9 50 42.35 50 42.95 M37.45 49.5 L37.45 42.45 Q37.45 41.85 37.85 41.5 38.25 41.15 38.8 41.15 40.05 41.15 40.05 42.25 L40.1 42.25 40.9 41.4 41.9 41.15 Q42.4 41.15 42.8 41.5 43.15 41.9 43.15 42.55 L42.95 43.15 42.4 43.5 41.6 43.8 40.45 44.5 Q40.05 44.85 40.05 45.55 L40.05 49.5 39.9 50.25 39.4 50.8 38.75 50.95 Q38.15 50.95 37.8 50.55 37.45 50.15 37.45 49.5 M4.8 49.5 L4.8 38.45 Q4.8 37.8 5.15 37.4 5.5 37 6.1 37 L6.75 37.15 7.25 37.7 7.4 38.45 7.4 49.5 7.25 50.25 6.75 50.8 6.1 50.95 Q5.5 50.95 5.15 50.55 4.8 50.15 4.8 49.5 M-5.5 53.35 L-5.5 42.6 Q-5.5 41.95 -5.15 41.55 -4.8 41.15 -4.2 41.15 -3.2 41.15 -2.9 42.25 -2.55 41.65 -1.9 41.35 L-0.45 41.05 Q0.85 41.05 1.8 41.8 2.75 42.5 3.25 43.7 3.75 44.85 3.75 46.2 3.75 47.4 3.2 48.55 2.65 49.7 1.7 50.4 0.7 51.05 -0.55 51.05 L-1.8 50.85 -2.9 50.15 -2.9 53.35 -3.1 54.1 -3.55 54.6 -4.2 54.75 Q-4.8 54.75 -5.15 54.4 L-5.5 53.35 M-2.9 46 Q-2.9 47.05 -2.4 47.85 -1.85 48.7 -0.9 48.7 -0.25 48.7 0.2 48.3 L0.9 47.35 1.15 46.1 0.9 44.8 0.2 43.85 Q-0.25 43.45 -0.9 43.45 -1.55 43.45 -2 43.8 -2.45 44.15 -2.7 44.75 L-2.9 46 M17.7 42.85 L17.7 49.25 17.5 50.5 Q17.3 50.95 16.45 50.95 L15.65 50.7 15.2 49.85 Q14.2 51.05 12.75 51.05 11.55 51.05 10.55 50.45 9.6 49.8 9 48.65 8.45 47.5 8.45 46.1 8.45 44.7 9.05 43.55 9.6 42.4 10.6 41.75 11.55 41.05 12.75 41.05 L14.15 41.35 15.2 42.25 Q15.25 41.75 15.6 41.45 16 41.15 16.45 41.15 17.3 41.15 17.5 41.65 L17.7 42.85 M21.4 50.1 L18.55 42.95 18.4 42.3 Q18.4 41.8 18.8 41.5 19.2 41.15 19.65 41.15 L20.45 41.4 20.95 42.1 22.7 46.95 24.6 42.1 25.15 41.4 Q25.45 41.15 25.9 41.15 26.35 41.15 26.75 41.5 27.15 41.8 27.15 42.3 L27 42.95 22.7 53.75 Q22.25 54.75 21.45 54.75 L20.45 54.45 Q20.1 54.1 20.1 53.65 L20.25 52.9 21.4 50.1 M11.05 46.1 L11.3 47.35 Q11.5 47.95 12 48.3 12.45 48.7 13.1 48.7 14.05 48.7 14.6 47.9 15.1 47.1 15.1 46.1 L14.9 44.8 14.2 43.8 Q13.75 43.45 13.1 43.45 12.45 43.45 12 43.8 11.5 44.2 11.3 44.8 L11.05 46.1 M35.45 46.95 L29.95 46.95 Q30.05 47.85 30.75 48.35 L32.35 48.8 33.4 48.6 34.4 48.1 Q35.05 47.75 35.3 47.75 L35.85 47.9 36.2 48.35 36.35 48.85 36 49.65 35 50.4 33.6 50.9 32.15 51.05 Q30.7 51.05 29.6 50.45 28.5 49.8 27.9 48.65 27.3 47.5 27.3 46.1 27.3 45.1 27.65 44.2 27.95 43.3 28.6 42.55 29.2 41.85 30.1 41.45 L31.95 41.05 Q32.95 41.05 33.8 41.5 34.7 41.9 35.3 42.6 L36.25 44.1 36.6 45.75 Q36.6 46.95 35.45 46.95 M29.85 45.2 L34 45.2 Q33.9 44.3 33.35 43.75 32.8 43.2 31.95 43.2 31.1 43.2 30.55 43.75 30 44.35 29.85 45.2 M-38.35 44.5 L-34.55 44.5 Q-34.05 44.55 -33.75 44.85 -33.5 45.15 -33.5 45.65 -33.5 46.1 -33.75 46.4 -34.05 46.75 -34.55 46.75 L-38.35 46.75 Q-38.85 46.75 -39.1 46.45 L-39.4 45.65 -39.1 44.85 Q-38.85 44.55 -38.35 44.5 M-25.35 49.55 L-25.35 40.5 -26.45 40.5 Q-27.05 40.5 -27.35 40.15 L-27.65 39.3 Q-27.65 38.8 -27.3 38.4 -27 38.05 -26.45 38.05 L-23.85 38.05 Q-23.3 38.05 -23 38.4 -22.65 38.75 -22.65 39.3 L-22.65 49.55 Q-22.65 50.25 -23.05 50.6 -23.4 50.95 -24 50.95 -24.6 50.95 -25 50.6 -25.35 50.2 -25.35 49.55 M-16.25 51.05 Q-18 51.05 -19.05 50.1 -20.1 49.1 -20.6 47.6 L-21.05 44.45 Q-21.05 42.8 -20.6 41.3 -20.1 39.8 -19.05 38.8 -18 37.8 -16.25 37.8 -14.95 37.8 -14.05 38.4 -13.15 39 -12.55 39.95 -12 40.95 -11.75 42.1 -11.5 43.25 -11.5 44.45 L-11.75 46.75 Q-12 47.95 -12.55 48.9 -13.15 49.9 -14.05 50.5 -14.95 51.05 -16.25 51.05 M-16.3 48.6 Q-15.45 48.6 -15 47.9 -14.6 47.2 -14.45 46.25 -14.3 45.35 -14.3 44.45 -14.3 42.8 -14.7 41.55 -15.1 40.25 -16.3 40.25 -17.5 40.25 -17.85 41.55 -18.25 42.85 -18.25 44.45 -18.25 46 -17.85 47.3 -17.45 48.6 -16.3 48.6 M-48.7 49.55 L-48.7 40.5 -49.8 40.5 Q-50.4 40.5 -50.7 40.15 L-51 39.3 Q-51 38.8 -50.65 38.4 -50.35 38.05 -49.8 38.05 L-47.2 38.05 Q-46.65 38.05 -46.35 38.4 -46 38.75 -46 39.3 L-46 49.55 Q-46 50.25 -46.4 50.6 -46.75 50.95 -47.35 50.95 -47.95 50.95 -48.35 50.6 L-48.7 49.55"/>
  </g>
</svg>