<svg xmlns="http://www.w3.org/2000/svg" xmlns:xlink="http://www.w3.org/1999/xlink">
  <defs/>
  <g>
    <path stroke="none" fill="#FFFFFF" d="M52 -49 Q52 -50.25 51.1 -51.15 50.25 -52 49 -52 47.75 -52 46.85 -51.15 46 -50.25 46 -49 46 -47.75 46.85 -46.9 47.75 -46 49 -46 50.25 -46 51.1 -46.9 52 -47.75 52 -49 M48.25 -58 Q58 -58 58 -48.2 L58 5 38 25 -48.2 25 Q-58 25 -58 15.25 L-58 -38 -38 -58 48.25 -58 M-46 17 Q-46 15.75 -46.9 14.85 -47.75 14 -49 14 -50.25 14 -51.15 14.85 -52 15.75 -52 17 -52 18.25 -51.15 19.1 -50.25 20 -49 20 -47.75 20 -46.9 19.1 -46 18.25 -46 17"/>
    <path stroke="none" fill="#11141E" d="M-46 17 Q-46 18.25 -46.9 19.1 -47.75 20 -49 20 -50.25 20 -51.15 19.1 -52 18.25 -52 17 -52 15.75 -51.15 14.85 -50.25 14 -49 14 -47.75 14 -46.9 14.85 -46 15.75 -46 17 M52 -49 Q52 -47.75 51.1 -46.9 50.25 -46 49 -46 47.75 -46 46.85 -46.9 46 -47.75 46 -49 46 -50.25 46.85 -51.15 47.75 -52 49 -52 50.25 -52 51.1 -51.15 52 -50.25 52 -49 M48.25 -64 Q64 -64 64 -48.2 L64 48.25 Q64 64 48.25 64 L-48.2 64 Q-64 64 -64 48.25 L-64 -49 Q-63.6 -63.1 -50 -63.95 L-50 -64 48.25 -64 M48.25 -58 L-38 -58 -58 -38 -58 15.25 Q-58 25 -48.2 25 L38 25 58 5 58 -48.2 Q58 -58 48.25 -58"/>
    <path stroke="none" fill="#11141E" d="M38 -12.8 L42.6 -3.6 Q43 -2.8 43 -1.9 L43 1.2 Q43 2.8 41.9 3.9 40.8 5 39.15 5 L23.85 5 Q22.25 5 21.15 3.9 20 2.8 20 1.2 L20 -1.9 Q20 -2.8 20.4 -3.6 L25 -12.8 25.1 -12.9 23.35 -14.35 Q20 -17.7 20 -22.5 20 -27.25 23.35 -30.6 26.7 -34 31.5 -34 36.25 -34 39.6 -30.6 43 -27.25 43 -22.5 43 -17.7 39.6 -14.35 L37.95 -12.95 38 -12.8 M-17 -9.05 Q-17 -11.05 -15.5 -12.5 -14.05 -14 -12 -14 L13 -14 Q15.05 -14 16.55 -12.5 18 -11.05 18 -9.05 L18 -7 Q18 -4.95 16.6 -3.45 L16.55 -3.4 Q15.45 -2.35 14 -2.1 L14 5 Q14 5.8 13.4 6.4 12.8 7 12 7 L8 7 Q7.2 7 6.6 6.4 6 5.8 6 5 L6 -2 -5 -2 -5 5 Q-5 5.8 -5.6 6.4 -6.2 7 -7 7 L-11 7 Q-11.8 7 -12.4 6.4 -13 5.8 -13 5 L-13 -2.1 Q-14.4 -2.35 -15.5 -3.45 -17 -4.95 -17 -7 L-17 -9.05 M-24 -12.8 L-19.4 -3.6 Q-19 -2.8 -19 -1.9 L-19 1.2 Q-19 2.8 -20.1 3.9 -21.2 5 -22.85 5 L-38.15 5 Q-39.75 5 -40.85 3.9 -42 2.8 -42 1.2 L-42 -1.9 Q-42 -2.8 -41.6 -3.6 L-37 -12.8 -36.9 -12.9 -38.65 -14.35 Q-42 -17.7 -42 -22.5 -42 -27.25 -38.65 -30.6 -35.3 -34 -30.5 -34 -25.75 -34 -22.4 -30.6 -19 -27.25 -19 -22.5 -19 -17.7 -22.4 -14.35 L-24.05 -12.95 -24 -12.8"/>
    <path stroke="none" fill="#FFFFFF" d="M48.2 42.95 L47.9 43.75 Q47.6 44.1 47.15 44.1 L46.4 43.85 45.5 43.45 44.8 43.35 44.2 43.5 Q43.95 43.7 43.95 44.05 43.95 44.45 44.7 44.75 L46.35 45.45 Q47.2 45.8 47.85 46.4 48.45 47 48.45 48 48.45 48.9 48 49.6 47.5 50.25 46.7 50.65 L44.75 51.05 43.15 50.8 Q42.3 50.55 41.7 50.1 41.15 49.6 41.15 49.05 41.15 48.7 41.45 48.3 41.75 47.9 42.25 47.9 L42.85 48.05 43.55 48.35 44.2 48.7 44.95 48.8 45.75 48.65 45.95 48.05 Q45.95 47.7 45.2 47.35 L43.55 46.65 Q42.65 46.3 42.05 45.7 41.45 45.1 41.45 44.1 41.45 43.2 41.9 42.5 42.35 41.8 43.15 41.45 43.95 41.05 44.95 41.05 L46.45 41.25 Q47.15 41.5 47.7 41.9 48.2 42.35 48.2 42.95 M35.65 49.5 L35.65 42.45 Q35.65 41.85 36.05 41.5 36.45 41.15 37 41.15 38.25 41.15 38.25 42.25 L38.3 42.25 39.1 41.4 40.1 41.15 Q40.6 41.15 41 41.5 41.35 41.9 41.35 42.55 L41.15 43.15 40.6 43.5 39.8 43.8 38.65 44.5 Q38.25 44.85 38.25 45.55 L38.25 49.5 38.1 50.25 37.6 50.8 36.95 50.95 Q36.35 50.95 36 50.55 35.65 50.15 35.65 49.5 M3 49.5 L3 38.45 Q3 37.8 3.35 37.4 3.7 37 4.3 37 L4.95 37.15 5.45 37.7 5.6 38.45 5.6 49.5 5.45 50.25 4.95 50.8 4.3 50.95 Q3.7 50.95 3.35 50.55 3 50.15 3 49.5 M-7.3 53.35 L-7.3 42.6 Q-7.3 41.95 -6.95 41.55 -6.6 41.15 -6 41.15 -5 41.15 -4.7 42.25 L-3.7 41.35 -2.25 41.05 Q-0.95 41.05 0 41.8 0.95 42.5 1.45 43.7 1.95 44.85 1.95 46.2 1.95 47.4 1.4 48.55 0.85 49.7 -0.1 50.4 -1.1 51.05 -2.35 51.05 L-3.6 50.85 -4.7 50.15 -4.7 53.35 -4.9 54.1 -5.35 54.6 -6 54.75 Q-6.6 54.75 -6.95 54.4 L-7.3 53.35 M9.25 46.1 L9.5 47.35 Q9.7 47.95 10.2 48.3 10.65 48.7 11.3 48.7 12.25 48.7 12.8 47.9 13.3 47.1 13.3 46.1 L13.1 44.8 12.4 43.8 Q11.95 43.45 11.3 43.45 10.65 43.45 10.2 43.8 L9.5 44.8 9.25 46.1 M15.9 42.85 L15.9 49.25 15.7 50.5 Q15.5 50.95 14.65 50.95 14.1 50.95 13.85 50.7 L13.4 49.85 Q12.4 51.05 10.95 51.05 9.75 51.05 8.75 50.45 7.8 49.8 7.2 48.65 6.65 47.5 6.65 46.1 6.65 44.7 7.25 43.55 7.8 42.4 8.8 41.75 9.75 41.05 10.95 41.05 L12.35 41.35 13.4 42.25 Q13.45 41.75 13.8 41.45 14.2 41.15 14.65 41.15 15.5 41.15 15.7 41.65 L15.9 42.85 M19.6 50.1 L16.75 42.95 16.6 42.3 Q16.6 41.8 17 41.5 17.4 41.15 17.85 41.15 L18.65 41.4 19.15 42.1 20.9 46.95 22.8 42.1 23.35 41.4 Q23.65 41.15 24.1 41.15 24.55 41.15 24.95 41.5 25.35 41.8 25.35 42.3 L25.2 42.95 20.9 53.75 Q20.45 54.75 19.65 54.75 L18.65 54.45 Q18.3 54.1 18.3 53.65 L18.45 52.9 19.6 50.1 M33.65 46.95 L28.15 46.95 Q28.25 47.85 28.95 48.35 L30.55 48.8 31.6 48.6 32.6 48.1 Q33.25 47.75 33.5 47.75 L34.05 47.9 34.4 48.35 34.55 48.85 Q34.55 49.3 34.2 49.65 L33.2 50.4 31.8 50.9 30.35 51.05 Q28.9 51.05 27.8 50.45 26.7 49.8 26.1 48.65 25.5 47.5 25.5 46.1 25.5 45.1 25.85 44.2 26.15 43.3 26.8 42.55 27.4 41.85 28.3 41.45 L30.15 41.05 Q31.15 41.05 32 41.5 32.9 41.9 33.5 42.6 L34.45 44.1 Q34.8 44.95 34.8 45.75 34.8 46.95 33.65 46.95 M28.05 45.2 L32.2 45.2 Q32.1 44.3 31.55 43.75 31 43.2 30.15 43.2 29.3 43.2 28.75 43.75 28.2 44.35 28.05 45.2 M-32.85 44.5 L-29.05 44.5 -28.25 44.85 Q-28 45.15 -28 45.65 -28 46.1 -28.25 46.4 L-29.05 46.75 -32.85 46.75 Q-33.35 46.75 -33.6 46.45 L-33.9 45.65 -33.6 44.85 Q-33.35 44.55 -32.85 44.5 M-43.75 48 L-48.1 48 -49.05 47.7 -49.35 46.95 -49.1 46.15 -45.1 38.85 -44.35 38.05 -43.25 37.8 -42.2 38.05 Q-41.75 38.3 -41.45 38.85 -41.15 39.35 -41.15 40.1 L-41.15 45.65 -40.85 45.65 -40.25 45.8 -39.75 46.2 Q-39.6 46.5 -39.6 46.85 L-39.75 47.45 -40.25 47.9 -40.85 48 -41.15 48 -41.15 49.55 Q-41.15 50.3 -41.45 50.6 -41.75 50.95 -42.45 50.95 -43.15 50.95 -43.45 50.6 -43.75 50.3 -43.75 49.55 L-43.75 48 M-20.9 49.05 L-16.4 40.5 -21 40.5 Q-21.65 40.5 -22 40.15 L-22.35 39.3 Q-22.35 38.75 -22 38.4 -21.7 38.05 -21 38.05 L-14.5 38.05 Q-13.85 38.05 -13.5 38.45 -13.2 38.9 -13.2 39.35 L-13.3 39.85 -13.6 40.5 -18.05 49.6 -18.55 50.45 -18.95 50.85 -19.6 50.95 Q-20.25 50.95 -20.65 50.55 L-21.05 49.7 -20.9 49.05 M-4.7 46 Q-4.7 47.05 -4.2 47.85 -3.65 48.7 -2.7 48.7 -2.05 48.7 -1.6 48.3 L-0.9 47.35 -0.65 46.1 Q-0.65 45.45 -0.9 44.8 -1.1 44.2 -1.6 43.85 -2.05 43.45 -2.7 43.45 -3.35 43.45 -3.8 43.8 L-4.5 44.75 -4.7 46 M-43.75 45.65 L-43.75 40.65 -43.8 40.65 -46.25 45.65 -43.75 45.65"/>
  </g>
</svg>