<svg xmlns="http://www.w3.org/2000/svg" xmlns:xlink="http://www.w3.org/1999/xlink">
  <defs/>
  <g>
    <path stroke="none" fill="#FFFFFF" d="M52 -49 Q52 -50.25 51.1 -51.15 50.25 -52 49 -52 47.75 -52 46.85 -51.15 46 -50.25 46 -49 46 -47.75 46.85 -46.9 47.75 -46 49 -46 50.25 -46 51.1 -46.9 52 -47.75 52 -49 M48.25 -58 Q58 -58 58 -48.2 L58 5 38 25 -48.2 25 Q-58 25 -58 15.25 L-58 -38 -38 -58 48.25 -58 M-46 17 Q-46 15.75 -46.9 14.85 -47.75 14 -49 14 -50.25 14 -51.15 14.85 -52 15.75 -52 17 -52 18.25 -51.15 19.1 -50.25 20 -49 20 -47.75 20 -46.9 19.1 -46 18.25 -46 17"/>
    <path stroke="none" fill="#11141E" d="M-46 17 Q-46 18.25 -46.9 19.1 -47.75 20 -49 20 -50.25 20 -51.15 19.1 -52 18.25 -52 17 -52 15.75 -51.15 14.85 -50.25 14 -49 14 -47.75 14 -46.9 14.85 -46 15.75 -46 17 M52 -49 Q52 -47.75 51.1 -46.9 50.25 -46 49 -46 47.75 -46 46.85 -46.9 46 -47.75 46 -49 46 -50.25 46.85 -51.15 47.75 -52 49 -52 50.25 -52 51.1 -51.15 52 -50.25 52 -49 M48.25 -64 Q64 -64 64 -48.2 L64 48.25 Q64 64 48.25 64 L-48.2 64 Q-64 64 -64 48.25 L-64 -49 Q-63.6 -63.1 -50 -63.95 L-50 -64 48.25 -64 M48.25 -58 L-38 -58 -58 -38 -58 15.25 Q-58 25 -48.2 25 L38 25 58 5 58 -48.2 Q58 -58 48.25 -58"/>
    <path stroke="none" fill="#11141E" d="M38 -12.8 L42.6 -3.6 Q43 -2.8 43 -1.9 L43 1.2 Q43 2.8 41.9 3.9 40.8 5 39.15 5 L23.85 5 Q22.25 5 21.15 3.9 20 2.8 20 1.2 L20 -1.9 Q20 -2.8 20.4 -3.6 L25 -12.8 25.1 -12.9 23.35 -14.35 Q20 -17.7 20 -22.5 20 -27.25 23.35 -30.6 26.7 -34 31.5 -34 36.25 -34 39.6 -30.6 43 -27.25 43 -22.5 43 -17.7 39.6 -14.35 L37.95 -12.95 38 -12.8 M-17 -9.05 Q-17 -11.05 -15.5 -12.5 -14.05 -14 -12 -14 L13 -14 Q15.05 -14 16.55 -12.5 18 -11.05 18 -9.05 L18 -7 Q18 -4.95 16.6 -3.45 L16.55 -3.4 Q15.45 -2.35 14 -2.1 L14 5 Q14 5.8 13.4 6.4 12.8 7 12 7 L8 7 Q7.2 7 6.6 6.4 6 5.8 6 5 L6 -2 -5 -2 -5 5 Q-5 5.8 -5.6 6.4 -6.2 7 -7 7 L-11 7 Q-11.8 7 -12.4 6.4 -13 5.8 -13 5 L-13 -2.1 Q-14.4 -2.35 -15.5 -3.45 -17 -4.95 -17 -7 L-17 -9.05 M-24 -12.8 L-19.4 -3.6 Q-19 -2.8 -19 -1.9 L-19 1.2 Q-19 2.8 -20.1 3.9 -21.2 5 -22.85 5 L-38.15 5 Q-39.75 5 -40.85 3.9 -42 2.8 -42 1.2 L-42 -1.9 Q-42 -2.8 -41.6 -3.6 L-37 -12.8 -36.9 -12.9 -38.65 -14.35 Q-42 -17.7 -42 -22.5 -42 -27.25 -38.65 -30.6 -35.3 -34 -30.5 -34 -25.75 -34 -22.4 -30.6 -19 -27.25 -19 -22.5 -19 -17.7 -22.4 -14.35 L-24.05 -12.95 -24 -12.8"/>
    <path stroke="none" fill="#FFFFFF" d="M51.85 42.95 L51.55 43.75 Q51.25 44.1 50.8 44.1 L50.05 43.85 49.15 43.45 48.45 43.35 47.85 43.5 Q47.6 43.7 47.6 44.05 47.6 44.45 48.35 44.75 L50 45.45 51.5 46.4 Q52.1 47 52.1 48 52.1 48.9 51.65 49.6 L50.35 50.65 48.4 51.05 46.8 50.8 Q45.95 50.55 45.35 50.1 44.8 49.6 44.8 49.05 44.8 48.7 45.1 48.3 45.4 47.9 45.9 47.9 L46.5 48.05 47.2 48.35 47.85 48.7 48.6 48.8 49.4 48.65 49.6 48.05 Q49.6 47.7 48.85 47.35 L47.2 46.65 45.7 45.7 Q45.1 45.1 45.1 44.1 45.1 43.2 45.55 42.5 46 41.8 46.8 41.45 L48.6 41.05 50.1 41.25 Q50.8 41.5 51.35 41.9 51.85 42.35 51.85 42.95 M39.3 49.5 L39.3 42.45 Q39.3 41.85 39.7 41.5 40.1 41.15 40.65 41.15 41.9 41.15 41.9 42.25 L41.95 42.25 42.75 41.4 43.75 41.15 Q44.25 41.15 44.65 41.5 45 41.9 45 42.55 L44.8 43.15 44.25 43.5 43.45 43.8 42.3 44.5 Q41.9 44.85 41.9 45.55 L41.9 49.5 41.75 50.25 41.25 50.8 40.6 50.95 Q40 50.95 39.65 50.55 39.3 50.15 39.3 49.5 M6.65 49.5 L6.65 38.45 Q6.65 37.8 7 37.4 7.35 37 7.95 37 L8.6 37.15 9.1 37.7 9.25 38.45 9.25 49.5 9.1 50.25 8.6 50.8 7.95 50.95 Q7.35 50.95 7 50.55 6.65 50.15 6.65 49.5 M-3.65 53.35 L-3.65 42.6 Q-3.65 41.95 -3.3 41.55 -2.95 41.15 -2.35 41.15 -1.35 41.15 -1.05 42.25 -0.7 41.65 -0.05 41.35 L1.4 41.05 Q2.7 41.05 3.65 41.8 4.6 42.5 5.1 43.7 5.6 44.85 5.6 46.2 5.6 47.4 5.05 48.55 4.5 49.7 3.55 50.4 L1.3 51.05 0.05 50.85 -1.05 50.15 -1.05 53.35 -1.25 54.1 -1.7 54.6 -2.35 54.75 Q-2.95 54.75 -3.3 54.4 L-3.65 53.35 M-1.05 46 Q-1.05 47.05 -0.55 47.85 0 48.7 0.95 48.7 1.6 48.7 2.05 48.3 L2.75 47.35 3 46.1 2.75 44.8 2.05 43.85 Q1.6 43.45 0.95 43.45 0.3 43.45 -0.15 43.8 L-0.85 44.75 -1.05 46 M19.55 42.85 L19.55 49.25 19.35 50.5 Q19.15 50.95 18.3 50.95 L17.5 50.7 17.05 49.85 Q16.05 51.05 14.6 51.05 13.4 51.05 12.4 50.45 11.45 49.8 10.85 48.65 10.3 47.5 10.3 46.1 10.3 44.7 10.9 43.55 11.45 42.4 12.45 41.75 13.4 41.05 14.6 41.05 L16 41.35 17.05 42.25 Q17.1 41.75 17.45 41.45 L18.3 41.15 Q19.15 41.15 19.35 41.65 L19.55 42.85 M12.9 46.1 L13.15 47.35 13.85 48.3 Q14.3 48.7 14.95 48.7 15.9 48.7 16.45 47.9 16.95 47.1 16.95 46.1 L16.75 44.8 16.05 43.8 Q15.6 43.45 14.95 43.45 14.3 43.45 13.85 43.8 13.35 44.2 13.15 44.8 12.9 45.45 12.9 46.1 M23.25 50.1 L20.4 42.95 20.25 42.3 Q20.25 41.8 20.65 41.5 21.05 41.15 21.5 41.15 L22.3 41.4 22.8 42.1 24.55 46.95 26.45 42.1 27 41.4 Q27.3 41.15 27.75 41.15 28.2 41.15 28.6 41.5 29 41.8 29 42.3 L28.85 42.95 24.55 53.75 Q24.1 54.75 23.3 54.75 22.7 54.75 22.3 54.45 21.95 54.1 21.95 53.65 L22.1 52.9 23.25 50.1 M37.3 46.95 L31.8 46.95 Q31.9 47.85 32.6 48.35 L34.2 48.8 35.25 48.6 36.25 48.1 Q36.9 47.75 37.15 47.75 L37.7 47.9 38.05 48.35 38.2 48.85 Q38.2 49.3 37.85 49.65 L36.85 50.4 35.45 50.9 34 51.05 Q32.55 51.05 31.45 50.45 30.35 49.8 29.75 48.65 29.15 47.5 29.15 46.1 29.15 45.1 29.5 44.2 29.8 43.3 30.45 42.55 31.05 41.85 31.95 41.45 L33.8 41.05 Q34.8 41.05 35.65 41.5 L37.15 42.6 38.1 44.1 Q38.45 44.95 38.45 45.75 38.45 46.95 37.3 46.95 M31.7 45.2 L35.85 45.2 Q35.75 44.3 35.2 43.75 34.65 43.2 33.8 43.2 32.95 43.2 32.4 43.75 31.85 44.35 31.7 45.2 M-36.5 44.5 L-32.7 44.5 Q-32.2 44.55 -31.9 44.85 -31.65 45.15 -31.65 45.65 L-31.9 46.4 Q-32.2 46.75 -32.7 46.75 L-36.5 46.75 -37.25 46.45 -37.55 45.65 -37.25 44.85 Q-37 44.55 -36.5 44.5 M-23.5 49.55 L-23.5 40.5 -24.6 40.5 Q-25.2 40.5 -25.5 40.15 L-25.8 39.3 Q-25.8 38.8 -25.45 38.4 -25.15 38.05 -24.6 38.05 L-22 38.05 Q-21.45 38.05 -21.15 38.4 -20.8 38.75 -20.8 39.3 L-20.8 49.55 Q-20.8 50.25 -21.2 50.6 -21.55 50.95 -22.15 50.95 -22.75 50.95 -23.15 50.6 L-23.5 49.55 M-14.45 48.6 Q-13.6 48.6 -13.15 47.9 L-12.6 46.25 Q-12.45 45.35 -12.45 44.45 -12.45 42.8 -12.85 41.55 -13.25 40.25 -14.45 40.25 -15.65 40.25 -16 41.55 -16.4 42.85 -16.4 44.45 -16.4 46 -16 47.3 -15.6 48.6 -14.45 48.6 M-14.4 51.05 Q-16.15 51.05 -17.2 50.1 -18.25 49.1 -18.75 47.6 L-19.2 44.45 Q-19.2 42.8 -18.75 41.3 -18.25 39.8 -17.2 38.8 -16.15 37.8 -14.4 37.8 -13.1 37.8 -12.2 38.4 -11.3 39 -10.7 39.95 -10.15 40.95 -9.9 42.1 -9.65 43.25 -9.65 44.45 -9.65 45.6 -9.9 46.75 -10.15 47.95 -10.7 48.9 -11.3 49.9 -12.2 50.5 -13.1 51.05 -14.4 51.05 M-48.4 37.8 Q-47.2 37.8 -46.35 38.35 -45.45 38.85 -45.05 39.6 -44.6 40.4 -44.6 41.1 -44.6 41.95 -44.95 42.7 -45.35 43.4 -46.05 43.85 -45.05 44.35 -44.45 45.2 -43.85 46.05 -43.85 47.1 -43.85 48.15 -44.45 49.05 -45.05 50 -46.1 50.55 L-48.4 51.05 Q-49.65 51.05 -50.65 50.55 L-52.15 49.2 Q-52.7 48.4 -52.7 47.7 -52.7 47.2 -52.3 46.8 -51.85 46.45 -51.35 46.45 -50.85 46.45 -50.3 47.25 L-49.5 48.3 Q-49.25 48.6 -48.35 48.6 L-47.5 48.35 -46.9 47.75 Q-46.65 47.4 -46.65 46.9 -46.65 46.05 -47.05 45.75 -47.45 45.45 -48.25 45.35 L-49.35 45.05 Q-49.75 44.8 -49.75 44.1 -49.75 43.5 -49.4 43.25 L-48.45 42.85 Q-47.8 42.7 -47.5 42.4 -47.2 42.15 -47.2 41.5 -47.2 41 -47.55 40.65 -47.9 40.3 -48.45 40.3 L-49.4 40.55 -50 41.2 -50.55 41.85 -51.15 42.05 Q-51.7 42.05 -52 41.65 -52.35 41.25 -52.35 40.75 -52.35 40.2 -52 39.7 L-51.15 38.75 -49.85 38.05 -48.4 37.8"/>
  </g>
</svg>