<svg xmlns="http://www.w3.org/2000/svg" xmlns:xlink="http://www.w3.org/1999/xlink">
  <defs/>
  <g>
    <path stroke="none" fill="#FFFFFF" d="M52 -49 Q52 -50.25 51.1 -51.15 50.25 -52 49 -52 47.75 -52 46.85 -51.15 46 -50.25 46 -49 46 -47.75 46.85 -46.9 47.75 -46 49 -46 50.25 -46 51.1 -46.9 52 -47.75 52 -49 M48.25 -58 Q58 -58 58 -48.2 L58 5 38 25 -48.2 25 Q-58 25 -58 15.25 L-58 -38 -38 -58 48.25 -58 M-46 17 Q-46 15.75 -46.9 14.85 -47.75 14 -49 14 -50.25 14 -51.15 14.85 -52 15.75 -52 17 -52 18.25 -51.15 19.1 -50.25 20 -49 20 -47.75 20 -46.9 19.1 -46 18.25 -46 17"/>
    <path stroke="none" fill="#11141E" d="M-46 17 Q-46 18.25 -46.9 19.1 -47.75 20 -49 20 -50.25 20 -51.15 19.1 -52 18.25 -52 17 -52 15.75 -51.15 14.85 -50.25 14 -49 14 -47.75 14 -46.9 14.85 -46 15.75 -46 17 M52 -49 Q52 -47.75 51.1 -46.9 50.25 -46 49 -46 47.75 -46 46.85 -46.9 46 -47.75 46 -49 46 -50.25 46.85 -51.15 47.75 -52 49 -52 50.25 -52 51.1 -51.15 52 -50.25 52 -49 M48.25 -58 L-38 -58 -58 -38 -58 15.25 Q-58 25 -48.2 25 L38 25 58 5 58 -48.2 Q58 -58 48.25 -58 M48.25 -64 Q64 -64 64 -48.2 L64 48.25 Q64 64 48.25 64 L-48.2 64 Q-64 64 -64 48.25 L-64 -49 Q-63.6 -63.1 -50 -63.95 L-50 -64 48.25 -64"/>
    <path stroke="none" fill="#11141E" d="M38 -12.8 L42.6 -3.6 Q43 -2.8 43 -1.9 L43 1.2 Q43 2.8 41.9 3.9 40.8 5 39.15 5 L23.85 5 Q22.25 5 21.15 3.9 20 2.8 20 1.2 L20 -1.9 Q20 -2.8 20.4 -3.6 L25 -12.8 25.1 -12.9 23.35 -14.35 Q20 -17.7 20 -22.5 20 -27.25 23.35 -30.6 26.7 -34 31.5 -34 36.25 -34 39.6 -30.6 43 -27.25 43 -22.5 43 -17.7 39.6 -14.35 L37.95 -12.95 38 -12.8 M-17 -9.05 Q-17 -11.05 -15.5 -12.5 -14.05 -14 -12 -14 L13 -14 Q15.05 -14 16.55 -12.5 18 -11.05 18 -9.05 L18 -7 Q18 -4.95 16.6 -3.45 L16.55 -3.4 Q15.45 -2.35 14 -2.1 L14 5 Q14 5.8 13.4 6.4 12.8 7 12 7 L8 7 Q7.2 7 6.6 6.4 6 5.8 6 5 L6 -2 -5 -2 -5 5 Q-5 5.8 -5.6 6.4 -6.2 7 -7 7 L-11 7 Q-11.8 7 -12.4 6.4 -13 5.8 -13 5 L-13 -2.1 Q-14.4 -2.35 -15.5 -3.45 -17 -4.95 -17 -7 L-17 -9.05 M-24 -12.8 L-19.4 -3.6 Q-19 -2.8 -19 -1.9 L-19 1.2 Q-19 2.8 -20.1 3.9 -21.2 5 -22.85 5 L-38.15 5 Q-39.75 5 -40.85 3.9 -42 2.8 -42 1.2 L-42 -1.9 Q-42 -2.8 -41.6 -3.6 L-37 -12.8 -36.9 -12.9 -38.65 -14.35 Q-42 -17.7 -42 -22.5 -42 -27.25 -38.65 -30.6 -35.3 -34 -30.5 -34 -25.75 -34 -22.4 -30.6 -19 -27.25 -19 -22.5 -19 -17.7 -22.4 -14.35 L-24.05 -12.95 -24 -12.8"/>
  </g>
</svg>