<svg xmlns="http://www.w3.org/2000/svg" xmlns:xlink="http://www.w3.org/1999/xlink">
  <defs/>
  <g>
    <path stroke="none" fill="#FFFFFF" d="M52 -49 Q52 -50.25 51.1 -51.15 50.25 -52 49 -52 47.75 -52 46.85 -51.15 46 -50.25 46 -49 46 -47.75 46.85 -46.9 47.75 -46 49 -46 50.25 -46 51.1 -46.9 52 -47.75 52 -49 M48.25 -58 Q58 -58 58 -48.2 L58 5 38 25 -48.2 25 Q-58 25 -58 15.25 L-58 -38 -38 -58 48.25 -58 M-46 17 Q-46 15.75 -46.9 14.85 -47.75 14 -49 14 -50.25 14 -51.15 14.85 -52 15.75 -52 17 -52 18.25 -51.15 19.1 -50.25 20 -49 20 -47.75 20 -46.9 19.1 -46 18.25 -46 17"/>
    <path stroke="none" fill="#11141E" d="M-46 17 Q-46 18.25 -46.9 19.1 -47.75 20 -49 20 -50.25 20 -51.15 19.1 -52 18.25 -52 17 -52 15.75 -51.15 14.85 -50.25 14 -49 14 -47.75 14 -46.9 14.85 -46 15.75 -46 17 M52 -49 Q52 -47.75 51.1 -46.9 50.25 -46 49 -46 47.75 -46 46.85 -46.9 46 -47.75 46 -49 46 -50.25 46.85 -51.15 47.75 -52 49 -52 50.25 -52 51.1 -51.15 52 -50.25 52 -49 M48.25 -64 Q64 -64 64 -48.2 L64 48.25 Q64 64 48.25 64 L-48.2 64 Q-64 64 -64 48.25 L-64 -49 Q-63.6 -63.1 -50 -63.95 L-50 -64 48.25 -64 M48.25 -58 L-38 -58 -58 -38 -58 15.25 Q-58 25 -48.2 25 L38 25 58 5 58 -48.2 Q58 -58 48.25 -58"/>
    <path stroke="none" fill="#11141E" d="M38 -12.8 L42.6 -3.6 Q43 -2.8 43 -1.9 L43 1.2 Q43 2.8 41.9 3.9 40.8 5 39.15 5 L23.85 5 Q22.25 5 21.15 3.9 20 2.8 20 1.2 L20 -1.9 Q20 -2.8 20.4 -3.6 L25 -12.8 25.1 -12.9 23.35 -14.35 Q20 -17.7 20 -22.5 20 -27.25 23.35 -30.6 26.7 -34 31.5 -34 36.25 -34 39.6 -30.6 43 -27.25 43 -22.5 43 -17.7 39.6 -14.35 L37.95 -12.95 38 -12.8 M36.8 -27.75 L36.75 -27.8 Q34.6 -30 31.5 -30 28.4 -30 26.2 -27.8 L26.2 -27.75 Q24 -25.6 24 -22.5 24 -19.35 26.2 -17.15 26.7 -16.65 27.35 -16.2 28.35 -15.5 28.8 -14.4 29.25 -13.3 29.05 -12.1 L28.4 -10.6 24 -1.85 24 1 39 1 39 -1.85 34.75 -10.4 Q33.95 -11.35 33.95 -12.95 33.95 -13.9 34.4 -14.75 34.85 -15.65 35.65 -16.2 L36.8 -17.15 36.8 -17.2 Q39 -19.4 39 -22.5 39 -25.6 36.8 -27.75 M-17 -9.05 Q-17 -11.05 -15.5 -12.5 -14.05 -14 -12 -14 L13 -14 Q15.05 -14 16.55 -12.5 18 -11.05 18 -9.05 L18 -7 Q18 -4.95 16.6 -3.45 L16.55 -3.4 Q15.45 -2.35 14 -2.1 L14 5 Q14 5.8 13.4 6.4 12.8 7 12 7 L8 7 Q7.2 7 6.6 6.4 6 5.8 6 5 L6 -2 -5 -2 -5 5 Q-5 5.8 -5.6 6.4 -6.2 7 -7 7 L-11 7 Q-11.8 7 -12.4 6.4 -13 5.8 -13 5 L-13 -2.1 Q-14.4 -2.35 -15.5 -3.45 -17 -4.95 -17 -7 L-17 -9.05 M-24 -12.8 L-19.4 -3.6 Q-19 -2.8 -19 -1.9 L-19 1.2 Q-19 2.8 -20.1 3.9 -21.2 5 -22.85 5 L-38.15 5 Q-39.75 5 -40.85 3.9 -42 2.8 -42 1.2 L-42 -1.9 Q-42 -2.8 -41.6 -3.6 L-37 -12.8 -36.9 -12.9 -38.65 -14.35 Q-42 -17.7 -42 -22.5 -42 -27.25 -38.65 -30.6 -35.3 -34 -30.5 -34 -25.75 -34 -22.4 -30.6 -19 -27.25 -19 -22.5 -19 -17.7 -22.4 -14.35 L-24.05 -12.95 -24 -12.8"/>
    <path stroke="none" fill="#FFFFFF" d="M9.4 50.1 L6.55 42.95 6.4 42.3 Q6.4 41.8 6.8 41.5 7.2 41.15 7.65 41.15 L8.45 41.4 8.95 42.1 10.7 46.95 12.6 42.1 13.15 41.4 Q13.45 41.15 13.9 41.15 14.35 41.15 14.75 41.5 15.15 41.8 15.15 42.3 L15 42.95 10.7 53.75 Q10.25 54.75 9.45 54.75 L8.45 54.45 Q8.1 54.1 8.1 53.65 L8.25 52.9 9.4 50.1 M5.7 42.85 L5.7 49.25 5.5 50.5 Q5.3 50.95 4.45 50.95 L3.65 50.7 3.2 49.85 Q2.2 51.05 0.75 51.05 -0.45 51.05 -1.45 50.45 L-3 48.65 Q-3.55 47.5 -3.55 46.1 -3.55 44.7 -2.95 43.55 -2.4 42.4 -1.4 41.75 -0.45 41.05 0.75 41.05 1.45 41.05 2.15 41.35 L3.2 42.25 Q3.25 41.75 3.6 41.45 4 41.15 4.45 41.15 5.3 41.15 5.5 41.65 L5.7 42.85 M-0.95 46.1 L-0.7 47.35 0 48.3 Q0.45 48.7 1.1 48.7 2.05 48.7 2.6 47.9 3.1 47.1 3.1 46.1 L2.9 44.8 2.2 43.8 Q1.75 43.45 1.1 43.45 0.45 43.45 0 43.8 L-0.7 44.8 -0.95 46.1 M23.45 46.95 L17.95 46.95 Q18.05 47.85 18.75 48.35 L20.35 48.8 21.4 48.6 22.4 48.1 23.3 47.75 23.85 47.9 24.2 48.35 24.35 48.85 24 49.65 23 50.4 21.6 50.9 20.15 51.05 Q18.7 51.05 17.6 50.45 16.5 49.8 15.9 48.65 15.3 47.5 15.3 46.1 15.3 45.1 15.65 44.2 15.95 43.3 16.6 42.55 17.2 41.85 18.1 41.45 L19.95 41.05 Q20.95 41.05 21.8 41.5 L23.3 42.6 24.25 44.1 Q24.6 44.95 24.6 45.75 24.6 46.95 23.45 46.95 M17.85 45.2 L22 45.2 Q21.9 44.3 21.35 43.75 20.8 43.2 19.95 43.2 19.1 43.2 18.55 43.75 18 44.35 17.85 45.2 M25.45 49.5 L25.45 42.45 Q25.45 41.85 25.85 41.5 26.25 41.15 26.8 41.15 28.05 41.15 28.05 42.25 L28.1 42.25 28.9 41.4 29.9 41.15 Q30.4 41.15 30.8 41.5 31.15 41.9 31.15 42.55 L30.95 43.15 30.4 43.5 29.6 43.8 28.45 44.5 Q28.05 44.85 28.05 45.55 L28.05 49.5 27.9 50.25 27.4 50.8 26.75 50.95 Q26.15 50.95 25.8 50.55 25.45 50.15 25.45 49.5 M-27 49.55 L-27 40.5 -28.1 40.5 -29 40.15 -29.3 39.3 Q-29.3 38.8 -28.95 38.4 -28.65 38.05 -28.1 38.05 L-25.5 38.05 Q-24.95 38.05 -24.65 38.4 -24.3 38.75 -24.3 39.3 L-24.3 49.55 Q-24.3 50.25 -24.7 50.6 -25.05 50.95 -25.65 50.95 L-26.65 50.6 Q-27 50.2 -27 49.55 M-17.5 53.35 L-17.5 42.6 Q-17.5 41.95 -17.15 41.55 -16.8 41.15 -16.2 41.15 -15.2 41.15 -14.9 42.25 -14.55 41.65 -13.9 41.35 L-12.45 41.05 Q-11.15 41.05 -10.2 41.8 -9.25 42.5 -8.75 43.7 -8.25 44.85 -8.25 46.2 -8.25 47.4 -8.8 48.55 -9.35 49.7 -10.3 50.4 -11.3 51.05 -12.55 51.05 L-13.8 50.85 -14.9 50.15 -14.9 53.35 -15.1 54.1 -15.55 54.6 -16.2 54.75 Q-16.8 54.75 -17.15 54.4 L-17.5 53.35 M-14.9 46 Q-14.9 47.05 -14.4 47.85 -13.85 48.7 -12.9 48.7 -12.25 48.7 -11.8 48.3 L-11.1 47.35 -10.85 46.1 -11.1 44.8 Q-11.3 44.2 -11.8 43.85 -12.25 43.45 -12.9 43.45 -13.55 43.45 -14 43.8 L-14.7 44.75 -14.9 46 M-7.2 49.5 L-7.2 38.45 Q-7.2 37.8 -6.85 37.4 -6.5 37 -5.9 37 L-5.25 37.15 Q-4.95 37.35 -4.75 37.7 -4.6 38 -4.6 38.45 L-4.6 49.5 -4.75 50.25 -5.25 50.8 -5.9 50.95 Q-6.5 50.95 -6.85 50.55 -7.2 50.15 -7.2 49.5"/>
  </g>
</svg>