<svg xmlns="http://www.w3.org/2000/svg" xmlns:xlink="http://www.w3.org/1999/xlink">
  <defs/>
  <g>
    <path stroke="none" fill="#FFFFFF" d="M52 -49 Q52 -50.25 51.1 -51.15 50.25 -52 49 -52 47.75 -52 46.85 -51.15 46 -50.25 46 -49 46 -47.75 46.85 -46.9 47.75 -46 49 -46 50.25 -46 51.1 -46.9 52 -47.75 52 -49 M48.25 -58 Q58 -58 58 -48.2 L58 5 38 25 -48.2 25 Q-58 25 -58 15.25 L-58 -38 -38 -58 48.25 -58 M-46 17 Q-46 15.75 -46.9 14.85 -47.75 14 -49 14 -50.25 14 -51.15 14.85 -52 15.75 -52 17 -52 18.25 -51.15 19.1 -50.25 20 -49 20 -47.75 20 -46.9 19.1 -46 18.25 -46 17"/>
    <path stroke="none" fill="#11141E" d="M-46 17 Q-46 18.25 -46.9 19.1 -47.75 20 -49 20 -50.25 20 -51.15 19.1 -52 18.25 -52 17 -52 15.75 -51.15 14.85 -50.25 14 -49 14 -47.75 14 -46.9 14.85 -46 15.75 -46 17 M52 -49 Q52 -47.75 51.1 -46.9 50.25 -46 49 -46 47.75 -46 46.85 -46.9 46 -47.75 46 -49 46 -50.25 46.85 -51.15 47.75 -52 49 -52 50.25 -52 51.1 -51.15 52 -50.25 52 -49 M48.25 -64 Q64 -64 64 -48.2 L64 48.25 Q64 64 48.25 64 L-48.2 64 Q-64 64 -64 48.25 L-64 -49 Q-63.6 -63.1 -50 -63.95 L-50 -64 48.25 -64 M48.25 -58 L-38 -58 -58 -38 -58 15.25 Q-58 25 -48.2 25 L38 25 58 5 58 -48.2 Q58 -58 48.25 -58"/>
    <path stroke="none" fill="#11141E" d="M14 -40 L-14 -40 Q-17 -40 -17 -37 L-17 -5.8 Q-16.9 -3 -14 -3 L14 -3 Q16.85 -3 17 -5.75 L17 -37 Q17 -40 14 -40 M-14 -46 L14 -46 Q23 -46 23 -37 L23 4 Q23 13 14 13 L-14 13 Q-23 13 -23 4 L-23 -37 Q-23 -46 -14 -46 M4 5 Q4 3.3 2.8 2.1 1.7 1 0 1 -1.7 1 -2.85 2.1 -4 3.3 -4 5 -4 6.65 -2.85 7.8 -1.7 9 0 9 1.7 9 2.8 7.8 4 6.65 4 5"/>
    <path stroke="none" fill="#FFFFFF" d="M5.35 49.5 L5.35 38.45 Q5.35 37.8 5.7 37.4 6.05 37 6.65 37 L7.3 37.15 7.8 37.7 7.95 38.45 7.95 49.5 7.8 50.25 7.3 50.8 6.65 50.95 Q6.05 50.95 5.7 50.55 5.35 50.15 5.35 49.5 M-4.95 49.5 L-4.95 38.45 Q-4.95 37.8 -4.6 37.4 -4.25 37 -3.65 37 L-3 37.15 -2.55 37.7 -2.35 38.45 -2.35 41.95 Q-1.9 41.5 -1.25 41.3 L0.1 41.05 Q1.4 41.05 2.35 41.8 3.3 42.5 3.8 43.7 4.3 44.85 4.3 46.2 4.3 47.4 3.75 48.55 3.2 49.7 2.25 50.4 1.25 51.05 0 51.05 L-1.35 50.75 -2.35 49.9 Q-2.65 50.95 -3.65 50.95 -4.25 50.95 -4.6 50.55 -4.95 50.15 -4.95 49.5 M-2.35 46 Q-2.35 47.05 -1.85 47.85 -1.3 48.7 -0.35 48.7 0.3 48.7 0.75 48.3 L1.45 47.35 1.7 46.1 1.45 44.8 Q1.25 44.2 0.75 43.85 0.3 43.45 -0.35 43.45 -1 43.45 -1.45 43.8 -1.9 44.15 -2.15 44.75 L-2.35 46 M17 46.95 L11.5 46.95 Q11.6 47.85 12.3 48.35 L13.9 48.8 14.95 48.6 15.95 48.1 Q16.6 47.75 16.85 47.75 L17.4 47.9 17.75 48.35 17.9 48.85 17.55 49.65 16.55 50.4 15.15 50.9 13.7 51.05 Q12.25 51.05 11.15 50.45 10.05 49.8 9.45 48.65 8.85 47.5 8.85 46.1 8.85 45.1 9.2 44.2 9.5 43.3 10.15 42.55 10.75 41.85 11.65 41.45 L13.5 41.05 Q14.5 41.05 15.35 41.5 16.25 41.9 16.85 42.6 L17.8 44.1 Q18.15 44.95 18.15 45.75 18.15 46.95 17 46.95 M19.65 49.5 L19.65 43.55 19.1 43.55 Q18.6 43.55 18.25 43.25 17.95 42.9 17.95 42.4 17.95 41.9 18.3 41.6 18.6 41.25 19.1 41.25 L19.65 41.25 19.65 39.7 Q19.65 39.1 20.05 38.7 20.4 38.3 20.95 38.3 L21.65 38.45 22.1 39 22.25 39.7 22.25 41.25 23 41.25 Q23.55 41.25 23.9 41.55 24.25 41.8 24.25 42.4 24.25 43 23.9 43.25 L23 43.55 22.25 43.55 22.25 49.5 22.1 50.25 21.65 50.75 20.95 50.95 Q20.4 50.95 20.05 50.55 19.65 50.15 19.65 49.5 M11.4 45.2 L15.55 45.2 Q15.45 44.3 14.9 43.75 14.35 43.2 13.5 43.2 12.65 43.2 12.1 43.75 11.55 44.35 11.4 45.2 M-21.75 49.55 L-21.75 40.5 -23.7 40.5 Q-24.3 40.5 -24.6 40.15 L-24.9 39.3 -24.75 38.65 -24.3 38.2 -23.7 38.05 -17.05 38.05 -16.45 38.2 -16 38.65 Q-15.85 38.95 -15.85 39.3 -15.85 39.8 -16.15 40.15 -16.45 40.5 -17.05 40.5 L-19.05 40.5 -19.05 49.55 Q-19.05 50.25 -19.4 50.6 -19.8 50.95 -20.4 50.95 -21 50.95 -21.35 50.6 -21.75 50.25 -21.75 49.55 M-6.45 42.85 L-6.45 49.25 -6.65 50.5 Q-6.85 50.95 -7.7 50.95 L-8.5 50.7 -8.95 49.85 Q-9.95 51.05 -11.4 51.05 -12.6 51.05 -13.6 50.45 -14.55 49.8 -15.15 48.65 -15.7 47.5 -15.7 46.1 -15.7 44.7 -15.1 43.55 -14.55 42.4 -13.55 41.75 -12.6 41.05 -11.4 41.05 -10.7 41.05 -10 41.35 -9.35 41.65 -8.95 42.25 L-8.55 41.45 Q-8.15 41.15 -7.7 41.15 -6.85 41.15 -6.65 41.65 L-6.45 42.85 M-13.1 46.1 L-12.85 47.35 -12.15 48.3 Q-11.7 48.7 -11.05 48.7 -10.1 48.7 -9.55 47.9 -9.05 47.1 -9.05 46.1 L-9.25 44.8 -9.95 43.8 Q-10.4 43.45 -11.05 43.45 -11.7 43.45 -12.15 43.8 L-12.85 44.8 -13.1 46.1"/>
  </g>
</svg>