<svg xmlns="http://www.w3.org/2000/svg" xmlns:xlink="http://www.w3.org/1999/xlink">
  <defs/>
  <g>
    <path stroke="none" fill="#11141E" d="M-48.2 -64 L34 -64 36.45 -61.65 Q37.1 -61.05 38 -61 38.85 -61.05 39.5 -61.65 L42 -64 48.85 -64 49.45 -63.95 Q59.35 -63.6 62.5 -56.45 64 -53.1 64 -48.2 L64 48.25 Q64 53.1 62.5 56.5 59.15 64 48.25 64 L-40.35 64 -42.7 61.65 Q-43.3 61.05 -44.15 61 -45 61.05 -45.6 61.65 L-47.95 64 -48.2 64 Q-64 64 -64 48.25 L-64 -48.2 Q-64 -64 -48.2 -64 M-58 -48.2 L-58 15.25 Q-58 25 -48.2 25 L-46.4 25 -41 19.6 Q-40.4 19 -39.55 18.95 -38.7 19 -38.1 19.6 L-32.7 25 -28.4 25 -26 22.6 Q-25.4 22 -24.55 21.95 -23.7 22 -23.1 22.6 L-20.7 25 48.25 25 Q58 25 58 15.25 L58 -48.2 Q58 -58 48.25 -58 L43.4 -58 38.9 -53.5 Q38.3 -52.9 37.45 -52.85 36.6 -52.9 36 -53.5 L31.5 -58 25.4 -58 23.9 -56.5 Q23.3 -55.9 22.45 -55.85 21.6 -55.9 21 -56.5 L19.5 -58 -48.2 -58 Q-58 -58 -58 -48.2"/>
    <path stroke="none" fill="#FFFFFF" d="M-58 -48.2 Q-58 -58 -48.2 -58 L19.5 -58 21 -56.5 Q21.6 -55.9 22.45 -55.85 23.3 -55.9 23.9 -56.5 L25.4 -58 31.5 -58 36 -53.5 Q36.6 -52.9 37.45 -52.85 38.3 -52.9 38.9 -53.5 L43.4 -58 48.25 -58 Q58 -58 58 -48.2 L58 15.25 Q58 25 48.25 25 L-20.7 25 -23.1 22.6 Q-23.7 22 -24.55 21.95 -25.4 22 -26 22.6 L-28.4 25 -32.7 25 -38.1 19.6 Q-38.7 19 -39.55 18.95 -40.4 19 -41 19.6 L-46.4 25 -48.2 25 Q-58 25 -58 15.25 L-58 -48.2"/>
    <path stroke="none" fill="#11141E" d="M-5.45 -6.9 L11.3 -2.4 11.8 -2.25 11.85 -2.25 14.3 -2.2 Q15.1 -2.85 15.5 -4.35 L22.75 -31.3 Q23.55 -34.25 20.6 -35.05 L20.55 -35.05 12.9 -37.15 12.65 -37.25 11.95 -37.35 3.3 -39.75 3.35 -39.75 Q0.45 -40.55 -0.35 -37.55 L-0.35 -37.6 -1.8 -31.9 -1.9 -31.6 -7.5 -10.6 Q-8.3 -7.7 -5.45 -6.9 M6.95 8.85 L-10.35 13.5 Q-19 15.8 -21.35 7.15 L-28.55 -19.85 Q-30.8 -28.5 -22.2 -30.85 L-13.55 -33.15 -13.2 -33.2 -12.6 -33.45 -7.2 -34.85 -6.1 -39.05 -6.1 -39.1 Q-3.85 -47.8 4.9 -45.5 L13.55 -43.1 13.85 -43 14.5 -42.9 22.15 -40.8 Q30.8 -38.55 28.5 -29.75 L21.25 -2.8 Q20.1 1.45 17.3 2.95 15.6 4.05 13.25 4 11.9 7.5 6.95 8.85"/>
  </g>
</svg>