<svg xmlns="http://www.w3.org/2000/svg" xmlns:xlink="http://www.w3.org/1999/xlink">
  <defs/>
  <g>
    <path stroke="none" fill="#11141E" d="M-48.2 -64 L34 -64 36.45 -61.65 Q37.1 -61.05 38 -61 38.85 -61.05 39.5 -61.65 L42 -64 48.85 -64 49.45 -63.95 Q59.35 -63.6 62.5 -56.45 64 -53.1 64 -48.2 L64 48.25 Q64 53.1 62.5 56.5 59.15 64 48.25 64 L-40.35 64 -42.7 61.65 Q-43.3 61.05 -44.15 61 -45 61.05 -45.6 61.65 L-47.95 64 -48.2 64 Q-64 64 -64 48.25 L-64 -48.2 Q-64 -64 -48.2 -64 M-58 -48.2 L-58 15.25 Q-58 25 -48.2 25 L-46.4 25 -41 19.6 Q-40.4 19 -39.55 18.95 -38.7 19 -38.1 19.6 L-32.7 25 -28.4 25 -26 22.6 Q-25.4 22 -24.55 21.95 -23.7 22 -23.1 22.6 L-20.7 25 48.25 25 Q58 25 58 15.25 L58 -48.2 Q58 -58 48.25 -58 L43.4 -58 38.9 -53.5 Q38.3 -52.9 37.45 -52.85 36.6 -52.9 36 -53.5 L31.5 -58 25.4 -58 23.9 -56.5 Q23.3 -55.9 22.45 -55.85 21.6 -55.9 21 -56.5 L19.5 -58 -48.2 -58 Q-58 -58 -58 -48.2"/>
    <path stroke="none" fill="#FFFFFF" d="M-58 -48.2 Q-58 -58 -48.2 -58 L19.5 -58 21 -56.5 Q21.6 -55.9 22.45 -55.85 23.3 -55.9 23.9 -56.5 L25.4 -58 31.5 -58 36 -53.5 Q36.6 -52.9 37.45 -52.85 38.3 -52.9 38.9 -53.5 L43.4 -58 48.25 -58 Q58 -58 58 -48.2 L58 15.25 Q58 25 48.25 25 L-20.7 25 -23.1 22.6 Q-23.7 22 -24.55 21.95 -25.4 22 -26 22.6 L-28.4 25 -32.7 25 -38.1 19.6 Q-38.7 19 -39.55 18.95 -40.4 19 -41 19.6 L-46.4 25 -48.2 25 Q-58 25 -58 15.25 L-58 -48.2"/>
    <path stroke="none" fill="#11141E" d="M8 -10.8 L12.6 -1.6 Q13 -0.8 13 0.1 L13 3.2 Q13 4.8 11.9 5.9 10.8 7 9.15 7 L-6.15 7 Q-7.75 7 -8.85 5.9 -10 4.8 -10 3.2 L-10 0.1 Q-10 -0.8 -9.6 -1.6 L-5 -10.8 -4.9 -10.9 -6.65 -12.35 Q-10 -15.7 -10 -20.5 -10 -25.25 -6.65 -28.6 -3.3 -32 1.5 -32 6.25 -32 9.6 -28.6 13 -25.25 13 -20.5 13 -15.7 9.6 -12.35 L7.95 -10.95 8 -10.8"/>
    <path stroke="none" fill="#F72447" d="M-18.9 -16.9 Q-18.9 -10.65 -15.6 -5.8 L12.2 -33.6 Q7.35 -36.9 1.1 -36.9 -7.2 -36.9 -13.05 -31.05 -18.9 -25.2 -18.9 -16.9 M-18.75 2.85 Q-26.9 -5.3 -26.9 -16.9 -26.9 -28.5 -18.75 -36.7 L-18.7 -36.75 Q-10.5 -44.9 1.1 -44.9 12.7 -44.9 20.9 -36.7 L21.15 -36.4 Q29.1 -28.3 29.1 -16.9 29.1 -5.3 20.9 2.9 12.7 11.1 1.1 11.1 -10.45 11.1 -18.6 3 L-18.75 2.85 M21.1 -16.9 Q21.1 -23.1 17.8 -27.95 L-9.95 -0.15 Q-5.1 3.1 1.1 3.1 9.4 3.1 15.2 -2.75 L15.25 -2.8 Q21.1 -8.6 21.1 -16.9"/>
    <path stroke="none" fill="#11141E" d="M-24.65 20 Q-26.85 20 -28 19.25 -29 18.7 -29 17.65 -29 17 -28.6 16.45 -28.2 16.05 -27.55 16.05 L-26.5 16.3 -25.4 16.5 Q-24.1 16.5 -24.1 15.7 -24.1 14.75 -25.55 14.75 L-26.6 14.75 -27.5 14.45 Q-27.9 14.05 -27.9 13.45 -27.9 12.9 -27.5 12.55 -27.15 12.15 -26.6 12.15 L-25.45 12.15 -24.65 11.95 Q-24.35 11.75 -24.35 11.3 -24.35 10.5 -25.4 10.5 L-26.5 10.75 -27.55 11 Q-28.2 11 -28.6 10.55 -29 10.05 -29 9.45 -29 8.35 -28.05 7.8 -26.8 7 -24.65 7 -22.6 7 -21.4 7.95 -20.25 8.85 -20.25 10.5 -20.25 11.35 -20.75 12.15 -21.25 12.95 -22.15 13.3 L-22.15 13.35 Q-21.15 13.65 -20.6 14.5 -20 15.3 -20 16.4 -20 18.2 -21.25 19.05 -22.5 20 -24.65 20 M-32.4 16 L-35.65 16 Q-36.2 16 -36.65 15.6 -37 15.25 -37 14.5 -37 13.8 -36.65 13.35 -36.2 13 -35.65 13 L-32.4 13 Q-31.75 13 -31.45 13.35 -31 13.8 -31 14.5 -31 15.25 -31.45 15.6 -31.75 16 -32.4 16 M-44.9 20 Q-47.5 20 -49.2 18.35 -51 16.6 -51 13.55 -51 10.6 -49.2 8.85 -47.45 7 -44.95 7 -42.45 7 -40.7 8.85 -39 10.6 -39 13.55 -39 16.6 -40.65 18.35 -42.35 20 -44.9 20 M-46.5 15.85 Q-45.9 16.6 -44.95 16.6 -44.05 16.6 -43.4 15.85 -42.8 15.1 -42.8 13.55 -42.8 11.95 -43.4 11.2 -44.1 10.5 -44.95 10.5 -45.85 10.5 -46.45 11.2 -47.05 11.95 -47.05 13.55 -47.05 15.15 -46.5 15.85"/>
  </g>
</svg>