<svg xmlns="http://www.w3.org/2000/svg" xmlns:xlink="http://www.w3.org/1999/xlink">
  <defs/>
  <g>
    <path stroke="none" fill="#11141E" d="M-48.2 -64 L34 -64 36.45 -61.65 Q37.1 -61.05 38 -61 38.85 -61.05 39.5 -61.65 L42 -64 48.85 -64 49.45 -63.95 Q59.35 -63.6 62.5 -56.45 64 -53.1 64 -48.2 L64 48.25 Q64 53.1 62.5 56.5 59.15 64 48.25 64 L-40.35 64 -42.7 61.65 Q-43.3 61.05 -44.15 61 -45 61.05 -45.6 61.65 L-47.95 64 -48.2 64 Q-64 64 -64 48.25 L-64 -48.2 Q-64 -64 -48.2 -64 M-58 -48.2 L-58 15.25 Q-58 25 -48.2 25 L-46.4 25 -41 19.6 Q-40.4 19 -39.55 18.95 -38.7 19 -38.1 19.6 L-32.7 25 -28.4 25 -26 22.6 Q-25.4 22 -24.55 21.95 -23.7 22 -23.1 22.6 L-20.7 25 48.25 25 Q58 25 58 15.25 L58 -48.2 Q58 -58 48.25 -58 L43.4 -58 38.9 -53.5 Q38.3 -52.9 37.45 -52.85 36.6 -52.9 36 -53.5 L31.5 -58 25.4 -58 23.9 -56.5 Q23.3 -55.9 22.45 -55.85 21.6 -55.9 21 -56.5 L19.5 -58 -48.2 -58 Q-58 -58 -58 -48.2"/>
    <path stroke="none" fill="#FFFFFF" d="M-58 -48.2 Q-58 -58 -48.2 -58 L19.5 -58 21 -56.5 Q21.6 -55.9 22.45 -55.85 23.3 -55.9 23.9 -56.5 L25.4 -58 31.5 -58 36 -53.5 Q36.6 -52.9 37.45 -52.85 38.3 -52.9 38.9 -53.5 L43.4 -58 48.25 -58 Q58 -58 58 -48.2 L58 15.25 Q58 25 48.25 25 L-20.7 25 -23.1 22.6 Q-23.7 22 -24.55 21.95 -25.4 22 -26 22.6 L-28.4 25 -32.7 25 -38.1 19.6 Q-38.7 19 -39.55 18.95 -40.4 19 -41 19.6 L-46.4 25 -48.2 25 Q-58 25 -58 15.25 L-58 -48.2"/>
    <path stroke="none" fill="#11141E" d="M12.5 -31 L18 -33.25 Q21.7 -34.8 23.2 -31.1 L25.45 -25.6 Q27 -21.9 23.3 -20.35 L17.8 -18.1 Q14.1 -16.6 12.55 -20.3 L10.3 -25.8 Q8.8 -29.5 12.5 -31 M6.5 -13.2 L12.5 -1.2 Q13 -0.15 13 1 L13 5 Q13 7.1 11.55 8.55 10.1 10 8 10 L-12 10 Q-14.05 10 -15.5 8.55 -17 7.1 -17 5 L-17 1 Q-17 -0.15 -16.45 -1.2 L-10.45 -13.2 -9.85 -14.15 Q-11.35 -15.1 -12.65 -16.4 -17 -20.75 -17 -27 -17 -33.2 -12.65 -37.6 -8.25 -42 -2 -42 3.95 -42 8.25 -37.9 10.25 -35.75 8.6 -33.55 L1.25 -26.25 8.15 -19.35 Q9.95 -17.5 7.55 -15.4 L5.85 -14.2 6.5 -13.2 M-2.15 -31.5 L-5.55 -34.9 Q-6.15 -35.5 -7 -35.5 -7.85 -35.5 -8.4 -34.9 -9 -34.35 -9 -33.5 -9 -32.65 -8.4 -32.05 L-6.45 -30.1 -8.4 -28.1 Q-9 -27.55 -9 -26.7 -9 -25.85 -8.4 -25.25 -7.85 -24.7 -7 -24.7 -6.15 -24.7 -5.55 -25.25 L-2.15 -28.65 Q-1.6 -29.25 -1.6 -30.1 -1.6 -30.95 -2.15 -31.5"/>
  </g>
</svg>