<svg xmlns="http://www.w3.org/2000/svg" xmlns:xlink="http://www.w3.org/1999/xlink">
  <defs/>
  <g>
    <path stroke="none" fill="#11141E" d="M-48.2 -64 L34 -64 36.45 -61.65 Q37.1 -61.05 38 -61 38.85 -61.05 39.5 -61.65 L42 -64 48.85 -64 49.45 -63.95 Q59.35 -63.6 62.5 -56.45 64 -53.1 64 -48.2 L64 48.25 Q64 53.1 62.5 56.5 59.15 64 48.25 64 L-40.35 64 -42.7 61.65 Q-43.3 61.05 -44.15 61 -45 61.05 -45.6 61.65 L-47.95 64 -48.2 64 Q-64 64 -64 48.25 L-64 -48.2 Q-64 -64 -48.2 -64 M-58 -48.2 L-58 15.25 Q-58 25 -48.2 25 L-46.4 25 -41 19.6 Q-40.4 19 -39.55 18.95 -38.7 19 -38.1 19.6 L-32.7 25 -28.4 25 -26 22.6 Q-25.4 22 -24.55 21.95 -23.7 22 -23.1 22.6 L-20.7 25 48.25 25 Q58 25 58 15.25 L58 -48.2 Q58 -58 48.25 -58 L43.4 -58 38.9 -53.5 Q38.3 -52.9 37.45 -52.85 36.6 -52.9 36 -53.5 L31.5 -58 25.4 -58 23.9 -56.5 Q23.3 -55.9 22.45 -55.85 21.6 -55.9 21 -56.5 L19.5 -58 -48.2 -58 Q-58 -58 -58 -48.2"/>
    <path stroke="none" fill="#FFFFFF" d="M-58 -48.2 Q-58 -58 -48.2 -58 L19.5 -58 21 -56.5 Q21.6 -55.9 22.45 -55.85 23.3 -55.9 23.9 -56.5 L25.4 -58 31.5 -58 36 -53.5 Q36.6 -52.9 37.45 -52.85 38.3 -52.9 38.9 -53.5 L43.4 -58 48.25 -58 Q58 -58 58 -48.2 L58 15.25 Q58 25 48.25 25 L-20.7 25 -23.1 22.6 Q-23.7 22 -24.55 21.95 -25.4 22 -26 22.6 L-28.4 25 -32.7 25 -38.1 19.6 Q-38.7 19 -39.55 18.95 -40.4 19 -41 19.6 L-46.4 25 -48.2 25 Q-58 25 -58 15.25 L-58 -48.2"/>
    <path stroke="none" fill="#11141E" d="M-9.4 -45.4 Q-8.8 -46 -8 -46 L7.95 -46 Q8.75 -46 9.35 -45.4 9.95 -44.8 9.95 -44 L9.95 -38.05 Q9.95 -37.25 9.35 -36.65 8.75 -36.05 7.95 -36.05 L6.95 -36.05 6.95 -35 Q9.75 -34.25 12.3 -32.75 L14.25 -34.75 14.25 -34.7 Q15.15 -35.75 16.6 -35.6 17.7 -35.5 18.45 -34.75 L24.15 -29.05 Q24.9 -28.3 25 -27.2 L25 -27.15 Q25.1 -25.95 24.45 -25.1 L24.25 -24.85 22.1 -22.65 Q24.95 -17.4 24.95 -10.95 24.95 -0.65 17.6 6.65 10.3 14 0 14 -10.35 14 -17.7 6.65 -25 -0.65 -25 -10.95 -25 -21.3 -17.7 -28.65 -13 -33.35 -7 -35 L-7 -36.05 -8 -36.05 Q-8.8 -36.05 -9.4 -36.65 -10 -37.25 -10 -38.05 L-10 -44 Q-10 -44.8 -9.4 -45.4 M6 -10.95 Q6 -8.5 4.25 -6.75 2.55 -5 0 -5 -2.5 -5 -4.25 -6.75 -6 -8.5 -6 -10.95 -6 -13.45 -4.25 -15.2 L-3.25 -16 -2.55 -24.5 -2.55 -24.55 -2 -25.55 -2.05 -25.55 Q-1.6 -26 -1 -26 L1 -26 Q1.6 -26 2.05 -25.55 2.5 -25.1 2.55 -24.55 L2.55 -24.5 3.3 -16 4.25 -15.2 Q6 -13.45 6 -10.95 M0 -27.95 Q-7.05 -27.95 -12.05 -23 -17 -18 -17 -10.95 -17 -3.95 -12.05 1 -7.05 6 0 6 7 6 11.95 1.05 L12 1 Q16.95 -3.95 16.95 -10.95 16.95 -18 11.95 -23 7 -27.95 0 -27.95"/>
  </g>
</svg>