<svg xmlns="http://www.w3.org/2000/svg" xmlns:xlink="http://www.w3.org/1999/xlink">
  <defs/>
  <g>
    <path stroke="none" fill="#11141E" d="M-48.2 -64 L34 -64 36.45 -61.65 Q37.1 -61.05 38 -61 38.85 -61.05 39.5 -61.65 L42 -64 48.85 -64 49.45 -63.95 Q59.35 -63.6 62.5 -56.45 64 -53.1 64 -48.2 L64 48.25 Q64 53.1 62.5 56.5 59.15 64 48.25 64 L-40.35 64 -42.7 61.65 Q-43.3 61.05 -44.15 61 -45 61.05 -45.6 61.65 L-47.95 64 -48.2 64 Q-64 64 -64 48.25 L-64 -48.2 Q-64 -64 -48.2 -64 M-58 -48.2 L-58 15.25 Q-58 25 -48.2 25 L-46.4 25 -41 19.6 Q-40.4 19 -39.55 18.95 -38.7 19 -38.1 19.6 L-32.7 25 -28.4 25 -26 22.6 Q-25.4 22 -24.55 21.95 -23.7 22 -23.1 22.6 L-20.7 25 48.25 25 Q58 25 58 15.25 L58 -48.2 Q58 -58 48.25 -58 L43.4 -58 38.9 -53.5 Q38.3 -52.9 37.45 -52.85 36.6 -52.9 36 -53.5 L31.5 -58 25.4 -58 23.9 -56.5 Q23.3 -55.9 22.45 -55.85 21.6 -55.9 21 -56.5 L19.5 -58 -48.2 -58 Q-58 -58 -58 -48.2"/>
    <path stroke="none" fill="#FFFFFF" d="M-58 -48.2 Q-58 -58 -48.2 -58 L19.5 -58 21 -56.5 Q21.6 -55.9 22.45 -55.85 23.3 -55.9 23.9 -56.5 L25.4 -58 31.5 -58 36 -53.5 Q36.6 -52.9 37.45 -52.85 38.3 -52.9 38.9 -53.5 L43.4 -58 48.25 -58 Q58 -58 58 -48.2 L58 15.25 Q58 25 48.25 25 L-20.7 25 -23.1 22.6 Q-23.7 22 -24.55 21.95 -25.4 22 -26 22.6 L-28.4 25 -32.7 25 -38.1 19.6 Q-38.7 19 -39.55 18.95 -40.4 19 -41 19.6 L-46.4 25 -48.2 25 Q-58 25 -58 15.25 L-58 -48.2"/>
    <path stroke="none" fill="#11141E" d="M-9.4 -45.4 Q-8.8 -46 -8 -46 L7.95 -46 Q8.75 -46 9.35 -45.4 9.95 -44.8 9.95 -44 L9.95 -38.05 Q9.95 -37.25 9.35 -36.65 8.75 -36.05 7.95 -36.05 L6.95 -36.05 6.95 -35 Q9.75 -34.25 12.3 -32.75 L14.25 -34.75 14.25 -34.7 Q15.15 -35.75 16.6 -35.6 17.7 -35.5 18.45 -34.75 L24.15 -29.05 Q24.9 -28.3 25 -27.2 L25 -27.15 Q25.1 -25.95 24.45 -25.1 L24.25 -24.85 22.1 -22.65 Q24.95 -17.4 24.95 -10.95 24.95 -0.65 17.6 6.65 10.3 14 0 14 -10.35 14 -17.7 6.65 -25 -0.65 -25 -10.95 -25 -21.3 -17.7 -28.65 -13 -33.35 -7 -35 L-7 -36.05 -8 -36.05 Q-8.8 -36.05 -9.4 -36.65 -10 -37.25 -10 -38.05 L-10 -44 Q-10 -44.8 -9.4 -45.4 M6 -10.95 Q6 -8.5 4.25 -6.75 2.55 -5 0 -5 -2.5 -5 -4.25 -6.75 -6 -8.5 -6 -10.95 -6 -13.45 -4.25 -15.2 L-3.25 -16 -2.55 -24.5 -2.55 -24.55 -2 -25.55 -2.05 -25.55 Q-1.6 -26 -1 -26 L1 -26 Q1.6 -26 2.05 -25.55 2.5 -25.1 2.55 -24.55 L2.55 -24.5 3.3 -16 4.25 -15.2 Q6 -13.45 6 -10.95 M0 -27.95 Q-7.05 -27.95 -12.05 -23 -17 -18 -17 -10.95 -17 -3.95 -12.05 1 -7.05 6 0 6 7 6 11.95 1.05 L12 1 Q16.95 -3.95 16.95 -10.95 16.95 -18 11.95 -23 7 -27.95 0 -27.95"/>
    <path stroke="none" fill="#FFFFFF" d="M41 42.95 L40.7 43.75 Q40.4 44.1 39.95 44.1 L39.2 43.85 38.3 43.45 37.6 43.35 37 43.5 Q36.75 43.7 36.75 44.05 36.75 44.45 37.5 44.75 L39.15 45.45 Q40 45.8 40.65 46.4 41.25 47 41.25 48 41.25 48.9 40.8 49.6 L39.5 50.65 37.55 51.05 35.95 50.8 Q35.1 50.55 34.5 50.1 33.95 49.6 33.95 49.05 33.95 48.7 34.25 48.3 34.55 47.9 35.05 47.9 L35.65 48.05 36.35 48.35 37 48.7 37.75 48.8 38.55 48.65 38.75 48.05 Q38.75 47.7 38 47.35 L36.35 46.65 Q35.45 46.3 34.85 45.7 34.25 45.1 34.25 44.1 34.25 43.2 34.7 42.5 35.15 41.8 35.95 41.45 36.75 41.05 37.75 41.05 L39.25 41.25 Q39.95 41.5 40.5 41.9 41 42.35 41 42.95 M9.5 47.3 L9.5 42.6 Q9.5 41.95 9.85 41.55 10.2 41.15 10.8 41.15 L11.45 41.35 11.9 41.85 12.1 42.6 12.1 47.25 Q12.1 48 12.6 48.45 13.05 48.9 13.75 48.9 L14.6 48.7 15.2 48.15 15.45 47.25 15.45 42.6 Q15.45 41.95 15.8 41.55 16.15 41.15 16.7 41.15 L17.4 41.35 17.85 41.85 18 42.6 18 47.3 Q18 48.45 17.55 49.3 17.05 50.15 16.05 50.6 L13.75 51.05 Q11.7 51.05 10.6 50.05 9.5 49.05 9.5 47.3 M-0.5 49.5 L-0.5 42.6 Q-0.5 41.95 -0.15 41.55 0.2 41.15 0.8 41.15 1.3 41.15 1.6 41.4 L2 42.1 Q2.75 41.05 4.45 41.05 5.5 41.05 6.3 41.5 7.1 41.9 7.55 42.7 8 43.45 8 44.55 L8 49.5 7.85 50.25 7.4 50.8 6.7 50.95 Q6.15 50.95 5.8 50.55 5.45 50.15 5.45 49.5 L5.45 45 Q5.45 44.15 4.95 43.7 4.5 43.2 3.75 43.2 3.2 43.2 2.85 43.45 L2.25 44.1 Q2.1 44.5 2.1 45 L2.1 49.5 1.9 50.25 1.45 50.8 0.8 50.95 Q0.2 50.95 -0.15 50.55 L-0.5 49.5 M20.1 49.5 L20.1 43.55 19.55 43.55 18.7 43.25 Q18.4 42.9 18.4 42.4 18.4 41.9 18.75 41.6 19.05 41.25 19.55 41.25 L20.1 41.25 20.1 39.7 Q20.1 39.1 20.5 38.7 20.85 38.3 21.4 38.3 L22.1 38.45 22.55 39 22.7 39.7 22.7 41.25 23.45 41.25 Q24 41.25 24.35 41.55 24.7 41.8 24.7 42.4 24.7 43 24.35 43.25 L23.45 43.55 22.7 43.55 22.7 49.5 22.55 50.25 22.1 50.75 21.4 50.95 Q20.85 50.95 20.5 50.55 20.1 50.15 20.1 49.5 M32.45 46.95 L26.95 46.95 Q27.05 47.85 27.75 48.35 L29.35 48.8 30.4 48.6 31.4 48.1 32.3 47.75 32.85 47.9 33.2 48.35 33.35 48.85 33 49.65 32 50.4 30.6 50.9 29.15 51.05 Q27.7 51.05 26.6 50.45 25.5 49.8 24.9 48.65 24.3 47.5 24.3 46.1 24.3 45.1 24.65 44.2 24.95 43.3 25.6 42.55 L27.1 41.45 28.95 41.05 Q29.95 41.05 30.8 41.5 31.7 41.9 32.3 42.6 L33.25 44.1 Q33.6 44.95 33.6 45.75 33.6 46.95 32.45 46.95 M26.85 45.2 L31 45.2 Q30.9 44.3 30.35 43.75 29.8 43.2 28.95 43.2 28.1 43.2 27.55 43.75 27 44.35 26.85 45.2 M-30.6 51.05 Q-32.35 51.05 -33.4 50.1 -34.45 49.1 -34.95 47.6 L-35.4 44.45 Q-35.4 42.8 -34.95 41.3 -34.45 39.8 -33.4 38.8 -32.35 37.8 -30.6 37.8 -29.3 37.8 -28.4 38.4 -27.5 39 -26.9 39.95 -26.35 40.95 -26.1 42.1 -25.85 43.25 -25.85 44.45 L-26.1 46.75 Q-26.35 47.95 -26.9 48.9 -27.5 49.9 -28.4 50.5 -29.3 51.05 -30.6 51.05 M-30.65 48.6 Q-29.8 48.6 -29.35 47.9 L-28.8 46.25 Q-28.65 45.35 -28.65 44.45 -28.65 42.8 -29.05 41.55 -29.45 40.25 -30.65 40.25 -31.85 40.25 -32.2 41.55 -32.6 42.85 -32.6 44.45 -32.6 46 -32.2 47.3 -31.8 48.6 -30.65 48.6 M-39.7 49.55 L-39.7 40.5 -40.8 40.5 Q-41.4 40.5 -41.7 40.15 L-42 39.3 Q-42 38.8 -41.65 38.4 -41.35 38.05 -40.8 38.05 L-38.2 38.05 Q-37.65 38.05 -37.35 38.4 -37 38.75 -37 39.3 L-37 49.55 Q-37 50.25 -37.4 50.6 -37.75 50.95 -38.35 50.95 -38.95 50.95 -39.35 50.6 L-39.7 49.55 M-19.85 49.5 L-19.85 42.6 Q-19.85 41.95 -19.5 41.55 -19.15 41.15 -18.55 41.15 L-17.75 41.4 Q-17.45 41.65 -17.35 42.15 -16.4 41.05 -14.95 41.05 -13.35 41.05 -12.3 42.35 L-11 41.4 Q-10.2 41.05 -9.55 41.05 L-7.7 41.45 Q-6.9 41.85 -6.45 42.65 -6 43.45 -6 44.55 L-6 49.5 Q-6 49.95 -6.15 50.25 L-6.65 50.8 -7.3 50.95 Q-7.9 50.95 -8.25 50.55 L-8.6 49.5 -8.6 45 Q-8.6 44.45 -8.75 44.05 L-9.3 43.45 Q-9.65 43.2 -10.1 43.2 -10.8 43.2 -11.2 43.7 -11.65 44.2 -11.65 45 L-11.65 49.5 Q-11.65 49.95 -11.8 50.25 L-12.25 50.8 -12.95 50.95 Q-13.5 50.95 -13.85 50.55 -14.25 50.15 -14.25 49.5 L-14.25 45 Q-14.25 44.45 -14.4 44.05 L-14.95 43.45 -15.75 43.2 -16.6 43.45 -17.1 44.05 -17.25 45 -17.25 49.5 -17.45 50.25 -17.9 50.8 -18.55 50.95 Q-19.15 50.95 -19.5 50.55 L-19.85 49.5 M-3.25 37.3 L-2.55 37.5 Q-2.2 37.7 -2 38 L-1.8 38.7 Q-1.8 39.3 -2.2 39.75 -2.65 40.2 -3.25 40.2 -3.85 40.2 -4.25 39.75 -4.7 39.3 -4.7 38.7 -4.7 38.15 -4.25 37.7 -3.85 37.3 -3.25 37.3 M-4.55 49.5 L-4.55 42.6 Q-4.55 41.95 -4.2 41.55 -3.85 41.15 -3.25 41.15 L-2.6 41.35 -2.1 41.85 Q-1.95 42.2 -1.95 42.6 L-1.95 49.5 Q-1.95 49.95 -2.1 50.25 L-2.6 50.8 -3.25 50.95 Q-3.85 50.95 -4.2 50.55 L-4.55 49.5"/>
  </g>
</svg>