<svg xmlns="http://www.w3.org/2000/svg" xmlns:xlink="http://www.w3.org/1999/xlink">
  <defs/>
  <g>
    <path stroke="none" fill="#11141E" d="M-58 -48.2 L-58 15.25 Q-58 25 -48.2 25 L-46.4 25 -41 19.6 Q-40.4 19 -39.55 18.95 -38.7 19 -38.1 19.6 L-32.7 25 -28.4 25 -26 22.6 Q-25.4 22 -24.55 21.95 -23.7 22 -23.1 22.6 L-20.7 25 48.25 25 Q58 25 58 15.25 L58 -48.2 Q58 -58 48.25 -58 L43.4 -58 38.9 -53.5 Q38.3 -52.9 37.45 -52.85 36.6 -52.9 36 -53.5 L31.5 -58 25.4 -58 23.9 -56.5 Q23.3 -55.9 22.45 -55.85 21.6 -55.9 21 -56.5 L19.5 -58 -48.2 -58 Q-58 -58 -58 -48.2 M-48.2 -64 L34 -64 36.45 -61.65 Q37.1 -61.05 38 -61 38.85 -61.05 39.5 -61.65 L42 -64 48.85 -64 49.45 -63.95 Q59.35 -63.6 62.5 -56.45 64 -53.1 64 -48.2 L64 48.25 Q64 53.1 62.5 56.5 59.15 64 48.25 64 L-40.35 64 -42.7 61.65 Q-43.3 61.05 -44.15 61 -45 61.05 -45.6 61.65 L-47.95 64 -48.2 64 Q-64 64 -64 48.25 L-64 -48.2 Q-64 -64 -48.2 -64"/>
    <path stroke="none" fill="#FFFFFF" d="M-58 -48.2 Q-58 -58 -48.2 -58 L19.5 -58 21 -56.5 Q21.6 -55.9 22.45 -55.85 23.3 -55.9 23.9 -56.5 L25.4 -58 31.5 -58 36 -53.5 Q36.6 -52.9 37.45 -52.85 38.3 -52.9 38.9 -53.5 L43.4 -58 48.25 -58 Q58 -58 58 -48.2 L58 15.25 Q58 25 48.25 25 L-20.7 25 -23.1 22.6 Q-23.7 22 -24.55 21.95 -25.4 22 -26 22.6 L-28.4 25 -32.7 25 -38.1 19.6 Q-38.7 19 -39.55 18.95 -40.4 19 -41 19.6 L-46.4 25 -48.2 25 Q-58 25 -58 15.25 L-58 -48.2"/>
    <path stroke="none" fill="#11141E" d="M-15.95 -21.5 L-6.65 -23.8 -1.65 -32.05 Q-1.3 -32.65 -0.6 -32.85 0 -33.1 0.7 -32.85 1.35 -32.65 1.7 -32.05 L6.7 -23.8 16 -21.5 Q16.65 -21.3 17.1 -20.75 17.55 -20.2 17.5 -19.45 17.5 -18.75 17.05 -18.2 L10.85 -10.8 11.55 -1.15 Q11.6 -0.45 11.2 0.15 L10.15 0.95 8.85 0.85 0 -2.85 -8.8 0.85 -10.15 0.95 -11.2 0.15 Q-11.6 -0.45 -11.55 -1.15 L-10.8 -10.8 -17 -18.2 Q-17.5 -18.75 -17.5 -19.45 -17.55 -20.2 -17.1 -20.75 -16.65 -21.3 -15.95 -21.5"/>
    <path stroke="none" fill="#11141E" d="M18.05 -3.1 L25.05 -4.85 28.8 -11.05 29.6 -11.65 30.55 -11.65 31.3 -11.05 35.05 -4.85 42.05 -3.1 42.85 -2.55 Q43.2 -2.15 43.15 -1.6 43.15 -1.05 42.8 -0.65 L38.15 4.9 38.7 12.15 38.45 13.1 37.65 13.7 36.65 13.65 30.05 10.85 23.45 13.65 22.4 13.7 21.65 13.1 Q21.35 12.65 21.35 12.15 L21.95 4.9 17.3 -0.65 Q16.9 -1.05 16.9 -1.6 16.85 -2.15 17.2 -2.55 17.55 -2.95 18.05 -3.1"/>
    <path stroke="none" fill="#11141E" d="M-41.95 -3.1 L-34.95 -4.85 -31.2 -11.05 Q-30.95 -11.5 -30.4 -11.65 L-29.45 -11.65 -28.7 -11.05 -24.95 -4.85 -17.95 -3.1 Q-17.5 -2.95 -17.15 -2.55 -16.8 -2.15 -16.85 -1.6 -16.85 -1.05 -17.2 -0.65 L-21.85 4.9 -21.3 12.15 Q-21.25 12.65 -21.55 13.1 L-22.35 13.7 -23.35 13.65 -29.95 10.85 -36.55 13.65 -37.6 13.7 -38.35 13.1 -38.65 12.15 -38.05 4.9 -42.7 -0.65 Q-43.1 -1.05 -43.1 -1.6 -43.15 -2.15 -42.8 -2.55 L-41.95 -3.1"/>
    <path stroke="none" fill="#11141E" d="M18.05 -39.1 L25.05 -40.85 28.8 -47.05 29.6 -47.65 30.55 -47.65 31.3 -47.05 35.05 -40.85 42.05 -39.1 42.85 -38.55 Q43.2 -38.15 43.15 -37.6 43.15 -37.05 42.8 -36.65 L38.15 -31.1 38.7 -23.85 Q38.75 -23.35 38.45 -22.9 L37.65 -22.3 36.65 -22.35 30.05 -25.15 23.45 -22.35 22.4 -22.3 21.65 -22.9 Q21.35 -23.35 21.35 -23.85 L21.95 -31.1 17.3 -36.65 Q16.9 -37.05 16.9 -37.6 16.85 -38.15 17.2 -38.55 17.55 -38.95 18.05 -39.1"/>
    <path stroke="none" fill="#11141E" d="M-41.95 -39.1 L-34.95 -40.85 -31.2 -47.05 Q-30.95 -47.5 -30.4 -47.65 L-29.45 -47.65 -28.7 -47.05 -24.95 -40.85 -17.95 -39.1 Q-17.5 -38.95 -17.15 -38.55 -16.8 -38.15 -16.85 -37.6 -16.85 -37.05 -17.2 -36.65 L-21.85 -31.1 -21.3 -23.85 Q-21.25 -23.35 -21.55 -22.9 L-22.35 -22.3 -23.35 -22.35 -29.95 -25.15 -36.55 -22.35 -37.6 -22.3 -38.35 -22.9 -38.65 -23.85 -38.05 -31.1 -42.7 -36.65 Q-43.1 -37.05 -43.1 -37.6 -43.15 -38.15 -42.8 -38.55 L-41.95 -39.1"/>
    <path stroke="none" fill="#FFFFFF" d="M5.8 42.85 L5.8 48.55 5.6 49.65 Q5.4 50.05 4.65 50.05 L3.95 49.8 3.55 49.1 Q2.65 50.15 1.4 50.15 0.3 50.15 -0.55 49.6 -1.45 49 -1.95 48 -2.45 47 -2.45 45.7 -2.45 44.5 -1.9 43.45 -1.4 42.45 -0.55 41.85 0.35 41.25 1.4 41.25 L2.6 41.5 3.55 42.3 Q3.6 41.9 3.95 41.6 4.25 41.35 4.65 41.35 5.4 41.35 5.6 41.75 L5.8 42.85 M8.9 49.1 L6.6 43.15 6.45 42.45 Q6.45 41.95 6.8 41.65 7.15 41.35 7.65 41.35 8.4 41.35 8.65 42.15 L10.15 46.7 11.65 42.15 Q11.9 41.35 12.65 41.35 13.15 41.35 13.5 41.65 L13.85 42.15 14.15 41.65 Q14.5 41.35 14.9 41.35 L15.6 41.55 16.05 42.15 17.65 46.5 19.35 42.15 19.8 41.55 20.5 41.35 21.25 41.65 Q21.6 41.9 21.6 42.35 L21.45 42.95 17.6 52.55 Q17.25 53.45 16.5 53.45 L15.65 53.15 Q15.3 52.85 15.3 52.45 15.3 52.15 15.45 51.75 L16.5 49.3 13.95 42.95 13.85 42.65 13.7 43.15 11.4 49.1 10.95 49.8 10.15 50.05 9.35 49.8 8.9 49.1 M-0.1 45.7 L0.1 46.85 0.7 47.7 Q1.1 48.05 1.7 48.05 2.55 48.05 3 47.35 3.5 46.65 3.5 45.7 L3.3 44.6 2.65 43.7 Q2.25 43.35 1.7 43.35 1.1 43.35 0.7 43.7 L0.1 44.6 -0.1 45.7 M-21.9 48.8 L-21.9 39.7 Q-21.9 39.15 -21.55 38.8 -21.2 38.45 -20.7 38.45 -20.15 38.45 -19.8 38.8 -19.5 39.1 -19.5 39.7 L-19.5 43.1 -14.45 43.1 -14.45 39.7 Q-14.45 39.15 -14.1 38.8 -13.75 38.45 -13.25 38.45 -12.7 38.45 -12.4 38.8 -12.05 39.1 -12.05 39.7 L-12.05 48.8 Q-12.05 49.4 -12.4 49.7 -12.7 50.05 -13.25 50.05 -13.75 50.05 -14.1 49.7 -14.45 49.4 -14.45 48.8 L-14.45 45.3 -19.5 45.3 -19.5 48.8 Q-19.5 49.4 -19.8 49.7 -20.15 50.05 -20.7 50.05 -21.2 50.05 -21.55 49.7 -21.9 49.4 -21.9 48.8 M-3.95 46.45 L-8.85 46.45 Q-8.7 47.3 -8.1 47.7 -7.5 48.15 -6.65 48.15 L-5.75 47.95 -4.85 47.5 Q-4.3 47.2 -4.05 47.2 -3.8 47.2 -3.6 47.35 L-3.25 47.7 Q-3.1 47.95 -3.1 48.2 -3.1 48.55 -3.45 48.9 L-4.3 49.55 -5.55 50 -6.85 50.15 Q-8.15 50.15 -9.1 49.6 -10.1 49 -10.65 48 -11.2 46.95 -11.2 45.7 L-10.9 44.05 Q-10.6 43.2 -10 42.6 L-8.7 41.6 -7.05 41.25 Q-6.15 41.25 -5.4 41.6 L-4.05 42.6 Q-3.55 43.2 -3.2 43.95 -2.9 44.7 -2.9 45.45 -2.9 46.45 -3.95 46.45 M-8.9 44.95 L-5.2 44.95 Q-5.3 44.15 -5.8 43.65 -6.3 43.15 -7.05 43.15 -7.8 43.15 -8.3 43.65 -8.8 44.15 -8.9 44.95"/>
  </g>
</svg>