<svg xmlns="http://www.w3.org/2000/svg" xmlns:xlink="http://www.w3.org/1999/xlink">
  <defs/>
  <g>
    <path stroke="none" fill="#11141E" d="M-48.2 -64 L34 -64 36.45 -61.65 Q37.1 -61.05 38 -61 38.85 -61.05 39.5 -61.65 L42 -64 48.85 -64 49.45 -63.95 Q59.35 -63.6 62.5 -56.45 64 -53.1 64 -48.2 L64 48.25 Q64 53.1 62.5 56.5 59.15 64 48.25 64 L-40.35 64 -42.7 61.65 Q-43.3 61.05 -44.15 61 -45 61.05 -45.6 61.65 L-47.95 64 -48.2 64 Q-64 64 -64 48.25 L-64 -48.2 Q-64 -64 -48.2 -64 M-58 -48.2 L-58 15.25 Q-58 25 -48.2 25 L-46.4 25 -41 19.6 Q-40.4 19 -39.55 18.95 -38.7 19 -38.1 19.6 L-32.7 25 -28.4 25 -26 22.6 Q-25.4 22 -24.55 21.95 -23.7 22 -23.1 22.6 L-20.7 25 48.25 25 Q58 25 58 15.25 L58 -48.2 Q58 -58 48.25 -58 L43.4 -58 38.9 -53.5 Q38.3 -52.9 37.45 -52.85 36.6 -52.9 36 -53.5 L31.5 -58 25.4 -58 23.9 -56.5 Q23.3 -55.9 22.45 -55.85 21.6 -55.9 21 -56.5 L19.5 -58 -48.2 -58 Q-58 -58 -58 -48.2"/>
    <path stroke="none" fill="#FFFFFF" d="M-58 -48.2 Q-58 -58 -48.2 -58 L19.5 -58 21 -56.5 Q21.6 -55.9 22.45 -55.85 23.3 -55.9 23.9 -56.5 L25.4 -58 31.5 -58 36 -53.5 Q36.6 -52.9 37.45 -52.85 38.3 -52.9 38.9 -53.5 L43.4 -58 48.25 -58 Q58 -58 58 -48.2 L58 15.25 Q58 25 48.25 25 L-20.7 25 -23.1 22.6 Q-23.7 22 -24.55 21.95 -25.4 22 -26 22.6 L-28.4 25 -32.7 25 -38.1 19.6 Q-38.7 19 -39.55 18.95 -40.4 19 -41 19.6 L-46.4 25 -48.2 25 Q-58 25 -58 15.25 L-58 -48.2"/>
    <path stroke="none" fill="#11141E" d="M-11.8 -16.65 Q-17.65 -23.6 -18 -34 -18 -34.45 -18.3 -34.7 -18.6 -35 -19 -35 L-20.1 -35 -20.7 -35.25 -21 -36 -21 -42 -20.7 -42.65 -20.65 -42.7 -20 -43 20 -43 20.75 -42.7 21 -42 21 -36 20.8 -35.25 20.75 -35.2 20.1 -35 19 -35 Q18.6 -35 18.3 -34.7 18 -34.45 18 -34 17.65 -23.6 11.85 -16.65 L11.6 -16 Q11.6 -15.65 11.85 -15.35 17.65 -8.4 18 2.05 18 2.45 18.3 2.75 L19 3 20.1 3 20.75 3.3 21 4 21 10 20.8 10.75 20.75 10.8 20 11 -20 11 -20.7 10.75 -21 10 -21 4 -20.7 3.35 -20.65 3.3 Q-20.45 3 -20.1 3 L-19 3 -18.3 2.75 Q-18 2.45 -18 2.05 -17.65 -8.4 -11.8 -15.35 L-11.6 -16 -11.8 -16.65 M-4 -26 L4 -26 Q4.85 -26 5.45 -25.4 6 -24.85 6 -24 6 -23.15 5.45 -22.55 L1.45 -18.55 Q0.85 -18 0 -18 -0.85 -18 -1.4 -18.55 L-5.4 -22.55 Q-6 -23.15 -6 -24 -6 -24.85 -5.4 -25.4 -4.85 -26 -4 -26 M4.15 -16.8 Q4.35 -17.65 5 -18.15 L5.2 -18.4 Q11.6 -24.3 12 -33.95 L11.9 -34.45 11.5 -34.85 11 -35 -10.95 -35 -11.45 -34.85 -11.8 -34.45 -11.95 -33.95 Q-11.6 -24.2 -5.05 -18.3 L-5 -18.25 -4.95 -18.2 Q-4.35 -17.65 -4.1 -16.8 L-4 -16 -4.1 -15.15 -4.15 -14.95 -4.8 -13.9 -5 -13.75 Q-11.6 -7.85 -11.95 2 L-11.8 2.5 -11.45 2.85 -10.95 3 11 3 11.5 2.85 11.9 2.5 12 1.95 Q11.6 -7.85 5.05 -13.75 4.4 -14.3 4.15 -14.95 L4.15 -15.15 4 -16 Q4 -16.4 4.15 -16.8 M-8.6 0 Q-7.6 -6.15 -3.6 -10.3 L-3.25 -10.6 Q-2.2 -11.7 -1.65 -13 L1.65 -13 Q2.2 -11.7 3.3 -10.6 L3.35 -10.6 3.35 -10.55 Q7.6 -6.4 8.65 0 L-8.6 0"/>
  </g>
</svg>