<svg xmlns="http://www.w3.org/2000/svg" xmlns:xlink="http://www.w3.org/1999/xlink">
  <defs/>
  <g>
    <path stroke="none" fill="#11141E" d="M-48.2 -64 L34 -64 36.45 -61.65 Q37.1 -61.05 38 -61 38.85 -61.05 39.5 -61.65 L42 -64 48.85 -64 49.45 -63.95 Q59.35 -63.6 62.5 -56.45 64 -53.1 64 -48.2 L64 48.25 Q64 53.1 62.5 56.5 59.15 64 48.25 64 L-40.35 64 -42.7 61.65 Q-43.3 61.05 -44.15 61 -45 61.05 -45.6 61.65 L-47.95 64 -48.2 64 Q-64 64 -64 48.25 L-64 -48.2 Q-64 -64 -48.2 -64 M-58 -48.2 L-58 15.25 Q-58 25 -48.2 25 L-46.4 25 -41 19.6 Q-40.4 19 -39.55 18.95 -38.7 19 -38.1 19.6 L-32.7 25 -28.4 25 -26 22.6 Q-25.4 22 -24.55 21.95 -23.7 22 -23.1 22.6 L-20.7 25 48.25 25 Q58 25 58 15.25 L58 -48.2 Q58 -58 48.25 -58 L43.4 -58 38.9 -53.5 Q38.3 -52.9 37.45 -52.85 36.6 -52.9 36 -53.5 L31.5 -58 25.4 -58 23.9 -56.5 Q23.3 -55.9 22.45 -55.85 21.6 -55.9 21 -56.5 L19.5 -58 -48.2 -58 Q-58 -58 -58 -48.2"/>
    <path stroke="none" fill="#FFFFFF" d="M-58 -48.2 Q-58 -58 -48.2 -58 L19.5 -58 21 -56.5 Q21.6 -55.9 22.45 -55.85 23.3 -55.9 23.9 -56.5 L25.4 -58 31.5 -58 36 -53.5 Q36.6 -52.9 37.45 -52.85 38.3 -52.9 38.9 -53.5 L43.4 -58 48.25 -58 Q58 -58 58 -48.2 L58 15.25 Q58 25 48.25 25 L-20.7 25 -23.1 22.6 Q-23.7 22 -24.55 21.95 -25.4 22 -26 22.6 L-28.4 25 -32.7 25 -38.1 19.6 Q-38.7 19 -39.55 18.95 -40.4 19 -41 19.6 L-46.4 25 -48.2 25 Q-58 25 -58 15.25 L-58 -48.2"/>
    <path stroke="none" fill="#11141E" d="M32.15 -35.1 Q33 -34.3 33 -33 L33 2.95 32.65 4.45 32.6 4.55 31.5 5.6 31.45 5.6 29.95 5.95 29.3 5.95 29 5.95 28.95 5.95 28.3 5.95 27.95 5.95 27.9 5.95 25.95 5.9 19 6 Q7.9 6.65 2.55 9.65 L2.5 9.65 1 10 Q0.2 10 -0.45 9.65 L-0.5 9.65 Q-6.1 6.45 -18.05 5.95 -20.85 5.85 -24 5.9 L-24.05 5.9 -25.9 5.95 -25.95 5.95 -26.3 5.95 -26.95 5.95 -27 5.95 -27.3 5.95 -27.95 5.95 -29.4 5.6 -30.55 4.55 -30.55 4.5 -31 2.95 -31 -33 Q-31 -34.25 -30.1 -35.05 L-30.05 -35.1 Q-29.25 -36 -28 -36 L-25 -36 -24.3 -35.7 Q-24 -35.4 -24 -35 L-24 -5.05 Q-24 -4.25 -23.45 -3.65 L-23.35 -3.55 Q-22.8 -3.05 -22.05 -3.05 L-16.95 -2.75 Q-5.35 -1.8 0.15 0.85 L1 1.05 1.95 0.85 Q7.05 -1.7 17.85 -2.7 L17.9 -2.7 24.1 -3.05 Q24.8 -3.1 25.35 -3.5 L25.45 -3.6 25.45 -3.65 Q26 -4.25 26 -5.05 L26 -35 26.3 -35.7 27 -36 30 -36 Q31.25 -36 32.15 -35.1 M1 -3.95 Q-4.75 -6.8 -20 -7.95 L-21 -8.05 -21 -40 -19.9 -39.9 Q-9.85 -39.1 -5.25 -38 -1.65 -37.15 0.8 -36 L1 -35.9 1.25 -36 Q3.7 -37.15 7.3 -38 11.15 -38.9 23 -40 L23 -8.05 18.95 -7.65 Q6.35 -6.6 1 -3.95"/>
  </g>
</svg>