<svg xmlns="http://www.w3.org/2000/svg" xmlns:xlink="http://www.w3.org/1999/xlink">
  <defs/>
  <g>
    <path stroke="none" fill="#11141E" d="M-48.2 -64 L34 -64 36.45 -61.65 Q37.1 -61.05 38 -61 38.85 -61.05 39.5 -61.65 L42 -64 48.85 -64 49.45 -63.95 Q59.35 -63.6 62.5 -56.45 64 -53.1 64 -48.2 L64 48.25 Q64 53.1 62.5 56.5 59.15 64 48.25 64 L-40.35 64 -42.7 61.65 Q-43.3 61.05 -44.15 61 -45 61.05 -45.6 61.65 L-47.95 64 -48.2 64 Q-64 64 -64 48.25 L-64 -48.2 Q-64 -64 -48.2 -64 M-58 -48.2 L-58 15.25 Q-58 25 -48.2 25 L-46.4 25 -41 19.6 Q-40.4 19 -39.55 18.95 -38.7 19 -38.1 19.6 L-32.7 25 -28.4 25 -26 22.6 Q-25.4 22 -24.55 21.95 -23.7 22 -23.1 22.6 L-20.7 25 48.25 25 Q58 25 58 15.25 L58 -48.2 Q58 -58 48.25 -58 L43.4 -58 38.9 -53.5 Q38.3 -52.9 37.45 -52.85 36.6 -52.9 36 -53.5 L31.5 -58 25.4 -58 23.9 -56.5 Q23.3 -55.9 22.45 -55.85 21.6 -55.9 21 -56.5 L19.5 -58 -48.2 -58 Q-58 -58 -58 -48.2"/>
    <path stroke="none" fill="#FFFFFF" d="M-58 -48.2 Q-58 -58 -48.2 -58 L19.5 -58 21 -56.5 Q21.6 -55.9 22.45 -55.85 23.3 -55.9 23.9 -56.5 L25.4 -58 31.5 -58 36 -53.5 Q36.6 -52.9 37.45 -52.85 38.3 -52.9 38.9 -53.5 L43.4 -58 48.25 -58 Q58 -58 58 -48.2 L58 15.25 Q58 25 48.25 25 L-20.7 25 -23.1 22.6 Q-23.7 22 -24.55 21.95 -25.4 22 -26 22.6 L-28.4 25 -32.7 25 -38.1 19.6 Q-38.7 19 -39.55 18.95 -40.4 19 -41 19.6 L-46.4 25 -48.2 25 Q-58 25 -58 15.25 L-58 -48.2"/>
    <path stroke="none" fill="#11141E" d="M3 -6.1 L10 -7.85 13.75 -14.05 14.55 -14.65 15.5 -14.65 16.25 -14.05 20 -7.85 27 -6.1 27.8 -5.55 Q28.15 -5.15 28.1 -4.6 28.1 -4.05 27.75 -3.65 L23.1 1.9 23.65 9.15 23.4 10.1 Q23.1 10.55 22.6 10.7 L21.6 10.65 15 7.85 8.4 10.65 7.35 10.7 Q6.9 10.55 6.6 10.1 6.3 9.65 6.3 9.15 L6.9 1.9 2.25 -3.65 Q1.85 -4.05 1.85 -4.6 1.8 -5.15 2.15 -5.55 2.5 -5.95 3 -6.1"/>
    <path stroke="none" fill="#11141E" d="M-27 -6.1 L-20 -7.85 -16.25 -14.05 -15.45 -14.65 -14.5 -14.65 Q-14 -14.5 -13.75 -14.05 L-10 -7.85 -3 -6.1 -2.2 -5.55 Q-1.85 -5.15 -1.9 -4.6 -1.9 -4.05 -2.25 -3.65 L-6.9 1.9 -6.35 9.15 Q-6.3 9.65 -6.6 10.1 -6.9 10.55 -7.4 10.7 L-8.4 10.65 -15 7.85 -21.6 10.65 -22.65 10.7 -23.4 10.1 -23.7 9.15 -23.1 1.9 -27.75 -3.65 Q-28.15 -4.05 -28.15 -4.6 -28.2 -5.15 -27.85 -5.55 L-27 -6.1"/>
    <path stroke="none" fill="#11141E" d="M3 -36.1 L10 -37.85 13.75 -44.05 14.55 -44.65 15.5 -44.65 16.25 -44.05 20 -37.85 27 -36.1 27.8 -35.55 Q28.15 -35.15 28.1 -34.6 28.1 -34.05 27.75 -33.65 L23.1 -28.1 23.65 -20.85 Q23.7 -20.35 23.4 -19.9 23.1 -19.45 22.6 -19.3 L21.6 -19.35 15 -22.15 8.4 -19.35 7.35 -19.3 Q6.9 -19.45 6.6 -19.9 6.3 -20.35 6.3 -20.85 L6.9 -28.1 2.25 -33.65 Q1.85 -34.05 1.85 -34.6 1.8 -35.15 2.15 -35.55 2.5 -35.95 3 -36.1"/>
    <path stroke="none" fill="#11141E" d="M-27 -36.1 L-20 -37.85 -16.25 -44.05 -15.45 -44.65 -14.5 -44.65 Q-14 -44.5 -13.75 -44.05 L-10 -37.85 -3 -36.1 -2.2 -35.55 Q-1.85 -35.15 -1.9 -34.6 -1.9 -34.05 -2.25 -33.65 L-6.9 -28.1 -6.35 -20.85 Q-6.3 -20.35 -6.6 -19.9 -6.9 -19.45 -7.4 -19.3 L-8.4 -19.35 -15 -22.15 -21.6 -19.35 -22.65 -19.3 -23.4 -19.9 -23.7 -20.85 -23.1 -28.1 -27.75 -33.65 Q-28.15 -34.05 -28.15 -34.6 -28.2 -35.15 -27.85 -35.55 L-27 -36.1"/>
  </g>
</svg>