<svg xmlns="http://www.w3.org/2000/svg" xmlns:xlink="http://www.w3.org/1999/xlink">
  <defs/>
  <g>
    <path stroke="none" fill="#11141E" d="M-48.2 -64 L34 -64 36.45 -61.65 Q37.1 -61.05 38 -61 38.85 -61.05 39.5 -61.65 L42 -64 48.85 -64 49.45 -63.95 Q59.35 -63.6 62.5 -56.45 64 -53.1 64 -48.2 L64 48.25 Q64 53.1 62.5 56.5 59.15 64 48.25 64 L-40.35 64 -42.7 61.65 Q-43.3 61.05 -44.15 61 -45 61.05 -45.6 61.65 L-47.95 64 -48.2 64 Q-64 64 -64 48.25 L-64 -48.2 Q-64 -64 -48.2 -64 M-58 -48.2 L-58 15.25 Q-58 25 -48.2 25 L-46.4 25 -41 19.6 Q-40.4 19 -39.55 18.95 -38.7 19 -38.1 19.6 L-32.7 25 -28.4 25 -26 22.6 Q-25.4 22 -24.55 21.95 -23.7 22 -23.1 22.6 L-20.7 25 48.25 25 Q58 25 58 15.25 L58 -48.2 Q58 -58 48.25 -58 L43.4 -58 38.9 -53.5 Q38.3 -52.9 37.45 -52.85 36.6 -52.9 36 -53.5 L31.5 -58 25.4 -58 23.9 -56.5 Q23.3 -55.9 22.45 -55.85 21.6 -55.9 21 -56.5 L19.5 -58 -48.2 -58 Q-58 -58 -58 -48.2"/>
    <path stroke="none" fill="#FFFFFF" d="M-58 -48.2 Q-58 -58 -48.2 -58 L19.5 -58 21 -56.5 Q21.6 -55.9 22.45 -55.85 23.3 -55.9 23.9 -56.5 L25.4 -58 31.5 -58 36 -53.5 Q36.6 -52.9 37.45 -52.85 38.3 -52.9 38.9 -53.5 L43.4 -58 48.25 -58 Q58 -58 58 -48.2 L58 15.25 Q58 25 48.25 25 L-20.7 25 -23.1 22.6 Q-23.7 22 -24.55 21.95 -25.4 22 -26 22.6 L-28.4 25 -32.7 25 -38.1 19.6 Q-38.7 19 -39.55 18.95 -40.4 19 -41 19.6 L-46.4 25 -48.2 25 Q-58 25 -58 15.25 L-58 -48.2"/>
    <path stroke="none" fill="#11141E" d="M7.5 -20.1 L14.5 -21.85 18.25 -28.05 19.05 -28.65 20 -28.65 20.75 -28.05 24.5 -21.85 31.5 -20.1 32.3 -19.55 Q32.65 -19.15 32.6 -18.6 32.6 -18.05 32.25 -17.65 L27.6 -12.1 28.15 -4.85 Q28.2 -4.35 27.9 -3.9 27.6 -3.45 27.1 -3.3 L26.1 -3.35 19.5 -6.15 12.9 -3.35 11.85 -3.3 Q11.4 -3.45 11.1 -3.9 10.8 -4.35 10.8 -4.85 L11.4 -12.1 6.75 -17.65 Q6.35 -18.05 6.35 -18.6 6.3 -19.15 6.65 -19.55 L7.5 -20.1"/>
    <path stroke="none" fill="#11141E" d="M-32.5 -20.1 L-25.5 -21.85 -21.75 -28.05 Q-21.5 -28.5 -20.95 -28.65 L-20 -28.65 -19.25 -28.05 -15.5 -21.85 -8.5 -20.1 Q-8.05 -19.95 -7.7 -19.55 -7.35 -19.15 -7.4 -18.6 -7.4 -18.05 -7.75 -17.65 L-12.4 -12.1 -11.85 -4.85 Q-11.8 -4.35 -12.1 -3.9 -12.4 -3.45 -12.9 -3.3 L-13.9 -3.35 -20.5 -6.15 -27.1 -3.35 -28.15 -3.3 -28.9 -3.9 -29.2 -4.85 -28.6 -12.1 -33.25 -17.65 Q-33.65 -18.05 -33.65 -18.6 -33.7 -19.15 -33.35 -19.55 L-32.5 -20.1"/>
  </g>
</svg>