<svg xmlns="http://www.w3.org/2000/svg" xmlns:xlink="http://www.w3.org/1999/xlink">
  <defs/>
  <g>
    <path stroke="none" fill="#11141E" d="M-48.2 -64 L34 -64 36.45 -61.65 Q37.1 -61.05 38 -61 38.85 -61.05 39.5 -61.65 L42 -64 48.85 -64 49.45 -63.95 Q59.35 -63.6 62.5 -56.45 64 -53.1 64 -48.2 L64 48.25 Q64 53.1 62.5 56.5 59.15 64 48.25 64 L-40.35 64 -42.7 61.65 Q-43.3 61.05 -44.15 61 -45 61.05 -45.6 61.65 L-47.95 64 -48.2 64 Q-64 64 -64 48.25 L-64 -48.2 Q-64 -64 -48.2 -64 M-58 -48.2 L-58 15.25 Q-58 25 -48.2 25 L-46.4 25 -41 19.6 Q-40.4 19 -39.55 18.95 -38.7 19 -38.1 19.6 L-32.7 25 -28.4 25 -26 22.6 Q-25.4 22 -24.55 21.95 -23.7 22 -23.1 22.6 L-20.7 25 48.25 25 Q58 25 58 15.25 L58 -48.2 Q58 -58 48.25 -58 L43.4 -58 38.9 -53.5 Q38.3 -52.9 37.45 -52.85 36.6 -52.9 36 -53.5 L31.5 -58 25.4 -58 23.9 -56.5 Q23.3 -55.9 22.45 -55.85 21.6 -55.9 21 -56.5 L19.5 -58 -48.2 -58 Q-58 -58 -58 -48.2"/>
    <path stroke="none" fill="#FFFFFF" d="M-58 -48.2 Q-58 -58 -48.2 -58 L19.5 -58 21 -56.5 Q21.6 -55.9 22.45 -55.85 23.3 -55.9 23.9 -56.5 L25.4 -58 31.5 -58 36 -53.5 Q36.6 -52.9 37.45 -52.85 38.3 -52.9 38.9 -53.5 L43.4 -58 48.25 -58 Q58 -58 58 -48.2 L58 15.25 Q58 25 48.25 25 L-20.7 25 -23.1 22.6 Q-23.7 22 -24.55 21.95 -25.4 22 -26 22.6 L-28.4 25 -32.7 25 -38.1 19.6 Q-38.7 19 -39.55 18.95 -40.4 19 -41 19.6 L-46.4 25 -48.2 25 Q-58 25 -58 15.25 L-58 -48.2"/>
    <path stroke="none" fill="#11141E" d="M7.5 -10.1 L14.5 -11.85 18.25 -18.05 19.05 -18.65 20 -18.65 20.75 -18.05 24.5 -11.85 31.5 -10.1 32.3 -9.55 Q32.65 -9.15 32.6 -8.6 32.6 -8.05 32.25 -7.65 L27.6 -2.1 28.15 5.15 27.9 6.1 Q27.6 6.55 27.1 6.7 L26.1 6.65 19.5 3.85 12.9 6.65 11.85 6.7 11.1 6.1 Q10.8 5.65 10.8 5.15 L11.4 -2.1 6.75 -7.65 Q6.35 -8.05 6.35 -8.6 6.3 -9.15 6.65 -9.55 L7.5 -10.1"/>
    <path stroke="none" fill="#11141E" d="M-32.5 -10.1 L-25.5 -11.85 -21.75 -18.05 Q-21.5 -18.5 -20.95 -18.65 L-20 -18.65 -19.25 -18.05 -15.5 -11.85 -8.5 -10.1 Q-8.05 -9.95 -7.7 -9.55 -7.35 -9.15 -7.4 -8.6 -7.4 -8.05 -7.75 -7.65 L-12.4 -2.1 -11.85 5.15 Q-11.8 5.65 -12.1 6.1 L-12.9 6.7 -13.9 6.65 -20.5 3.85 -27.1 6.65 -28.15 6.7 -28.9 6.1 -29.2 5.15 -28.6 -2.1 -33.25 -7.65 Q-33.65 -8.05 -33.65 -8.6 -33.7 -9.15 -33.35 -9.55 L-32.5 -10.1"/>
    <path stroke="none" fill="#11141E" d="M-12.5 -36.1 L-5.5 -37.85 -1.75 -44.05 -0.95 -44.65 0 -44.65 0.75 -44.05 4.5 -37.85 11.5 -36.1 12.3 -35.55 Q12.65 -35.15 12.6 -34.6 12.6 -34.05 12.25 -33.65 L7.6 -28.1 8.15 -20.85 Q8.2 -20.35 7.9 -19.9 7.6 -19.45 7.1 -19.3 L6.1 -19.35 -0.5 -22.15 -7.1 -19.35 -8.15 -19.3 -8.9 -19.9 -9.2 -20.85 -8.6 -28.1 -13.25 -33.65 Q-13.65 -34.05 -13.65 -34.6 -13.7 -35.15 -13.35 -35.55 L-12.5 -36.1"/>
  </g>
</svg>