<svg xmlns="http://www.w3.org/2000/svg" xmlns:xlink="http://www.w3.org/1999/xlink">
  <defs/>
  <g>
    <path stroke="none" fill="#11141E" d="M-48.2 -64 L34 -64 36.45 -61.65 Q37.1 -61.05 38 -61 38.85 -61.05 39.5 -61.65 L42 -64 48.85 -64 49.45 -63.95 Q59.35 -63.6 62.5 -56.45 64 -53.1 64 -48.2 L64 48.25 Q64 53.1 62.5 56.5 59.15 64 48.25 64 L-40.35 64 -42.7 61.65 Q-43.3 61.05 -44.15 61 -45 61.05 -45.6 61.65 L-47.95 64 -48.2 64 Q-64 64 -64 48.25 L-64 -48.2 Q-64 -64 -48.2 -64 M-58 -48.2 L-58 15.25 Q-58 25 -48.2 25 L-46.4 25 -41 19.6 Q-40.4 19 -39.55 18.95 -38.7 19 -38.1 19.6 L-32.7 25 -28.4 25 -26 22.6 Q-25.4 22 -24.55 21.95 -23.7 22 -23.1 22.6 L-20.7 25 48.25 25 Q58 25 58 15.25 L58 -48.2 Q58 -58 48.25 -58 L43.4 -58 38.9 -53.5 Q38.3 -52.9 37.45 -52.85 36.6 -52.9 36 -53.5 L31.5 -58 25.4 -58 23.9 -56.5 Q23.3 -55.9 22.45 -55.85 21.6 -55.9 21 -56.5 L19.5 -58 -48.2 -58 Q-58 -58 -58 -48.2"/>
    <path stroke="none" fill="#FFFFFF" d="M-58 -48.2 Q-58 -58 -48.2 -58 L19.5 -58 21 -56.5 Q21.6 -55.9 22.45 -55.85 23.3 -55.9 23.9 -56.5 L25.4 -58 31.5 -58 36 -53.5 Q36.6 -52.9 37.45 -52.85 38.3 -52.9 38.9 -53.5 L43.4 -58 48.25 -58 Q58 -58 58 -48.2 L58 15.25 Q58 25 48.25 25 L-20.7 25 -23.1 22.6 Q-23.7 22 -24.55 21.95 -25.4 22 -26 22.6 L-28.4 25 -32.7 25 -38.1 19.6 Q-38.7 19 -39.55 18.95 -40.4 19 -41 19.6 L-46.4 25 -48.2 25 Q-58 25 -58 15.25 L-58 -48.2"/>
    <path stroke="none" fill="#11141E" d="M-16.55 -28.6 L-20.55 -35.55 -20.65 -36.3 -20.2 -36.9 -13.25 -40.9 -12.5 -41 -11.9 -40.55 -8.3 -34.3 -8.15 -34.1 1.85 -16.75 1.95 -16 0.45 -10.55 0 -9.95 -0.75 -9.85 -6.2 -11.3 Q-6.6 -11.45 -6.8 -11.75 L-16.4 -28.4 -16.55 -28.6 M4.35 -18.4 L-1.2 -28 -1.15 -28.05 Q5.25 -32.05 11.6 -28.1 L27.1 -18.35 Q31.3 -15.75 30.9 -12.8 31.3 -9.95 27.1 -7.3 L2.05 8.4 Q-4.3 12.35 -10.65 8.4 L-10.7 8.4 -26.15 -1.35 -26.1 -1.35 Q-30.35 -3.95 -29.95 -6.85 -30.35 -9.75 -26.1 -12.35 L-26.15 -12.35 -14.75 -19.5 -9.4 -10.25 -9.3 -10.05 Q-8.65 -9 -7.25 -8.5 L-6.95 -8.4 -1.5 -6.95 -1.45 -6.95 Q0.1 -6.55 1.5 -7.35 2.95 -8.15 3.35 -9.8 L3.35 -9.75 4.85 -15.2 4.9 -15.35 Q5.3 -17.2 4.35 -18.4"/>
    <path stroke="none" fill="#FFFFFF" d="M43.35 49.5 L43.35 42.45 Q43.35 41.85 43.75 41.5 44.15 41.15 44.7 41.15 45.95 41.15 45.95 42.25 L46 42.25 46.8 41.4 47.8 41.15 Q48.3 41.15 48.7 41.5 49.05 41.9 49.05 42.55 L48.85 43.15 48.3 43.5 47.5 43.8 46.35 44.5 Q45.95 44.85 45.95 45.55 L45.95 49.5 45.8 50.25 45.3 50.8 44.65 50.95 Q44.05 50.95 43.7 50.55 43.35 50.15 43.35 49.5 M41.35 46.95 L35.85 46.95 Q35.95 47.85 36.65 48.35 L38.25 48.8 39.3 48.6 40.3 48.1 41.2 47.75 41.75 47.9 42.1 48.35 42.25 48.85 41.9 49.65 40.9 50.4 39.5 50.9 38.05 51.05 Q36.6 51.05 35.5 50.45 34.4 49.8 33.8 48.65 33.2 47.5 33.2 46.1 33.2 45.1 33.55 44.2 33.85 43.3 34.5 42.55 35.1 41.85 36 41.45 36.85 41.05 37.85 41.05 38.85 41.05 39.7 41.5 40.6 41.9 41.2 42.6 L42.15 44.1 Q42.5 44.95 42.5 45.75 42.5 46.95 41.35 46.95 M3.1 49.55 L3.1 39.45 Q3.1 38.8 3.5 38.4 3.85 38.05 4.5 38.05 L7.7 38.05 Q9 38.05 10.05 38.55 11.1 39.1 11.7 40.1 12.3 41.1 12.3 42.35 L11.95 44.1 11 45.45 9.55 46.3 7.8 46.6 5.8 46.6 5.8 49.55 Q5.8 50.25 5.45 50.6 5.05 50.95 4.45 50.95 3.85 50.95 3.5 50.6 3.1 50.2 3.1 49.55 M5.8 40.4 L5.8 44.2 7.65 44.2 Q8.45 44.2 9 43.7 9.5 43.15 9.5 42.3 L9.25 41.35 8.6 40.65 Q8.2 40.4 7.65 40.4 L5.8 40.4 M21.9 42.85 L21.9 49.25 21.7 50.5 Q21.5 50.95 20.65 50.95 L19.85 50.7 19.4 49.85 Q18.4 51.05 16.95 51.05 15.75 51.05 14.75 50.45 13.8 49.8 13.2 48.65 12.65 47.5 12.65 46.1 12.65 44.7 13.25 43.55 13.8 42.4 14.8 41.75 15.75 41.05 16.95 41.05 L18.35 41.35 19.4 42.25 Q19.45 41.75 19.8 41.45 20.2 41.15 20.65 41.15 21.5 41.15 21.7 41.65 L21.9 42.85 M15.25 46.1 L15.5 47.35 Q15.7 47.95 16.2 48.3 16.65 48.7 17.3 48.7 18.25 48.7 18.8 47.9 19.3 47.1 19.3 46.1 L19.1 44.8 18.4 43.8 Q17.95 43.45 17.3 43.45 16.65 43.45 16.2 43.8 15.7 44.2 15.5 44.8 L15.25 46.1 M23.4 53.35 L23.4 42.6 Q23.4 41.95 23.75 41.55 24.1 41.15 24.7 41.15 25.7 41.15 26 42.25 26.35 41.65 27 41.35 27.7 41.05 28.45 41.05 29.75 41.05 30.7 41.8 31.65 42.5 32.15 43.7 32.65 44.85 32.65 46.2 32.65 47.4 32.1 48.55 31.55 49.7 30.6 50.4 29.6 51.05 28.35 51.05 L27.1 50.85 26 50.15 26 53.35 25.8 54.1 25.35 54.6 24.7 54.75 Q24.1 54.75 23.75 54.4 23.4 54 23.4 53.35 M26 46 Q26 47.05 26.5 47.85 27.05 48.7 28 48.7 28.65 48.7 29.1 48.3 L29.8 47.35 30.05 46.1 29.8 44.8 29.1 43.85 Q28.65 43.45 28 43.45 27.35 43.45 26.9 43.8 26.45 44.15 26.2 44.75 L26 46 M35.75 45.2 L39.9 45.2 Q39.8 44.3 39.25 43.75 38.7 43.2 37.85 43.2 37 43.2 36.45 43.75 35.9 44.35 35.75 45.2 M-31.35 46.95 L-36.85 46.95 Q-36.75 47.85 -36.05 48.35 L-34.45 48.8 -33.4 48.6 -32.4 48.1 Q-31.75 47.75 -31.5 47.75 L-30.95 47.9 -30.6 48.35 -30.45 48.85 Q-30.45 49.3 -30.8 49.65 L-31.8 50.4 -33.2 50.9 -34.65 51.05 Q-36.1 51.05 -37.2 50.45 -38.3 49.8 -38.9 48.65 -39.5 47.5 -39.5 46.1 -39.5 45.1 -39.15 44.2 -38.85 43.3 -38.2 42.55 -37.6 41.85 -36.7 41.45 L-34.85 41.05 Q-33.85 41.05 -33 41.5 -32.1 41.9 -31.5 42.6 -30.9 43.25 -30.55 44.1 -30.2 44.95 -30.2 45.75 -30.2 46.95 -31.35 46.95 M-48.9 49.55 L-48.9 39.45 Q-48.9 38.8 -48.5 38.4 -48.15 38.05 -47.5 38.05 L-44.3 38.05 Q-43 38.05 -41.95 38.55 -40.9 39.1 -40.3 40.1 -39.7 41.1 -39.7 42.35 -39.7 43.3 -40.05 44.1 L-41 45.45 Q-41.65 46 -42.45 46.3 L-44.2 46.6 -46.2 46.6 -46.2 49.55 Q-46.2 50.25 -46.55 50.6 -46.95 50.95 -47.55 50.95 -48.15 50.95 -48.5 50.6 -48.9 50.2 -48.9 49.55 M-36.95 45.2 L-32.8 45.2 Q-32.9 44.3 -33.45 43.75 -34 43.2 -34.85 43.2 -35.7 43.2 -36.25 43.75 -36.8 44.35 -36.95 45.2 M-29.3 49.5 L-29.3 42.6 Q-29.3 41.95 -28.95 41.55 -28.6 41.15 -28 41.15 L-27.2 41.4 -26.8 42.1 Q-26.05 41.05 -24.35 41.05 -23.3 41.05 -22.5 41.5 -21.7 41.9 -21.25 42.7 -20.8 43.45 -20.8 44.55 L-20.8 49.5 Q-20.8 49.95 -20.95 50.25 L-21.4 50.8 -22.1 50.95 Q-22.65 50.95 -23 50.55 L-23.35 49.5 -23.35 45 Q-23.35 44.15 -23.85 43.7 -24.3 43.2 -25.05 43.2 L-25.95 43.45 -26.55 44.1 -26.7 45 -26.7 49.5 -26.9 50.25 Q-27.05 50.6 -27.35 50.8 L-28 50.95 Q-28.6 50.95 -28.95 50.55 L-29.3 49.5 M-8.25 40.9 Q-8.25 40.35 -8.65 40.1 L-9.45 39.85 -10.2 40.15 -10.55 40.75 -10.35 41.45 -9.6 42.3 Q-8.25 41.65 -8.25 40.9 M-8.05 43.8 L-6.2 45.9 -5.5 45.1 -4.8 44.45 -4.1 44.25 Q-3.7 44.25 -3.4 44.55 -3.1 44.85 -3.1 45.35 L-3.35 46.15 -4.1 47.1 -4.55 47.6 -3.35 48.95 -3.05 49.4 -2.95 49.85 Q-2.95 50.35 -3.3 50.7 -3.7 51.05 -4.2 51.05 -4.75 51.05 -5.15 50.65 L-6.4 49.35 -7.6 50.25 Q-8.25 50.65 -8.9 50.85 L-10.35 51.05 -12.6 50.6 Q-13.6 50.15 -14.2 49.3 -14.75 48.4 -14.75 47.2 -14.75 45.9 -14 44.9 -13.25 43.95 -12.05 43.25 L-12.95 42.1 -13.25 40.85 Q-13.25 39.85 -12.7 39.2 L-11.3 38.15 Q-10.45 37.8 -9.45 37.8 L-7.75 38.15 Q-6.9 38.45 -6.35 39.1 -5.8 39.75 -5.8 40.65 -5.8 41.65 -6.45 42.45 -7.1 43.3 -8.05 43.8 M-8 47.65 L-10.65 44.75 -11.75 45.7 Q-12.2 46.2 -12.2 46.95 -12.2 47.75 -11.65 48.25 L-10.3 48.7 -9.1 48.45 -8 47.65 M-46.2 40.4 L-46.2 44.2 -44.35 44.2 Q-43.55 44.2 -43 43.7 -42.5 43.15 -42.5 42.3 -42.5 41.8 -42.75 41.35 -42.95 40.9 -43.4 40.65 L-44.35 40.4 -46.2 40.4"/>
  </g>
</svg>