<svg xmlns="http://www.w3.org/2000/svg" xmlns:xlink="http://www.w3.org/1999/xlink">
  <defs/>
  <g>
    <path stroke="none" fill="#11141E" d="M-48.2 -64 L34 -64 36.45 -61.65 Q37.1 -61.05 38 -61 38.85 -61.05 39.5 -61.65 L42 -64 48.85 -64 49.45 -63.95 Q59.35 -63.6 62.5 -56.45 64 -53.1 64 -48.2 L64 48.25 Q64 53.1 62.5 56.5 59.15 64 48.25 64 L-40.35 64 -42.7 61.65 Q-43.3 61.05 -44.15 61 -45 61.05 -45.6 61.65 L-47.95 64 -48.2 64 Q-64 64 -64 48.25 L-64 -48.2 Q-64 -64 -48.2 -64 M-58 -48.2 L-58 15.25 Q-58 25 -48.2 25 L-46.4 25 -41 19.6 Q-40.4 19 -39.55 18.95 -38.7 19 -38.1 19.6 L-32.7 25 -28.4 25 -26 22.6 Q-25.4 22 -24.55 21.95 -23.7 22 -23.1 22.6 L-20.7 25 48.25 25 Q58 25 58 15.25 L58 -48.2 Q58 -58 48.25 -58 L43.4 -58 38.9 -53.5 Q38.3 -52.9 37.45 -52.85 36.6 -52.9 36 -53.5 L31.5 -58 25.4 -58 23.9 -56.5 Q23.3 -55.9 22.45 -55.85 21.6 -55.9 21 -56.5 L19.5 -58 -48.2 -58 Q-58 -58 -58 -48.2"/>
    <path stroke="none" fill="#FFFFFF" d="M-58 -48.2 Q-58 -58 -48.2 -58 L19.5 -58 21 -56.5 Q21.6 -55.9 22.45 -55.85 23.3 -55.9 23.9 -56.5 L25.4 -58 31.5 -58 36 -53.5 Q36.6 -52.9 37.45 -52.85 38.3 -52.9 38.9 -53.5 L43.4 -58 48.25 -58 Q58 -58 58 -48.2 L58 15.25 Q58 25 48.25 25 L-20.7 25 -23.1 22.6 Q-23.7 22 -24.55 21.95 -25.4 22 -26 22.6 L-28.4 25 -32.7 25 -38.1 19.6 Q-38.7 19 -39.55 18.95 -40.4 19 -41 19.6 L-46.4 25 -48.2 25 Q-58 25 -58 15.25 L-58 -48.2"/>
    <path stroke="none" fill="#11141E" d="M-16.55 -28.6 L-20.55 -35.55 -20.65 -36.3 -20.2 -36.9 -13.25 -40.9 -12.5 -41 -11.9 -40.55 -8.3 -34.3 -8.15 -34.1 1.85 -16.75 1.95 -16 0.45 -10.55 0 -9.95 -0.75 -9.85 -6.2 -11.3 Q-6.6 -11.45 -6.8 -11.75 L-16.4 -28.4 -16.55 -28.6 M4.35 -18.4 L-1.2 -28 -1.15 -28.05 Q5.25 -32.05 11.6 -28.1 L27.1 -18.35 Q31.3 -15.75 30.9 -12.8 31.3 -9.95 27.1 -7.3 L2.05 8.4 Q-4.3 12.35 -10.65 8.4 L-10.7 8.4 -26.15 -1.35 -26.1 -1.35 Q-30.35 -3.95 -29.95 -6.85 -30.35 -9.75 -26.1 -12.35 L-26.15 -12.35 -14.75 -19.5 -9.4 -10.25 -9.3 -10.05 Q-8.65 -9 -7.25 -8.5 L-6.95 -8.4 -1.5 -6.95 -1.45 -6.95 Q0.1 -6.55 1.5 -7.35 2.95 -8.15 3.35 -9.8 L3.35 -9.75 4.85 -15.2 4.9 -15.35 Q5.3 -17.2 4.35 -18.4"/>
  </g>
</svg>