<svg xmlns="http://www.w3.org/2000/svg" xmlns:xlink="http://www.w3.org/1999/xlink">
  <defs/>
  <g>
    <path stroke="none" fill="#11141E" d="M-48.2 -64 L34 -64 36.45 -61.65 Q37.1 -61.05 38 -61 38.85 -61.05 39.5 -61.65 L42 -64 48.85 -64 49.45 -63.95 Q59.35 -63.6 62.5 -56.45 64 -53.1 64 -48.2 L64 48.25 Q64 53.1 62.5 56.5 59.15 64 48.25 64 L-40.35 64 -42.7 61.65 Q-43.3 61.05 -44.15 61 -45 61.05 -45.6 61.65 L-47.95 64 -48.2 64 Q-64 64 -64 48.25 L-64 -48.2 Q-64 -64 -48.2 -64 M-58 -48.2 L-58 15.25 Q-58 25 -48.2 25 L-46.4 25 -41 19.6 Q-40.4 19 -39.55 18.95 -38.7 19 -38.1 19.6 L-32.7 25 -28.4 25 -26 22.6 Q-25.4 22 -24.55 21.95 -23.7 22 -23.1 22.6 L-20.7 25 48.25 25 Q58 25 58 15.25 L58 -48.2 Q58 -58 48.25 -58 L43.4 -58 38.9 -53.5 Q38.3 -52.9 37.45 -52.85 36.6 -52.9 36 -53.5 L31.5 -58 25.4 -58 23.9 -56.5 Q23.3 -55.9 22.45 -55.85 21.6 -55.9 21 -56.5 L19.5 -58 -48.2 -58 Q-58 -58 -58 -48.2"/>
    <path stroke="none" fill="#FFFFFF" d="M-58 -48.2 Q-58 -58 -48.2 -58 L19.5 -58 21 -56.5 Q21.6 -55.9 22.45 -55.85 23.3 -55.9 23.9 -56.5 L25.4 -58 31.5 -58 36 -53.5 Q36.6 -52.9 37.45 -52.85 38.3 -52.9 38.9 -53.5 L43.4 -58 48.25 -58 Q58 -58 58 -48.2 L58 15.25 Q58 25 48.25 25 L-20.7 25 -23.1 22.6 Q-23.7 22 -24.55 21.95 -25.4 22 -26 22.6 L-28.4 25 -32.7 25 -38.1 19.6 Q-38.7 19 -39.55 18.95 -40.4 19 -41 19.6 L-46.4 25 -48.2 25 Q-58 25 -58 15.25 L-58 -48.2"/>
    <path stroke="none" fill="#11141E" d="M31.75 -11.35 L36.3 -2.25 36.65 -0.6 36.65 2.45 Q36.65 4 35.55 5.1 34.45 6.2 32.9 6.2 L18.5 6.2 18.5 2.65 Q18.5 0.7 17.7 -1.1 L17.65 -1.2 15.75 -4.95 18.95 -11.35 19.4 -12.05 Q18.25 -12.75 17.25 -13.75 L16.25 -14.95 Q18.5 -18.9 18.5 -23.8 18.5 -27.1 17.45 -30 20.75 -33.1 25.3 -33.1 30 -33.1 33.3 -29.8 36.65 -26.45 36.65 -21.75 36.65 -17.05 33.3 -13.75 32.35 -12.75 31.25 -12.1 L31.75 -11.35 M8.4 -10.8 L14.05 0.55 Q14.5 1.55 14.5 2.65 L14.5 6.45 Q14.5 8.4 13.15 9.75 11.75 11.15 9.8 11.15 L-9.1 11.15 Q-11.05 11.15 -12.45 9.75 -13.8 8.4 -13.8 6.45 L-13.8 2.65 Q-13.8 1.6 -13.35 0.65 L-13.3 0.55 -7.6 -10.8 -7.05 -11.7 -9.75 -13.8 Q-12.55 -16.7 -13.4 -20.4 -13.8 -22 -13.8 -23.8 L-13.75 -24.9 Q-13.4 -30.1 -9.75 -33.85 -5.55 -38 0.3 -38 6.2 -38 10.3 -33.85 14.05 -30.15 14.45 -25.05 L14.5 -23.8 Q14.5 -21.95 14.1 -20.25 13.2 -16.65 10.3 -13.8 L7.75 -11.75 8.4 -10.8 M-18.25 -11.35 L-15 -4.9 -16.85 -1.25 Q-17.8 0.6 -17.8 2.65 L-17.8 6.2 -32.25 6.2 Q-33.8 6.2 -34.9 5.1 -36 4 -36 2.45 L-36 -0.6 Q-36 -1.45 -35.6 -2.25 L-31.05 -11.35 -30.6 -12.05 -32.75 -13.75 Q-36 -17.05 -36 -21.75 -36 -26.45 -32.75 -29.8 -29.4 -33.1 -24.7 -33.1 -20.1 -33.1 -16.8 -29.9 -17.8 -27.05 -17.8 -23.8 -17.8 -18.95 -15.6 -14.95 L-16.7 -13.75 Q-17.65 -12.75 -18.75 -12.1 L-18.25 -11.35"/>
  </g>
</svg>