<svg xmlns="http://www.w3.org/2000/svg" xmlns:xlink="http://www.w3.org/1999/xlink">
  <defs/>
  <g>
    <path stroke="none" fill="#11141E" d="M-48.2 -64 L34 -64 36.45 -61.65 Q37.1 -61.05 38 -61 38.85 -61.05 39.5 -61.65 L42 -64 48.85 -64 49.45 -63.95 Q59.35 -63.6 62.5 -56.45 64 -53.1 64 -48.2 L64 48.25 Q64 53.1 62.5 56.5 59.15 64 48.25 64 L-40.35 64 -42.7 61.65 Q-43.3 61.05 -44.15 61 -45 61.05 -45.6 61.65 L-47.95 64 -48.2 64 Q-64 64 -64 48.25 L-64 -48.2 Q-64 -64 -48.2 -64 M-58 -48.2 L-58 15.25 Q-58 25 -48.2 25 L-46.4 25 -41 19.6 Q-40.4 19 -39.55 18.95 -38.7 19 -38.1 19.6 L-32.7 25 -28.4 25 -26 22.6 Q-25.4 22 -24.55 21.95 -23.7 22 -23.1 22.6 L-20.7 25 48.25 25 Q58 25 58 15.25 L58 -48.2 Q58 -58 48.25 -58 L43.4 -58 38.9 -53.5 Q38.3 -52.9 37.45 -52.85 36.6 -52.9 36 -53.5 L31.5 -58 25.4 -58 23.9 -56.5 Q23.3 -55.9 22.45 -55.85 21.6 -55.9 21 -56.5 L19.5 -58 -48.2 -58 Q-58 -58 -58 -48.2"/>
    <path stroke="none" fill="#FFFFFF" d="M-58 -48.2 Q-58 -58 -48.2 -58 L19.5 -58 21 -56.5 Q21.6 -55.9 22.45 -55.85 23.3 -55.9 23.9 -56.5 L25.4 -58 31.5 -58 36 -53.5 Q36.6 -52.9 37.45 -52.85 38.3 -52.9 38.9 -53.5 L43.4 -58 48.25 -58 Q58 -58 58 -48.2 L58 15.25 Q58 25 48.25 25 L-20.7 25 -23.1 22.6 Q-23.7 22 -24.55 21.95 -25.4 22 -26 22.6 L-28.4 25 -32.7 25 -38.1 19.6 Q-38.7 19 -39.55 18.95 -40.4 19 -41 19.6 L-46.4 25 -48.2 25 Q-58 25 -58 15.25 L-58 -48.2"/>
    <path stroke="none" fill="#11141E" d="M37 -12.8 L41.6 -3.6 Q42 -2.85 42 -2 L42 -1.9 42 1.2 Q42 2.8 40.9 3.9 39.8 5 38.15 5 L22.85 5 Q21.25 5 20.15 3.9 19 2.8 19 1.2 L19 -1.9 19 -2 Q19 -2.85 19.4 -3.6 L24 -12.8 24.1 -12.9 22.35 -14.35 Q19 -17.7 19 -22.5 19 -27.25 22.35 -30.6 25.7 -34 30.5 -34 35.25 -34 38.6 -30.6 42 -27.25 42 -22.5 42 -17.7 38.6 -14.35 L36.95 -12.95 37 -12.8 M12 -16 Q14.05 -16 15.55 -14.5 16.95 -13.1 17 -11.1 L17 -9 Q17 -6.95 15.6 -5.45 L15.55 -5.4 Q14.1 -4.05 12.15 -4 L6 -4 6 1 6.95 1 7.95 1.2 Q9.3 1.75 10.35 2.8 L10.4 2.8 Q11.5 4 11.95 5.5 L11.9 5.45 Q12.1 6.05 11.9 6.7 L11.25 7.65 11.05 7.75 10 8 -8 8 -9.05 7.75 -9.2 7.65 -9.9 6.7 Q-10.1 6.05 -9.9 5.45 L-9.9 5.5 Q-9.5 4 -8.35 2.8 -7.35 1.8 -5.95 1.2 L-4.95 1 -4 1 -4 -4 -11 -4 Q-13.05 -4 -14.5 -5.45 -16 -6.95 -16 -9 L-16 -11 -16 -11.1 Q-15.95 -13.1 -14.5 -14.5 -13.05 -16 -11 -16 L12 -16 M-23 -12.8 L-18.4 -3.6 Q-18 -2.8 -18 -1.9 L-18 1.2 Q-18 2.8 -19.1 3.9 -20.2 5 -21.85 5 L-37.15 5 Q-38.75 5 -39.85 3.9 -41 2.8 -41 1.2 L-41 -1.9 Q-41 -2.8 -40.6 -3.6 L-36 -12.8 -35.9 -12.9 -37.65 -14.35 Q-41 -17.7 -41 -22.5 -41 -27.25 -37.65 -30.6 -34.3 -34 -29.5 -34 -24.75 -34 -21.4 -30.6 -18 -27.25 -18 -22.5 -18 -17.7 -21.4 -14.35 L-23.05 -12.95 -23 -12.8"/>
  </g>
</svg>