<svg xmlns="http://www.w3.org/2000/svg" xmlns:xlink="http://www.w3.org/1999/xlink">
  <defs/>
  <g>
    <path stroke="none" fill="#11141E" d="M-48.2 -64 L34 -64 36.45 -61.65 Q37.1 -61.05 38 -61 38.85 -61.05 39.5 -61.65 L42 -64 48.85 -64 49.45 -63.95 Q59.35 -63.6 62.5 -56.45 64 -53.1 64 -48.2 L64 48.25 Q64 53.1 62.5 56.5 59.15 64 48.25 64 L-40.35 64 -42.7 61.65 Q-43.3 61.05 -44.15 61 -45 61.05 -45.6 61.65 L-47.95 64 -48.2 64 Q-64 64 -64 48.25 L-64 -48.2 Q-64 -64 -48.2 -64 M-58 -48.2 L-58 15.25 Q-58 25 -48.2 25 L-46.4 25 -41 19.6 Q-40.4 19 -39.55 18.95 -38.7 19 -38.1 19.6 L-32.7 25 -28.4 25 -26 22.6 Q-25.4 22 -24.55 21.95 -23.7 22 -23.1 22.6 L-20.7 25 48.25 25 Q58 25 58 15.25 L58 -48.2 Q58 -58 48.25 -58 L43.4 -58 38.9 -53.5 Q38.3 -52.9 37.45 -52.85 36.6 -52.9 36 -53.5 L31.5 -58 25.4 -58 23.9 -56.5 Q23.3 -55.9 22.45 -55.85 21.6 -55.9 21 -56.5 L19.5 -58 -48.2 -58 Q-58 -58 -58 -48.2"/>
    <path stroke="none" fill="#FFFFFF" d="M-58 -48.2 Q-58 -58 -48.2 -58 L19.5 -58 21 -56.5 Q21.6 -55.9 22.45 -55.85 23.3 -55.9 23.9 -56.5 L25.4 -58 31.5 -58 36 -53.5 Q36.6 -52.9 37.45 -52.85 38.3 -52.9 38.9 -53.5 L43.4 -58 48.25 -58 Q58 -58 58 -48.2 L58 15.25 Q58 25 48.25 25 L-20.7 25 -23.1 22.6 Q-23.7 22 -24.55 21.95 -25.4 22 -26 22.6 L-28.4 25 -32.7 25 -38.1 19.6 Q-38.7 19 -39.55 18.95 -40.4 19 -41 19.6 L-46.4 25 -48.2 25 Q-58 25 -58 15.25 L-58 -48.2"/>
    <path stroke="none" fill="#11141E" d="M38 -12.8 L42.6 -3.6 Q43 -2.8 43 -1.9 L43 1.2 Q43 2.8 41.9 3.9 40.8 5 39.15 5 L23.85 5 Q22.25 5 21.15 3.9 20 2.8 20 1.2 L20 -1.9 Q20 -2.8 20.4 -3.6 L25 -12.8 25.1 -12.9 23.35 -14.35 Q20 -17.7 20 -22.5 20 -27.25 23.35 -30.6 26.7 -34 31.5 -34 36.25 -34 39.6 -30.6 43 -27.25 43 -22.5 43 -17.7 39.6 -14.35 L37.95 -12.95 38 -12.8 M-17 -9.05 Q-17 -11.05 -15.5 -12.5 -14.05 -14 -12 -14 L13 -14 Q15.05 -14 16.55 -12.5 18 -11.05 18 -9.05 L18 -7 Q18 -4.95 16.6 -3.45 L16.55 -3.4 Q15.45 -2.35 14 -2.1 L14 5 Q14 5.8 13.4 6.4 12.8 7 12 7 L8 7 Q7.2 7 6.6 6.4 6 5.8 6 5 L6 -2 -5 -2 -5 5 Q-5 5.8 -5.6 6.4 -6.2 7 -7 7 L-11 7 Q-11.8 7 -12.4 6.4 -13 5.8 -13 5 L-13 -2.1 Q-14.4 -2.35 -15.5 -3.45 -17 -4.95 -17 -7 L-17 -9.05 M-24 -12.8 L-19.4 -3.6 Q-19 -2.8 -19 -1.9 L-19 1.2 Q-19 2.8 -20.1 3.9 -21.2 5 -22.85 5 L-38.15 5 Q-39.75 5 -40.85 3.9 -42 2.8 -42 1.2 L-42 -1.9 Q-42 -2.8 -41.6 -3.6 L-37 -12.8 -36.9 -12.9 -38.65 -14.35 Q-42 -17.7 -42 -22.5 -42 -27.25 -38.65 -30.6 -35.3 -34 -30.5 -34 -25.75 -34 -22.4 -30.6 -19 -27.25 -19 -22.5 -19 -17.7 -22.4 -14.35 L-24.05 -12.95 -24 -12.8"/>
  </g>
</svg>