<svg xmlns="http://www.w3.org/2000/svg" xmlns:xlink="http://www.w3.org/1999/xlink">
  <defs/>
  <g>
    <path stroke="none" fill="#11141E" d="M-48.2 -64 L34 -64 36.45 -61.65 Q37.1 -61.05 38 -61 38.85 -61.05 39.5 -61.65 L42 -64 48.85 -64 49.45 -63.95 Q59.35 -63.6 62.5 -56.45 64 -53.1 64 -48.2 L64 48.25 Q64 53.1 62.5 56.5 59.15 64 48.25 64 L-40.35 64 -42.7 61.65 Q-43.3 61.05 -44.15 61 -45 61.05 -45.6 61.65 L-47.95 64 -48.2 64 Q-64 64 -64 48.25 L-64 -48.2 Q-64 -64 -48.2 -64 M-58 -48.2 L-58 15.25 Q-58 25 -48.2 25 L-46.4 25 -41 19.6 Q-40.4 19 -39.55 18.95 -38.7 19 -38.1 19.6 L-32.7 25 -28.4 25 -26 22.6 Q-25.4 22 -24.55 21.95 -23.7 22 -23.1 22.6 L-20.7 25 48.25 25 Q58 25 58 15.25 L58 -48.2 Q58 -58 48.25 -58 L43.4 -58 38.9 -53.5 Q38.3 -52.9 37.45 -52.85 36.6 -52.9 36 -53.5 L31.5 -58 25.4 -58 23.9 -56.5 Q23.3 -55.9 22.45 -55.85 21.6 -55.9 21 -56.5 L19.5 -58 -48.2 -58 Q-58 -58 -58 -48.2"/>
    <path stroke="none" fill="#FFFFFF" d="M-58 -48.2 Q-58 -58 -48.2 -58 L19.5 -58 21 -56.5 Q21.6 -55.9 22.45 -55.85 23.3 -55.9 23.9 -56.5 L25.4 -58 31.5 -58 36 -53.5 Q36.6 -52.9 37.45 -52.85 38.3 -52.9 38.9 -53.5 L43.4 -58 48.25 -58 Q58 -58 58 -48.2 L58 15.25 Q58 25 48.25 25 L-20.7 25 -23.1 22.6 Q-23.7 22 -24.55 21.95 -25.4 22 -26 22.6 L-28.4 25 -32.7 25 -38.1 19.6 Q-38.7 19 -39.55 18.95 -40.4 19 -41 19.6 L-46.4 25 -48.2 25 Q-58 25 -58 15.25 L-58 -48.2"/>
    <path stroke="none" fill="#11141E" d="M38 -12.8 L42.6 -3.6 Q43 -2.8 43 -1.9 L43 1.2 Q43 2.8 41.9 3.9 40.8 5 39.15 5 L23.85 5 Q22.25 5 21.15 3.9 20 2.8 20 1.2 L20 -1.9 Q20 -2.8 20.4 -3.6 L25 -12.8 25.1 -12.9 23.35 -14.35 Q20 -17.7 20 -22.5 20 -27.25 23.35 -30.6 26.7 -34 31.5 -34 36.25 -34 39.6 -30.6 43 -27.25 43 -22.5 43 -17.7 39.6 -14.35 L37.95 -12.95 38 -12.8 M-17 -9.05 Q-17 -11.05 -15.5 -12.5 -14.05 -14 -12 -14 L13 -14 Q15.05 -14 16.55 -12.5 18 -11.05 18 -9.05 L18 -7 Q18 -4.95 16.6 -3.45 L16.55 -3.4 Q15.45 -2.35 14 -2.1 L14 5 Q14 5.8 13.4 6.4 12.8 7 12 7 L8 7 Q7.2 7 6.6 6.4 6 5.8 6 5 L6 -2 -5 -2 -5 5 Q-5 5.8 -5.6 6.4 -6.2 7 -7 7 L-11 7 Q-11.8 7 -12.4 6.4 -13 5.8 -13 5 L-13 -2.1 Q-14.4 -2.35 -15.5 -3.45 -17 -4.95 -17 -7 L-17 -9.05 M-24 -12.8 L-19.4 -3.6 Q-19 -2.8 -19 -1.9 L-19 1.2 Q-19 2.8 -20.1 3.9 -21.2 5 -22.85 5 L-38.15 5 Q-39.75 5 -40.85 3.9 -42 2.8 -42 1.2 L-42 -1.9 Q-42 -2.8 -41.6 -3.6 L-37 -12.8 -36.9 -12.9 -38.65 -14.35 Q-42 -17.7 -42 -22.5 -42 -27.25 -38.65 -30.6 -35.3 -34 -30.5 -34 -25.75 -34 -22.4 -30.6 -19 -27.25 -19 -22.5 -19 -17.7 -22.4 -14.35 L-24.05 -12.95 -24 -12.8"/>
    <path stroke="none" fill="#FFFFFF" d="M46.35 42.95 L46.05 43.75 45.3 44.1 44.55 43.85 43.65 43.45 42.95 43.35 42.35 43.5 Q42.1 43.7 42.1 44.05 42.1 44.45 42.85 44.75 L44.5 45.45 Q45.35 45.8 46 46.4 46.6 47 46.6 48 46.6 48.9 46.15 49.6 L44.85 50.65 42.9 51.05 41.3 50.8 Q40.45 50.55 39.85 50.1 39.3 49.6 39.3 49.05 39.3 48.7 39.6 48.3 39.9 47.9 40.4 47.9 L41 48.05 41.7 48.35 42.35 48.7 43.1 48.8 43.9 48.65 44.1 48.05 Q44.1 47.7 43.35 47.35 L41.7 46.65 Q40.8 46.3 40.2 45.7 39.6 45.1 39.6 44.1 39.6 43.2 40.05 42.5 40.5 41.8 41.3 41.45 L43.1 41.05 44.6 41.25 Q45.3 41.5 45.85 41.9 46.35 42.35 46.35 42.95 M14.05 42.85 L14.05 49.25 13.85 50.5 Q13.65 50.95 12.8 50.95 L12 50.7 11.55 49.85 Q10.55 51.05 9.1 51.05 7.9 51.05 6.9 50.45 5.95 49.8 5.35 48.65 4.8 47.5 4.8 46.1 4.8 44.7 5.4 43.55 5.95 42.4 6.95 41.75 7.9 41.05 9.1 41.05 L10.5 41.35 11.55 42.25 Q11.6 41.75 11.95 41.45 12.35 41.15 12.8 41.15 13.65 41.15 13.85 41.65 L14.05 42.85 M1.15 49.5 L1.15 38.45 Q1.15 37.8 1.5 37.4 1.85 37 2.45 37 L3.1 37.15 3.6 37.7 3.75 38.45 3.75 49.5 3.6 50.25 3.1 50.8 2.45 50.95 Q1.85 50.95 1.5 50.55 1.15 50.15 1.15 49.5 M7.4 46.1 L7.65 47.35 Q7.85 47.95 8.35 48.3 8.8 48.7 9.45 48.7 10.4 48.7 10.95 47.9 11.45 47.1 11.45 46.1 L11.25 44.8 10.55 43.8 Q10.1 43.45 9.45 43.45 8.8 43.45 8.35 43.8 7.85 44.2 7.65 44.8 7.4 45.45 7.4 46.1 M17.75 50.1 L14.9 42.95 14.75 42.3 Q14.75 41.8 15.15 41.5 15.55 41.15 16 41.15 L16.8 41.4 17.3 42.1 19.05 46.95 20.95 42.1 21.5 41.4 Q21.8 41.15 22.25 41.15 22.7 41.15 23.1 41.5 23.5 41.8 23.5 42.3 L23.35 42.95 19.05 53.75 Q18.6 54.75 17.8 54.75 L16.8 54.45 Q16.45 54.1 16.45 53.65 L16.6 52.9 17.75 50.1 M31.8 46.95 L26.3 46.95 Q26.4 47.85 27.1 48.35 L28.7 48.8 29.75 48.6 30.75 48.1 Q31.4 47.75 31.65 47.75 L32.2 47.9 32.55 48.35 32.7 48.85 32.35 49.65 31.35 50.4 29.95 50.9 28.5 51.05 Q27.05 51.05 25.95 50.45 24.85 49.8 24.25 48.65 23.65 47.5 23.65 46.1 23.65 45.1 24 44.2 24.3 43.3 24.95 42.55 25.55 41.85 26.45 41.45 L28.3 41.05 Q29.3 41.05 30.15 41.5 L31.65 42.6 32.6 44.1 Q32.95 44.95 32.95 45.75 32.95 46.95 31.8 46.95 M26.2 45.2 L30.35 45.2 Q30.25 44.3 29.7 43.75 29.15 43.2 28.3 43.2 27.45 43.2 26.9 43.75 26.35 44.35 26.2 45.2 M33.8 49.5 L33.8 42.45 Q33.8 41.85 34.2 41.5 34.6 41.15 35.15 41.15 36.4 41.15 36.4 42.25 L36.45 42.25 Q36.85 41.65 37.25 41.4 L38.25 41.15 Q38.75 41.15 39.15 41.5 39.5 41.9 39.5 42.55 L39.3 43.15 38.75 43.5 37.95 43.8 Q37.2 44.15 36.8 44.5 36.4 44.85 36.4 45.55 L36.4 49.5 36.25 50.25 35.75 50.8 35.1 50.95 Q34.5 50.95 34.15 50.55 33.8 50.15 33.8 49.5 M-34.7 44.5 L-30.9 44.5 Q-30.4 44.55 -30.1 44.85 -29.85 45.15 -29.85 45.65 L-30.1 46.4 Q-30.4 46.75 -30.9 46.75 L-34.7 46.75 -35.45 46.45 -35.75 45.65 -35.45 44.85 Q-35.2 44.55 -34.7 44.5 M-22.75 49.05 L-18.25 40.5 -22.85 40.5 Q-23.5 40.5 -23.85 40.15 -24.2 39.8 -24.2 39.3 -24.2 38.75 -23.85 38.4 -23.55 38.05 -22.85 38.05 L-16.35 38.05 Q-15.7 38.05 -15.35 38.45 -15.05 38.9 -15.05 39.35 L-15.15 39.85 -15.45 40.5 -19.9 49.6 -20.4 50.45 -20.8 50.85 -21.45 50.95 Q-22.1 50.95 -22.5 50.55 L-22.9 49.7 -22.75 49.05 M-9.15 53.35 L-9.15 42.6 Q-9.15 41.95 -8.8 41.55 -8.45 41.15 -7.85 41.15 -6.85 41.15 -6.55 42.25 -6.2 41.65 -5.55 41.35 L-4.1 41.05 Q-2.8 41.05 -1.85 41.8 -0.9 42.5 -0.4 43.7 0.1 44.85 0.1 46.2 0.1 47.4 -0.45 48.55 -1 49.7 -1.95 50.4 -2.95 51.05 -4.2 51.05 L-5.45 50.85 -6.55 50.15 -6.55 53.35 -6.75 54.1 -7.2 54.6 -7.85 54.75 Q-8.45 54.75 -8.8 54.4 -9.15 54 -9.15 53.35 M-6.55 46 Q-6.55 47.05 -6.05 47.85 -5.5 48.7 -4.55 48.7 -3.9 48.7 -3.45 48.3 -2.95 47.9 -2.75 47.35 L-2.5 46.1 -2.75 44.8 Q-2.95 44.2 -3.45 43.85 -3.9 43.45 -4.55 43.45 -5.2 43.45 -5.65 43.8 -6.1 44.15 -6.35 44.75 L-6.55 46 M-45.05 49.55 L-45.05 40.5 -46.15 40.5 Q-46.75 40.5 -47.05 40.15 L-47.35 39.3 Q-47.35 38.8 -47 38.4 -46.7 38.05 -46.15 38.05 L-43.55 38.05 Q-43 38.05 -42.7 38.4 -42.35 38.75 -42.35 39.3 L-42.35 49.55 Q-42.35 50.25 -42.75 50.6 -43.1 50.95 -43.7 50.95 L-44.7 50.6 -45.05 49.55"/>
  </g>
</svg>