<svg xmlns="http://www.w3.org/2000/svg" xmlns:xlink="http://www.w3.org/1999/xlink">
  <defs/>
  <g>
    <path stroke="none" fill="#11141E" d="M-48.2 -64 L34 -64 36.45 -61.65 Q37.1 -61.05 38 -61 38.85 -61.05 39.5 -61.65 L42 -64 48.85 -64 49.45 -63.95 Q59.35 -63.6 62.5 -56.45 64 -53.1 64 -48.2 L64 48.25 Q64 53.1 62.5 56.5 59.15 64 48.25 64 L-40.35 64 -42.7 61.65 Q-43.3 61.05 -44.15 61 -45 61.05 -45.6 61.65 L-47.95 64 -48.2 64 Q-64 64 -64 48.25 L-64 -48.2 Q-64 -64 -48.2 -64 M-58 -48.2 L-58 15.25 Q-58 25 -48.2 25 L-46.4 25 -41 19.6 Q-40.4 19 -39.55 18.95 -38.7 19 -38.1 19.6 L-32.7 25 -28.4 25 -26 22.6 Q-25.4 22 -24.55 21.95 -23.7 22 -23.1 22.6 L-20.7 25 48.25 25 Q58 25 58 15.25 L58 -48.2 Q58 -58 48.25 -58 L43.4 -58 38.9 -53.5 Q38.3 -52.9 37.45 -52.85 36.6 -52.9 36 -53.5 L31.5 -58 25.4 -58 23.9 -56.5 Q23.3 -55.9 22.45 -55.85 21.6 -55.9 21 -56.5 L19.5 -58 -48.2 -58 Q-58 -58 -58 -48.2"/>
    <path stroke="none" fill="#FFFFFF" d="M-58 -48.2 Q-58 -58 -48.2 -58 L19.5 -58 21 -56.5 Q21.6 -55.9 22.45 -55.85 23.3 -55.9 23.9 -56.5 L25.4 -58 31.5 -58 36 -53.5 Q36.6 -52.9 37.45 -52.85 38.3 -52.9 38.9 -53.5 L43.4 -58 48.25 -58 Q58 -58 58 -48.2 L58 15.25 Q58 25 48.25 25 L-20.7 25 -23.1 22.6 Q-23.7 22 -24.55 21.95 -25.4 22 -26 22.6 L-28.4 25 -32.7 25 -38.1 19.6 Q-38.7 19 -39.55 18.95 -40.4 19 -41 19.6 L-46.4 25 -48.2 25 Q-58 25 -58 15.25 L-58 -48.2"/>
    <path stroke="none" fill="#11141E" d="M38 -12.8 L42.6 -3.6 Q43 -2.8 43 -1.9 L43 1.2 Q43 2.8 41.9 3.9 40.8 5 39.15 5 L23.85 5 Q22.25 5 21.15 3.9 20 2.8 20 1.2 L20 -1.9 Q20 -2.8 20.4 -3.6 L25 -12.8 25.1 -12.9 23.35 -14.35 Q20 -17.7 20 -22.5 20 -27.25 23.35 -30.6 26.7 -34 31.5 -34 36.25 -34 39.6 -30.6 43 -27.25 43 -22.5 43 -17.7 39.6 -14.35 L37.95 -12.95 38 -12.8 M-17 -9.05 Q-17 -11.05 -15.5 -12.5 -14.05 -14 -12 -14 L13 -14 Q15.05 -14 16.55 -12.5 18 -11.05 18 -9.05 L18 -7 Q18 -4.95 16.6 -3.45 L16.55 -3.4 Q15.45 -2.35 14 -2.1 L14 5 Q14 5.8 13.4 6.4 12.8 7 12 7 L8 7 Q7.2 7 6.6 6.4 6 5.8 6 5 L6 -2 -5 -2 -5 5 Q-5 5.8 -5.6 6.4 -6.2 7 -7 7 L-11 7 Q-11.8 7 -12.4 6.4 -13 5.8 -13 5 L-13 -2.1 Q-14.4 -2.35 -15.5 -3.45 -17 -4.95 -17 -7 L-17 -9.05 M-24 -12.8 L-19.4 -3.6 Q-19 -2.8 -19 -1.9 L-19 1.2 Q-19 2.8 -20.1 3.9 -21.2 5 -22.85 5 L-38.15 5 Q-39.75 5 -40.85 3.9 -42 2.8 -42 1.2 L-42 -1.9 Q-42 -2.8 -41.6 -3.6 L-37 -12.8 -36.9 -12.9 -38.65 -14.35 Q-42 -17.7 -42 -22.5 -42 -27.25 -38.65 -30.6 -35.3 -34 -30.5 -34 -25.75 -34 -22.4 -30.6 -19 -27.25 -19 -22.5 -19 -17.7 -22.4 -14.35 L-24.05 -12.95 -24 -12.8"/>
    <path stroke="none" fill="#FFFFFF" d="M6.4 50.1 L3.55 42.95 3.4 42.3 Q3.4 41.8 3.8 41.5 4.2 41.15 4.65 41.15 5.1 41.15 5.45 41.4 L5.95 42.1 7.7 46.95 9.6 42.1 10.15 41.4 Q10.45 41.15 10.9 41.15 11.35 41.15 11.75 41.5 12.15 41.8 12.15 42.3 L12 42.95 7.7 53.75 Q7.25 54.75 6.45 54.75 L5.45 54.45 Q5.1 54.1 5.1 53.65 L5.25 52.9 6.4 50.1 M2.7 42.85 L2.7 49.25 2.5 50.5 Q2.3 50.95 1.45 50.95 L0.65 50.7 Q0.35 50.4 0.2 49.85 -0.8 51.05 -2.25 51.05 -3.45 51.05 -4.45 50.45 -5.4 49.8 -6 48.65 -6.55 47.5 -6.55 46.1 -6.55 44.7 -5.95 43.55 -5.4 42.4 -4.4 41.75 -3.45 41.05 -2.25 41.05 -1.55 41.05 -0.85 41.35 -0.2 41.65 0.2 42.25 0.25 41.75 0.6 41.45 1 41.15 1.45 41.15 2.3 41.15 2.5 41.65 L2.7 42.85 M20.45 46.95 L14.95 46.95 Q15.05 47.85 15.75 48.35 16.4 48.8 17.35 48.8 L18.4 48.6 19.4 48.1 Q20.05 47.75 20.3 47.75 L20.85 47.9 21.2 48.35 21.35 48.85 21 49.65 20 50.4 18.6 50.9 17.15 51.05 Q15.7 51.05 14.6 50.45 13.5 49.8 12.9 48.65 12.3 47.5 12.3 46.1 12.3 45.1 12.65 44.2 12.95 43.3 13.6 42.55 14.2 41.85 15.1 41.45 L16.95 41.05 Q17.95 41.05 18.8 41.5 19.7 41.9 20.3 42.6 L21.25 44.1 21.6 45.75 Q21.6 46.95 20.45 46.95 M14.85 45.2 L19 45.2 Q18.9 44.3 18.35 43.75 17.8 43.2 16.95 43.2 16.1 43.2 15.55 43.75 15 44.35 14.85 45.2 M35 42.95 L34.7 43.75 Q34.4 44.1 33.95 44.1 L33.2 43.85 32.3 43.45 31.6 43.35 31 43.5 Q30.75 43.7 30.75 44.05 30.75 44.45 31.5 44.75 L33.15 45.45 34.65 46.4 Q35.25 47 35.25 48 35.25 48.9 34.8 49.6 L33.5 50.65 31.55 51.05 29.95 50.8 Q29.1 50.55 28.5 50.1 27.95 49.6 27.95 49.05 27.95 48.7 28.25 48.3 28.55 47.9 29.05 47.9 L29.65 48.05 30.35 48.35 31 48.7 31.75 48.8 32.55 48.65 32.75 48.05 Q32.75 47.7 32 47.35 L30.35 46.65 28.85 45.7 Q28.25 45.1 28.25 44.1 28.25 43.2 28.7 42.5 29.15 41.8 29.95 41.45 L31.75 41.05 33.25 41.25 Q33.95 41.5 34.5 41.9 35 42.35 35 42.95 M22.45 49.5 L22.45 42.45 Q22.45 41.85 22.85 41.5 23.25 41.15 23.8 41.15 25.05 41.15 25.05 42.25 L25.1 42.25 25.9 41.4 26.9 41.15 Q27.4 41.15 27.8 41.5 28.15 41.9 28.15 42.55 L27.95 43.15 27.4 43.5 26.6 43.8 Q25.85 44.15 25.45 44.5 25.05 44.85 25.05 45.55 L25.05 49.5 24.9 50.25 24.4 50.8 23.75 50.95 Q23.15 50.95 22.8 50.55 22.45 50.15 22.45 49.5 M-30.55 48 L-34.9 48 -35.85 47.7 -36.15 46.95 -35.9 46.15 -31.9 38.85 -31.15 38.05 -30.05 37.8 -29 38.05 Q-28.55 38.3 -28.25 38.85 -27.95 39.35 -27.95 40.1 L-27.95 45.65 -27.65 45.65 -27.05 45.8 -26.55 46.2 Q-26.4 46.5 -26.4 46.85 L-26.55 47.45 Q-26.75 47.75 -27.05 47.9 L-27.65 48 -27.95 48 -27.95 49.55 Q-27.95 50.3 -28.25 50.6 -28.55 50.95 -29.25 50.95 -29.95 50.95 -30.25 50.6 L-30.55 49.55 -30.55 48 M-30.55 45.65 L-30.55 40.65 -30.6 40.65 -33.05 45.65 -30.55 45.65 M-20.5 53.35 L-20.5 42.6 Q-20.5 41.95 -20.15 41.55 -19.8 41.15 -19.2 41.15 -18.2 41.15 -17.9 42.25 L-16.9 41.35 -15.45 41.05 Q-14.15 41.05 -13.2 41.8 -12.25 42.5 -11.75 43.7 -11.25 44.85 -11.25 46.2 -11.25 47.4 -11.8 48.55 -12.35 49.7 -13.3 50.4 -14.3 51.05 -15.55 51.05 L-16.8 50.85 -17.9 50.15 -17.9 53.35 -18.1 54.1 -18.55 54.6 -19.2 54.75 Q-19.8 54.75 -20.15 54.4 L-20.5 53.35 M-17.9 46 Q-17.9 47.05 -17.4 47.85 -16.85 48.7 -15.9 48.7 -15.25 48.7 -14.8 48.3 L-14.1 47.35 -13.85 46.1 -14.1 44.8 Q-14.3 44.2 -14.8 43.85 -15.25 43.45 -15.9 43.45 -16.55 43.45 -17 43.8 -17.45 44.15 -17.7 44.75 L-17.9 46 M-10.2 49.5 L-10.2 38.45 Q-10.2 37.8 -9.85 37.4 -9.5 37 -8.9 37 L-8.25 37.15 Q-7.95 37.35 -7.75 37.7 -7.6 38 -7.6 38.45 L-7.6 49.5 -7.75 50.25 -8.25 50.8 -8.9 50.95 Q-9.5 50.95 -9.85 50.55 -10.2 50.15 -10.2 49.5 M-3.95 46.1 L-3.7 47.35 -3 48.3 Q-2.55 48.7 -1.9 48.7 -0.95 48.7 -0.4 47.9 0.1 47.1 0.1 46.1 L-0.1 44.8 -0.8 43.8 Q-1.25 43.45 -1.9 43.45 -2.55 43.45 -3 43.8 L-3.7 44.8 -3.95 46.1"/>
  </g>
</svg>