<svg xmlns="http://www.w3.org/2000/svg" xmlns:xlink="http://www.w3.org/1999/xlink">
  <defs/>
  <g>
    <path stroke="none" fill="#11141E" d="M-48.2 -64 L34 -64 36.45 -61.65 Q37.1 -61.05 38 -61 38.85 -61.05 39.5 -61.65 L42 -64 48.85 -64 49.45 -63.95 Q59.35 -63.6 62.5 -56.45 64 -53.1 64 -48.2 L64 48.25 Q64 53.1 62.5 56.5 59.15 64 48.25 64 L-40.35 64 -42.7 61.65 Q-43.3 61.05 -44.15 61 -45 61.05 -45.6 61.65 L-47.95 64 -48.2 64 Q-64 64 -64 48.25 L-64 -48.2 Q-64 -64 -48.2 -64 M-58 -48.2 L-58 15.25 Q-58 25 -48.2 25 L-46.4 25 -41 19.6 Q-40.4 19 -39.55 18.95 -38.7 19 -38.1 19.6 L-32.7 25 -28.4 25 -26 22.6 Q-25.4 22 -24.55 21.95 -23.7 22 -23.1 22.6 L-20.7 25 48.25 25 Q58 25 58 15.25 L58 -48.2 Q58 -58 48.25 -58 L43.4 -58 38.9 -53.5 Q38.3 -52.9 37.45 -52.85 36.6 -52.9 36 -53.5 L31.5 -58 25.4 -58 23.9 -56.5 Q23.3 -55.9 22.45 -55.85 21.6 -55.9 21 -56.5 L19.5 -58 -48.2 -58 Q-58 -58 -58 -48.2"/>
    <path stroke="none" fill="#FFFFFF" d="M-58 -48.2 Q-58 -58 -48.2 -58 L19.5 -58 21 -56.5 Q21.6 -55.9 22.45 -55.85 23.3 -55.9 23.9 -56.5 L25.4 -58 31.5 -58 36 -53.5 Q36.6 -52.9 37.45 -52.85 38.3 -52.9 38.9 -53.5 L43.4 -58 48.25 -58 Q58 -58 58 -48.2 L58 15.25 Q58 25 48.25 25 L-20.7 25 -23.1 22.6 Q-23.7 22 -24.55 21.95 -25.4 22 -26 22.6 L-28.4 25 -32.7 25 -38.1 19.6 Q-38.7 19 -39.55 18.95 -40.4 19 -41 19.6 L-46.4 25 -48.2 25 Q-58 25 -58 15.25 L-58 -48.2"/>
    <path stroke="none" fill="#11141E" d="M23.15 -27.35 L20.65 -17.95 22.5 -16.85 24.25 -14.7 Q25.8 -12.1 24.95 -9.1 L24.8 -8.6 Q23.9 -6 21.55 -4.55 L21.4 -4.45 Q19.15 -3.25 16.8 -3.6 L14.25 5.8 Q13.9 7.1 12.8 7.8 L10.35 8.1 2.05 5.85 Q0.75 5.55 0.15 4.35 -0.6 3.25 -0.25 1.95 0.35 -0.15 -0.7 -2.1 -1.9 -4.05 -4 -4.65 -6.1 -5.2 -8 -4.1 -10 -2.95 -10.6 -0.85 -10.95 0.45 -12.05 1.15 -13.2 1.75 -14.5 1.45 L-22.75 -0.8 Q-23.85 -1.05 -24.45 -1.85 L-24.75 -2.3 Q-25.45 -3.4 -25.05 -4.7 L-22.85 -13 Q-22.5 -14.3 -21.4 -15 -20.2 -15.6 -18.9 -15.3 -16.8 -14.7 -14.8 -15.85 L-13.9 -16.45 Q-12.75 -17.5 -12.35 -19.05 -11.8 -21.25 -12.85 -23.1 -14 -25.1 -16.1 -25.7 -17.15 -25.95 -17.8 -26.75 L-18.1 -27.15 Q-18.75 -28.3 -18.4 -29.6 L-16.2 -37.9 Q-15.85 -39.2 -14.7 -39.8 -13.55 -40.5 -12.25 -40.2 L-2.85 -37.65 Q-1.95 -39.8 0.25 -41.1 L0.35 -41.15 Q3 -42.75 6 -41.95 9 -41.1 10.55 -38.4 11.85 -36.2 11.5 -33.8 L20.9 -31.25 Q22.2 -30.95 22.85 -29.75 23.5 -28.65 23.15 -27.35"/>
  </g>
</svg>