<svg xmlns="http://www.w3.org/2000/svg" xmlns:xlink="http://www.w3.org/1999/xlink">
  <defs/>
  <g>
    <path stroke="none" fill="#11141E" d="M-48.2 -64 L34 -64 36.45 -61.65 Q37.1 -61.05 38 -61 38.85 -61.05 39.5 -61.65 L42 -64 48.85 -64 49.45 -63.95 Q59.35 -63.6 62.5 -56.45 64 -53.1 64 -48.2 L64 48.25 Q64 53.1 62.5 56.5 59.15 64 48.25 64 L-40.35 64 -42.7 61.65 Q-43.3 61.05 -44.15 61 -45 61.05 -45.6 61.65 L-47.95 64 -48.2 64 Q-64 64 -64 48.25 L-64 -48.2 Q-64 -64 -48.2 -64 M-58 -48.2 L-58 15.25 Q-58 25 -48.2 25 L-46.4 25 -41 19.6 Q-40.4 19 -39.55 18.95 -38.7 19 -38.1 19.6 L-32.7 25 -28.4 25 -26 22.6 Q-25.4 22 -24.55 21.95 -23.7 22 -23.1 22.6 L-20.7 25 48.25 25 Q58 25 58 15.25 L58 -48.2 Q58 -58 48.25 -58 L43.4 -58 38.9 -53.5 Q38.3 -52.9 37.45 -52.85 36.6 -52.9 36 -53.5 L31.5 -58 25.4 -58 23.9 -56.5 Q23.3 -55.9 22.45 -55.85 21.6 -55.9 21 -56.5 L19.5 -58 -48.2 -58 Q-58 -58 -58 -48.2"/>
    <path stroke="none" fill="#FFFFFF" d="M-58 -48.2 Q-58 -58 -48.2 -58 L19.5 -58 21 -56.5 Q21.6 -55.9 22.45 -55.85 23.3 -55.9 23.9 -56.5 L25.4 -58 31.5 -58 36 -53.5 Q36.6 -52.9 37.45 -52.85 38.3 -52.9 38.9 -53.5 L43.4 -58 48.25 -58 Q58 -58 58 -48.2 L58 15.25 Q58 25 48.25 25 L-20.7 25 -23.1 22.6 Q-23.7 22 -24.55 21.95 -25.4 22 -26 22.6 L-28.4 25 -32.7 25 -38.1 19.6 Q-38.7 19 -39.55 18.95 -40.4 19 -41 19.6 L-46.4 25 -48.2 25 Q-58 25 -58 15.25 L-58 -48.2"/>
    <path stroke="none" fill="#11141E" d="M-0.5 -33 Q-6.1 -33 -10 -29.25 -14 -25.5 -14 -20.25 -14 -18.6 -13.6 -17.15 -13.25 -15.7 -12.5 -14.4 L-12.5 -12 -12.3 -10.85 -11.65 -9.8 Q-10.75 -9 -9.5 -9 L-6.5 -9 -6.5 -6 Q-6.5 -4.7 -5.65 -3.8 -4.75 -3 -3.5 -3 L2.5 -3 Q3.8 -3 4.6 -3.8 5.5 -4.7 5.5 -6 L5.5 -9 8.5 -9 Q9.8 -9 10.6 -9.8 11.5 -10.7 11.5 -12 L11.5 -14.4 12.5 -16.8 Q13 -18.5 13 -20.25 13 -22.2 12.45 -23.9 11.55 -26.9 9.05 -29.25 5.05 -33 -0.5 -33 M4 -12 Q2.75 -12 1.85 -12.8 1 -13.7 1 -15 1 -16.25 1.85 -17.1 2.75 -18 4 -18 5.3 -18 6.1 -17.1 7 -16.2 7 -15 7 -13.7 6.1 -12.8 5.3 -12 4 -12 M-18.9 -40 L16.95 -40 Q27 -40 27 -29.95 L27 -8.05 Q27 2 16.95 2 L8.95 2 2.55 8.25 Q-1 11.75 -4.55 8.25 L-10.9 2 -18.9 2 Q-29 2 -29 -8.05 L-29 -29.95 Q-29 -40 -18.9 -40 M-5 -12 Q-6.25 -12 -7.15 -12.8 L-7.75 -13.7 -8 -15 Q-8 -16.25 -7.15 -17.1 -6.25 -18 -5 -18 -3.7 -18 -2.9 -17.1 L-2.7 -16.9 Q-2 -16.05 -2 -15 -2 -13.7 -2.9 -12.8 -3.7 -12 -5 -12"/>
  </g>
</svg>