<svg xmlns="http://www.w3.org/2000/svg" xmlns:xlink="http://www.w3.org/1999/xlink">
  <defs/>
  <g>
    <path stroke="none" fill="#11141E" d="M-48.2 -64 L34 -64 36.45 -61.65 Q37.1 -61.05 38 -61 38.85 -61.05 39.5 -61.65 L42 -64 48.85 -64 49.45 -63.95 Q59.35 -63.6 62.5 -56.45 64 -53.1 64 -48.2 L64 48.25 Q64 53.1 62.5 56.5 59.15 64 48.25 64 L-40.35 64 -42.7 61.65 Q-43.3 61.05 -44.15 61 -45 61.05 -45.6 61.65 L-47.95 64 -48.2 64 Q-64 64 -64 48.25 L-64 -48.2 Q-64 -64 -48.2 -64 M-58 -48.2 L-58 15.25 Q-58 25 -48.2 25 L-46.4 25 -41 19.6 Q-40.4 19 -39.55 18.95 -38.7 19 -38.1 19.6 L-32.7 25 -28.4 25 -26 22.6 Q-25.4 22 -24.55 21.95 -23.7 22 -23.1 22.6 L-20.7 25 48.25 25 Q58 25 58 15.25 L58 -48.2 Q58 -58 48.25 -58 L43.4 -58 38.9 -53.5 Q38.3 -52.9 37.45 -52.85 36.6 -52.9 36 -53.5 L31.5 -58 25.4 -58 23.9 -56.5 Q23.3 -55.9 22.45 -55.85 21.6 -55.9 21 -56.5 L19.5 -58 -48.2 -58 Q-58 -58 -58 -48.2"/>
    <path stroke="none" fill="#FFFFFF" d="M-58 -48.2 Q-58 -58 -48.2 -58 L19.5 -58 21 -56.5 Q21.6 -55.9 22.45 -55.85 23.3 -55.9 23.9 -56.5 L25.4 -58 31.5 -58 36 -53.5 Q36.6 -52.9 37.45 -52.85 38.3 -52.9 38.9 -53.5 L43.4 -58 48.25 -58 Q58 -58 58 -48.2 L58 15.25 Q58 25 48.25 25 L-20.7 25 -23.1 22.6 Q-23.7 22 -24.55 21.95 -25.4 22 -26 22.6 L-28.4 25 -32.7 25 -38.1 19.6 Q-38.7 19 -39.55 18.95 -40.4 19 -41 19.6 L-46.4 25 -48.2 25 Q-58 25 -58 15.25 L-58 -48.2"/>
    <path stroke="none" fill="#11141E" d="M38 -12.8 L42.6 -3.6 Q43 -2.8 43 -1.9 L43 1.2 Q43 2.8 41.9 3.9 40.8 5 39.15 5 L23.85 5 Q22.25 5 21.15 3.9 20 2.8 20 1.2 L20 -1.9 Q20 -2.8 20.4 -3.6 L25 -12.8 25.1 -12.9 23.35 -14.35 Q20 -17.7 20 -22.5 20 -27.25 23.35 -30.6 26.7 -34 31.5 -34 36.25 -34 39.6 -30.6 43 -27.25 43 -22.5 43 -17.7 39.6 -14.35 L37.95 -12.95 38 -12.8 M-8.8 -29.25 Q-10 -30.45 -10 -32.1 -10 -33.8 -8.8 -34.95 -7.6 -36.2 -5.95 -36.2 -4.3 -36.2 -3.05 -34.95 L-0.35 -32.2 5.75 -40.35 Q6.7 -41.7 8.35 -41.95 10 -42.2 11.4 -41.2 12.7 -40.25 12.95 -38.55 13.2 -36.9 12.25 -35.5 L3.4 -23.6 Q2.65 -22.65 1.55 -22.2 L-0.75 -22.05 Q-1.9 -22.3 -2.7 -23.15 L-8.8 -29.25 M-17 -9.05 Q-17 -11.05 -15.5 -12.5 -14.05 -14 -12 -14 L13 -14 Q15.05 -14 16.55 -12.5 18 -11.05 18 -9.05 L18 -7 Q18 -4.95 16.6 -3.45 L16.55 -3.4 Q15.45 -2.35 14 -2.1 L14 5 Q14 5.8 13.4 6.4 12.8 7 12 7 L8 7 Q7.2 7 6.6 6.4 6 5.8 6 5 L6 -2 -5 -2 -5 5 Q-5 5.8 -5.6 6.4 -6.2 7 -7 7 L-11 7 Q-11.8 7 -12.4 6.4 -13 5.8 -13 5 L-13 -2.1 Q-14.4 -2.35 -15.5 -3.45 -17 -4.95 -17 -7 L-17 -9.05 M-24 -12.8 L-19.4 -3.6 Q-19 -2.8 -19 -1.9 L-19 1.2 Q-19 2.8 -20.1 3.9 -21.2 5 -22.85 5 L-38.15 5 Q-39.75 5 -40.85 3.9 -42 2.8 -42 1.2 L-42 -1.9 Q-42 -2.8 -41.6 -3.6 L-37 -12.8 -36.9 -12.9 -38.65 -14.35 Q-42 -17.7 -42 -22.5 -42 -27.25 -38.65 -30.6 -35.3 -34 -30.5 -34 -25.75 -34 -22.4 -30.6 -19 -27.25 -19 -22.5 -19 -17.7 -22.4 -14.35 L-24.05 -12.95 -24 -12.8"/>
    <path stroke="none" fill="#FFFFFF" d="M3.05 49.5 L3.05 42.6 Q3.05 41.95 3.4 41.55 3.75 41.15 4.35 41.15 4.85 41.15 5.15 41.4 L5.55 42.15 Q6.5 41.05 7.95 41.05 9.55 41.05 10.6 42.35 L11.9 41.4 13.35 41.05 15.2 41.45 Q16 41.85 16.45 42.65 16.9 43.45 16.9 44.55 L16.9 49.5 16.75 50.25 16.25 50.8 15.6 50.95 Q15 50.95 14.65 50.55 14.3 50.15 14.3 49.5 L14.3 45 14.15 44.05 13.6 43.45 12.8 43.2 Q12.1 43.2 11.7 43.7 11.25 44.2 11.25 45 L11.25 49.5 11.1 50.25 10.65 50.8 9.95 50.95 Q9.4 50.95 9.05 50.55 8.65 50.15 8.65 49.5 L8.65 45 8.5 44.05 7.95 43.45 Q7.65 43.2 7.15 43.2 L6.3 43.45 5.8 44.05 Q5.65 44.45 5.65 45 L5.65 49.5 5.45 50.25 5 50.8 4.35 50.95 Q3.75 50.95 3.4 50.55 3.05 50.15 3.05 49.5 M1.55 42.85 L1.55 49.25 1.35 50.5 Q1.15 50.95 0.3 50.95 L-0.5 50.7 -0.95 49.85 Q-1.95 51.05 -3.4 51.05 -4.6 51.05 -5.6 50.45 -6.55 49.8 -7.15 48.65 -7.7 47.5 -7.7 46.1 -7.7 44.7 -7.1 43.55 -6.55 42.4 -5.55 41.75 -4.6 41.05 -3.4 41.05 L-2 41.35 Q-1.35 41.65 -0.95 42.25 L-0.55 41.45 0.3 41.15 Q1.15 41.15 1.35 41.65 L1.55 42.85 M24.9 42.95 L24.6 43.75 Q24.3 44.1 23.85 44.1 L23.1 43.85 22.2 43.45 21.5 43.35 20.9 43.5 Q20.65 43.7 20.65 44.05 20.65 44.45 21.4 44.75 L23.05 45.45 24.55 46.4 Q25.15 47 25.15 48 25.15 48.9 24.7 49.6 L23.4 50.65 21.45 51.05 19.85 50.8 Q19 50.55 18.4 50.1 17.85 49.6 17.85 49.05 17.85 48.7 18.15 48.3 18.45 47.9 18.95 47.9 L19.55 48.05 20.25 48.35 20.9 48.7 21.65 48.8 22.45 48.65 22.65 48.05 Q22.65 47.7 21.9 47.35 L20.25 46.65 18.75 45.7 Q18.15 45.1 18.15 44.1 18.15 43.2 18.6 42.5 19.05 41.8 19.85 41.45 L21.65 41.05 23.15 41.25 Q23.85 41.5 24.4 41.9 24.9 42.35 24.9 42.95 M-23.4 49.55 L-23.4 40.5 -25.35 40.5 Q-25.95 40.5 -26.25 40.15 L-26.55 39.3 -26.4 38.65 -25.95 38.2 -25.35 38.05 -18.7 38.05 -18.1 38.2 -17.65 38.65 Q-17.5 38.95 -17.5 39.3 -17.5 39.8 -17.8 40.15 L-18.7 40.5 -20.7 40.5 -20.7 49.55 Q-20.7 50.25 -21.05 50.6 -21.45 50.95 -22.05 50.95 -22.65 50.95 -23 50.6 -23.4 50.25 -23.4 49.55 M-9.35 46.95 L-14.85 46.95 Q-14.75 47.85 -14.05 48.35 L-12.45 48.8 -11.4 48.6 -10.4 48.1 -9.5 47.75 Q-9.25 47.75 -8.95 47.9 L-8.6 48.35 -8.45 48.85 Q-8.45 49.3 -8.8 49.65 L-9.8 50.4 -11.2 50.9 -12.65 51.05 Q-14.1 51.05 -15.2 50.45 -16.3 49.8 -16.9 48.65 -17.5 47.5 -17.5 46.1 -17.5 45.1 -17.15 44.2 -16.85 43.3 -16.2 42.55 -15.6 41.85 -14.7 41.45 L-12.85 41.05 Q-11.85 41.05 -11 41.5 -10.1 41.9 -9.5 42.6 L-8.55 44.1 Q-8.2 44.95 -8.2 45.75 -8.2 46.95 -9.35 46.95 M-14.95 45.2 L-10.8 45.2 Q-10.9 44.3 -11.45 43.75 -12 43.2 -12.85 43.2 -13.7 43.2 -14.25 43.75 -14.8 44.35 -14.95 45.2 M-5.1 46.1 L-4.85 47.35 -4.15 48.3 Q-3.7 48.7 -3.05 48.7 -2.1 48.7 -1.55 47.9 -1.05 47.1 -1.05 46.1 L-1.25 44.8 -1.95 43.8 Q-2.4 43.45 -3.05 43.45 -3.7 43.45 -4.15 43.8 L-4.85 44.8 -5.1 46.1"/>
  </g>
</svg>