<svg xmlns="http://www.w3.org/2000/svg" xmlns:xlink="http://www.w3.org/1999/xlink">
  <defs/>
  <g>
    <path stroke="none" fill="#11141E" d="M-48.2 -64 L34 -64 36.45 -61.65 Q37.1 -61.05 38 -61 38.85 -61.05 39.5 -61.65 L42 -64 48.85 -64 49.45 -63.95 Q59.35 -63.6 62.5 -56.45 64 -53.1 64 -48.2 L64 48.25 Q64 53.1 62.5 56.5 59.15 64 48.25 64 L-40.35 64 -42.7 61.65 Q-43.3 61.05 -44.15 61 -45 61.05 -45.6 61.65 L-47.95 64 -48.2 64 Q-64 64 -64 48.25 L-64 -48.2 Q-64 -64 -48.2 -64 M-58 -48.2 L-58 15.25 Q-58 25 -48.2 25 L-46.4 25 -41 19.6 Q-40.4 19 -39.55 18.95 -38.7 19 -38.1 19.6 L-32.7 25 -28.4 25 -26 22.6 Q-25.4 22 -24.55 21.95 -23.7 22 -23.1 22.6 L-20.7 25 48.25 25 Q58 25 58 15.25 L58 -48.2 Q58 -58 48.25 -58 L43.4 -58 38.9 -53.5 Q38.3 -52.9 37.45 -52.85 36.6 -52.9 36 -53.5 L31.5 -58 25.4 -58 23.9 -56.5 Q23.3 -55.9 22.45 -55.85 21.6 -55.9 21 -56.5 L19.5 -58 -48.2 -58 Q-58 -58 -58 -48.2"/>
    <path stroke="none" fill="#FFFFFF" d="M-58 -48.2 Q-58 -58 -48.2 -58 L19.5 -58 21 -56.5 Q21.6 -55.9 22.45 -55.85 23.3 -55.9 23.9 -56.5 L25.4 -58 31.5 -58 36 -53.5 Q36.6 -52.9 37.45 -52.85 38.3 -52.9 38.9 -53.5 L43.4 -58 48.25 -58 Q58 -58 58 -48.2 L58 15.25 Q58 25 48.25 25 L-20.7 25 -23.1 22.6 Q-23.7 22 -24.55 21.95 -25.4 22 -26 22.6 L-28.4 25 -32.7 25 -38.1 19.6 Q-38.7 19 -39.55 18.95 -40.4 19 -41 19.6 L-46.4 25 -48.2 25 Q-58 25 -58 15.25 L-58 -48.2"/>
    <path stroke="none" fill="#11141E" d="M-16 -29.2 L-16 -11.85 -15.85 -11.25 -15.45 -10.9 -15.4 -10.9 -0.5 -2.2 -0.45 -2.1 0 -2 0.45 -2.1 0.55 -2.2 15.45 -10.9 15.5 -10.9 15.85 -11.2 16 -11.85 16 -29.2 15.9 -29.65 15.8 -29.9 15.5 -30.15 15.45 -30.2 0.55 -38.85 0 -39 -0.55 -38.85 -0.5 -38.85 -15.4 -30.2 -15.45 -30.2 -15.8 -29.8 -15.9 -29.65 -16 -29.2 M-22 -29.2 Q-22 -31.15 -21.05 -32.7 L-21 -32.8 Q-20.05 -34.5 -18.45 -35.4 L-3.55 -44.05 Q-1.9 -45 0 -45 1.9 -45 3.55 -44.05 L18.4 -35.4 18.45 -35.4 Q20.2 -34.4 21.1 -32.65 L21.15 -32.6 Q22 -31.1 22 -29.2 L22 -11.7 22 -11.55 22 -2.85 Q22 -1 21.1 0.7 20.2 2.3 18.5 3.3 L3.6 12 3.65 11.95 Q1.95 13 0 13 -1.95 13 -3.65 11.95 L-3.55 12 -18.45 3.3 Q-20.05 2.35 -21 0.85 L-21.05 0.7 Q-22 -1 -22 -2.85 L-22 -11.55 -22 -11.7 -22 -29.2"/>
  </g>
</svg>